<svg width="334" height="440" viewBox="0 0 334 440" fill="none" xmlns="http://www.w3.org/2000/svg">
<rect x="6.76392" y="35" width="319" height="375" fill="black"/>
<rect x="245.764" y="384" width="57" height="51" fill="black"/>
<rect x="26.7639" y="5" width="57" height="51" fill="black"/>
<path d="M29.2 0C13.074 0 0 17.237 0 38.5V401.5C0 422.763 13.074 440 29.2 440H304.498C320.624 440 333.696 422.763 333.696 401.5V38.5C333.696 17.237 320.624 0 304.498 0H29.2ZM56.032 8.408V8.41H56.047C69.634 8.42 80.489 19.263 80.489 32.852C80.489 38.562 78.486 43.849 75.223 48.025C76.343 47.867 77.455 47.715 78.619 47.715C92.214 47.715 103.077 58.872 103.077 72.467C103.077 86.061 92.214 97.219 78.619 97.219C72.859 97.219 67.539 95.171 63.325 91.797L75.934 121.99H35.817L48.237 92.246C44.117 95.361 39.004 97.219 33.461 97.219C19.867 97.219 8.709 86.059 8.709 72.465C8.709 58.87 19.867 47.713 33.461 47.713C34.52 47.713 35.519 47.897 36.543 48.025C33.328 43.865 31.295 38.516 31.295 32.852C31.295 19.263 42.445 8.418 56.032 8.408ZM154.59 129.004C169.568 129.004 183.237 132.808 195.6 140.416C207.963 147.945 217.87 158.801 225.319 172.986C232.768 187.092 236.493 202.902 236.493 220.416C236.493 236.424 233.56 250.69 227.696 263.211C221.911 275.732 212.798 287.183 200.356 297.564C201.624 300.814 203.01 305.252 204.516 310.879C207.29 321.419 209.945 328.273 212.481 331.443C215.017 334.613 217.909 336.197 221.159 336.197C224.17 336.197 226.745 334.494 228.885 331.086C231.104 327.757 232.293 322.172 232.452 314.326H239.584C239.505 328.591 236.73 339.09 231.262 345.826C225.794 352.562 218.662 355.932 209.866 355.932C201.703 355.932 195.046 352.642 189.895 346.064C184.823 339.566 181.455 327.046 179.791 308.502C175.353 309.612 171.074 310.443 166.953 310.998C162.833 311.553 158.909 311.83 155.183 311.83C140.443 311.83 126.813 308.026 114.291 300.418C101.849 292.731 91.945 281.755 84.575 267.49C77.284 253.146 73.637 236.98 73.637 218.99C73.637 193.472 81.92 171.68 98.483 153.611C113.54 137.207 132.243 129.004 154.59 129.004ZM154.946 138.039C145.119 138.039 136.283 140.812 128.438 146.359C120.672 151.907 114.569 160.585 110.131 172.393C105.773 184.121 103.594 200.091 103.594 220.299C103.594 234.563 104.901 246.806 107.516 257.029C110.131 267.252 114.213 276.959 119.76 286.152C119.602 282.507 119.522 279.576 119.522 277.357C119.522 267.531 122.654 259.447 128.914 253.107C135.254 246.767 143.535 243.597 153.758 243.597C164.06 243.597 172.698 247.045 179.672 253.939C184.902 259.169 189.816 268.243 194.412 281.16C198.692 273.077 201.822 264.321 203.803 254.89C205.784 245.46 206.773 233.65 206.773 219.465C206.773 199.495 204.595 183.725 200.237 172.155C195.878 160.505 189.736 151.907 181.811 146.359C173.886 140.812 164.931 138.039 154.946 138.039ZM153.401 252.869C145.951 252.869 139.849 255.247 135.094 260.002C130.339 264.757 127.964 270.897 127.964 278.426C127.964 285.876 130.894 292.929 136.758 299.586C142.385 302.043 148.29 303.271 154.471 303.271C159.226 303.271 163.702 302.677 167.903 301.488C172.089 300.305 176.091 298.545 179.791 296.258C179.633 281.993 177.77 271.652 174.203 265.232C169.686 256.991 162.752 252.869 153.401 252.869ZM255.559 318.012H295.676L283.065 348.205C287.28 344.831 292.6 342.783 298.36 342.783C311.954 342.783 322.819 353.941 322.819 367.535C322.819 381.13 311.954 392.287 298.359 392.287C297.196 392.287 296.084 392.135 294.963 391.977C298.226 396.153 300.229 401.439 300.229 407.15C300.229 420.739 289.376 431.583 275.789 431.592H275.772C262.184 431.582 251.037 420.739 251.037 407.15C251.037 401.485 253.07 396.137 256.285 391.977C255.262 392.105 254.26 392.289 253.201 392.289C239.607 392.289 228.45 381.13 228.45 367.535C228.45 353.941 239.607 342.783 253.202 342.783C258.744 342.783 263.857 344.641 267.977 347.756L255.559 318.012Z" fill="white"/>
</svg>
