<svg width="334" height="440" viewBox="0 0 334 440" fill="none" xmlns="http://www.w3.org/2000/svg">
<rect x="6.76392" y="35" width="319" height="375" fill="black"/>
<rect x="245.764" y="384" width="57" height="51" fill="black"/>
<rect x="26.7639" y="5" width="57" height="51" fill="black"/>
<path d="M29.2 0C13.074 0 0 17.237 0 38.5V401.5C0 422.763 13.074 440 29.2 440H304.498C320.624 440 333.696 422.763 333.696 401.5V38.5C333.696 17.237 320.624 0 304.498 0H29.2ZM56.032 8.408V8.41H56.047C69.634 8.42 80.489 19.263 80.489 32.852C80.489 38.562 78.486 43.849 75.223 48.025C76.343 47.867 77.455 47.715 78.619 47.715C92.214 47.715 103.077 58.872 103.077 72.467C103.077 86.061 92.214 97.219 78.619 97.219C72.859 97.219 67.539 95.171 63.325 91.797L75.934 121.99H35.817L48.237 92.246C44.117 95.361 39.004 97.219 33.461 97.219C19.867 97.219 8.709 86.059 8.709 72.465C8.709 58.87 19.867 47.713 33.461 47.713C34.52 47.713 35.519 47.897 36.543 48.025C33.328 43.865 31.295 38.516 31.295 32.852C31.295 19.263 42.445 8.418 56.032 8.408ZM155.303 140.535C170.202 140.535 182.089 144.537 190.965 152.541C199.841 160.545 204.28 170.45 204.28 182.258C204.28 190.738 201.862 198.068 197.028 204.25C192.273 210.431 184.03 215.9 172.301 220.654C183.634 223.428 192.471 228.024 198.811 234.444C206.894 242.606 210.936 252.71 210.936 264.756C210.936 278.386 206.102 289.323 196.434 297.564C185.418 307.074 171.073 311.828 153.401 311.828C142.781 311.828 133.629 310.085 125.941 306.598C118.334 303.111 112.628 298.397 108.825 292.453C105.021 286.51 103.119 279.813 103.119 272.363C103.119 266.34 104.584 261.587 107.516 258.1C110.448 254.613 114.135 252.87 118.573 252.87C122.614 252.87 125.862 254.216 128.319 256.91C130.775 259.525 132.004 263.13 132.004 267.727C132.004 270.659 131.37 273.157 130.102 275.217C128.834 277.198 126.616 279.059 123.446 280.803C120.038 282.625 118.334 284.369 118.334 286.033C118.334 288.411 119.524 291.106 121.901 294.117C124.357 297.049 127.922 299.427 132.598 301.25C137.353 302.993 143.338 303.865 150.549 303.865C162.991 303.865 172.184 300.813 178.127 294.711C184.15 288.53 187.16 278.663 187.16 265.111C187.16 250.926 184.585 240.861 179.434 234.918C174.362 228.895 166.794 225.885 156.729 225.885C154.034 225.885 150.667 226.202 146.625 226.835C143.376 227.311 141.038 227.549 139.612 227.549C137.234 227.549 135.372 227.074 134.026 226.123C132.758 225.093 132.123 223.824 132.123 222.318C132.123 220.654 132.718 219.385 133.907 218.514C135.175 217.563 137.195 217.088 139.969 217.088L146.506 217.326L152.213 217.563C162.278 217.563 169.844 214.987 174.916 209.836C179.988 204.685 182.526 196.721 182.526 185.943C182.526 172.709 180.108 163.319 175.274 157.771C170.44 152.145 163.228 149.331 153.639 149.331C144.843 149.331 137.829 150.916 132.598 154.086C127.368 157.256 124.752 160.188 124.752 162.883C124.752 164.626 126.258 166.964 129.27 169.896C133.55 173.859 135.69 177.978 135.69 182.258C135.69 185.507 134.5 188.242 132.123 190.461C129.746 192.68 126.696 193.789 122.971 193.789C119.009 193.789 115.759 192.283 113.223 189.271C110.766 186.261 109.537 182.061 109.537 176.671C109.537 168.271 112.55 160.823 118.573 154.324C127.131 145.131 139.374 140.535 155.303 140.535ZM255.559 318.012H295.676L283.065 348.205C287.28 344.831 292.6 342.783 298.36 342.783C311.954 342.783 322.819 353.941 322.819 367.535C322.819 381.13 311.954 392.287 298.359 392.287C297.196 392.287 296.084 392.135 294.963 391.977C298.226 396.153 300.229 401.439 300.229 407.15C300.229 420.739 289.376 431.583 275.789 431.592H275.772C262.184 431.582 251.037 420.739 251.037 407.15C251.037 401.485 253.07 396.137 256.285 391.977C255.262 392.105 254.26 392.289 253.201 392.289C239.607 392.289 228.45 381.13 228.45 367.535C228.45 353.941 239.607 342.783 253.202 342.783C258.744 342.783 263.857 344.641 267.977 347.756L255.559 318.012Z" fill="white"/>
</svg>
