<svg width="334" height="440" viewBox="0 0 334 440" fill="none" xmlns="http://www.w3.org/2000/svg">
<rect x="6.76392" y="34.1395" width="319" height="376.744" fill="#FF0000"/>
<rect x="245.764" y="384.763" width="57" height="51.2372" fill="#FF0000"/>
<rect x="26.7639" y="4" width="57" height="51.2372" fill="#FF0000"/>
<path d="M29.2 0C13.074 0 0 17.237 0 38.5V401.5C0 422.763 13.074 440 29.2 440H304.498C320.624 440 333.696 422.763 333.696 401.5V38.5C333.696 17.237 320.624 0 304.498 0H29.2ZM56.084 3.717L103.477 61.987L56.084 120.273L8.709 61.986L56.084 3.717ZM156.625 140.533C166.215 140.533 175.09 142.594 183.252 146.715C191.494 150.835 197.676 156.264 201.797 163C205.918 169.657 207.977 176.948 207.977 184.873C207.977 190.341 206.947 195.889 204.887 201.516C202.827 207.142 199.817 212.413 195.854 217.326C189.039 225.806 182.024 233.056 174.813 239.078L143.43 265.468C135.505 272.126 129.72 277.791 126.075 282.467C122.429 287.142 140.419 289.48 180.043 289.48C185.987 289.48 190.226 287.936 192.762 284.846C195.298 281.756 198.191 273.195 201.44 259.168H209.524L205.719 308.5H99.209V302.082L133.801 262.734C153.058 241.813 164.629 228.658 168.512 223.27C174.059 215.582 178.102 208.171 180.637 201.04C183.173 193.828 184.442 187.29 184.442 181.426C184.442 171.678 181.747 164.032 176.358 158.484C170.968 152.858 163.48 150.043 153.891 150.043C143.113 150.043 134.318 152.618 127.502 157.77C120.687 162.92 117.278 168.389 117.278 174.174C117.278 176.155 117.794 177.661 118.825 178.691C119.775 179.721 121.835 180.633 125.005 181.426C133.008 183.328 137.012 188.004 137.012 195.453C137.012 199.495 135.663 202.863 132.969 205.557C130.275 208.172 126.827 209.48 122.627 209.48C117.793 209.48 113.554 207.26 109.909 202.822C106.263 198.305 104.439 192.442 104.439 185.23C104.439 177.147 106.501 169.816 110.621 163.238C114.821 156.581 121.121 151.153 129.521 146.953C137.922 142.673 146.957 140.533 156.625 140.533ZM275.426 316.523L322.819 374.793L275.426 433.08L228.051 374.793L275.426 316.523Z" fill="white"/>
</svg>
