<svg width="334" height="440" viewBox="0 0 334 440" fill="none" xmlns="http://www.w3.org/2000/svg">
<rect x="6.76392" y="33.1396" width="319" height="376.744" fill="#FF0000"/>
<rect x="245.764" y="383.763" width="57" height="51.2372" fill="#FF0000"/>
<rect x="26.7639" y="3" width="57" height="51.2372" fill="#FF0000"/>
<path d="M29.2 0C13.074 0 0 17.237 0 38.5V401.5C0 422.763 13.074 440 29.2 440H304.498C320.624 440 333.696 422.763 333.696 401.5V38.5C333.696 17.237 320.624 0 304.498 0H29.2ZM56.084 3.717H56.086L103.479 61.988L56.086 120.275L8.709 61.986L56.084 3.717ZM114.784 140.654C122.55 142.636 130.948 143.625 139.983 143.625H213.923V149.094C203.065 168.193 194.942 184.359 189.553 197.594C184.164 210.749 180.083 223.349 177.309 235.394C174.535 247.44 172.714 261.468 171.842 277.477C171.05 290.711 170.296 298.912 169.582 302.082C168.869 305.172 167.402 307.551 165.184 309.215C163.044 310.958 160.231 311.83 156.744 311.83C152.782 311.83 149.692 310.484 147.473 307.79C145.254 305.095 144.145 300.853 144.145 295.068C144.145 289.918 145.055 283.5 146.877 275.813C148.7 268.046 152.861 256.476 159.36 241.102C167.998 220.497 175.487 204.29 181.826 192.482L198.231 162.289H133.803C129.048 162.289 125.481 163.953 123.103 167.281C120.806 170.61 118.033 180.556 114.783 197.119H106.225L114.784 140.654ZM275.426 316.524H275.428L322.818 374.794L275.428 433.082L228.051 374.795L275.426 316.524Z" fill="white"/>
</svg>
