<svg width="334" height="440" viewBox="0 0 334 440" fill="none" xmlns="http://www.w3.org/2000/svg">
<rect x="6.76392" y="35.1396" width="319" height="376.744" fill="#FF0000"/>
<rect x="245.764" y="385.763" width="57" height="51.2372" fill="#FF0000"/>
<rect x="26.7639" y="5" width="57" height="51.2372" fill="#FF0000"/>
<path d="M29.2 0C13.074 0 0 17.237 0 38.5V401.502C0 422.765 13.074 440.002 29.2 440.002H304.498C320.624 440.002 333.696 422.765 333.696 401.502V38.5C333.696 17.237 320.624 0 304.498 0H29.2ZM56.084 3.719L103.477 61.989L56.084 120.275L8.709 61.988L56.084 3.718V3.719ZM120.724 140.535C140.774 145.132 157.139 147.43 169.819 147.43C175.762 147.43 181.35 146.875 186.58 145.766C191.81 144.576 195.733 143.23 198.348 141.725C199.695 141.011 200.567 140.655 200.963 140.655C201.756 140.655 202.153 141.249 202.153 142.437C202.153 145.211 200.369 148.896 196.803 153.492C193.237 158.009 188.363 161.616 182.182 164.311C176.08 167.005 169.028 168.351 161.024 168.351C151.752 168.351 140.696 166.925 127.858 164.072L123.934 209.482C129.957 206.471 135.702 204.211 141.17 202.705C146.638 201.199 151.83 200.447 156.743 200.447C172.275 200.447 185.312 205.598 195.852 215.9C206.472 226.203 211.782 238.922 211.782 254.059C211.782 270.859 206.154 284.688 194.901 295.545C183.648 306.402 169.067 311.83 151.157 311.83C137.447 311.83 126.273 307.948 117.635 300.182C109.076 292.336 104.797 283.024 104.797 272.246C104.797 265.748 106.144 260.755 108.838 257.268C111.612 253.701 115.138 251.92 119.418 251.92C123.618 251.92 127.026 253.346 129.641 256.2C132.335 258.973 133.682 262.618 133.682 267.135C133.682 270.542 133.008 273.198 131.66 275.1C130.392 277.002 128.017 278.586 124.53 279.854C121.043 281.201 119.3 282.747 119.3 284.49C119.3 287.026 120.488 289.839 122.866 292.93C125.243 295.941 128.808 298.437 133.563 300.418C138.397 302.32 143.905 303.271 150.086 303.271C162.211 303.271 171.444 299.507 177.784 291.979C184.203 284.449 187.412 272.207 187.412 255.248C187.412 239.795 184.045 228.501 177.309 221.369C170.573 214.237 161.973 210.669 151.512 210.669C146.757 210.669 142.003 211.542 137.248 213.285C132.493 215.029 127.738 217.644 122.983 221.131C122.428 226.678 121.438 230.403 120.013 232.305C118.586 234.127 116.763 235.039 114.543 235.039C112.958 235.039 111.692 234.484 110.741 233.375C109.79 232.265 109.313 230.719 109.313 228.738C109.313 225.251 110.939 221.804 114.188 218.396C115.138 217.366 115.811 216.456 116.208 215.664L118.942 180.714C120.052 166.926 120.645 153.532 120.724 140.535ZM275.424 316.523H275.426L322.819 374.795L275.426 433.082L228.051 374.795L275.424 316.523Z" fill="white"/>
</svg>
