<svg width="334" height="440" viewBox="0 0 334 440" fill="none" xmlns="http://www.w3.org/2000/svg">
<rect x="6.76392" y="33.1396" width="319" height="376.744" fill="#FF0000"/>
<rect x="216.764" y="384" width="103" height="42" fill="#FF0000"/>
<rect x="6.76392" y="15" width="105" height="51" fill="#FF0000"/>
<path d="M29.2 0C13.074 0 0 17.237 0 38.5V401.5C0 422.763 13.074 440 29.2 440H304.498C320.624 440 333.696 422.763 333.696 401.5V38.5C333.696 17.237 320.624 0 304.498 0H29.2ZM86.414 16.174H86.416C100.028 15.856 112.918 26.029 113.489 44.217C114.465 75.307 65.751 97.162 61.179 114.232C56.181 95.583 9.763 76.659 8.727 44.217C7.732 13.062 46.13 6.307 61.178 32.369C67.439 21.523 77.101 16.392 86.414 16.174ZM180.518 143.625H188.244V256.078H215.584V266.182H188.244V291.502C188.244 293.721 189.116 295.504 190.86 296.852C193.396 298.674 196.328 299.586 199.657 299.586H209.76V308.5H143.785V299.586H156.03C160.15 299.586 163.163 298.714 165.065 296.971C167.046 295.227 168.035 292.691 168.035 289.363V266.182H100.755V254.772L180.518 143.625ZM168.034 175.84L110.62 256.078H168.034V175.84ZM270.494 325.77C275.066 342.84 323.781 364.693 322.804 395.783C322.234 413.971 309.344 424.143 295.732 423.826H295.73C286.417 423.608 276.755 418.476 270.494 407.631C255.446 433.692 217.05 426.938 218.044 395.783C219.081 363.341 265.496 344.419 270.494 325.77Z" fill="white"/>
</svg>
