<svg width="334" height="440" viewBox="0 0 334 440" fill="none" xmlns="http://www.w3.org/2000/svg">
<rect x="7.76392" y="31.1396" width="319" height="376.744" fill="#FF0000"/>
<rect x="217.764" y="382" width="103" height="42" fill="#FF0000"/>
<rect x="7.76392" y="13" width="105" height="51" fill="#FF0000"/>
<path d="M29.2 0C13.074 0 0 17.237 0 38.5V401.502C0 422.765 13.074 440 29.2 440H304.498C320.624 440 333.696 422.765 333.696 401.502V38.5C333.696 17.237 320.624 0 304.498 0H29.2ZM86.414 16.174C100.027 15.855 112.918 26.03 113.489 44.219C114.465 75.309 65.751 97.162 61.179 114.232C56.181 95.583 9.763 76.661 8.727 44.219C7.732 13.063 46.13 6.309 61.178 32.371C67.44 21.525 77.103 16.393 86.416 16.176L86.414 16.174ZM156.387 140.535C172.791 140.535 186.461 147.352 197.397 160.982C208.333 174.613 213.801 193.75 213.801 218.396C213.801 238.842 210.751 256.118 204.649 270.225C198.626 284.251 190.622 294.713 180.637 301.607C170.652 308.423 159.398 311.83 146.877 311.83C134.752 311.83 125.243 309.175 118.348 303.865C111.533 298.476 108.125 292.059 108.125 284.609C108.125 279.696 109.512 275.732 112.285 272.721C115.138 269.709 118.703 268.205 122.983 268.205C126.866 268.205 130.156 269.512 132.85 272.127C135.544 274.742 136.89 277.872 136.89 281.517C136.89 284.133 135.664 287.025 133.207 290.195C131.702 292.177 130.947 293.88 130.947 295.307C130.947 297.526 132.257 299.467 134.871 301.131C137.487 302.716 141.686 303.51 147.471 303.51C155.713 303.51 162.964 301.252 169.225 296.734C175.485 292.138 180.557 284.649 184.44 274.268C188.323 263.807 190.266 250.293 190.266 233.73L190.028 223.152C184.876 230.919 178.854 236.782 171.959 240.744C165.065 244.627 157.339 246.57 148.779 246.57C136.892 246.57 126.074 242.409 116.327 234.088C106.658 225.767 101.825 213.522 101.825 197.355C101.825 181.585 107.173 168.193 117.871 157.178C128.649 146.083 141.488 140.535 156.387 140.535ZM156.743 149.094C147.867 149.094 140.577 152.818 134.871 160.268C129.166 167.638 126.313 178.773 126.313 193.672C126.313 207.302 129.166 217.485 134.871 224.221C140.577 230.877 148.026 234.207 157.219 234.207C166.333 234.207 173.979 230.6 180.16 223.389C186.421 216.177 189.553 206.073 189.553 193.076C189.553 179.604 186.303 168.907 179.805 160.982C173.385 153.058 165.698 149.094 156.743 149.094ZM270.493 325.77C275.065 342.84 323.78 364.695 322.803 395.785C322.233 413.973 309.343 424.145 295.731 423.828H295.729C286.416 423.61 276.754 418.478 270.493 407.633C255.445 433.693 217.049 426.94 218.043 395.785C219.08 363.343 265.495 344.419 270.493 325.77Z" fill="white"/>
</svg>
