<svg width="334" height="440" viewBox="0 0 334 440" fill="none" xmlns="http://www.w3.org/2000/svg">
<rect x="7.76392" y="32.1396" width="319" height="376.744" fill="#FF0000"/>
<rect x="217.764" y="383" width="103" height="42" fill="#FF0000"/>
<rect x="7.76392" y="14" width="105" height="51" fill="#FF0000"/>
<path d="M29.2 0C13.074 0 0 17.237 0 38.5V401.5C0 422.763 13.074 440 29.2 440H304.498C320.624 440 333.696 422.763 333.696 401.5V38.5C333.696 17.237 320.624 0 304.498 0H29.2ZM86.414 16.174H86.416C100.028 15.856 112.918 26.029 113.489 44.217C114.465 75.307 65.751 97.162 61.179 114.232C56.181 95.583 9.765 76.659 8.729 44.217C7.734 13.062 46.13 6.307 61.179 32.369C67.439 21.523 77.101 16.392 86.414 16.174ZM223.549 140.535C239.002 140.535 251.882 146.558 262.184 158.604C274.943 173.423 281.321 195.89 281.321 226.004C281.321 253.978 275.775 275.296 264.68 289.957C253.585 304.539 240.191 311.83 224.5 311.83C209.364 311.83 196.724 305.688 186.58 293.404C173.9 277.951 167.56 255.642 167.56 226.479C167.56 198.742 173.544 176.672 185.51 160.268C195.1 147.112 207.779 140.535 223.55 140.535H223.549ZM97.188 143.625H102.657V291.979C102.657 294.197 103.449 295.901 105.034 297.089C107.332 298.754 110.146 299.586 113.474 299.586H136.535V308.502H51.067V299.586H70.799C74.92 299.586 77.97 298.634 79.952 296.732C81.932 294.752 82.924 292.136 82.924 288.887V176.79C82.924 174.492 82.012 172.55 80.19 170.966C78.367 169.381 76.029 168.586 73.176 168.586H46.787V160.386C59.15 158.801 69.175 156.7 76.862 154.085C84.549 151.391 91.323 147.903 97.188 143.624V143.625ZM224.262 149.094C213.802 149.094 205.64 154.125 199.776 164.189C193.911 174.175 190.979 194.938 190.979 226.479C190.979 257.306 193.991 277.872 200.014 288.174C206.116 298.476 214.277 303.627 224.5 303.627C234.803 303.627 242.728 298.873 248.276 289.363C254.853 278.031 258.141 257.346 258.141 227.311C258.141 196.245 255.051 175.444 248.869 164.904C242.689 154.364 234.485 149.094 224.262 149.094ZM270.492 325.77C275.065 342.84 323.782 364.693 322.805 395.783C322.235 413.972 309.341 424.147 295.729 423.828L295.731 423.826C286.417 423.609 276.756 418.477 270.494 407.631C255.446 433.692 217.049 426.938 218.044 395.783C219.08 363.341 265.495 344.419 270.493 325.77H270.492Z" fill="white"/>
</svg>
