<svg width="334" height="440" viewBox="0 0 334 440" fill="none" xmlns="http://www.w3.org/2000/svg">
<rect x="6.76416" y="32.1395" width="319" height="376.744" fill="black"/>
<rect x="245.764" y="382.763" width="57" height="51.2372" fill="black"/>
<rect x="26.7642" y="2" width="57" height="51.2372" fill="black"/>
<path d="M29.2 0C13.074 0 0 17.237 0 38.5V401.5C0 422.763 13.074 440 29.2 440H304.498C320.624 440 333.696 422.763 333.696 401.5V38.5C333.696 17.237 320.624 0 304.498 0H29.2ZM55.854 8.045C55.854 8.045 102.192 41.885 103.125 71.115C103.901 95.402 78.099 103.235 62.348 89.699L75.981 122.352H35.866L49.479 89.719C33.944 103.599 9.473 95.066 8.721 71.113C7.841 43.103 55.854 8.047 55.854 8.047V8.045ZM155.541 140.535C165.131 140.535 174.006 142.595 182.168 146.717C190.41 150.837 196.592 156.266 200.713 163.002C204.834 169.659 206.895 176.948 206.895 184.873C206.895 190.341 205.864 195.889 203.803 201.516C201.743 207.142 198.733 212.413 194.77 217.326C187.954 225.806 180.94 233.057 173.729 239.08L142.346 265.469C134.421 272.126 128.636 277.791 124.991 282.467V282.469C121.345 287.144 139.335 289.48 178.959 289.48C184.903 289.48 189.142 287.936 191.679 284.846C194.214 281.755 197.107 273.195 200.356 259.168H208.44L204.634 308.5H98.124V302.082L132.716 262.734C151.973 241.813 163.544 228.658 167.427 223.27C172.974 215.582 177.017 208.173 179.552 201.041C182.088 193.829 183.357 187.291 183.357 181.426C183.357 171.678 180.662 164.032 175.273 158.484C169.883 152.858 162.395 150.044 152.806 150.044C142.028 150.044 133.233 152.62 126.417 157.771C119.602 162.923 116.193 168.391 116.193 174.176C116.193 176.157 116.709 177.663 117.74 178.693C118.69 179.723 120.75 180.633 123.92 181.426C131.923 183.328 135.927 188.004 135.927 195.453C135.927 199.495 134.579 202.863 131.884 205.557C129.19 208.172 125.742 209.48 121.542 209.48C116.708 209.48 112.469 207.262 108.824 202.824C105.178 198.307 103.354 192.442 103.354 185.23C103.354 177.147 105.415 169.816 109.536 163.238C113.736 156.581 120.036 151.153 128.436 146.953C136.837 142.673 145.873 140.535 155.541 140.535ZM255.544 317.648H295.66L282.027 350.301C297.777 336.765 323.578 344.6 322.802 368.887C321.869 398.117 275.531 431.955 275.531 431.955C275.531 431.955 227.521 396.896 228.4 368.887C229.151 344.934 253.622 336.402 269.158 350.283L255.544 317.648Z" fill="white"/>
</svg>
