<svg width="334" height="440" viewBox="0 0 334 440" fill="none" xmlns="http://www.w3.org/2000/svg">
<rect x="6.76416" y="32.1396" width="319" height="376.744" fill="black"/>
<rect x="245.764" y="382.763" width="57" height="51.2372" fill="black"/>
<rect x="26.7642" y="2" width="57" height="51.2372" fill="black"/>
<path d="M29.2 0C13.074 0 0 17.237 0 38.5V401.5C0 422.763 13.074 440 29.2 440H304.498C320.624 440 333.696 422.763 333.696 401.5V38.5C333.696 17.237 320.624 0 304.498 0H29.2ZM55.854 8.047C55.854 8.047 102.19 41.885 103.124 71.115C103.899 95.402 78.099 103.235 62.348 89.699L75.981 122.352H35.866L49.479 89.719C33.944 103.599 9.473 95.066 8.721 71.113C7.841 43.103 55.854 8.047 55.854 8.047ZM222.464 140.535C237.918 140.535 250.797 146.558 261.099 158.604C273.858 173.423 280.238 195.89 280.238 226.004C280.238 253.978 274.69 275.296 263.595 289.957C252.5 304.539 239.106 311.83 223.415 311.83C208.279 311.83 195.639 305.688 185.495 293.404C172.815 277.951 166.475 255.642 166.475 226.479C166.475 198.742 172.459 176.672 184.425 160.268C194.015 147.112 206.693 140.535 222.464 140.535ZM96.104 143.625H101.572V291.979C101.572 294.197 102.365 295.901 103.951 297.089C106.249 298.754 109.061 299.586 112.39 299.586H135.45V308.502H49.984V299.586H69.716C73.837 299.586 76.889 298.634 78.87 296.732C80.852 294.752 81.841 292.136 81.841 288.887V176.79C81.841 174.492 80.93 172.55 79.107 170.966C77.284 169.381 74.946 168.586 72.093 168.586H45.704V160.386C58.067 158.801 68.092 156.7 75.779 154.085C83.466 151.391 90.242 147.903 96.107 143.624L96.104 143.625ZM223.179 149.094C212.719 149.094 204.555 154.125 198.691 164.189C192.826 174.175 189.894 194.938 189.894 226.479C189.894 257.306 192.906 277.872 198.929 288.174C205.031 298.476 213.192 303.627 223.415 303.627C233.718 303.627 241.643 298.873 247.191 289.363C253.768 278.031 257.056 257.346 257.056 227.311C257.056 196.245 253.966 175.444 247.784 164.904C241.604 154.364 233.402 149.094 223.179 149.094ZM255.542 317.648H295.658L282.025 350.301C297.775 336.765 323.576 344.6 322.8 368.887C321.867 398.117 275.529 431.955 275.529 431.955C275.529 431.955 227.519 396.896 228.398 368.887C229.149 344.934 253.62 336.402 269.156 350.283L255.542 317.648Z" fill="white"/>
</svg>
