<svg width="334" height="440" viewBox="0 0 334 440" fill="none" xmlns="http://www.w3.org/2000/svg">
<rect x="6.76392" y="35" width="319" height="375" fill="black"/>
<rect x="245.764" y="384" width="57" height="51" fill="black"/>
<rect x="26.7639" y="5" width="57" height="51" fill="black"/>
<path d="M29.2 0C13.074 0 0 17.237 0 38.5V401.5C0 422.763 13.074 440 29.2 440H304.498C320.624 440 333.696 422.763 333.696 401.5V38.5C333.696 17.237 320.624 0 304.498 0H29.2ZM56.032 8.408V8.41H56.047C69.634 8.42 80.489 19.263 80.489 32.852C80.489 38.562 78.486 43.849 75.223 48.025C76.343 47.867 77.455 47.715 78.619 47.715C92.214 47.715 103.077 58.872 103.077 72.467C103.077 86.061 92.214 97.219 78.619 97.219C72.859 97.219 67.539 95.171 63.325 91.797L75.934 121.99H35.817L48.237 92.246C44.117 95.361 39.004 97.219 33.461 97.219C19.867 97.219 8.709 86.059 8.709 72.465C8.709 58.87 19.867 47.713 33.461 47.713C34.52 47.713 35.519 47.897 36.543 48.025C33.328 43.865 31.295 38.516 31.295 32.852C31.295 19.263 42.445 8.418 56.032 8.408ZM222.464 140.535C237.918 140.535 250.797 146.558 261.099 158.604C273.858 173.423 280.236 195.89 280.236 226.004C280.236 253.978 274.69 275.296 263.595 289.957C252.5 304.539 239.106 311.83 223.415 311.83C208.279 311.83 195.639 305.688 185.495 293.404C172.815 277.951 166.475 255.642 166.475 226.479C166.475 198.742 172.459 176.672 184.425 160.268C194.015 147.112 206.693 140.535 222.464 140.535ZM96.103 143.625H101.572V291.979C101.572 294.197 102.364 295.901 103.949 297.089C106.247 298.754 109.062 299.586 112.389 299.586H135.45V308.502H49.984V299.586H69.716C73.837 299.586 76.887 298.634 78.869 296.732C80.849 294.752 81.841 292.136 81.841 288.887V176.79C81.841 174.492 80.93 172.55 79.107 170.966C77.284 169.381 74.947 168.586 72.093 168.586H45.704V160.386C58.067 158.801 68.092 156.7 75.779 154.085C83.466 151.391 90.241 147.903 96.105 143.624L96.103 143.625ZM223.177 149.094C212.717 149.094 204.555 154.125 198.691 164.189C192.826 174.175 189.894 194.938 189.894 226.479C189.894 257.306 192.906 277.872 198.929 288.174C205.031 298.476 213.192 303.627 223.415 303.627C233.718 303.627 241.643 298.873 247.191 289.363C253.768 278.031 257.056 257.346 257.056 227.311C257.056 196.245 253.966 175.444 247.784 164.904C241.604 154.364 233.4 149.094 223.177 149.094ZM255.557 318.012H295.675L283.064 348.205C287.279 344.831 292.599 342.783 298.359 342.783C311.953 342.783 322.818 353.941 322.818 367.535C322.818 381.13 311.953 392.287 298.358 392.287C297.195 392.287 296.083 392.135 294.962 391.977C298.225 396.153 300.228 401.439 300.228 407.15C300.228 420.739 289.375 431.583 275.788 431.592H275.771C262.183 431.582 251.036 420.739 251.036 407.15C251.036 401.485 253.069 396.137 256.284 391.977C255.261 392.105 254.259 392.289 253.2 392.289C239.606 392.289 228.449 381.13 228.449 367.535C228.449 353.941 239.606 342.783 253.201 342.783C258.743 342.783 263.856 344.641 267.976 347.756L255.558 318.012H255.557Z" fill="white"/>
</svg>
