<svg width="334" height="440" viewBox="0 0 334 440" fill="none" xmlns="http://www.w3.org/2000/svg">
<rect x="6.76392" y="32" width="319" height="375" fill="black"/>
<rect x="245.764" y="381" width="57" height="51" fill="black"/>
<rect x="26.7639" y="2" width="57" height="51" fill="black"/>
<path d="M29.2 0C13.074 0 0 17.237 0 38.5V401.5C0 422.763 13.074 440 29.2 440H304.498C320.624 440 333.696 422.763 333.696 401.5V38.5C333.696 17.237 320.624 0 304.498 0H29.2ZM56.032 8.408V8.41H56.047C69.634 8.42 80.489 19.263 80.489 32.852C80.489 38.562 78.486 43.849 75.223 48.025C76.343 47.867 77.455 47.715 78.619 47.715C92.214 47.715 103.077 58.872 103.077 72.467C103.077 86.061 92.214 97.219 78.619 97.219C72.859 97.219 67.539 95.171 63.325 91.797L75.934 121.99H35.817L48.237 92.246C44.117 95.361 39.004 97.219 33.461 97.219C19.867 97.219 8.709 86.059 8.709 72.465C8.709 58.87 19.867 47.713 33.461 47.713C34.52 47.713 35.519 47.897 36.543 48.025C33.328 43.865 31.295 38.516 31.295 32.852C31.295 19.263 42.445 8.418 56.032 8.408ZM179.434 143.625H187.16V256.078H214.502V266.182H187.16V291.502C187.16 293.721 188.032 295.502 189.776 296.85C192.312 298.672 195.244 299.584 198.573 299.584H208.676V308.5H142.704V299.584H154.947C159.067 299.584 162.08 298.712 163.982 296.969C165.963 295.225 166.954 292.689 166.954 289.361V266.181H99.671V254.77L179.434 143.625ZM166.954 175.838L109.537 256.078H166.953V175.838H166.954ZM255.559 318.012H295.676L283.065 348.205C287.28 344.831 292.6 342.783 298.36 342.783C311.954 342.783 322.819 353.941 322.819 367.535C322.819 381.13 311.954 392.287 298.359 392.287C297.196 392.287 296.084 392.135 294.963 391.977C298.226 396.153 300.229 401.439 300.229 407.15C300.229 420.739 289.376 431.583 275.789 431.592H275.772C262.184 431.582 251.037 420.739 251.037 407.15C251.037 401.485 253.07 396.137 256.285 391.977C255.262 392.105 254.26 392.289 253.201 392.289C239.607 392.289 228.45 381.13 228.45 367.535C228.45 353.941 239.607 342.783 253.202 342.783C258.744 342.783 263.857 344.641 267.977 347.756L255.559 318.012Z" fill="white"/>
</svg>
