<svg width="334" height="440" viewBox="0 0 334 440" fill="none" xmlns="http://www.w3.org/2000/svg">
<rect x="6.76392" y="35" width="319" height="375" fill="black"/>
<rect x="245.764" y="384" width="57" height="51" fill="black"/>
<rect x="26.7639" y="5" width="57" height="51" fill="black"/>
<path d="M29.2 0C13.074 0 0 17.237 0 38.5V401.5C0 422.763 13.074 440 29.2 440H304.498C320.624 440 333.696 422.763 333.696 401.5V38.5C333.696 17.237 320.624 0 304.498 0H29.2ZM56.032 8.408V8.41H56.047C69.634 8.42 80.489 19.263 80.489 32.852C80.489 38.562 78.486 43.849 75.223 48.025C76.343 47.867 77.455 47.715 78.619 47.715C92.214 47.715 103.077 58.872 103.077 72.467C103.077 86.061 92.214 97.219 78.619 97.219C72.859 97.219 67.539 95.171 63.325 91.797L75.934 121.99H35.817L48.237 92.246C44.117 95.361 39.004 97.219 33.461 97.219C19.867 97.219 8.709 86.059 8.709 72.465C8.709 58.87 19.867 47.713 33.461 47.713C34.52 47.713 35.519 47.897 36.543 48.025C33.328 43.865 31.295 38.516 31.295 32.852C31.295 19.263 42.445 8.418 56.032 8.408ZM158.394 140.533C168.3 140.533 176.898 142.237 184.189 145.645C191.559 149.052 197.147 153.688 200.951 159.553C204.834 165.417 206.775 171.559 206.775 177.979C206.775 192.877 197.383 205.279 178.601 215.186C191.281 219.782 200.435 225.805 206.061 233.254C211.688 240.624 214.501 249.539 214.501 260C214.501 272.759 210.42 283.895 202.257 293.404C191.717 305.688 176.699 311.828 157.204 311.828C140.008 311.828 126.416 307.708 116.431 299.467C106.446 291.146 101.454 280.804 101.454 268.441C101.454 259.169 104.307 251.086 110.013 244.191C115.798 237.218 125.743 231.313 139.849 226.479C119.007 217.524 108.585 203.695 108.585 184.992C108.585 172.867 113.261 162.446 122.613 153.729C132.043 144.932 143.971 140.533 158.393 140.533H158.394ZM157.562 148.736C147.18 148.736 139.097 151.272 133.312 156.344C127.527 161.336 124.634 167.874 124.634 175.957C124.634 183.961 127.13 190.341 132.122 195.096C137.194 199.851 149.637 205.518 169.449 212.096C177.769 207.341 183.357 202.665 186.21 198.068C189.063 193.393 190.49 187.29 190.49 179.762C190.49 169.856 187.675 162.209 182.048 156.82C176.422 151.431 168.26 148.736 157.562 148.736ZM148.765 229.806C137.512 234.562 129.705 239.912 125.347 245.856C120.988 251.799 118.81 259.089 118.81 267.726C118.81 278.98 122.098 287.737 128.675 293.998C135.332 300.179 144.882 303.27 157.324 303.27C170.479 303.27 180.703 300.18 187.994 293.998C195.284 287.738 198.929 279.496 198.929 269.273C198.929 260.001 195.759 252.987 189.419 248.233C183.159 243.478 169.607 237.335 148.765 229.807V229.806ZM255.558 318.012H295.675L283.064 348.205C287.279 344.831 292.599 342.783 298.359 342.783C311.953 342.783 322.818 353.941 322.818 367.535C322.818 381.13 311.953 392.287 298.358 392.287C297.195 392.287 296.083 392.135 294.962 391.977C298.225 396.153 300.228 401.44 300.228 407.15C300.228 420.739 289.375 431.583 275.788 431.592H275.771C262.183 431.582 251.036 420.739 251.036 407.15C251.036 401.486 253.069 396.137 256.284 391.977C255.261 392.105 254.259 392.289 253.2 392.289C239.606 392.289 228.449 381.13 228.449 367.535C228.449 353.941 239.606 342.783 253.201 342.783C258.743 342.783 263.856 344.641 267.976 347.756L255.558 318.012Z" fill="white"/>
</svg>
