<svg width="334" height="440" viewBox="0 0 334 440" fill="none" xmlns="http://www.w3.org/2000/svg">
<rect x="6.76392" y="34" width="319" height="375" fill="black"/>
<rect x="245.764" y="383" width="57" height="51" fill="black"/>
<rect x="26.7639" y="4" width="57" height="51" fill="black"/>
<path d="M29.2 0C13.074 0 0 17.237 0 38.5V401.5C0 422.763 13.074 440 29.2 440H304.498C320.624 440 333.696 422.763 333.696 401.5V38.5C333.696 17.237 320.624 0 304.498 0H29.2ZM56.032 8.408V8.41H56.047C69.634 8.42 80.489 19.263 80.489 32.852C80.489 38.562 78.486 43.849 75.223 48.025C76.343 47.867 77.455 47.715 78.619 47.715C92.214 47.715 103.077 58.872 103.077 72.467C103.077 86.061 92.214 97.219 78.619 97.219C72.859 97.219 67.539 95.171 63.325 91.797L75.934 121.99H35.817L48.237 92.246C44.117 95.361 39.004 97.219 33.461 97.219C19.867 97.219 8.709 86.059 8.709 72.465C8.709 58.87 19.867 47.713 33.461 47.713C34.52 47.713 35.519 47.897 36.543 48.025C33.328 43.865 31.295 38.516 31.295 32.852C31.295 19.263 42.445 8.418 56.032 8.408ZM168.498 140.535C180.068 140.535 189.895 143.705 197.978 150.045C204.715 155.196 208.082 161.376 208.082 168.588C208.082 173.422 206.576 177.384 203.565 180.475C200.633 183.565 197.028 185.111 192.748 185.111C188.786 185.111 185.378 183.803 182.526 181.188C179.752 178.572 178.366 175.482 178.366 171.916C178.366 169.539 179.316 166.846 181.217 163.834C182.961 161.06 183.832 158.88 183.832 157.294C183.832 155.076 182.763 153.253 180.623 151.826C177.77 150.003 173.848 149.094 168.856 149.094C161.169 149.094 154.155 151.51 147.815 156.344C141.475 161.178 136.087 169.499 131.649 181.307C127.29 193.035 125.109 206.232 125.109 220.893C125.109 223.033 125.229 226.24 125.467 230.52C131.648 222.278 138.146 216.375 144.961 212.809C151.777 209.242 159.265 207.459 167.428 207.459C180.583 207.459 191.599 211.938 200.475 220.893C209.43 229.768 213.907 241.02 213.907 254.65C213.907 271.055 208.637 284.686 198.098 295.543C187.558 306.4 174.521 311.828 158.988 311.828C148.052 311.828 138.305 308.935 129.746 303.15C121.188 297.286 114.173 288.173 108.706 275.81C103.316 263.448 100.623 249.025 100.623 232.541C100.623 214.711 103.951 198.543 110.608 184.041C117.265 169.539 125.743 158.682 136.045 151.471C146.427 144.18 157.245 140.535 168.498 140.535ZM160.891 219.109C150.985 219.109 142.861 222.714 136.521 229.926C130.261 237.058 127.131 247.122 127.131 260.119C127.131 274.225 130.181 285.004 136.284 292.453C142.386 299.903 150.152 303.627 159.582 303.627C168.934 303.627 176.462 300.1 182.168 293.047C187.874 285.994 190.727 275.455 190.727 261.427C190.727 246.529 188.072 235.751 182.762 229.094C177.532 222.437 170.242 219.109 160.891 219.109ZM255.559 318.012H295.676L283.065 348.205C287.28 344.831 292.6 342.783 298.36 342.783C311.954 342.783 322.819 353.941 322.819 367.535C322.819 381.13 311.954 392.287 298.359 392.287C297.196 392.287 296.084 392.135 294.963 391.977C298.226 396.153 300.229 401.439 300.229 407.15C300.229 420.739 289.376 431.583 275.789 431.592H275.772C262.184 431.582 251.037 420.739 251.037 407.15C251.037 401.485 253.07 396.137 256.285 391.977C255.262 392.105 254.26 392.289 253.201 392.289C239.607 392.289 228.45 381.13 228.45 367.535C228.45 353.941 239.607 342.783 253.202 342.783C258.744 342.783 263.857 344.641 267.977 347.756L255.559 318.012Z" fill="white"/>
</svg>
