<svg width="334" height="440" viewBox="0 0 334 440" fill="none" xmlns="http://www.w3.org/2000/svg">
<rect x="6.76392" y="36" width="319" height="375" fill="black"/>
<rect x="245.764" y="385" width="57" height="51" fill="black"/>
<rect x="26.7639" y="6" width="57" height="51" fill="black"/>
<path d="M29.2 0C13.074 0 0 17.237 0 38.5V401.5C0 422.763 13.074 440 29.2 440H304.498C320.624 440 333.696 422.763 333.696 401.5V38.5C333.696 17.237 320.624 0 304.498 0H29.2ZM56.032 8.408V8.41H56.047C69.634 8.42 80.489 19.263 80.489 32.852C80.489 38.562 78.486 43.849 75.223 48.025C76.343 47.867 77.455 47.715 78.619 47.715C92.214 47.715 103.077 58.872 103.077 72.467C103.077 86.061 92.214 97.219 78.619 97.219C72.859 97.219 67.539 95.171 63.325 91.797L75.934 121.99H35.817L48.237 92.246C44.117 95.361 39.004 97.219 33.461 97.219C19.867 97.219 8.709 86.059 8.709 72.465C8.709 58.87 19.867 47.713 33.461 47.713C34.52 47.713 35.519 47.897 36.543 48.025C33.328 43.865 31.295 38.516 31.295 32.852C31.295 19.263 42.445 8.418 56.032 8.408ZM119.642 140.535C139.692 145.132 156.057 147.43 168.737 147.43C174.68 147.43 180.268 146.873 185.498 145.764C190.728 144.574 194.651 143.228 197.266 141.723C198.613 141.009 199.485 140.653 199.881 140.653C200.674 140.653 201.071 141.247 201.071 142.436C201.071 145.209 199.287 148.896 195.721 153.492C192.155 158.009 187.281 161.614 181.1 164.309C174.998 167.003 167.944 168.349 159.94 168.349C150.668 168.349 139.612 166.923 126.774 164.07L122.852 209.48C128.875 206.47 134.62 204.21 140.088 202.705C145.556 201.199 150.748 200.445 155.66 200.445C171.193 200.445 184.23 205.596 194.77 215.898C205.39 226.201 210.698 238.92 210.698 254.057C210.698 270.857 205.072 284.686 193.818 295.543C182.565 306.4 167.983 311.828 150.073 311.828C136.363 311.828 125.189 307.946 116.551 300.18C107.992 292.334 103.713 283.022 103.713 272.244C103.713 265.746 105.06 260.754 107.754 257.268C110.528 253.701 114.054 251.918 118.334 251.918C122.534 251.918 125.942 253.344 128.557 256.198C131.251 258.971 132.6 262.616 132.6 267.133C132.6 270.54 131.926 273.196 130.578 275.098C129.311 277 126.933 278.584 123.446 279.852C119.959 281.199 118.216 282.745 118.216 284.488C118.216 287.024 119.404 289.838 121.782 292.928C124.159 295.939 127.726 298.437 132.481 300.418C137.315 302.32 142.823 303.27 149.004 303.27C161.129 303.27 170.362 299.505 176.701 291.977C183.121 284.448 186.331 272.205 186.331 255.247C186.331 239.793 182.961 228.5 176.225 221.367C169.489 214.235 160.891 210.668 150.43 210.668C145.675 210.668 140.921 211.54 136.166 213.283C131.411 215.027 126.656 217.642 121.901 221.129C121.346 226.676 120.356 230.401 118.93 232.303C117.504 234.125 115.68 235.037 113.461 235.037C111.876 235.037 110.608 234.483 109.657 233.373C108.706 232.263 108.231 230.719 108.231 228.738C108.231 225.251 109.855 221.802 113.104 218.395C114.054 217.365 114.729 216.455 115.125 215.662L117.86 180.712C118.97 166.924 119.563 153.532 119.642 140.535ZM255.559 318.012H295.676L283.065 348.205C287.28 344.831 292.6 342.783 298.36 342.783C311.954 342.783 322.819 353.94 322.819 367.535C322.819 381.13 311.954 392.287 298.359 392.287C297.196 392.287 296.084 392.135 294.963 391.977C298.226 396.153 300.229 401.439 300.229 407.15C300.229 420.739 289.376 431.583 275.789 431.592H275.772C262.184 431.582 251.037 420.739 251.037 407.15C251.037 401.485 253.07 396.137 256.285 391.977C255.262 392.105 254.26 392.289 253.201 392.289C239.607 392.289 228.45 381.13 228.45 367.535C228.45 353.941 239.607 342.783 253.202 342.783C258.744 342.783 263.857 344.641 267.977 347.756L255.559 318.012Z" fill="white"/>
</svg>
