<svg width="334" height="440" viewBox="0 0 334 440" fill="none" xmlns="http://www.w3.org/2000/svg">
<rect x="6.76392" y="35" width="319" height="375" fill="black"/>
<rect x="245.764" y="384" width="57" height="51" fill="black"/>
<rect x="26.7639" y="5" width="57" height="51" fill="black"/>
<path d="M29.2 0C13.074 0 0 17.237 0 38.5V401.498C0 422.761 13.074 439.998 29.2 439.998H304.498C320.624 439.998 333.696 422.761 333.696 401.498V38.5C333.696 17.237 320.624 0 304.498 0H29.2ZM56.032 8.408H56.047C69.634 8.418 80.489 19.263 80.489 32.852C80.489 38.562 78.486 43.849 75.223 48.025C76.343 47.867 77.455 47.713 78.619 47.713C92.214 47.713 103.077 58.873 103.077 72.467C103.077 86.061 92.214 97.217 78.619 97.217C72.859 97.217 67.539 95.171 63.325 91.797L75.934 121.988H35.817L48.237 92.246C44.117 95.361 39.004 97.216 33.461 97.216C19.867 97.216 8.709 86.057 8.709 72.463C8.709 58.868 19.867 47.713 33.461 47.713C34.52 47.713 35.519 47.897 36.543 48.025C33.328 43.865 31.295 38.516 31.295 32.852C31.295 19.263 42.445 8.418 56.032 8.408ZM155.542 140.533C165.13 140.533 174.006 142.593 182.168 146.715C190.41 150.835 196.592 156.264 200.713 163C204.834 169.657 206.893 176.948 206.893 184.873C206.893 190.341 205.863 195.889 203.803 201.516C201.743 207.142 198.73 212.411 194.768 217.324C187.952 225.804 180.94 233.055 173.728 239.078L142.346 265.468C134.421 272.126 128.636 277.791 124.991 282.467C121.345 287.142 139.335 289.48 178.959 289.48C184.903 289.48 189.142 287.934 191.679 284.844C194.214 281.754 197.107 273.194 200.356 259.168H208.44L204.634 308.5H98.124V302.08L132.716 262.734C151.973 241.813 163.544 228.658 167.427 223.27C172.974 215.582 177.017 208.171 179.552 201.04C182.088 193.828 183.357 187.29 183.357 181.426C183.357 171.678 180.662 164.03 175.273 158.482C169.883 152.856 162.395 150.043 152.806 150.043C142.028 150.043 133.233 152.618 126.417 157.77C119.602 162.92 116.193 168.389 116.193 174.174C116.193 176.155 116.709 177.661 117.74 178.691C118.69 179.721 120.75 180.633 123.92 181.426C131.923 183.328 135.927 188.004 135.927 195.453C135.927 199.495 134.579 202.863 131.884 205.557C129.19 208.172 125.742 209.479 121.542 209.479C116.708 209.479 112.469 207.26 108.824 202.822C105.178 198.305 103.354 192.442 103.354 185.23C103.354 177.147 105.416 169.816 109.536 163.238C113.736 156.581 120.036 151.153 128.436 146.953C136.837 142.673 145.872 140.533 155.54 140.533H155.542ZM255.559 318.012H295.676L283.065 348.205C287.28 344.831 292.6 342.783 298.36 342.783C311.954 342.783 322.819 353.941 322.819 367.535C322.819 381.13 311.954 392.287 298.359 392.287C297.196 392.287 296.084 392.135 294.963 391.977C298.226 396.153 300.229 401.439 300.229 407.15C300.229 420.739 289.376 431.583 275.789 431.592H275.772C262.184 431.582 251.037 420.739 251.037 407.15C251.037 401.485 253.07 396.137 256.285 391.977C255.262 392.105 254.26 392.289 253.201 392.289C239.607 392.289 228.45 381.13 228.45 367.535C228.45 353.941 239.607 342.783 253.202 342.783C258.744 342.783 263.857 344.641 267.977 347.756L255.559 318.012Z" fill="white"/>
</svg>
