<svg width="334" height="440" viewBox="0 0 334 440" fill="none" xmlns="http://www.w3.org/2000/svg">
<rect x="6.76392" y="34" width="319" height="375" fill="black"/>
<rect x="245.764" y="383" width="57" height="51" fill="black"/>
<rect x="26.7639" y="4" width="57" height="51" fill="black"/>
<path d="M29.198 0C13.072 0 0 17.237 0 38.5V401.5C0 422.763 13.072 440 29.198 440H304.498C320.624 440 333.696 422.763 333.696 401.5V38.5C333.696 17.237 320.624 0 304.498 0H29.198ZM56.03 8.408V8.41H56.047C69.634 8.42 80.489 19.263 80.489 32.852C80.489 38.562 78.484 43.849 75.221 48.025C76.341 47.867 77.454 47.715 78.618 47.715C92.212 47.715 103.075 58.872 103.075 72.467C103.075 86.061 92.212 97.219 78.618 97.219C72.858 97.219 67.538 95.171 63.323 91.797L75.932 121.99H35.815L48.235 92.246C44.115 95.361 39.002 97.219 33.459 97.219C19.865 97.219 8.709 86.059 8.709 72.465C8.709 58.87 19.865 47.713 33.459 47.713C34.518 47.713 35.519 47.897 36.543 48.025C33.328 43.865 31.293 38.516 31.293 32.852C31.293 19.263 42.443 8.418 56.03 8.408ZM113.698 140.654C121.464 142.636 129.864 143.627 138.898 143.627H212.836V149.094C201.979 168.193 193.856 184.359 188.467 197.594C183.078 210.749 178.997 223.349 176.223 235.394C173.449 247.44 171.628 261.468 170.756 277.477C169.964 290.711 169.21 298.912 168.496 302.082C167.783 305.172 166.317 307.551 164.098 309.215C161.958 310.958 159.145 311.83 155.658 311.83C151.696 311.83 148.606 310.484 146.388 307.79C144.168 305.095 143.058 300.854 143.058 295.068C143.058 289.918 143.971 283.5 145.793 275.813C147.616 268.046 151.775 256.476 158.273 241.102C166.912 220.497 174.401 204.29 180.741 192.482L197.145 162.289H132.717C127.962 162.289 124.395 163.953 122.017 167.281C119.72 170.61 116.947 180.556 113.697 197.119H105.139L113.698 140.654ZM255.558 318.014H295.676L283.065 348.205C287.28 344.831 292.598 342.785 298.358 342.785C311.952 342.785 322.817 353.943 322.817 367.537C322.817 381.132 311.952 392.289 298.357 392.289C297.194 392.289 296.084 392.135 294.963 391.977C298.226 396.153 300.229 401.441 300.229 407.152C300.229 420.741 289.374 431.582 275.787 431.592H275.77C262.183 431.581 251.037 420.74 251.037 407.152C251.037 401.487 253.068 396.137 256.284 391.977C255.26 392.105 254.26 392.289 253.202 392.289C239.607 392.289 228.45 381.132 228.45 367.537C228.45 353.943 239.607 342.785 253.202 342.785C258.744 342.785 263.855 344.641 267.975 347.755L255.559 318.014H255.558Z" fill="white"/>
</svg>
