<svg width="334" height="440" viewBox="0 0 334 440" fill="none" xmlns="http://www.w3.org/2000/svg">
<rect x="6.76392" y="33.1396" width="319" height="376.744" fill="#FF0000"/>
<rect x="245.764" y="383.763" width="57" height="51.2372" fill="#FF0000"/>
<rect x="26.7639" y="3" width="57" height="51.2372" fill="#FF0000"/>
<path d="M29.2 0C13.074 0 0 17.237 0 38.5V401.5C0 422.763 13.074 440 29.2 440H304.498C320.624 440 333.696 422.763 333.696 401.5V38.5C333.696 17.237 320.624 0 304.498 0H29.2ZM56.082 3.717H56.084L103.477 61.987L56.084 120.273L8.709 61.986L56.082 3.717ZM156.387 140.533C172.791 140.533 186.461 147.35 197.397 160.98C208.333 174.611 213.801 193.748 213.801 218.395C213.801 238.84 210.751 256.116 204.649 270.223C198.626 284.25 190.622 294.711 180.637 301.605C170.652 308.421 159.398 311.828 146.877 311.828C134.752 311.828 125.243 309.175 118.348 303.865C111.533 298.476 108.123 292.057 108.123 284.607C108.123 279.694 109.512 275.732 112.285 272.721C115.138 269.709 118.703 268.203 122.983 268.203C126.866 268.203 130.156 269.51 132.85 272.125C135.544 274.74 136.89 277.87 136.89 281.515C136.89 284.131 135.662 287.023 133.205 290.193C131.7 292.175 130.948 293.878 130.948 295.305C130.948 297.524 132.254 299.467 134.869 301.131C137.485 302.716 141.686 303.508 147.471 303.508C155.713 303.508 162.964 301.25 169.225 296.732C175.485 292.136 180.557 284.647 184.44 274.266C188.323 263.805 190.264 250.293 190.264 233.73L190.028 223.15C184.876 230.917 178.854 236.782 171.959 240.744C165.065 244.627 157.336 246.568 148.778 246.568C136.89 246.568 126.074 242.407 116.326 234.086C106.658 225.765 101.825 213.522 101.825 197.356C101.825 181.586 107.173 168.191 117.871 157.176C128.649 146.081 141.488 140.533 156.387 140.533ZM156.743 149.093C147.867 149.093 140.575 152.818 134.869 160.268C129.164 167.638 126.311 178.771 126.311 193.67C126.311 207.3 129.164 217.485 134.869 224.22C140.575 230.877 148.026 234.205 157.219 234.205C166.333 234.205 173.979 230.6 180.16 223.389C186.421 216.177 189.551 206.073 189.551 193.076C189.551 179.604 186.303 168.906 179.805 160.98C173.385 153.056 165.698 149.093 156.743 149.093ZM275.424 316.523H275.426L322.819 374.793L275.426 433.08L228.049 374.793L275.424 316.523Z" fill="white"/>
</svg>
