<svg width="334" height="440" viewBox="0 0 334 440" fill="none" xmlns="http://www.w3.org/2000/svg">
<rect x="6.76392" y="36.1396" width="319" height="376.744" fill="#FF0000"/>
<rect x="245.764" y="386.763" width="57" height="51.2372" fill="#FF0000"/>
<rect x="26.7639" y="6" width="57" height="51.2372" fill="#FF0000"/>
<path d="M29.2 0C13.074 0 0 17.237 0 38.5V401.5C0 422.763 13.074 440 29.2 440H304.498C320.624 440 333.696 422.763 333.696 401.5V38.5C333.696 17.237 320.624 0 304.498 0H29.2ZM56.084 3.717H56.086L103.476 61.987L56.086 120.273L8.709 61.986L56.084 3.717ZM152.584 129.004H160.547L223.668 289.838C226.204 296.336 231.395 299.586 239.241 299.586H244.709V308.502H174.575V299.586H180.162C187.453 299.586 192.604 298.794 195.616 297.209C197.676 296.099 198.706 294.394 198.706 292.096C198.706 290.749 198.428 289.322 197.873 287.816L183.253 250.492H113.83L105.63 271.889C103.49 277.595 102.42 282.111 102.42 285.439C102.42 289.323 104.202 292.652 107.768 295.426C111.413 298.2 116.684 299.586 123.578 299.586H129.522V308.502H65.807V299.586C72.622 299.586 78.011 298.12 81.973 295.187C85.935 292.176 89.583 286.511 92.91 278.189L152.584 129.004ZM149.137 162.883L117.635 241.219H179.805L149.137 162.883ZM275.427 316.523L322.819 374.793L275.426 433.08L228.051 374.793L275.426 316.523H275.427Z" fill="white"/>
</svg>
