<svg width="334" height="440" viewBox="0 0 334 440" fill="none" xmlns="http://www.w3.org/2000/svg">
<rect x="6.76392" y="34.1396" width="319" height="376.744" fill="#FF0000"/>
<rect x="245.764" y="384.763" width="57" height="51.2372" fill="#FF0000"/>
<rect x="26.7639" y="4" width="57" height="51.2372" fill="#FF0000"/>
<path d="M29.2 0C13.074 0 0 17.237 0 38.5V401.5C0 422.763 13.074 440 29.2 440H304.498C320.624 440 333.696 422.763 333.696 401.5V38.5C333.696 17.237 320.624 0 304.498 0H29.2ZM56.084 3.717H56.086L103.479 61.988L56.086 120.275L8.709 61.986L56.084 3.717ZM155.674 129.004C170.652 129.004 184.324 132.808 196.686 140.416C209.049 147.945 218.953 158.803 226.403 172.988C233.853 187.094 237.578 202.904 237.578 220.418C237.578 236.426 234.646 250.69 228.782 263.211C222.996 275.732 213.882 287.183 201.44 297.564C202.708 300.814 204.096 305.252 205.602 310.879C208.376 321.419 211.029 328.273 213.565 331.443C216.101 334.613 218.993 336.199 222.243 336.199C225.253 336.199 227.829 334.496 229.969 331.088C232.189 327.759 233.377 322.172 233.535 314.326H240.668C240.589 328.591 237.816 339.092 232.348 345.828C226.88 352.564 219.746 355.932 210.95 355.932C202.787 355.932 196.13 352.642 190.979 346.064C185.907 339.566 182.539 327.046 180.875 308.502C176.437 309.612 172.158 310.443 168.037 310.998C163.917 311.553 159.995 311.83 156.27 311.83C141.53 311.83 127.898 308.026 115.377 300.418C102.935 292.731 93.029 281.755 85.659 267.49C78.368 253.146 74.723 236.98 74.723 218.99C74.723 193.472 83.003 171.68 99.567 153.611C114.624 137.207 133.327 129.004 155.674 129.004ZM156.032 138.039C146.205 138.039 137.369 140.812 129.524 146.359C121.757 151.907 115.654 160.585 111.217 172.393C106.858 184.121 104.678 200.091 104.678 220.299C104.678 234.563 105.987 246.806 108.602 257.029C111.217 267.252 115.299 276.962 120.846 286.154C120.688 282.509 120.608 279.576 120.608 277.357C120.608 267.531 123.738 259.447 129.998 253.107C136.338 246.767 144.619 243.597 154.842 243.597C165.144 243.597 173.782 247.045 180.756 253.939C185.986 259.169 190.9 268.243 195.496 281.16C199.776 273.077 202.906 264.321 204.887 254.89C206.868 245.46 207.86 233.652 207.86 219.467C207.86 199.497 205.681 183.724 201.323 172.154C196.964 160.504 190.822 151.907 182.897 146.359C174.972 140.812 166.017 138.039 156.032 138.039ZM154.487 252.869C147.037 252.869 140.935 255.247 136.18 260.002C131.425 264.757 129.047 270.899 129.047 278.428C129.047 285.878 131.98 292.929 137.844 299.586C143.471 302.043 149.374 303.271 155.555 303.271C160.31 303.271 164.788 302.677 168.989 301.488C173.175 300.305 177.175 298.545 180.875 296.258C180.717 281.993 178.855 271.652 175.289 265.232C170.772 256.991 163.838 252.869 154.487 252.869ZM275.427 316.523H275.428L322.818 374.795L275.428 433.082L228.051 374.793L275.426 316.523H275.427Z" fill="white"/>
</svg>
