<svg width="334" height="440" viewBox="0 0 334 440" fill="none" xmlns="http://www.w3.org/2000/svg">
<rect x="6.76392" y="31.1396" width="319" height="376.744" fill="#FF0000"/>
<rect x="245.764" y="381.763" width="57" height="51.2372" fill="#FF0000"/>
<rect x="26.7639" y="1" width="57" height="51.2372" fill="#FF0000"/>
<path d="M29.2 0C13.074 0 0 17.237 0 38.5V401.5C0 422.763 13.074 440 29.2 440H304.498C320.624 440 333.696 422.763 333.696 401.5V38.5C333.696 17.237 320.624 0 304.498 0H29.2ZM56.082 3.717H56.084L103.477 61.987L56.084 120.273L8.709 61.986L56.082 3.717ZM180.518 143.625H188.244V256.078H215.584V266.182H188.244V291.502C188.244 293.721 189.116 295.504 190.86 296.852C193.396 298.674 196.328 299.586 199.657 299.586H209.76V308.5H143.785V299.586H156.03C160.15 299.586 163.163 298.714 165.065 296.971C167.046 295.227 168.035 292.691 168.035 289.363V266.182H100.755V254.772L180.518 143.625ZM168.034 175.84L110.62 256.078H168.034V175.84ZM275.424 316.523H275.425L322.818 374.793L275.425 433.08L228.05 374.793L275.423 316.523H275.424Z" fill="white"/>
</svg>
