<svg width="334" height="440" viewBox="0 0 334 440" fill="none" xmlns="http://www.w3.org/2000/svg">
<rect x="6.76392" y="34.1396" width="319" height="376.744" fill="#FF0000"/>
<rect x="216.764" y="385" width="103" height="42" fill="#FF0000"/>
<rect x="6.76392" y="16" width="105" height="51" fill="#FF0000"/>
<path d="M29.2 0C13.074 0 0 17.237 0 38.5V401.5C0 422.763 13.074 440 29.2 440H304.498C320.624 440 333.696 422.763 333.696 401.5V38.5C333.696 17.237 320.624 0 304.498 0H29.2ZM86.416 16.174C100.029 15.855 112.92 26.028 113.491 44.217C114.467 75.307 65.751 97.162 61.178 114.232C56.181 95.583 9.765 76.659 8.728 44.217C7.734 13.062 46.132 6.31 61.18 32.371C67.442 21.525 77.103 16.393 86.416 16.176V16.174ZM169.582 140.535C181.152 140.535 190.98 143.705 199.062 150.045C205.799 155.196 209.166 161.378 209.166 168.59C209.166 173.424 207.662 177.386 204.651 180.477C201.719 183.567 198.111 185.113 193.832 185.113C189.87 185.113 186.462 183.805 183.61 181.189C180.836 178.574 179.45 175.484 179.45 171.918C179.45 169.541 180.4 166.845 182.301 163.834C184.045 161.06 184.916 158.882 184.916 157.297C184.916 155.077 183.847 153.255 181.707 151.828C178.854 150.005 174.932 149.094 169.94 149.094C162.253 149.094 155.239 151.512 148.899 156.346C142.559 161.18 137.171 169.501 132.733 181.309C128.374 193.037 126.193 206.232 126.193 220.893C126.193 223.033 126.313 226.243 126.551 230.521C132.732 222.28 139.23 216.375 146.045 212.809C152.861 209.242 160.35 207.461 168.512 207.461C181.667 207.461 192.683 211.938 201.559 220.893C210.514 229.768 214.993 241.022 214.993 254.653C214.993 271.057 209.722 284.688 199.182 295.545C188.642 306.402 175.605 311.83 160.072 311.83C149.136 311.83 139.389 308.937 130.83 303.152C122.272 297.288 115.257 288.175 109.79 275.812C104.4 263.45 101.707 249.027 101.707 232.543C101.707 214.713 105.035 198.545 111.692 184.043C118.349 169.541 126.829 158.683 137.132 151.471C147.512 144.18 158.329 140.535 169.582 140.535ZM161.975 219.109C152.069 219.109 143.945 222.716 137.605 229.928C131.345 237.06 128.215 247.124 128.215 260.121C128.215 274.227 131.265 285.004 137.368 292.453C143.47 299.903 151.238 303.627 160.668 303.627C170.019 303.627 177.546 300.102 183.252 293.049C188.958 285.996 191.811 275.455 191.811 261.428C191.811 246.529 189.158 235.753 183.848 229.096C178.618 222.439 171.326 219.109 161.975 219.109ZM270.493 325.769C275.065 342.84 323.782 364.693 322.805 395.783C322.235 413.972 309.343 424.147 295.731 423.828V423.826C286.417 423.609 276.756 418.477 270.494 407.631C255.446 433.692 217.049 426.939 218.044 395.783C219.08 363.341 265.495 344.418 270.493 325.769Z" fill="white"/>
</svg>
