<svg width="334" height="440" viewBox="0 0 334 440" fill="none" xmlns="http://www.w3.org/2000/svg">
<rect x="4.76392" y="33.1396" width="319" height="376.744" fill="#FF0000"/>
<rect x="214.764" y="384" width="103" height="42" fill="#FF0000"/>
<rect x="4.76392" y="15" width="105" height="51" fill="#FF0000"/>
<path d="M29.2 0C13.074 0 0 17.237 0 38.5V401.5C0 422.763 13.074 440 29.2 440H304.498C320.624 440 333.696 422.763 333.696 401.5V38.5C333.696 17.237 320.624 0 304.498 0H29.2ZM86.414 16.174H86.416C100.028 15.856 112.918 26.029 113.489 44.217C114.465 75.307 65.751 97.162 61.179 114.232C56.181 95.583 9.765 76.659 8.729 44.217C7.734 13.061 46.13 6.307 61.179 32.369C67.439 21.523 77.101 16.392 86.414 16.174ZM70.799 132.689H151.157V141.605H134.039C130.394 141.605 127.581 142.555 125.599 144.457C123.619 146.359 122.627 148.777 122.627 151.709V233.373L188.84 162.645C192.644 158.524 194.545 154.641 194.545 150.996C194.545 148.222 193.237 145.964 190.621 144.221C188.006 142.477 183.727 141.605 177.784 141.605H172.91V132.689H245.065V141.605H239.479C234.645 141.605 229.334 143.032 223.549 145.885C217.764 148.738 212.416 152.7 207.502 157.771L166.729 200.209L225.096 286.271C228.346 291.106 231.713 294.553 235.2 296.613C238.686 298.594 242.808 299.586 247.563 299.586H253.981V308.5H174.694V299.586H183.727C190.304 299.586 194.663 299.031 196.803 297.922C199.022 296.812 200.131 295.426 200.131 293.762C200.131 292.256 199.656 290.75 198.705 289.244L150.205 217.92L122.627 247.52V290.79C122.627 293.483 123.419 295.464 125.004 296.732C127.54 298.634 130.553 299.586 134.039 299.586H151.157V308.5H70.799V299.586H86.252C90.215 299.586 93.147 298.794 95.049 297.209C96.951 295.545 97.903 293.404 97.903 290.789V150.4C97.903 147.627 96.831 145.488 94.692 143.982C92.552 142.397 88.947 141.605 83.875 141.605H70.799V132.689ZM270.494 325.77C275.066 342.841 323.783 364.694 322.806 395.784C322.236 413.972 309.343 424.145 295.732 423.827H295.73C286.417 423.609 276.757 418.477 270.495 407.632C255.447 433.693 217.05 426.94 218.045 395.784C219.081 363.342 265.496 344.42 270.494 325.771V325.77Z" fill="white"/>
</svg>
