<svg width="334" height="440" viewBox="0 0 334 440" fill="none" xmlns="http://www.w3.org/2000/svg">
<rect x="8" y="33.1395" width="319" height="376.744" fill="#FF0000"/>
<rect x="218" y="384" width="103" height="42" fill="#FF0000"/>
<rect x="8" y="15" width="105" height="51" fill="#FF0000"/>
<path d="M29.2 0C13.074 0 0 17.237 0 38.5V401.5C0 422.763 13.074 440 29.2 440H304.498C320.624 440 333.696 422.763 333.696 401.5V38.5C333.696 17.237 320.624 0 304.498 0H29.2ZM86.416 16.174C100.029 15.855 112.92 26.028 113.491 44.217C114.467 75.307 65.751 97.162 61.178 114.232C56.181 95.583 9.765 76.659 8.728 44.217C7.734 13.062 46.132 6.31 61.18 32.371C67.442 21.525 77.103 16.393 86.416 16.176V16.174ZM156.626 140.535C166.214 140.535 175.09 142.595 183.252 146.717C191.494 150.837 197.676 156.266 201.797 163.002C205.918 169.659 207.979 176.95 207.979 184.875C207.979 190.343 206.948 195.889 204.887 201.515C202.827 207.142 199.817 212.413 195.854 217.326C189.039 225.806 182.024 233.057 174.813 239.08L143.43 265.47C135.505 272.127 129.722 277.793 126.077 282.469C122.431 287.144 140.419 289.482 180.043 289.482C185.987 289.482 190.226 287.936 192.763 284.846C195.298 281.756 198.191 273.196 201.44 259.17H209.524L205.719 308.502H99.211V302.082L133.803 262.736C153.06 241.815 164.629 228.658 168.513 223.27C174.06 215.582 178.101 208.173 180.637 201.041C183.173 193.83 184.442 187.292 184.442 181.428C184.442 171.68 181.747 164.032 176.358 158.484C170.968 152.858 163.48 150.044 153.891 150.044C143.113 150.044 134.318 152.62 127.502 157.771C120.687 162.923 117.28 168.391 117.28 174.176C117.28 176.157 117.794 177.663 118.825 178.693C119.775 179.723 121.836 180.635 125.006 181.428C133.01 183.33 137.012 188.004 137.012 195.453C137.012 199.495 135.665 202.864 132.972 205.559C130.277 208.174 126.829 209.48 122.629 209.48C117.795 209.48 113.554 207.262 109.909 202.824C106.263 198.307 104.442 192.442 104.442 185.23C104.442 177.147 106.501 169.818 110.622 163.24C114.822 156.583 121.123 151.155 129.524 146.955C137.924 142.675 146.957 140.535 156.625 140.535H156.626ZM270.494 325.77C275.066 342.84 323.781 364.695 322.804 395.785C322.234 413.974 309.342 424.147 295.73 423.828V423.826C286.416 423.609 276.755 418.477 270.494 407.631C255.446 433.692 217.048 426.941 218.042 395.785C219.079 363.343 265.496 344.42 270.494 325.77Z" fill="white"/>
</svg>
