<svg width="334" height="440" viewBox="0 0 334 440" fill="none" xmlns="http://www.w3.org/2000/svg">
<rect x="7.76392" y="34.1396" width="319" height="376.744" fill="#FF0000"/>
<rect x="217.764" y="385" width="103" height="42" fill="#FF0000"/>
<rect x="7.76392" y="16" width="105" height="51" fill="#FF0000"/>
<path d="M29.2 0C13.074 0 0 17.237 0 38.5V401.5C0 422.763 13.074 440 29.2 440H304.498C320.624 440 333.694 422.763 333.694 401.5V38.5C333.694 17.237 320.624 0 304.498 0H29.2ZM86.414 16.174C100.027 15.855 112.918 26.028 113.489 44.217C114.465 75.307 65.749 97.162 61.176 114.232C56.179 95.583 9.763 76.659 8.726 44.217C7.732 13.062 46.13 6.31 61.178 32.371C67.44 21.525 77.101 16.393 86.414 16.176V16.174ZM114.782 140.654C122.548 142.636 130.948 143.627 139.982 143.627H213.92V149.094C203.063 168.193 194.94 184.359 189.551 197.594C184.162 210.749 180.081 223.349 177.307 235.394C174.533 247.44 172.712 261.468 171.84 277.477C171.048 290.711 170.294 298.912 169.58 302.082C168.867 305.172 167.4 307.551 165.182 309.215C163.042 310.958 160.229 311.83 156.742 311.83C152.78 311.83 149.69 310.484 147.471 307.79C145.252 305.095 144.143 300.854 144.143 295.068C144.143 289.918 145.055 283.5 146.877 275.813C148.7 268.046 152.859 256.476 159.357 241.102C167.996 220.497 175.485 204.29 181.825 192.482L198.229 162.289H133.801C129.046 162.289 125.479 163.953 123.101 167.281C120.804 170.61 118.031 180.556 114.781 197.119H106.223L114.782 140.654ZM270.492 325.77C275.065 342.84 323.78 364.695 322.803 395.785C322.233 413.973 309.343 424.145 295.731 423.828H295.729C286.416 423.61 276.754 418.478 270.493 407.633C255.445 433.693 217.047 426.94 218.041 395.785C219.078 363.343 265.495 344.419 270.493 325.77H270.492Z" fill="white"/>
</svg>
