<svg width="334" height="440" viewBox="0 0 334 440" fill="none" xmlns="http://www.w3.org/2000/svg">
<rect x="6.76392" y="34.1396" width="319" height="376.744" fill="#FF0000"/>
<rect x="216.764" y="385" width="103" height="42" fill="#FF0000"/>
<rect x="6.76392" y="16" width="105" height="51" fill="#FF0000"/>
<path d="M29.2 0C13.074 0 0 17.237 0 38.5V401.5C0 422.763 13.074 440 29.2 440H304.498C320.624 440 333.696 422.763 333.696 401.5V38.5C333.696 17.237 320.624 0 304.498 0H29.2ZM86.414 16.174H86.416C100.028 15.856 112.92 26.029 113.491 44.217C114.467 75.307 65.751 97.162 61.178 114.232C56.181 95.583 9.765 76.659 8.728 44.217C7.734 13.062 46.132 6.307 61.18 32.369C67.441 21.523 77.101 16.392 86.414 16.174ZM156.387 140.535C171.286 140.535 183.173 144.537 192.049 152.541C200.925 160.545 205.364 170.45 205.364 182.258C205.364 190.738 202.946 198.068 198.112 204.25C193.357 210.431 185.116 215.9 173.387 220.654C184.72 223.428 193.555 228.024 199.895 234.444C207.978 242.606 212.02 252.71 212.02 264.756C212.02 278.386 207.186 289.323 197.518 297.564C186.502 307.074 172.158 311.83 154.485 311.83C143.865 311.83 134.713 310.087 127.025 306.6C119.418 303.113 113.712 298.397 109.909 292.453C106.105 286.51 104.203 279.813 104.203 272.363C104.203 266.34 105.67 261.587 108.602 258.1C111.534 254.613 115.219 252.87 119.657 252.87C123.698 252.87 126.947 254.216 129.405 256.91C131.861 259.525 133.088 263.132 133.088 267.729C133.088 270.661 132.454 273.156 131.186 275.217C129.918 277.198 127.699 279.061 124.53 280.805C121.122 282.627 119.418 284.371 119.418 286.035C119.418 288.413 120.608 291.105 122.985 294.117C125.442 297.049 129.008 299.427 133.684 301.25C138.439 302.993 144.422 303.865 151.634 303.865C164.075 303.865 173.268 300.813 179.211 294.711C185.234 288.53 188.244 278.665 188.244 265.113C188.244 250.928 185.669 240.863 180.518 234.92C175.446 228.897 167.879 225.885 157.815 225.885C155.12 225.885 151.751 226.202 147.709 226.835C144.46 227.311 142.122 227.549 140.696 227.549C138.318 227.549 136.456 227.074 135.11 226.123C133.842 225.093 133.207 223.824 133.207 222.318C133.207 220.654 133.802 219.388 134.991 218.516C136.259 217.565 138.279 217.088 141.053 217.088L147.59 217.326L153.297 217.564C163.362 217.564 170.93 214.989 176.002 209.838C181.074 204.687 183.61 196.721 183.61 185.943C183.61 172.709 181.192 163.319 176.358 157.771C171.524 152.145 164.312 149.332 154.723 149.332C145.926 149.332 138.914 150.916 133.683 154.086C128.453 157.256 125.838 160.188 125.838 162.883C125.838 164.626 127.342 166.964 130.354 169.896C134.634 173.859 136.774 177.978 136.774 182.258C136.774 185.507 135.584 188.242 133.207 190.461C130.83 192.68 127.78 193.789 124.055 193.789C120.093 193.789 116.843 192.283 114.307 189.271C111.85 186.261 110.621 182.061 110.621 176.671C110.621 168.271 113.634 160.823 119.657 154.324C128.215 145.131 140.458 140.535 156.387 140.535ZM270.494 325.77C275.066 342.84 323.783 364.693 322.806 395.783C322.236 413.972 309.344 424.147 295.732 423.828V423.826C286.418 423.609 276.757 418.477 270.495 407.631C255.447 433.692 217.05 426.938 218.045 395.783C219.081 363.341 265.496 344.419 270.494 325.77Z" fill="white"/>
</svg>
