<svg width="334" height="440" viewBox="0 0 334 440" fill="none" xmlns="http://www.w3.org/2000/svg">
<rect x="6.76416" y="32.1396" width="319" height="376.744" fill="black"/>
<rect x="245.764" y="382.763" width="57" height="51.2372" fill="black"/>
<rect x="26.7642" y="2" width="57" height="51.2372" fill="black"/>
<path d="M29.2 0C13.074 0 0 17.237 0 38.5V401.5C0 422.763 13.074 440 29.2 440H304.498C320.624 440 333.696 422.763 333.696 401.5V38.5C333.696 17.237 320.624 0 304.498 0H29.2ZM55.852 8.047C55.852 8.047 102.19 41.885 103.123 71.115C103.899 95.402 78.099 103.237 62.348 89.701L75.981 122.354H35.866L49.479 89.719C33.944 103.599 9.473 95.068 8.721 71.115C7.841 43.105 55.852 8.047 55.852 8.047ZM158.392 140.535C168.299 140.535 176.899 142.239 184.19 145.646C191.56 149.054 197.146 153.69 200.95 159.555C204.833 165.419 206.776 171.561 206.776 177.98C206.776 192.88 197.384 205.282 178.602 215.188C191.282 219.784 200.434 225.806 206.061 233.256C211.687 240.626 214.502 249.541 214.502 260.002C214.502 272.761 210.421 283.895 202.258 293.404C191.718 305.688 176.7 311.83 157.205 311.83C140.009 311.83 126.417 307.709 116.432 299.467C106.447 291.146 101.453 280.804 101.453 268.441C101.453 259.169 104.306 251.086 110.013 244.191C115.797 237.218 125.743 231.315 139.85 226.481C119.008 217.525 108.586 203.697 108.586 184.994C108.586 172.869 113.262 162.448 122.614 153.73C132.044 144.934 143.97 140.535 158.393 140.535H158.392ZM157.561 148.738C147.179 148.738 139.098 151.274 133.313 156.346C127.528 161.338 124.635 167.876 124.635 175.959C124.635 183.963 127.131 190.343 132.123 195.098C137.195 199.853 149.638 205.518 169.45 212.096C177.77 207.341 183.356 202.666 186.21 198.07C189.062 193.395 190.489 187.292 190.489 179.764C190.489 169.858 187.676 162.209 182.049 156.82C176.423 151.431 168.259 148.738 157.561 148.738ZM148.766 229.808C137.513 234.563 129.706 239.912 125.348 245.855C120.989 251.799 118.808 259.09 118.808 267.729C118.808 278.982 122.098 287.739 128.676 294C135.333 300.181 144.883 303.271 157.325 303.271C170.48 303.271 180.702 300.181 187.993 294C195.283 287.74 198.93 279.496 198.93 269.273C198.93 260.001 195.76 252.989 189.42 248.234C183.16 243.48 169.608 237.336 148.766 229.808ZM255.543 317.648H295.659L282.026 350.301C297.776 336.765 323.577 344.6 322.801 368.887C321.868 398.117 275.53 431.955 275.53 431.955C275.53 431.955 227.52 396.898 228.399 368.889C229.15 344.936 253.621 336.402 269.157 350.283L255.543 317.648Z" fill="white"/>
</svg>
