<svg width="334" height="440" viewBox="0 0 334 440" fill="none" xmlns="http://www.w3.org/2000/svg">
<rect x="6.76416" y="32.1396" width="319" height="376.744" fill="black"/>
<rect x="245.764" y="382.763" width="57" height="51.2372" fill="black"/>
<rect x="26.7642" y="2" width="57" height="51.2372" fill="black"/>
<path d="M29.2 0C13.074 0 0 17.237 0 38.5V401.5C0 422.763 13.074 440 29.2 440H304.498C320.624 440 333.696 422.763 333.696 401.5V38.5C333.696 17.237 320.624 0 304.498 0H29.2ZM55.854 8.047C55.854 8.047 102.19 41.884 103.124 71.115C103.899 95.402 78.099 103.237 62.348 89.701L75.981 122.354H35.866L49.479 89.719C33.944 103.599 9.473 95.066 8.721 71.113C7.841 43.103 55.854 8.047 55.854 8.047ZM69.715 132.689H150.073V141.605H132.954C129.309 141.605 126.496 142.555 124.514 144.457C122.534 146.359 121.542 148.777 121.542 151.709V233.373L187.755 162.645C191.559 158.524 193.46 154.641 193.46 150.996C193.46 148.222 192.152 145.964 189.536 144.221C186.921 142.477 182.642 141.605 176.699 141.605H171.826V132.689H243.98V141.605H238.394C233.56 141.605 228.249 143.032 222.464 145.885C216.679 148.738 211.331 152.7 206.417 157.771L165.644 200.209L224.011 286.271C227.261 291.106 230.628 294.553 234.115 296.613C237.601 298.594 241.723 299.586 246.478 299.586H252.896V308.5H173.609V299.586H182.642C189.219 299.586 193.578 299.031 195.718 297.922C197.937 296.812 199.046 295.426 199.046 293.762C199.046 292.256 198.571 290.75 197.62 289.244L149.12 217.92L121.542 247.52V290.79C121.542 293.483 122.334 295.464 123.919 296.732C126.455 298.634 129.467 299.586 132.954 299.586H150.072V308.5H69.714V299.586H85.167C89.13 299.586 92.062 298.794 93.964 297.209C95.866 295.545 96.818 293.404 96.818 290.789V150.4C96.818 147.627 95.746 145.488 93.607 143.982C91.467 142.397 87.862 141.605 82.79 141.605H69.714V132.689H69.715ZM255.544 317.65H295.66L282.026 350.3C297.776 336.764 323.577 344.599 322.801 368.886C321.868 398.116 275.53 431.954 275.53 431.954C275.53 431.954 227.52 396.895 228.399 368.886C229.15 344.933 253.621 336.402 269.157 350.282L255.543 317.647L255.544 317.65Z" fill="white"/>
</svg>
