<svg width="334" height="440" viewBox="0 0 334 440" fill="none" xmlns="http://www.w3.org/2000/svg">
<rect x="6.76416" y="32.1396" width="319" height="376.744" fill="black"/>
<rect x="245.764" y="382.763" width="57" height="51.2372" fill="black"/>
<rect x="26.7642" y="2" width="57" height="51.2372" fill="black"/>
<path d="M29.2 0C13.074 0 0 17.237 0 38.5V401.5C0 422.763 13.074 440 29.2 440H304.498C320.624 440 333.696 422.763 333.696 401.5V38.5C333.696 17.237 320.624 0 304.498 0H29.2ZM55.852 8.047C55.852 8.047 102.19 41.885 103.123 71.115C103.899 95.402 78.099 103.235 62.348 89.699L75.981 122.354H35.866L49.479 89.719C33.944 103.599 9.473 95.066 8.721 71.113C7.841 43.103 55.852 8.047 55.852 8.047ZM155.303 140.535C170.202 140.535 182.089 144.537 190.965 152.541C199.841 160.545 204.278 170.451 204.278 182.26C204.278 190.74 201.862 198.069 197.028 204.25C192.273 210.431 184.03 215.9 172.301 220.654C183.634 223.428 192.471 228.024 198.811 234.444C206.894 242.606 210.936 252.71 210.936 264.756C210.936 278.386 206.1 289.323 196.432 297.564C185.417 307.074 171.073 311.83 153.401 311.83C142.781 311.83 133.629 310.087 125.941 306.6C118.334 303.113 112.628 298.397 108.825 292.453C105.021 286.51 103.118 279.813 103.118 272.363C103.118 266.34 104.584 261.587 107.516 258.1C110.448 254.613 114.133 252.87 118.571 252.87C122.612 252.87 125.862 254.216 128.319 256.91C130.775 259.525 132.004 263.132 132.004 267.729C132.004 270.661 131.37 273.156 130.102 275.217C128.834 277.198 126.616 279.061 123.446 280.805C120.038 282.627 118.334 284.371 118.334 286.035C118.334 288.413 119.524 291.105 121.901 294.117C124.357 297.049 127.922 299.427 132.598 301.25C137.353 302.993 143.336 303.865 150.548 303.865C162.989 303.865 172.184 300.813 178.128 294.711C184.15 288.53 187.16 278.665 187.16 265.113C187.16 250.928 184.585 240.863 179.434 234.92C174.362 228.897 166.794 225.885 156.729 225.885C154.034 225.885 150.667 226.202 146.625 226.835C143.376 227.311 141.038 227.549 139.612 227.549C137.234 227.549 135.372 227.074 134.026 226.123C132.758 225.093 132.123 223.824 132.123 222.318C132.123 220.654 132.718 219.388 133.907 218.516C135.175 217.565 137.195 217.088 139.969 217.088L146.506 217.326L152.213 217.564C162.278 217.564 169.844 214.989 174.916 209.838C179.988 204.687 182.526 196.721 182.526 185.943C182.526 172.709 180.108 163.319 175.274 157.771C170.44 152.145 163.228 149.332 153.639 149.332C144.842 149.332 137.829 150.916 132.598 154.086C127.368 157.256 124.752 160.188 124.752 162.883C124.752 164.626 126.258 166.964 129.27 169.896C133.55 173.859 135.69 177.98 135.69 182.26C135.69 185.509 134.5 188.242 132.123 190.46C129.746 192.68 126.693 193.79 122.969 193.79C119.007 193.79 115.759 192.283 113.223 189.271C110.766 186.261 109.537 182.061 109.537 176.671C109.537 168.271 112.547 160.823 118.571 154.324C127.129 145.131 139.374 140.535 155.303 140.535ZM255.541 317.648H295.659L282.026 350.301C297.776 336.765 323.577 344.6 322.801 368.887C321.868 398.117 275.53 431.955 275.53 431.955C275.53 431.955 227.52 396.896 228.399 368.887C229.15 344.934 253.621 336.402 269.157 350.283L255.541 317.648Z" fill="white"/>
</svg>
