<svg width="334" height="440" viewBox="0 0 334 440" fill="none" xmlns="http://www.w3.org/2000/svg">
<rect x="6.76416" y="30.1396" width="319" height="376.744" fill="black"/>
<rect x="245.764" y="380.763" width="57" height="51.2372" fill="black"/>
<rect x="26.7642" width="57" height="51.2372" fill="black"/>
<path d="M29.2 0C13.074 0 0 17.237 0 38.5V401.5C0 422.763 13.074 440 29.2 440H304.498C320.624 440 333.696 422.763 333.696 401.5V38.5C333.696 17.237 320.624 0 304.498 0H29.2ZM55.854 8.047C55.854 8.047 102.19 41.885 103.124 71.115C103.899 95.402 78.099 103.235 62.348 89.699L75.981 122.352H35.866L49.479 89.719C33.944 103.599 9.473 95.066 8.721 71.113C7.841 43.103 55.854 8.047 55.854 8.047ZM136.996 132.689H214.739V141.605H203.684C199.325 141.605 196.195 142.397 194.294 143.982C192.471 145.567 191.559 147.865 191.559 150.877V264.875C191.559 273.672 189.42 281.635 185.141 288.768C180.861 295.821 174.6 301.448 166.358 305.648C158.116 309.769 148.806 311.83 138.424 311.83C124.318 311.83 112.787 307.709 103.832 299.467C94.877 291.146 90.399 281.002 90.399 269.035C90.399 260.159 92.657 253.067 97.174 247.758C101.691 242.448 107.239 239.793 113.817 239.793C119.206 239.793 123.644 241.537 127.131 245.023C130.618 248.431 132.361 252.79 132.361 258.1C132.361 262.696 130.935 266.578 128.082 269.748C125.229 272.838 121.94 274.385 118.215 274.385C116.789 274.385 114.808 273.988 112.272 273.195C110.132 272.561 108.706 272.245 107.992 272.245C106.645 272.245 105.576 272.801 104.784 273.91C103.912 275.02 103.474 276.683 103.474 278.902C103.474 284.846 106.447 290.274 112.391 295.188C118.414 300.022 125.783 302.439 134.501 302.439C144.406 302.439 152.212 299.03 157.918 292.215C163.624 285.32 166.477 275.733 166.477 263.449V150.877C166.477 147.787 165.407 145.488 163.267 143.982C161.207 142.397 157.641 141.605 152.569 141.605H136.996V132.689ZM255.544 317.65H295.66L282.026 350.3C297.776 336.764 323.577 344.599 322.801 368.886C321.868 398.116 275.53 431.954 275.53 431.954C275.53 431.954 227.52 396.895 228.399 368.886C229.15 344.933 253.621 336.401 269.157 350.282L255.543 317.647L255.544 317.65Z" fill="white"/>
</svg>
