<svg width="334" height="441" viewBox="0 0 334 441" fill="none" xmlns="http://www.w3.org/2000/svg">
<rect x="6.76611" y="30.1396" width="319" height="376.744" fill="black"/>
<rect x="245.766" y="380.763" width="57" height="51.2372" fill="black"/>
<rect x="26.7661" width="57" height="51.2372" fill="black"/>
<path d="M29.2 1C13.074 1 0 18.237 0 39.5V402.5C0 423.763 13.074 441 29.2 441H304.5C320.626 441 333.698 423.763 333.698 402.5V39.5C333.698 18.237 320.626 1 304.5 1H29.2ZM55.854 9.047C55.854 9.047 102.192 42.885 103.125 72.115C103.901 96.402 78.101 104.237 62.35 90.701L75.983 123.354H35.866L49.479 90.719C33.944 104.599 9.475 96.068 8.723 72.115C7.843 44.105 55.854 9.047 55.854 9.047ZM179.436 144.625H187.162V257.078H214.502V267.184H187.162V292.502C187.162 294.721 188.034 296.504 189.778 297.852C192.314 299.674 195.246 300.586 198.575 300.586H208.678V309.502H142.704V300.586H154.948C159.068 300.586 162.081 299.714 163.983 297.971C165.964 296.227 166.953 293.691 166.953 290.363V267.183H99.673V255.771L179.436 144.625ZM166.953 176.84L109.537 257.078H166.954L166.953 176.84ZM255.543 318.648H295.661L282.028 351.301C297.778 337.765 323.579 345.6 322.803 369.887C321.87 399.117 275.532 432.955 275.532 432.955C275.532 432.955 227.52 397.896 228.399 369.887C229.15 345.934 253.621 337.402 269.157 351.283L255.543 318.648Z" fill="white"/>
</svg>
