<svg width="356" height="177" viewBox="0 0 356 177" fill="none" xmlns="http://www.w3.org/2000/svg">
<path d="M48.0625 80.75C48.0625 75.75 47.125 72.2656 45.25 70.2969C43.4062 68.2969 40.1406 67.2969 35.4531 67.2969H31.75V95.1875H35.6406C39.9844 95.1875 43.1406 94.0938 45.1094 91.9062C47.0781 89.7188 48.0625 86 48.0625 80.75ZM31.75 100.344V120.312L42.2031 121.578V125H9.48438V121.578L16.9375 120.312V66.7812L8.875 65.5625V62.1406H36.5781C45.4844 62.1406 52.1406 63.6406 56.5469 66.6406C60.9531 69.6094 63.1562 74.2812 63.1562 80.6562C63.1562 93.7812 55.5 100.344 40.1875 100.344H31.75ZM86.1719 93.5C86.1719 103.469 87.5312 110.594 90.25 114.875C93 119.125 97.3438 121.25 103.281 121.25C109.188 121.25 113.5 119.109 116.219 114.828C118.969 110.547 120.344 103.438 120.344 93.5C120.344 83.5938 118.969 76.5625 116.219 72.4062C113.5 68.25 109.188 66.1719 103.281 66.1719C97.3438 66.1719 93 68.25 90.25 72.4062C87.5312 76.5625 86.1719 83.5938 86.1719 93.5ZM70.6094 93.5C70.6094 72.125 81.5 61.4375 103.281 61.4375C114.031 61.4375 122.156 64.1562 127.656 69.5938C133.156 75 135.906 82.9688 135.906 93.5C135.906 104.156 133.125 112.234 127.562 117.734C122 123.203 113.906 125.938 103.281 125.938C92.6875 125.938 84.5938 123.203 79 117.734C73.4062 112.266 70.6094 104.188 70.6094 93.5ZM209.5 62.1406V65.5625L201.812 66.7812L181.047 85.1094L208.703 120.312L214.562 121.578V125H194.031L170.547 94.7188L165.109 99.4062V120.312L174.156 121.578V125H142.281V121.578L150.344 120.312V66.7812L142.281 65.5625V62.1406H173.219V65.5625L165.109 66.7812V92.375L193.75 66.7812L187.984 65.5625V62.1406H209.5ZM217 121.578L225.062 120.312V66.7812L217 65.5625V62.1406H270.531V78.125H266.266L264.766 67.9531C261.266 67.5156 256.203 67.2969 249.578 67.2969H239.828V90.3594H256.281L257.734 83.4219H261.906V102.734H257.734L256.281 95.6094H239.828V119.844H251.688C259.75 119.844 265.031 119.594 267.531 119.094L270.203 107.469H274.469L273.578 125H217V121.578ZM303.906 98.375V120.312L311.969 121.578V125H281.641V121.578L289.094 120.312V66.7812L281.031 65.5625V62.1406H311.078C320.328 62.1406 327.234 63.5625 331.797 66.4062C336.359 69.25 338.641 73.6875 338.641 79.7188C338.641 88.7188 334.422 94.5 325.984 97.0625L342.766 120.312L349.562 121.578V125H329.219L311.688 98.375H303.906ZM324.016 79.8125C324.016 75.125 323.047 71.875 321.109 70.0625C319.172 68.2188 315.625 67.2969 310.469 67.2969H303.906V93.2188H310.703C315.516 93.2188 318.938 92.2188 320.969 90.2188C323 88.2188 324.016 84.75 324.016 79.8125Z" fill="white"/>
<path d="M134.647 162.547H131.536C131.479 162.144 131.363 161.787 131.188 161.474C131.013 161.157 130.788 160.887 130.513 160.665C130.239 160.442 129.921 160.272 129.562 160.153C129.206 160.035 128.821 159.976 128.404 159.976C127.651 159.976 126.995 160.163 126.437 160.537C125.878 160.906 125.445 161.446 125.137 162.156C124.829 162.862 124.675 163.719 124.675 164.727C124.675 165.764 124.829 166.635 125.137 167.341C125.449 168.046 125.885 168.579 126.444 168.939C127.002 169.299 127.649 169.479 128.383 169.479C128.795 169.479 129.176 169.424 129.526 169.315C129.881 169.206 130.196 169.048 130.471 168.839C130.745 168.626 130.973 168.368 131.153 168.065C131.337 167.762 131.465 167.417 131.536 167.028L134.647 167.043C134.566 167.71 134.365 168.354 134.043 168.974C133.726 169.59 133.297 170.142 132.758 170.629C132.223 171.112 131.583 171.496 130.84 171.78C130.101 172.059 129.266 172.199 128.333 172.199C127.036 172.199 125.876 171.905 124.853 171.318C123.835 170.731 123.03 169.881 122.438 168.768C121.851 167.656 121.557 166.309 121.557 164.727C121.557 163.141 121.856 161.792 122.452 160.679C123.049 159.566 123.858 158.719 124.881 158.136C125.904 157.549 127.055 157.256 128.333 157.256C129.176 157.256 129.957 157.374 130.677 157.611C131.401 157.848 132.043 158.193 132.601 158.648C133.16 159.098 133.615 159.649 133.965 160.303C134.32 160.956 134.547 161.704 134.647 162.547ZM141.113 169.784V159.727H143.656V169.784H141.113ZM137.356 166.027V163.484H147.413V166.027H137.356ZM154.707 169.784V159.727H157.25V169.784H154.707ZM150.95 166.027V163.484H161.007V166.027H150.95ZM173.583 172.213C172.461 172.213 171.495 171.986 170.686 171.531C169.881 171.072 169.26 170.423 168.825 169.585C168.389 168.742 168.171 167.746 168.171 166.595C168.171 165.473 168.389 164.488 168.825 163.641C169.26 162.793 169.874 162.133 170.664 161.659C171.46 161.186 172.392 160.949 173.463 160.949C174.182 160.949 174.852 161.065 175.472 161.297C176.097 161.524 176.642 161.867 177.106 162.327C177.575 162.786 177.939 163.364 178.2 164.06C178.46 164.751 178.59 165.561 178.59 166.489V167.32H169.379V165.445H175.742C175.742 165.009 175.648 164.623 175.458 164.287C175.269 163.951 175.006 163.688 174.67 163.499C174.338 163.304 173.953 163.207 173.512 163.207C173.053 163.207 172.646 163.314 172.291 163.527C171.94 163.735 171.666 164.017 171.467 164.372C171.268 164.723 171.166 165.113 171.161 165.544V167.327C171.161 167.866 171.261 168.333 171.46 168.726C171.663 169.119 171.95 169.422 172.319 169.635C172.688 169.848 173.126 169.955 173.633 169.955C173.969 169.955 174.277 169.907 174.556 169.812C174.836 169.718 175.075 169.576 175.274 169.386C175.472 169.197 175.624 168.965 175.728 168.69L178.526 168.875C178.384 169.547 178.093 170.134 177.653 170.636C177.217 171.134 176.654 171.522 175.963 171.801C175.276 172.076 174.483 172.213 173.583 172.213ZM184.585 172.178C183.756 172.178 183.006 171.964 182.333 171.538C181.666 171.107 181.135 170.475 180.742 169.642C180.354 168.804 180.16 167.777 180.16 166.56C180.16 165.31 180.361 164.27 180.764 163.442C181.166 162.608 181.701 161.986 182.369 161.574C183.041 161.157 183.777 160.949 184.578 160.949C185.188 160.949 185.697 161.053 186.105 161.261C186.517 161.465 186.848 161.721 187.099 162.028C187.355 162.331 187.549 162.63 187.681 162.923H187.774V157.455H190.792V172H187.809V170.253H187.681C187.539 170.556 187.338 170.857 187.078 171.155C186.822 171.448 186.488 171.692 186.076 171.886C185.669 172.08 185.172 172.178 184.585 172.178ZM185.544 169.77C186.031 169.77 186.443 169.637 186.779 169.372C187.12 169.102 187.381 168.726 187.561 168.243C187.745 167.76 187.838 167.194 187.838 166.545C187.838 165.897 187.748 165.333 187.568 164.855C187.388 164.377 187.127 164.008 186.786 163.747C186.445 163.487 186.031 163.357 185.544 163.357C185.046 163.357 184.627 163.491 184.286 163.761C183.945 164.031 183.687 164.405 183.512 164.884C183.337 165.362 183.249 165.916 183.249 166.545C183.249 167.18 183.337 167.741 183.512 168.229C183.692 168.712 183.95 169.09 184.286 169.365C184.627 169.635 185.046 169.77 185.544 169.77ZM193.28 172V161.091H196.305V172H193.28ZM194.8 159.685C194.35 159.685 193.964 159.536 193.642 159.237C193.325 158.934 193.166 158.572 193.166 158.151C193.166 157.734 193.325 157.376 193.642 157.078C193.964 156.775 194.35 156.624 194.8 156.624C195.249 156.624 195.633 156.775 195.95 157.078C196.272 157.376 196.433 157.734 196.433 158.151C196.433 158.572 196.272 158.934 195.95 159.237C195.633 159.536 195.249 159.685 194.8 159.685ZM204.531 161.091V163.364H197.962V161.091H204.531ZM199.453 158.477H202.479V168.648C202.479 168.927 202.521 169.145 202.607 169.301C202.692 169.453 202.81 169.559 202.962 169.621C203.118 169.682 203.298 169.713 203.502 169.713C203.644 169.713 203.786 169.701 203.928 169.678C204.07 169.649 204.179 169.628 204.254 169.614L204.73 171.865C204.579 171.912 204.366 171.967 204.091 172.028C203.816 172.095 203.483 172.135 203.09 172.149C202.36 172.178 201.721 172.08 201.172 171.858C200.628 171.635 200.204 171.29 199.901 170.821C199.598 170.352 199.449 169.76 199.453 169.045V158.477ZM206.502 172V161.091H209.528V172H206.502ZM208.022 159.685C207.572 159.685 207.186 159.536 206.865 159.237C206.547 158.934 206.389 158.572 206.389 158.151C206.389 157.734 206.547 157.376 206.865 157.078C207.186 156.775 207.572 156.624 208.022 156.624C208.472 156.624 208.856 156.775 209.173 157.078C209.495 157.376 209.656 157.734 209.656 158.151C209.656 158.572 209.495 158.934 209.173 159.237C208.856 159.536 208.472 159.685 208.022 159.685ZM216.881 172.213C215.777 172.213 214.823 171.979 214.018 171.51C213.218 171.036 212.6 170.378 212.165 169.536C211.729 168.688 211.511 167.705 211.511 166.588C211.511 165.461 211.729 164.476 212.165 163.634C212.6 162.786 213.218 162.128 214.018 161.659C214.823 161.186 215.777 160.949 216.881 160.949C217.984 160.949 218.935 161.186 219.736 161.659C220.541 162.128 221.161 162.786 221.596 163.634C222.032 164.476 222.25 165.461 222.25 166.588C222.25 167.705 222.032 168.688 221.596 169.536C221.161 170.378 220.541 171.036 219.736 171.51C218.935 171.979 217.984 172.213 216.881 172.213ZM216.895 169.869C217.397 169.869 217.816 169.727 218.152 169.443C218.488 169.154 218.741 168.761 218.912 168.264C219.087 167.767 219.175 167.201 219.175 166.567C219.175 165.932 219.087 165.366 218.912 164.869C218.741 164.372 218.488 163.979 218.152 163.69C217.816 163.402 217.397 163.257 216.895 163.257C216.388 163.257 215.962 163.402 215.616 163.69C215.275 163.979 215.017 164.372 214.842 164.869C214.672 165.366 214.586 165.932 214.586 166.567C214.586 167.201 214.672 167.767 214.842 168.264C215.017 168.761 215.275 169.154 215.616 169.443C215.962 169.727 216.388 169.869 216.895 169.869ZM227.243 165.693V172H224.217V161.091H227.101V163.016H227.229C227.47 162.381 227.875 161.879 228.443 161.51C229.011 161.136 229.7 160.949 230.51 160.949C231.267 160.949 231.928 161.115 232.491 161.446C233.055 161.777 233.493 162.251 233.805 162.866C234.118 163.477 234.274 164.206 234.274 165.054V172H231.248V165.594C231.253 164.926 231.083 164.405 230.737 164.031C230.391 163.652 229.916 163.463 229.309 163.463C228.902 163.463 228.542 163.551 228.23 163.726C227.922 163.901 227.681 164.157 227.506 164.493C227.335 164.824 227.247 165.224 227.243 165.693Z" fill="#FF0004"/>
<path d="M91 17.6117C91.0004 19.2447 90.438 20.8259 89.411 22.0794C88.384 23.333 86.9576 24.1793 85.3807 24.4706C83.8039 24.7619 82.1767 24.4797 80.7832 23.6733C79.3897 22.867 78.3183 21.5876 77.7561 20.0584C77.7508 24.6442 78.0396 27.6954 82.3102 30H70.683C74.9536 27.6961 75.2423 24.6456 75.2371 20.0584C74.7672 21.3334 73.9409 22.4401 72.8603 23.2416C71.7798 24.0431 70.4923 24.5043 69.1573 24.5682C67.8222 24.632 66.498 24.2957 65.3485 23.6008C64.199 22.906 63.2746 21.883 62.6896 20.6585C62.1047 19.434 61.8847 18.0616 62.0571 16.711C62.2294 15.3605 62.7865 14.0911 63.6594 13.0597C64.5322 12.0284 65.6826 11.2803 66.9683 10.9081C68.254 10.5359 69.6185 10.5559 70.8932 10.9655C70.1757 9.92113 69.7532 8.69621 69.6715 7.42409C69.5898 6.15197 69.8521 4.88139 70.4299 3.75064C71.0077 2.6199 71.8788 1.6723 72.9484 1.01099C74.018 0.349684 75.2452 0 76.4963 0C77.7474 0 78.9745 0.349684 80.0441 1.01099C81.1137 1.6723 81.9848 2.6199 82.5626 3.75064C83.1404 4.88139 83.4027 6.15197 83.321 7.42409C83.2393 8.69621 82.8168 9.92113 82.0993 10.9655C83.1241 10.6362 84.2106 10.5575 85.2709 10.7356C86.3311 10.9138 87.3352 11.3439 88.202 11.9911C89.0687 12.6383 89.7737 13.4844 90.2598 14.4609C90.7459 15.4374 90.9995 16.5168 91 17.6117Z" fill="white"/>
<path d="M155 15C150.289 17.8188 145.628 23.4676 143 30C140.372 23.4676 135.712 17.8188 131 15C135.711 12.1812 140.372 6.53239 143 0C145.628 6.53239 150.288 12.1812 155 15Z" fill="#FF0000"/>
<path d="M291 8.35065C291 19.1103 276.5 30 276.5 30C276.5 30 262 19.1103 262 8.35065C262 2.25082 266.567 0.00066732 268.968 0.00066732C273.989 0.00066732 276.5 4.38619 276.5 4.38619C276.5 4.38619 279.011 0 284.032 0C286.433 0.000667304 291 2.25015 291 8.35065Z" fill="#FF0000"/>
<path d="M222 17.8353C222 21.8753 218.407 23.726 215.923 23.7273C213.153 23.7273 211.06 22.5107 209.814 21.5173C209.978 24.8039 210.78 27.1519 214.381 29H202.619C206.22 27.1519 207.022 24.8039 207.186 21.5173C205.94 22.51 203.847 23.7286 201.077 23.7273C198.596 23.7273 195 21.8753 195 17.8353C195 10.4513 200.365 12.4606 208.5 0C216.635 12.4606 222 10.4519 222 17.8353Z" fill="white"/>
</svg>
