<svg width="263" height="37" viewBox="0 0 263 37" fill="none" xmlns="http://www.w3.org/2000/svg">
<path d="M13.6094 14.25C13.6094 12.5833 13.2969 11.4219 12.6719 10.7656C12.0573 10.099 10.9688 9.76562 9.40625 9.76562H8.17188V19.0625H9.46875C10.9167 19.0625 11.9688 18.6979 12.625 17.9688C13.2812 17.2396 13.6094 16 13.6094 14.25ZM8.17188 20.7812V27.4375L11.6562 27.8594V29H0.75V27.8594L3.23438 27.4375V9.59375L0.546875 9.1875V8.04688H9.78125C12.75 8.04688 14.9688 8.54688 16.4375 9.54688C17.9062 10.5365 18.6406 12.0938 18.6406 14.2188C18.6406 18.5938 16.0885 20.7812 10.9844 20.7812H8.17188ZM26.3125 18.5C26.3125 21.8229 26.7656 24.1979 27.6719 25.625C28.5885 27.0417 30.0365 27.75 32.0156 27.75C33.9844 27.75 35.4219 27.0365 36.3281 25.6094C37.2448 24.1823 37.7031 21.8125 37.7031 18.5C37.7031 15.1979 37.2448 12.8542 36.3281 11.4688C35.4219 10.0833 33.9844 9.39062 32.0156 9.39062C30.0365 9.39062 28.5885 10.0833 27.6719 11.4688C26.7656 12.8542 26.3125 15.1979 26.3125 18.5ZM21.125 18.5C21.125 11.375 24.7552 7.8125 32.0156 7.8125C35.599 7.8125 38.3073 8.71875 40.1406 10.5312C41.974 12.3333 42.8906 14.9896 42.8906 18.5C42.8906 22.0521 41.9635 24.7448 40.1094 26.5781C38.2552 28.401 35.5573 29.3125 32.0156 29.3125C28.4844 29.3125 25.7865 28.401 23.9219 26.5781C22.0573 24.7552 21.125 22.0625 21.125 18.5ZM67.4219 8.04688V9.1875L64.8594 9.59375L57.9375 15.7031L67.1562 27.4375L69.1094 27.8594V29H62.2656L54.4375 18.9062L52.625 20.4688V27.4375L55.6406 27.8594V29H45.0156V27.8594L47.7031 27.4375V9.59375L45.0156 9.1875V8.04688H55.3281V9.1875L52.625 9.59375V18.125L62.1719 9.59375L60.25 9.1875V8.04688H67.4219ZM69.9219 27.8594L72.6094 27.4375V9.59375L69.9219 9.1875V8.04688H87.7656V13.375H86.3438L85.8438 9.98438C84.6771 9.83854 82.9896 9.76562 80.7812 9.76562H77.5312V17.4531H83.0156L83.5 15.1406H84.8906V21.5781H83.5L83.0156 19.2031H77.5312V27.2812H81.4844C84.1719 27.2812 85.9323 27.1979 86.7656 27.0312L87.6562 23.1562H89.0781L88.7812 29H69.9219V27.8594ZM98.8906 20.125V27.4375L101.578 27.8594V29H91.4688V27.8594L93.9531 27.4375V9.59375L91.2656 9.1875V8.04688H101.281C104.365 8.04688 106.667 8.52083 108.188 9.46875C109.708 10.4167 110.469 11.8958 110.469 13.9062C110.469 16.9062 109.062 18.8333 106.25 19.6875L111.844 27.4375L114.109 27.8594V29H107.328L101.484 20.125H98.8906ZM105.594 13.9375C105.594 12.375 105.271 11.2917 104.625 10.6875C103.979 10.0729 102.797 9.76562 101.078 9.76562H98.8906V18.4062H101.156C102.76 18.4062 103.901 18.0729 104.578 17.4062C105.255 16.7396 105.594 15.5833 105.594 13.9375Z" fill="white"/>
<path d="M138.869 17.3828H136.691C136.651 17.1011 136.57 16.8509 136.447 16.6321C136.325 16.41 136.167 16.2211 135.975 16.0653C135.783 15.9096 135.561 15.7902 135.309 15.7074C135.06 15.6245 134.79 15.5831 134.499 15.5831C133.972 15.5831 133.513 15.714 133.121 15.9759C132.73 16.2344 132.427 16.6122 132.212 17.1094C131.996 17.6032 131.888 18.2031 131.888 18.9091C131.888 19.6349 131.996 20.2448 132.212 20.7386C132.43 21.2325 132.735 21.6054 133.126 21.8572C133.518 22.1091 133.97 22.2351 134.484 22.2351C134.772 22.2351 135.039 22.197 135.284 22.1207C135.533 22.0445 135.753 21.9335 135.945 21.7876C136.138 21.6385 136.297 21.4579 136.423 21.2457C136.552 21.0336 136.641 20.7917 136.691 20.5199L138.869 20.5298C138.812 20.9972 138.671 21.4479 138.446 21.8821C138.224 22.313 137.924 22.6991 137.546 23.0405C137.172 23.3786 136.724 23.647 136.204 23.8459C135.687 24.0414 135.102 24.1392 134.449 24.1392C133.541 24.1392 132.729 23.9337 132.013 23.5227C131.3 23.1117 130.737 22.5168 130.322 21.7379C129.911 20.959 129.706 20.0161 129.706 18.9091C129.706 17.7988 129.915 16.8542 130.332 16.0753C130.75 15.2964 131.317 14.7031 132.033 14.2955C132.749 13.8845 133.554 13.679 134.449 13.679C135.039 13.679 135.586 13.7618 136.089 13.9276C136.597 14.0933 137.046 14.3352 137.437 14.6534C137.828 14.9683 138.146 15.3544 138.391 15.8118C138.64 16.2692 138.799 16.7929 138.869 17.3828ZM143.395 22.4489V15.4091H145.175V22.4489H143.395ZM140.765 19.8189V18.0391H147.805V19.8189H140.765ZM152.911 22.4489V15.4091H154.691V22.4489H152.911ZM150.281 19.8189V18.0391H157.321V19.8189H150.281ZM166.124 24.1491C165.339 24.1491 164.662 23.9901 164.096 23.6719C163.532 23.3504 163.098 22.8963 162.793 22.3097C162.488 21.7197 162.336 21.022 162.336 20.2166C162.336 19.4311 162.488 18.7417 162.793 18.1484C163.098 17.5552 163.527 17.0928 164.081 16.7614C164.638 16.4299 165.291 16.2642 166.04 16.2642C166.543 16.2642 167.012 16.3454 167.447 16.5078C167.884 16.6669 168.265 16.9072 168.59 17.2287C168.918 17.5502 169.173 17.9545 169.356 18.4418C169.538 18.9257 169.629 19.4924 169.629 20.142V20.7237H163.181V19.4112H167.635C167.635 19.1063 167.569 18.8362 167.437 18.6009C167.304 18.3655 167.12 18.1816 166.885 18.049C166.653 17.9131 166.383 17.8452 166.074 17.8452C165.753 17.8452 165.468 17.9197 165.219 18.0689C164.974 18.2147 164.782 18.4119 164.643 18.6605C164.503 18.9058 164.432 19.1792 164.429 19.4808V20.7287C164.429 21.1065 164.498 21.433 164.638 21.7081C164.78 21.9832 164.981 22.1953 165.239 22.3445C165.498 22.4936 165.804 22.5682 166.159 22.5682C166.394 22.5682 166.61 22.535 166.805 22.4688C167.001 22.4025 167.168 22.303 167.307 22.1705C167.447 22.0379 167.553 21.8755 167.626 21.6832L169.584 21.8125C169.485 22.2831 169.281 22.6941 168.973 23.0455C168.668 23.3935 168.273 23.6652 167.79 23.8608C167.309 24.053 166.754 24.1491 166.124 24.1491ZM173.825 24.1243C173.245 24.1243 172.72 23.9751 172.249 23.6768C171.782 23.3752 171.411 22.9328 171.135 22.3494C170.864 21.7628 170.728 21.0436 170.728 20.1918C170.728 19.3168 170.869 18.5893 171.15 18.0092C171.432 17.4259 171.807 16.9901 172.274 16.7017C172.745 16.41 173.26 16.2642 173.82 16.2642C174.248 16.2642 174.604 16.3371 174.889 16.483C175.177 16.6255 175.409 16.8045 175.585 17.0199C175.764 17.232 175.9 17.4408 175.993 17.6463H176.057V13.8182H178.17V24H176.082V22.777H175.993C175.893 22.9891 175.752 23.1996 175.57 23.4084C175.391 23.6139 175.157 23.7846 174.869 23.9205C174.584 24.0563 174.236 24.1243 173.825 24.1243ZM174.496 22.4389C174.838 22.4389 175.126 22.3461 175.361 22.1605C175.6 21.9716 175.782 21.7081 175.908 21.37C176.037 21.032 176.102 20.6359 176.102 20.1818C176.102 19.7277 176.039 19.3333 175.913 18.9986C175.787 18.6638 175.605 18.4053 175.366 18.223C175.128 18.0407 174.838 17.9496 174.496 17.9496C174.148 17.9496 173.855 18.044 173.616 18.233C173.378 18.4219 173.197 18.6837 173.074 19.0185C172.952 19.3532 172.89 19.741 172.89 20.1818C172.89 20.6259 172.952 21.0187 173.074 21.3601C173.2 21.6982 173.381 21.9633 173.616 22.1555C173.855 22.3445 174.148 22.4389 174.496 22.4389ZM179.912 24V16.3636H182.029V24H179.912ZM180.975 15.3793C180.661 15.3793 180.391 15.2749 180.165 15.0661C179.943 14.8539 179.832 14.6004 179.832 14.3054C179.832 14.0137 179.943 13.7635 180.165 13.5547C180.391 13.3426 180.661 13.2365 180.975 13.2365C181.29 13.2365 181.559 13.3426 181.781 13.5547C182.006 13.7635 182.119 14.0137 182.119 14.3054C182.119 14.6004 182.006 14.8539 181.781 15.0661C181.559 15.2749 181.29 15.3793 180.975 15.3793ZM187.788 16.3636V17.9545H183.189V16.3636H187.788ZM184.233 14.5341H186.351V21.6534C186.351 21.849 186.381 22.0014 186.441 22.1108C186.5 22.2169 186.583 22.2914 186.689 22.3345C186.798 22.3776 186.924 22.3991 187.067 22.3991C187.166 22.3991 187.266 22.3909 187.365 22.3743C187.465 22.3544 187.541 22.3395 187.594 22.3295L187.927 23.9055C187.821 23.9387 187.672 23.9768 187.48 24.0199C187.287 24.0663 187.054 24.0945 186.779 24.1044C186.268 24.1243 185.821 24.0563 185.436 23.9006C185.055 23.7448 184.758 23.5028 184.546 23.1747C184.334 22.8466 184.23 22.4323 184.233 21.9318V14.5341ZM189.167 24V16.3636H191.285V24H189.167ZM190.231 15.3793C189.916 15.3793 189.646 15.2749 189.421 15.0661C189.199 14.8539 189.088 14.6004 189.088 14.3054C189.088 14.0137 189.199 13.7635 189.421 13.5547C189.646 13.3426 189.916 13.2365 190.231 13.2365C190.546 13.2365 190.815 13.3426 191.037 13.5547C191.262 13.7635 191.375 14.0137 191.375 14.3054C191.375 14.6004 191.262 14.8539 191.037 15.0661C190.815 15.2749 190.546 15.3793 190.231 15.3793ZM196.432 24.1491C195.66 24.1491 194.992 23.9851 194.429 23.657C193.868 23.3255 193.436 22.8648 193.131 22.2749C192.826 21.6816 192.674 20.9938 192.674 20.2116C192.674 19.4228 192.826 18.7334 193.131 18.1435C193.436 17.5502 193.868 17.0895 194.429 16.7614C194.992 16.4299 195.66 16.2642 196.432 16.2642C197.204 16.2642 197.871 16.4299 198.431 16.7614C198.994 17.0895 199.428 17.5502 199.733 18.1435C200.038 18.7334 200.191 19.4228 200.191 20.2116C200.191 20.9938 200.038 21.6816 199.733 22.2749C199.428 22.8648 198.994 23.3255 198.431 23.657C197.871 23.9851 197.204 24.1491 196.432 24.1491ZM196.442 22.5085C196.793 22.5085 197.087 22.4091 197.322 22.2102C197.557 22.008 197.735 21.733 197.854 21.3849C197.977 21.0369 198.038 20.6409 198.038 20.1967C198.038 19.7526 197.977 19.3565 197.854 19.0085C197.735 18.6605 197.557 18.3854 197.322 18.1832C197.087 17.9811 196.793 17.88 196.442 17.88C196.087 17.88 195.789 17.9811 195.547 18.1832C195.309 18.3854 195.128 18.6605 195.005 19.0085C194.886 19.3565 194.826 19.7526 194.826 20.1967C194.826 20.6409 194.886 21.0369 195.005 21.3849C195.128 21.733 195.309 22.008 195.547 22.2102C195.789 22.4091 196.087 22.5085 196.442 22.5085ZM203.686 19.5852V24H201.568V16.3636H203.586V17.7109H203.676C203.845 17.2668 204.128 16.9155 204.526 16.657C204.924 16.3951 205.406 16.2642 205.973 16.2642C206.503 16.2642 206.965 16.3802 207.36 16.6122C207.754 16.8442 208.061 17.1757 208.279 17.6065C208.498 18.0341 208.608 18.5445 208.608 19.1378V24H206.49V19.5156C206.493 19.0483 206.374 18.6837 206.132 18.4219C205.89 18.1567 205.557 18.0241 205.132 18.0241C204.847 18.0241 204.596 18.0855 204.377 18.2081C204.161 18.3307 203.992 18.5097 203.87 18.745C203.75 18.977 203.689 19.2571 203.686 19.5852Z" fill="#FF0004"/>
</svg>
