<svg width="28" height="46" viewBox="0 0 28 46" fill="none" xmlns="http://www.w3.org/2000/svg">
<rect width="28" height="46" rx="5" fill="white"/>
<path d="M10.4787 22.1795C10.4787 21.9164 10.5622 21.6898 10.6934 21.4273L16.7235 8.56719V8.4473H9.32034C8.58014 8.4473 8.22168 8.06557 8.22168 7.54009C8.22168 7.00268 8.58014 6.62036 9.32034 6.62036H17.8222C18.4431 6.62036 18.9567 7.05041 18.9567 7.75482C18.9567 8.08943 18.7891 8.63875 18.5266 9.20002L12.4368 22.3465C12.2102 22.8242 11.9233 23.1106 11.4217 23.1106C10.932 23.1106 10.4787 22.7407 10.4787 22.1795Z" fill="black"/>
<path d="M13.161 39.6204C13.0315 39.6204 12.9266 39.5166 12.9266 39.3883C12.9266 38.9589 13.6978 37.3544 13.8517 36.0989C13.8684 35.9635 13.6703 35.9134 13.5976 36.0291C13.2003 36.6596 12.6587 37.5417 11.3394 37.5107L11.3137 37.5119C11.297 37.5125 11.2797 37.5131 11.2624 37.5131C9.82975 37.5131 8.66846 36.2528 8.66846 34.6984C8.66846 33.144 9.82975 31.8843 11.2624 31.8843C11.5422 31.8843 11.8118 31.9326 12.0641 32.0215C12.1231 32.0424 12.1828 31.9744 12.1535 31.9201C11.9299 31.5044 11.8016 31.0207 11.8016 30.5047C11.8016 28.9724 12.9182 27.6913 14.3348 27.6913C15.7514 27.6913 16.8679 28.9724 16.8679 30.5047C16.8679 31.0207 16.7397 31.5044 16.516 31.9201C16.4868 31.9744 16.5464 32.0424 16.6055 32.0215C16.8578 31.9326 17.1274 31.8843 17.4071 31.8843C18.8398 31.8843 20.0011 33.144 20.0011 34.6984C20.0011 36.2528 18.8398 37.5131 17.4071 37.5131C17.3898 37.5131 17.3725 37.5125 17.3558 37.5119L17.3302 37.5107C16.0108 37.5417 15.4692 36.6596 15.072 36.0291C14.9992 35.9134 14.8012 35.9635 14.8179 36.0989C14.9718 37.3544 15.743 38.9589 15.743 39.3883C15.743 39.5166 15.638 39.6204 15.5086 39.6204H13.161Z" fill="black"/>
</svg>
