<svg width="28" height="46" viewBox="0 0 28 46" fill="none" xmlns="http://www.w3.org/2000/svg">
<rect width="28" height="46" rx="5" fill="white"/>
<path d="M8.23625 22.6309C7.59818 22.6309 7.20801 22.1935 7.20801 21.4964V7.39908C7.20801 6.70197 7.59818 6.26459 8.23625 6.26459C8.87433 6.26459 9.2757 6.70197 9.2757 7.39908V21.4964C9.2757 22.1935 8.87433 22.6309 8.23625 22.6309ZM9.86893 14.7609V14.17C9.86893 9.2779 11.9608 6.04028 15.6122 6.04028C19.2636 6.04028 21.3431 9.2779 21.3431 14.17V14.7609C21.3431 19.6412 19.2518 22.8558 15.6004 22.8558C11.9608 22.8558 9.86893 19.653 9.86893 14.7609ZM11.9372 14.1818V14.7373C11.9372 18.6726 13.3432 21.0714 15.6122 21.0714C17.8812 21.0714 19.2872 18.6726 19.2872 14.7373V14.1818C19.2872 10.2471 17.8694 7.83646 15.6004 7.83646C13.3432 7.83646 11.9372 10.2471 11.9372 14.1818Z" fill="black"/>
<path d="M13.2848 39.0403C13.1567 39.0403 13.0528 38.9376 13.0528 38.8107C13.0528 38.3857 13.816 36.7979 13.9683 35.5554C13.9848 35.4214 13.7888 35.3718 13.7168 35.4863C13.3237 36.1102 12.7877 36.9832 11.4821 36.9525L11.4567 36.9537C11.4402 36.9543 11.4231 36.9549 11.4059 36.9549C9.98811 36.9549 8.83887 35.7076 8.83887 34.1694C8.83887 32.6312 9.98811 31.3845 11.4059 31.3845C11.6828 31.3845 11.9496 31.4323 12.1992 31.5203C12.2577 31.541 12.3167 31.4737 12.2878 31.4199C12.0664 31.0085 11.9395 30.5298 11.9395 30.0192C11.9395 28.5029 13.0445 27.235 14.4464 27.235C15.8483 27.235 16.9533 28.5029 16.9533 30.0192C16.9533 30.5298 16.8264 31.0085 16.605 31.4199C16.5761 31.4737 16.6351 31.541 16.6935 31.5203C16.9432 31.4323 17.21 31.3845 17.4869 31.3845C18.9047 31.3845 20.0539 32.6312 20.0539 34.1694C20.0539 35.7076 18.9047 36.9549 17.4869 36.9549C17.4697 36.9549 17.4526 36.9543 17.4361 36.9537L17.4107 36.9525C16.105 36.9832 15.5691 36.1102 15.176 35.4863C15.1039 35.3718 14.908 35.4214 14.9245 35.5554C15.0768 36.7979 15.84 38.3857 15.84 38.8107C15.84 38.9376 15.7361 39.0403 15.608 39.0403H13.2848Z" fill="black"/>
</svg>
