<svg width="28" height="46" viewBox="0 0 28 46" fill="none" xmlns="http://www.w3.org/2000/svg">
<rect width="28" height="46" rx="5" fill="white"/>
<path d="M7.50195 14.9485C7.50195 9.25871 9.69003 6.10034 13.6177 6.10034C14.8834 6.10034 16.1018 6.44305 17.0006 7.05818C17.7818 7.56694 18.2551 8.21754 18.2551 8.76176C18.2551 9.27052 17.8881 9.64928 17.3794 9.64928C17.0485 9.64928 16.7997 9.5187 16.3737 9.10507C15.5222 8.26481 14.6352 7.88662 13.5823 7.88662C10.9439 7.88662 9.54822 10.2053 9.51277 14.6294H9.60731C10.1515 13.1864 11.8433 12.1689 13.6886 12.1689C16.6933 12.1689 18.7987 14.3334 18.7987 17.4214C18.7987 20.6743 16.5752 22.8866 13.2862 22.8866C11.2872 22.8866 9.69004 22.0582 8.72038 20.5325C7.90376 19.2313 7.50195 17.3972 7.50195 14.9485ZM9.8088 17.4923C9.8088 19.6095 11.2754 21.1122 13.369 21.1122C15.404 21.1122 16.7642 19.6804 16.7642 17.5041C16.7642 15.3509 15.3922 13.9315 13.2862 13.9315C11.24 13.9315 9.8088 15.3982 9.8088 17.4923Z" fill="black"/>
<path d="M12.2294 39.1003C12.1012 39.1003 11.9972 38.9975 11.9972 38.8705C11.9972 38.445 12.7612 36.8555 12.9137 35.6117C12.9302 35.4775 12.7341 35.4279 12.662 35.5425C12.2684 36.1671 11.7319 37.0411 10.4248 37.0103L10.3994 37.0115C10.3829 37.0121 10.3657 37.0127 10.3486 37.0127C8.92928 37.0127 7.77881 35.7641 7.77881 34.2242C7.77881 32.6843 8.92928 31.4364 10.3486 31.4364C10.6257 31.4364 10.8928 31.4842 11.1428 31.5723C11.2013 31.5929 11.2604 31.5256 11.2314 31.4718C11.0098 31.0599 10.8828 30.5807 10.8828 30.0696C10.8828 28.5516 11.9889 27.2823 13.3923 27.2823C14.7957 27.2823 15.9018 28.5516 15.9018 30.0696C15.9018 30.5807 15.7748 31.0599 15.5532 31.4718C15.5243 31.5256 15.5834 31.5929 15.6419 31.5723C15.8918 31.4842 16.1589 31.4364 16.436 31.4364C17.8553 31.4364 19.0058 32.6843 19.0058 34.2242C19.0058 35.7641 17.8553 37.0127 16.436 37.0127C16.4189 37.0127 16.4017 37.0121 16.3852 37.0115L16.3598 37.0103C15.0527 37.0411 14.5162 36.1671 14.1227 35.5425C14.0506 35.4279 13.8544 35.4775 13.8709 35.6117C14.0234 36.8555 14.7874 38.445 14.7874 38.8705C14.7874 38.9975 14.6834 39.1003 14.5552 39.1003H12.2294Z" fill="black"/>
</svg>
