<svg width="28" height="46" viewBox="0 0 28 46" fill="none" xmlns="http://www.w3.org/2000/svg">
<rect width="28" height="46" rx="5" fill="white"/>
<path d="M7.58203 19.6463C7.58203 19.0497 7.92832 18.6438 8.45342 18.6438C8.85872 18.6438 9.12157 18.8584 9.4315 19.4669C10.0877 20.7436 11.1856 21.4362 12.6178 21.4362C14.7892 21.4362 16.3048 19.9086 16.3048 17.7135C16.3048 15.6131 14.8368 14.1337 12.7728 14.1337C11.8418 14.1337 11.0187 14.4437 10.3267 15.0641C9.45534 15.8759 9.21693 16.0189 8.83488 16.0189C8.15481 16.0189 7.80912 15.4819 7.86872 14.5629L8.39382 7.88085C8.46535 6.99814 8.97852 6.58032 10.0043 6.58032H16.6982C17.3902 6.58032 17.7961 6.92662 17.7961 7.51132C17.7961 8.0841 17.4021 8.40595 16.6982 8.40595H10.2671L9.81355 13.7159H9.93275C10.4698 12.9167 11.8657 12.3439 13.2383 12.3439C16.2691 12.3439 18.4046 14.5152 18.4046 17.6056C18.4046 20.8992 16.0301 23.238 12.7013 23.238C9.5513 23.238 7.58203 21.3164 7.58203 19.6463Z" fill="black"/>
<path d="M12.3027 39.5803C12.1734 39.5803 12.0685 39.4766 12.0685 39.3485C12.0685 38.9193 12.8391 37.316 12.9929 36.0614C13.0096 35.9261 12.8117 35.876 12.739 35.9917C12.3421 36.6217 11.8009 37.5032 10.4825 37.4722L10.4568 37.4734C10.4402 37.474 10.4229 37.4746 10.4056 37.4746C8.97393 37.4746 7.81348 36.2152 7.81348 34.6619C7.81348 33.1087 8.97393 31.8499 10.4056 31.8499C10.6851 31.8499 10.9545 31.8982 11.2066 31.987C11.2656 32.0078 11.3252 31.9399 11.296 31.8857C11.0725 31.4702 10.9444 30.9869 10.9444 30.4713C10.9444 28.9401 12.0601 27.6599 13.4757 27.6599C14.8913 27.6599 16.007 28.9401 16.007 30.4713C16.007 30.9869 15.8789 31.4702 15.6554 31.8857C15.6262 31.9399 15.6858 32.0078 15.7448 31.987C15.9969 31.8982 16.2663 31.8499 16.5458 31.8499C17.9775 31.8499 19.1379 33.1087 19.1379 34.6619C19.1379 36.2152 17.9775 37.4746 16.5458 37.4746C16.5285 37.4746 16.5112 37.474 16.4946 37.4734L16.4689 37.4722C15.1505 37.5032 14.6093 36.6217 14.2124 35.9917C14.1397 35.876 13.9418 35.9261 13.9585 36.0614C14.1123 37.316 14.8829 38.9193 14.8829 39.3485C14.8829 39.4766 14.778 39.5803 14.6487 39.5803H12.3027Z" fill="black"/>
</svg>
