<svg width="28" height="46" viewBox="0 0 28 46" fill="none" xmlns="http://www.w3.org/2000/svg">
<rect width="28" height="46" rx="5" fill="white"/>
<path d="M18.1863 22.8152C17.7697 22.8152 17.4125 22.5775 16.9965 21.9945L12.0108 14.9389L9.96466 17.057V21.7562C9.96466 22.4581 9.55996 22.8985 8.91751 22.8985C8.27507 22.8985 7.88281 22.4581 7.88281 21.7562V7.56242C7.88281 6.86054 8.27507 6.42017 8.91751 6.42017C9.55996 6.42017 9.96466 6.86054 9.96466 7.56242V14.3678H10.0598L16.8295 7.14582C17.2699 6.65849 17.5432 6.50338 17.8885 6.50338C18.4121 6.50338 18.8049 6.9081 18.8049 7.40791C18.8049 7.71695 18.7093 7.89582 18.2338 8.39504L13.5578 13.5114L18.6498 20.5783C19.1496 21.2689 19.2566 21.4828 19.2566 21.7919C19.2566 22.3986 18.8168 22.8152 18.1863 22.8152Z" fill="black"/>
<path d="M12.4113 39.4202C12.2824 39.4202 12.1778 39.3168 12.1778 39.189C12.1778 38.7611 12.9462 37.1624 13.0996 35.9114C13.1162 35.7765 12.9189 35.7266 12.8464 35.8419C12.4506 36.4701 11.911 37.349 10.5964 37.3181L10.5708 37.3193C10.5542 37.3199 10.5369 37.3205 10.5197 37.3205C9.09217 37.3205 7.93506 36.0647 7.93506 34.516C7.93506 32.9672 9.09217 31.712 10.5197 31.712C10.7984 31.712 11.067 31.7602 11.3184 31.8487C11.3773 31.8695 11.4367 31.8018 11.4076 31.7477C11.1847 31.3335 11.0569 30.8515 11.0569 30.3374C11.0569 28.8107 12.1695 27.5341 13.581 27.5341C14.9924 27.5341 16.105 28.8107 16.105 30.3374C16.105 30.8515 15.9772 31.3335 15.7543 31.7477C15.7252 31.8018 15.7846 31.8695 15.8435 31.8487C16.0949 31.7602 16.3635 31.712 16.6422 31.712C18.0697 31.712 19.2268 32.9672 19.2268 34.516C19.2268 36.0647 18.0697 37.3205 16.6422 37.3205C16.625 37.3205 16.6077 37.3199 16.5911 37.3193L16.5655 37.3181C15.2509 37.349 14.7113 36.4701 14.3155 35.8419C14.243 35.7266 14.0457 35.7765 14.0623 35.9114C14.2157 37.1624 14.9841 38.7611 14.9841 39.189C14.9841 39.3168 14.8795 39.4202 14.7506 39.4202H12.4113Z" fill="black"/>
</svg>
