<svg width="28" height="46" viewBox="0 0 28 46" fill="none" xmlns="http://www.w3.org/2000/svg">
<rect width="28" height="46" rx="5" fill="white"/>
<path d="M7.98716 22.9203C7.39248 22.9203 7 22.5758 7 22.0286C7 21.7904 7.05946 21.5646 7.15461 21.2794L12.0428 7.61352C12.3402 6.7812 12.7565 6.40039 13.5176 6.40039C14.2788 6.40039 14.695 6.7812 14.9924 7.61352L19.8806 21.2794C19.9758 21.5408 20.0352 21.7904 20.0352 22.0167C20.0352 22.5758 19.6428 22.9203 19.0362 22.9203C18.4653 22.9203 18.1442 22.647 17.9182 21.9454L16.5505 17.8895H10.4729L9.10517 21.9454C8.87916 22.6589 8.55804 22.9203 7.98716 22.9203ZM11.0319 16.2124H15.9915L13.5533 8.98113H13.47L11.0319 16.2124Z" fill="black"/>
<path d="M12.6458 39.4004C12.5167 39.4004 12.4119 39.297 12.4119 39.1693C12.4119 38.7415 13.1801 37.1434 13.3336 35.8929C13.3501 35.758 13.153 35.7081 13.0804 35.8234C12.6849 36.4513 12.1456 37.33 10.8315 37.2991L10.806 37.3003C10.7889 37.3009 10.7719 37.3015 10.7547 37.3015C9.32766 37.3015 8.1709 36.0461 8.1709 34.4979C8.1709 32.9497 9.32766 31.695 10.7547 31.695C11.0334 31.695 11.3016 31.7431 11.5529 31.8316C11.6116 31.8524 11.6714 31.7847 11.6422 31.7306C11.4195 31.3166 11.2917 30.8348 11.2917 30.3209C11.2917 28.7946 12.4038 27.5185 13.8148 27.5185C15.2258 27.5185 16.3378 28.7946 16.3378 30.3209C16.3378 30.8348 16.21 31.3166 15.9873 31.7306C15.9582 31.7847 16.018 31.8524 16.0766 31.8316C16.328 31.7431 16.5962 31.695 16.8748 31.695C18.3019 31.695 19.4587 32.9497 19.4587 34.4979C19.4587 36.0461 18.3019 37.3015 16.8748 37.3015C16.8577 37.3015 16.8406 37.3009 16.8236 37.3003L16.7981 37.2991C15.4839 37.33 14.9446 36.4513 14.5491 35.8234C14.4766 35.7081 14.2794 35.758 14.2959 35.8929C14.4495 37.1434 15.2176 38.7415 15.2176 39.1693C15.2176 39.297 15.1129 39.4004 14.9837 39.4004H12.6458Z" fill="black"/>
</svg>
