<svg width="28" height="46" viewBox="0 0 28 46" fill="none" xmlns="http://www.w3.org/2000/svg">
<rect width="28" height="46" rx="5" fill="white"/>
<path d="M14.5694 7.57432C14.5694 6.86056 14.9617 6.42017 15.6047 6.42017C16.2471 6.42017 16.6513 6.86056 16.6513 7.57432V18.1393C16.6513 21.2207 14.8666 23.1249 11.9996 23.1249C10.4527 23.1249 9.22722 22.6607 8.38271 21.78C7.83535 21.2088 7.50195 20.4951 7.50195 19.8526C7.50195 19.234 7.83536 18.8536 8.37083 18.8536C8.78684 18.8536 9.01326 19.0557 9.3223 19.6625C9.834 20.7096 10.7148 21.257 11.9159 21.257C13.5936 21.257 14.5694 20.1504 14.5694 18.2231V7.57432Z" fill="black"/>
<path d="M12.2571 39.4202C12.1281 39.4202 12.0235 39.3168 12.0235 39.189C12.0235 38.7611 12.7919 37.1624 12.9453 35.9114C12.9619 35.7765 12.7646 35.7266 12.6921 35.8419C12.2963 36.4701 11.7567 37.349 10.4421 37.3181L10.4165 37.3193C10.3999 37.3199 10.3826 37.3205 10.3654 37.3205C8.93787 37.3205 7.78076 36.0647 7.78076 34.516C7.78076 32.9672 8.93787 31.712 10.3654 31.712C10.6441 31.712 10.9127 31.7602 11.1641 31.8487C11.223 31.8695 11.2824 31.8018 11.2533 31.7477C11.0304 31.3335 10.9026 30.8515 10.9026 30.3374C10.9026 28.8107 12.0152 27.5341 13.4267 27.5341C14.8381 27.5341 15.9507 28.8107 15.9507 30.3374C15.9507 30.8515 15.8229 31.3335 15.6 31.7477C15.5709 31.8018 15.6303 31.8695 15.6892 31.8487C15.9406 31.7602 16.2092 31.712 16.4879 31.712C17.9154 31.712 19.0725 32.9672 19.0725 34.516C19.0725 36.0647 17.9154 37.3205 16.4879 37.3205C16.4707 37.3205 16.4534 37.3199 16.4368 37.3193L16.4113 37.3181C15.0967 37.349 14.557 36.4701 14.1612 35.8419C14.0887 35.7266 13.8914 35.7765 13.908 35.9114C14.0614 37.1624 14.8298 38.7611 14.8298 39.189C14.8298 39.3168 14.7252 39.4202 14.5962 39.4202H12.2571Z" fill="black"/>
</svg>
