<svg width="28" height="46" viewBox="0 0 28 46" fill="none" xmlns="http://www.w3.org/2000/svg">
<rect width="28" height="46" rx="5" fill="white"/>
<path d="M13.4695 22.8558C10.1369 22.8558 7.82129 20.9174 7.82129 18.1289C7.82129 16.1793 9.13286 14.5366 11.0825 14.0638V13.9457C9.49882 13.4257 8.45936 11.9961 8.45936 10.3534C8.45936 7.87188 10.5861 6.04028 13.5168 6.04028C16.4474 6.04028 18.586 7.87188 18.586 10.3534C18.586 11.9725 17.5111 13.4257 15.951 13.9457V14.0638C17.8771 14.5248 19.2004 16.1793 19.2004 18.1053C19.2004 20.8819 16.8134 22.8558 13.4695 22.8558ZM13.5168 13.2486C15.3129 13.2486 16.5773 12.1023 16.5773 10.495C16.5773 8.90014 15.3247 7.78925 13.5168 7.78925C11.7206 7.78925 10.4562 8.91194 10.4562 10.495C10.4562 12.0905 11.7324 13.2486 13.5168 13.2486ZM13.5168 21.1304C15.6559 21.1304 17.1918 19.8425 17.1918 18.0463C17.1918 16.2501 15.6559 14.938 13.5168 14.938C11.3776 14.938 9.84175 16.2383 9.84175 18.0463C9.84175 19.8425 11.3776 21.1304 13.5168 21.1304Z" fill="black"/>
<path d="M12.9454 39.0403C12.8173 39.0403 12.7134 38.9376 12.7134 38.8107C12.7134 38.3857 13.4766 36.7979 13.6289 35.5554C13.6455 35.4214 13.4495 35.3718 13.3775 35.4863C12.9844 36.1102 12.4484 36.9832 11.1427 36.9525L11.1173 36.9537C11.1008 36.9543 11.0837 36.9549 11.0666 36.9549C9.64876 36.9549 8.49951 35.7076 8.49951 34.1694C8.49951 32.6312 9.64876 31.3845 11.0666 31.3845C11.3434 31.3845 11.6102 31.4323 11.8599 31.5203C11.9183 31.541 11.9774 31.4737 11.9484 31.4199C11.7271 31.0085 11.6002 30.5298 11.6002 30.0192C11.6002 28.5029 12.7052 27.235 14.107 27.235C15.5089 27.235 16.6139 28.5029 16.6139 30.0192C16.6139 30.5298 16.487 31.0085 16.2657 31.4199C16.2367 31.4737 16.2958 31.541 16.3542 31.5203C16.6039 31.4323 16.8707 31.3845 17.1475 31.3845C18.5653 31.3845 19.7146 32.6312 19.7146 34.1694C19.7146 35.7076 18.5653 36.9549 17.1475 36.9549C17.1304 36.9549 17.1133 36.9543 17.0967 36.9537L17.0714 36.9525C15.7657 36.9832 15.2297 36.1102 14.8366 35.4863C14.7646 35.3718 14.5686 35.4214 14.5852 35.5554C14.7374 36.7979 15.5007 38.3857 15.5007 38.8107C15.5007 38.9376 15.3968 39.0403 15.2687 39.0403H12.9454Z" fill="black"/>
</svg>
