<svg width="28" height="46" viewBox="0 0 28 46" fill="none" xmlns="http://www.w3.org/2000/svg">
<rect width="28" height="46" rx="5" fill="white"/>
<path d="M8.78174 19.2044C8.78174 18.6726 9.14806 18.2942 9.66802 18.2942C10.0815 18.2942 10.3418 18.5067 10.6488 19.1094C11.2632 20.3737 12.4922 21.0832 14.0994 21.0832C16.2144 21.0832 17.5619 19.9251 17.5619 18.1171C17.5619 16.3092 16.179 15.092 14.1231 15.092H12.6456C12.1026 15.092 11.7006 14.7019 11.7006 14.1936C11.7006 13.6736 12.0784 13.3076 12.6456 13.3076H14.0404C15.7658 13.3076 17.0183 12.1377 17.0183 10.5186C17.0183 8.90013 15.8012 7.81287 13.9932 7.81287C12.5866 7.81287 11.5235 8.50996 11.0507 9.72709C10.814 10.377 10.5189 10.6249 10.0579 10.6249C9.51438 10.6249 9.15992 10.2353 9.15992 9.64446C9.15992 7.81286 11.1334 6.04028 14.0404 6.04028C16.9947 6.04028 19.0978 7.80105 19.0978 10.2589C19.0978 12.0433 17.7626 13.745 16.1199 14.0284V14.1464C18.1168 14.3713 19.6415 16.1197 19.6415 18.1526C19.6415 20.9174 17.3489 22.8558 14.064 22.8558C11.0153 22.8558 8.78174 21.0124 8.78174 19.2044Z" fill="black"/>
<path d="M13.3389 39.0403C13.2109 39.0403 13.107 38.9376 13.107 38.8107C13.107 38.3857 13.8702 36.7979 14.0225 35.5554C14.039 35.4214 13.843 35.3718 13.771 35.4863C13.3779 36.1102 12.8419 36.9832 11.5363 36.9525L11.5109 36.9537C11.4944 36.9543 11.4773 36.9549 11.4601 36.9549C10.0423 36.9549 8.89307 35.7076 8.89307 34.1694C8.89307 32.6312 10.0423 31.3845 11.4601 31.3845C11.737 31.3845 12.0038 31.4323 12.2535 31.5203C12.3119 31.541 12.3709 31.4737 12.342 31.4199C12.1206 31.0085 11.9937 30.5298 11.9937 30.0192C11.9937 28.5029 13.0987 27.235 14.5006 27.235C15.9025 27.235 17.0075 28.5029 17.0075 30.0192C17.0075 30.5298 16.8805 31.0085 16.6592 31.4199C16.6303 31.4737 16.6893 31.541 16.7477 31.5203C16.9974 31.4323 17.2642 31.3845 17.5411 31.3845C18.9589 31.3845 20.1081 32.6312 20.1081 34.1694C20.1081 35.7076 18.9589 36.9549 17.5411 36.9549C17.5239 36.9549 17.5068 36.9543 17.4903 36.9537L17.4649 36.9525C16.1592 36.9832 15.6233 36.1102 15.2302 35.4863C15.1582 35.3718 14.9622 35.4214 14.9787 35.5554C15.131 36.7979 15.8942 38.3857 15.8942 38.8107C15.8942 38.9376 15.7903 39.0403 15.6622 39.0403H13.3389Z" fill="black"/>
</svg>
