<svg width="28" height="46" viewBox="0 0 28 46" fill="none" xmlns="http://www.w3.org/2000/svg">
<rect width="28" height="46" rx="5" fill="white"/>
<path d="M15.5894 21.7337V19.3237H9.34481C8.4191 19.3237 7.80176 18.8374 7.80176 18.0534C7.80176 17.6146 7.94409 17.1989 8.3592 16.4392C10.057 13.4356 11.1257 11.7259 13.8204 7.68916C14.5213 6.65671 15.0675 6.30029 15.8865 6.30029C16.967 6.30029 17.5724 6.91764 17.5724 8.02185V17.5073H18.8071C19.4719 17.5073 19.8633 17.84 19.8633 18.4217C19.8633 18.9916 19.4837 19.3237 18.8071 19.3237H17.5724V21.7337C17.5724 22.4228 17.216 22.8142 16.575 22.8142C15.9458 22.8142 15.5894 22.4228 15.5894 21.7337ZM9.7961 17.5073H15.5894V8.31836H15.4826C13.4646 11.2983 11.351 14.694 9.7961 17.3887V17.5073Z" fill="black"/>
<path d="M12.9618 39.3003C12.8331 39.3003 12.7287 39.1971 12.7287 39.0696C12.7287 38.6426 13.4955 37.0474 13.6485 35.7991C13.6651 35.6645 13.4682 35.6147 13.3959 35.7297C13.0009 36.3565 12.4624 37.2336 11.1507 37.2028L11.1252 37.204C11.1086 37.2046 11.0914 37.2052 11.0742 37.2052C9.64973 37.2052 8.49512 35.9521 8.49512 34.4067C8.49512 32.8612 9.64973 31.6088 11.0742 31.6088C11.3523 31.6088 11.6204 31.6568 11.8712 31.7452C11.9299 31.7659 11.9892 31.6983 11.9602 31.6444C11.7378 31.231 11.6103 30.7501 11.6103 30.2371C11.6103 28.7136 12.7204 27.4398 14.1288 27.4398C15.5373 27.4398 16.6474 28.7136 16.6474 30.2371C16.6474 30.7501 16.5199 31.231 16.2975 31.6444C16.2685 31.6983 16.3278 31.7659 16.3865 31.7452C16.6373 31.6568 16.9054 31.6088 17.1835 31.6088C18.608 31.6088 19.7626 32.8612 19.7626 34.4067C19.7626 35.9521 18.608 37.2052 17.1835 37.2052C17.1663 37.2052 17.1491 37.2046 17.1325 37.204L17.107 37.2028C15.7952 37.2336 15.2568 36.3565 14.8618 35.7297C14.7895 35.6147 14.5926 35.6645 14.6092 35.7991C14.7622 37.0474 15.529 38.6426 15.529 39.0696C15.529 39.1971 15.4246 39.3003 15.2959 39.3003H12.9618Z" fill="black"/>
</svg>
