<svg width="28" height="46" viewBox="0 0 28 46" fill="none" xmlns="http://www.w3.org/2000/svg">
<rect width="28" height="46" rx="5" fill="white"/>
<path d="M8.40262 21.4138C8.40262 20.9882 8.60354 20.6576 9.30071 19.8661L14.2165 14.2409C15.5519 12.7168 16.06 11.724 16.06 10.6131C16.06 8.94735 14.8664 7.83646 13.0703 7.83646C11.5459 7.83646 10.4233 8.74607 10.0688 10.2825C9.90337 10.9088 9.57253 11.2276 9.08804 11.2276C8.50898 11.2276 8.13086 10.7908 8.13086 10.1527C8.13086 8.14341 10.0806 6.04028 13.2003 6.04028C16.1072 6.04028 18.1515 7.88369 18.1515 10.4832C18.1515 12.0197 17.5489 13.1424 15.4218 15.5648L11.0496 20.5632V20.7049H17.6079C18.2343 20.7049 18.636 21.0478 18.636 21.6151C18.636 22.1699 18.2579 22.5128 17.6079 22.5128H9.80887C8.94619 22.5128 8.40262 22.0991 8.40262 21.4138Z" fill="black"/>
<path d="M12.4168 39.0403C12.2885 39.0403 12.1844 38.9376 12.1844 38.8107C12.1844 38.3857 12.9476 36.7979 13.1002 35.5554C13.1166 35.4214 12.9207 35.3718 12.8486 35.4863C12.4557 36.1102 11.9198 36.9832 10.6142 36.9525L10.5888 36.9537C10.5719 36.9543 10.5549 36.9549 10.5379 36.9549C9.12001 36.9549 7.9707 35.7076 7.9707 34.1694C7.9707 32.6312 9.12001 31.3845 10.5379 31.3845C10.8147 31.3845 11.0812 31.4323 11.331 31.5203C11.3892 31.541 11.4486 31.4737 11.4197 31.4199C11.1984 31.0085 11.0714 30.5298 11.0714 30.0192C11.0714 28.5029 12.1763 27.235 13.5782 27.235C14.9801 27.235 16.085 28.5029 16.085 30.0192C16.085 30.5298 15.9581 31.0085 15.7368 31.4199C15.7079 31.4737 15.7672 31.541 15.8255 31.5203C16.0752 31.4323 16.3417 31.3845 16.6186 31.3845C18.0365 31.3845 19.1858 32.6312 19.1858 34.1694C19.1858 35.7076 18.0365 36.9549 16.6186 36.9549C16.6015 36.9549 16.5846 36.9543 16.5676 36.9537L16.5423 36.9525C15.2366 36.9832 14.7008 36.1102 14.3079 35.4863C14.2358 35.3718 14.0399 35.4214 14.0563 35.5554C14.2089 36.7979 14.972 38.3857 14.972 38.8107C14.972 38.9376 14.868 39.0403 14.7396 39.0403H12.4168Z" fill="black"/>
</svg>
