<svg width="28" height="46" viewBox="0 0 28 46" fill="none" xmlns="http://www.w3.org/2000/svg">
<rect width="28" height="46" rx="5" fill="white"/>
<path d="M8.05293 20.0875C8.05293 19.556 8.41865 19.2139 8.9265 19.2139C9.24561 19.2139 9.49334 19.3555 9.93042 19.7807C10.7922 20.6307 11.6663 21.0206 12.7522 21.0206C15.4213 21.0206 16.7791 18.5763 16.7791 14.3253H16.6729C16.0825 15.919 14.5707 16.8758 12.6461 16.8758C9.62311 16.8758 7.52148 14.6556 7.52148 11.4675C7.52148 8.18442 9.75286 6.00024 13.1067 6.00024C16.8027 6.00024 18.7745 8.88163 18.7745 14.2303C18.7745 19.8633 16.7319 22.7919 12.7876 22.7919C11.4888 22.7919 10.2607 22.461 9.33998 21.8588C8.54841 21.3391 8.05293 20.6779 8.05293 20.0875ZM16.4252 11.5147C16.4252 9.30632 15.0314 7.79514 12.9888 7.79514C10.9573 7.79514 9.56412 9.30631 9.56412 11.5029C9.56412 13.6517 10.9337 15.0927 12.9888 15.0927C15.055 15.0927 16.4252 13.6635 16.4252 11.5147Z" fill="black"/>
<path d="M12.2293 39.0002C12.1013 39.0002 11.9975 38.8976 11.9975 38.7708C11.9975 38.3461 12.7602 36.7594 12.9124 35.5178C12.9289 35.3839 12.7331 35.3344 12.6611 35.4488C12.2683 36.0723 11.7327 36.9446 10.4279 36.914L10.4026 36.9151C10.3861 36.9157 10.369 36.9163 10.3519 36.9163C8.93505 36.9163 7.78662 35.67 7.78662 34.1328C7.78662 32.5957 8.93505 31.35 10.3519 31.35C10.6285 31.35 10.8951 31.3978 11.1446 31.4856C11.203 31.5063 11.262 31.439 11.2331 31.3854C11.0119 30.9742 10.8851 30.4959 10.8851 29.9857C10.8851 28.4704 11.9893 27.2034 13.3901 27.2034C14.791 27.2034 15.8952 28.4704 15.8952 29.9857C15.8952 30.4959 15.7684 30.9742 15.5472 31.3854C15.5183 31.439 15.5773 31.5063 15.6357 31.4856C15.8852 31.3978 16.1518 31.35 16.4284 31.35C17.8452 31.35 18.9937 32.5957 18.9937 34.1328C18.9937 35.67 17.8452 36.9163 16.4284 36.9163C16.4113 36.9163 16.3942 36.9157 16.3777 36.9151L16.3523 36.914C15.0476 36.9446 14.512 36.0723 14.1192 35.4488C14.0472 35.3344 13.8514 35.3839 13.8679 35.5178C14.0201 36.7594 14.7828 38.3461 14.7828 38.7708C14.7828 38.8976 14.6789 39.0002 14.5509 39.0002H12.2293Z" fill="black"/>
</svg>
