<svg width="28" height="46" viewBox="0 0 28 46" fill="none" xmlns="http://www.w3.org/2000/svg">
<rect width="28" height="46" rx="5" fill="white"/>
<path d="M18.3962 24.2972C17.9352 24.2972 17.6164 24.0847 17.2145 23.5411L16.3049 22.2885C15.4891 22.6545 14.5559 22.8558 13.4922 22.8558C9.41527 22.8558 7.04004 20.1494 7.04004 15.7183V13.3431C7.04004 8.84051 9.52152 6.04028 13.4922 6.04028C17.4033 6.04028 19.9562 8.84051 19.9562 13.3431V15.7183C19.9562 18.247 19.2113 20.0668 17.9116 21.2367L18.7981 22.4538C19.1169 22.903 19.2349 23.1273 19.2349 23.423C19.2349 23.8716 18.9162 24.2972 18.3962 24.2972ZM9.09653 15.7419C9.09653 19.0385 10.7864 21.0242 13.4804 21.0242C14.0713 21.0242 14.6385 20.9174 15.1586 20.7049L14.4733 19.7829C14.2129 19.4287 14.0123 19.1094 14.0123 18.767C14.0123 18.2588 14.4024 17.8686 14.91 17.8686C15.2294 17.8686 15.5481 18.0463 15.9147 18.5539L16.6826 19.6176C17.4276 18.7434 17.888 17.6207 17.888 15.7419V13.3431C17.888 9.975 15.9855 7.89549 13.4922 7.89549C10.7865 7.89549 9.09653 9.975 9.09653 13.3431V15.7419Z" fill="black"/>
<path d="M12.6256 39.0403C12.4975 39.0403 12.3936 38.9376 12.3936 38.8107C12.3936 38.3857 13.1568 36.7979 13.3091 35.5554C13.3256 35.4214 13.1297 35.3718 13.0577 35.4863C12.6645 36.1102 12.1286 36.9832 10.8229 36.9525L10.7975 36.9537C10.781 36.9543 10.7639 36.9549 10.7468 36.9549C9.32894 36.9549 8.17969 35.7076 8.17969 34.1694C8.17969 32.6312 9.32894 31.3845 10.7468 31.3845C11.0236 31.3845 11.2904 31.4323 11.5401 31.5203C11.5985 31.541 11.6575 31.4737 11.6286 31.4199C11.4073 31.0085 11.2804 30.5298 11.2804 30.0192C11.2804 28.5029 12.3853 27.235 13.7872 27.235C15.1891 27.235 16.2941 28.5029 16.2941 30.0192C16.2941 30.5298 16.1672 31.0085 15.9458 31.4199C15.9169 31.4737 15.9759 31.541 16.0344 31.5203C16.284 31.4323 16.5508 31.3845 16.8277 31.3845C18.2455 31.3845 19.3947 32.6312 19.3947 34.1694C19.3947 35.7076 18.2455 36.9549 16.8277 36.9549C16.8106 36.9549 16.7934 36.9543 16.7769 36.9537L16.7515 36.9525C15.4458 36.9832 14.9099 36.1102 14.5168 35.4863C14.4448 35.3718 14.2488 35.4214 14.2653 35.5554C14.4176 36.7979 15.1808 38.3857 15.1808 38.8107C15.1808 38.9376 15.077 39.0403 14.9489 39.0403H12.6256Z" fill="black"/>
</svg>
