<svg width="28" height="46" viewBox="0 0 28 46" fill="none" xmlns="http://www.w3.org/2000/svg">
<rect width="28" height="46" rx="5" fill="white"/>
<path d="M13.4695 22.8553C10.1369 22.8553 7.82129 20.9174 7.82129 18.1286C7.82129 16.1788 9.13285 14.5363 11.0825 14.0636V13.9454C9.49881 13.4255 8.45936 11.9957 8.45936 10.3532C8.45936 7.87163 10.5861 6.04004 13.5167 6.04004C16.4474 6.04004 18.5859 7.87163 18.5859 10.3532C18.5859 11.9721 17.511 13.4255 15.951 13.9454V14.0636C17.877 14.5245 19.2004 16.1788 19.2004 18.105C19.2004 20.8819 16.8134 22.8553 13.4695 22.8553ZM13.5167 13.2483C15.3129 13.2483 16.5772 12.102 16.5772 10.4949C16.5772 8.89969 15.3247 7.78893 13.5167 7.78893C11.7206 7.78893 10.4562 8.91149 10.4562 10.4949C10.4562 12.0902 11.7324 13.2483 13.5167 13.2483ZM13.5167 21.1301C15.6558 21.1301 17.1917 19.842 17.1917 18.0459C17.1917 16.2497 15.6558 14.9381 13.5167 14.9381C11.3776 14.9381 9.84174 16.2379 9.84174 18.0459C9.84174 19.842 11.3776 21.1301 13.5167 21.1301Z" fill="#FF0000"/>
<path d="M14.2132 27.2961C14.1684 27.2143 14.0456 27.2143 14.0008 27.2961C12.6467 29.7566 11.6704 31.0586 9.71249 33.0576C9.6694 33.102 9.6694 33.1727 9.71249 33.2172C11.6704 35.2162 12.6467 36.5182 14.0008 38.9786C14.0456 39.0605 14.1684 39.0605 14.2132 38.9786C15.5673 36.5182 16.5436 35.2162 18.5015 33.2172C18.5446 33.1727 18.5446 33.102 18.5015 33.0576C16.5436 31.0586 15.5673 29.7566 14.2132 27.2961Z" fill="#FF0000"/>
</svg>
