<svg width="28" height="46" viewBox="0 0 28 46" fill="none" xmlns="http://www.w3.org/2000/svg">
<rect width="28" height="46" rx="5" fill="white"/>
<path d="M7.50195 14.9486C7.50195 9.25856 9.69004 6.1001 13.6177 6.1001C14.8834 6.1001 16.1019 6.44317 17.0006 7.0583C17.7818 7.567 18.2551 8.21758 18.2551 8.76174C18.2551 9.27044 17.8882 9.64897 17.3794 9.64897C17.0485 9.64897 16.7997 9.51886 16.3737 9.10481C15.5222 8.26491 14.6353 7.88638 13.5823 7.88638C10.9439 7.88638 9.54823 10.2049 9.51278 14.6292H9.60732C10.1515 13.186 11.8433 12.1687 13.6887 12.1687C16.6934 12.1687 18.7987 14.3334 18.7987 17.4209C18.7987 20.6741 16.5752 22.8861 13.2863 22.8861C11.2872 22.8861 9.69005 22.0581 8.72038 20.5321C7.90376 19.2309 7.50195 17.3973 7.50195 14.9486ZM9.80881 17.4919C9.80881 19.6094 11.2754 21.1117 13.369 21.1117C15.404 21.1117 16.7643 19.6804 16.7643 17.5038C16.7643 15.3508 15.3922 13.9313 13.2863 13.9313C11.24 13.9313 9.80881 15.3981 9.80881 17.4919Z" fill="#FF0000"/>
<path d="M13.4989 27.3436C13.454 27.2616 13.3311 27.2616 13.2862 27.3436C11.9307 29.8067 10.9533 31.1101 8.99329 33.1112C8.95015 33.1557 8.95015 33.2265 8.99329 33.271C10.9533 35.2721 11.9307 36.5755 13.2862 39.0386C13.3311 39.1206 13.454 39.1206 13.4989 39.0386C14.8544 36.5755 15.8318 35.2721 17.7918 33.271C17.8349 33.2265 17.8349 33.1557 17.7918 33.1112C15.8318 31.1101 14.8544 29.8067 13.4989 27.3436Z" fill="#FF0000"/>
</svg>
