<svg width="28" height="46" viewBox="0 0 28 46" fill="none" xmlns="http://www.w3.org/2000/svg">
<rect width="28" height="46" rx="5" fill="white"/>
<path d="M8.23625 22.6308C7.59817 22.6308 7.20801 22.1936 7.20801 21.4964V7.39894C7.20801 6.70178 7.59817 6.26452 8.23625 6.26452C8.87432 6.26452 9.27569 6.70178 9.27569 7.39894V21.4964C9.27569 22.1936 8.87432 22.6308 8.23625 22.6308ZM9.86891 14.7608V14.17C9.86891 9.27781 11.9608 6.04004 15.6122 6.04004C19.2635 6.04004 21.343 9.27781 21.343 14.17V14.7608C21.343 19.6412 19.2517 22.8553 15.6004 22.8553C11.9608 22.8553 9.86891 19.653 9.86891 14.7608ZM11.9372 14.1818V14.7372C11.9372 18.6722 13.3432 21.071 15.6122 21.071C17.8811 21.071 19.2871 18.6722 19.2871 14.7372V14.1818C19.2871 10.2468 17.8693 7.83615 15.6004 7.83615C13.3432 7.83615 11.9372 10.2468 11.9372 14.1818Z" fill="#FF0000"/>
<path d="M14.5521 27.2961C14.5073 27.2143 14.3845 27.2143 14.3396 27.2961C12.9856 29.7566 12.0093 31.0586 10.0514 33.0576C10.0083 33.102 10.0083 33.1727 10.0514 33.2172C12.0093 35.2162 12.9856 36.5182 14.3396 38.9786C14.3845 39.0605 14.5073 39.0605 14.5521 38.9786C15.9062 36.5182 16.8825 35.2162 18.8404 33.2172C18.8835 33.1727 18.8835 33.102 18.8404 33.0576C16.8825 31.0586 15.9062 29.7566 14.5521 27.2961Z" fill="#FF0000"/>
</svg>
