<svg width="28" height="46" viewBox="0 0 28 46" fill="none" xmlns="http://www.w3.org/2000/svg">
<rect width="28" height="46" rx="5" fill="white"/>
<path d="M7.98716 22.9204C7.39248 22.9204 7 22.5755 7 22.0284C7 21.7905 7.05946 21.5645 7.15461 21.2791L12.0428 7.61353C12.3402 6.78103 12.7565 6.40039 13.5176 6.40039C14.2788 6.40039 14.695 6.78103 14.9924 7.61353L19.8806 21.2791C19.9757 21.5408 20.0352 21.7905 20.0352 22.0165C20.0352 22.5755 19.6428 22.9204 19.0362 22.9204C18.4653 22.9204 18.1442 22.6469 17.9182 21.9452L16.5504 17.8895H10.4729L9.10517 21.9452C8.87916 22.6587 8.55804 22.9204 7.98716 22.9204ZM11.0319 16.2125H15.9915L13.5533 8.98131H13.47L11.0319 16.2125Z" fill="#FF0000"/>
<path d="M13.9216 27.5803C13.8762 27.4979 13.7529 27.4979 13.7076 27.5803C12.345 30.0567 11.3623 31.3672 9.39173 33.3791C9.34794 33.4238 9.34794 33.495 9.39173 33.5398C11.3623 35.5517 12.345 36.8622 13.7076 39.3386C13.7529 39.421 13.8762 39.421 13.9216 39.3386C15.2842 36.8622 16.2669 35.5517 18.2374 33.5398C18.2812 33.495 18.2812 33.4238 18.2374 33.3791C16.2669 31.3672 15.2842 30.0567 13.9216 27.5803Z" fill="#FF0000"/>
</svg>
