<svg width="28" height="46" viewBox="0 0 28 46" fill="none" xmlns="http://www.w3.org/2000/svg">
<rect width="28" height="46" rx="5" fill="white"/>
<path d="M18.3961 24.2969C17.9351 24.2969 17.6164 24.0843 17.2144 23.5407L16.3048 22.2881C15.4891 22.6544 14.5559 22.8553 13.4922 22.8553C9.41526 22.8553 7.04004 20.1493 7.04004 15.718V13.3428C7.04004 8.8406 9.5215 6.04004 13.4922 6.04004C17.4033 6.04004 19.9562 8.8406 19.9562 13.3428V15.718C19.9562 18.2467 19.2113 20.0666 17.9115 21.2364L18.7981 22.4535C19.1168 22.9026 19.2349 23.1271 19.2349 23.4225C19.2349 23.8715 18.9161 24.2969 18.3961 24.2969ZM9.09652 15.7416C9.09652 19.0385 10.7864 21.0237 13.4804 21.0237C14.0712 21.0237 14.6385 20.9174 15.1585 20.7047L14.4732 19.783C14.2129 19.4284 14.0122 19.1094 14.0122 18.7667C14.0122 18.2586 14.4024 17.8686 14.91 17.8686C15.2293 17.8686 15.5481 18.0459 15.9146 18.554L16.6826 19.6175C17.4275 18.7431 17.8879 17.6205 17.8879 15.7416V13.3428C17.8879 9.97503 15.9855 7.89524 13.4922 7.89524C10.7864 7.89524 9.09652 9.97503 9.09652 13.3428V15.7416Z" fill="#FF0000"/>
<path d="M13.8934 27.2961C13.8486 27.2143 13.7258 27.2143 13.6809 27.2961C12.3269 29.7566 11.3506 31.0586 9.39267 33.0576C9.34958 33.102 9.34958 33.1727 9.39267 33.2172C11.3506 35.2162 12.3269 36.5182 13.6809 38.9786C13.7258 39.0605 13.8486 39.0605 13.8934 38.9786C15.2475 36.5182 16.2238 35.2162 18.1817 33.2172C18.2248 33.1727 18.2248 33.102 18.1817 33.0576C16.2238 31.0586 15.2475 29.7566 13.8934 27.2961Z" fill="#FF0000"/>
</svg>
