<svg width="28" height="46" viewBox="0 0 28 46" fill="none" xmlns="http://www.w3.org/2000/svg">
<rect width="28" height="46" rx="5" fill="white"/>
<path d="M8.58203 19.6463C8.58203 19.0497 8.92833 18.6439 9.45342 18.6439C9.85872 18.6439 10.1216 18.8588 10.4315 19.4673C11.0877 20.744 12.1856 21.4361 13.6179 21.4361C15.7892 21.4361 17.3049 19.9088 17.3049 17.7133C17.3049 15.6132 15.8369 14.1336 13.7728 14.1336C12.8418 14.1336 12.0187 14.4439 11.3267 15.0643C10.4553 15.8757 10.2169 16.0189 9.83488 16.0189C9.15481 16.0189 8.80912 15.482 8.86872 14.5632L9.39383 7.88115C9.46535 6.9982 9.97853 6.58057 11.0043 6.58057H17.6982C18.3902 6.58057 18.7961 6.92662 18.7961 7.51126C18.7961 8.08404 18.4022 8.40619 17.6982 8.40619H11.2671L10.8136 13.716H10.9328C11.4698 12.9166 12.8657 12.3438 14.2383 12.3438C17.2691 12.3438 19.4047 14.5155 19.4047 17.6058C19.4047 20.8991 17.0301 23.2379 13.7013 23.2379C10.5513 23.2379 8.58203 21.3168 8.58203 19.6463Z" fill="#FF0000"/>
<path d="M14.5832 27.722C14.5379 27.6394 14.4139 27.6394 14.3686 27.722C13.0013 30.2065 12.0155 31.5212 10.0385 33.5397C9.99498 33.5846 9.99498 33.656 10.0385 33.7009C12.0155 35.7194 13.0013 37.0341 14.3686 39.5186C14.4139 39.6012 14.5379 39.6012 14.5832 39.5186C15.9505 37.0341 16.9363 35.7194 18.9133 33.7009C18.9568 33.656 18.9568 33.5846 18.9133 33.5397C16.9363 31.5212 15.9505 30.2065 14.5832 27.722Z" fill="#FF0000"/>
</svg>
