<svg width="28" height="46" viewBox="0 0 28 46" fill="none" xmlns="http://www.w3.org/2000/svg">
<rect width="28" height="46" rx="5" fill="white"/>
<path d="M15.5694 7.57449C15.5694 6.86067 15.9617 6.42041 16.6047 6.42041C17.2472 6.42041 17.6513 6.86067 17.6513 7.57449V18.1397C17.6513 21.2212 15.8666 23.1249 12.9997 23.1249C11.4527 23.1249 10.2272 22.6608 9.38271 21.7804C8.83536 21.2093 8.50195 20.4954 8.50195 19.853C8.50195 19.2343 8.83536 18.8536 9.37083 18.8536C9.78685 18.8536 10.0133 19.0558 10.3223 19.6626C10.834 20.7096 11.7148 21.2569 12.9159 21.2569C14.5936 21.2569 15.5694 20.1504 15.5694 18.223V7.57449Z" fill="#FF0000"/>
<path d="M14.5334 27.5961C14.4882 27.5136 14.3646 27.5136 14.3194 27.5961C12.9561 30.0734 11.9731 31.3843 10.0018 33.397C9.95839 33.4417 9.95839 33.5129 10.0018 33.5577C11.9731 35.5703 12.9561 36.8813 14.3194 39.3586C14.3646 39.441 14.4882 39.441 14.5334 39.3586C15.8967 36.8813 16.8797 35.5703 18.851 33.5577C18.8944 33.5129 18.8944 33.4417 18.851 33.397C16.8797 31.3843 15.8967 30.0734 14.5334 27.5961Z" fill="#FF0000"/>
</svg>
