<svg width="28" height="46" viewBox="0 0 28 46" fill="none" xmlns="http://www.w3.org/2000/svg">
<rect width="28" height="46" rx="5" fill="white"/>
<path d="M8.05293 20.0873C8.05293 19.556 8.41864 19.2136 8.9265 19.2136C9.2456 19.2136 9.49333 19.3552 9.9304 19.7803C10.7922 20.6305 11.6663 21.0202 12.7522 21.0202C15.4212 21.0202 16.779 18.5759 16.779 14.3249H16.6729C16.0824 15.919 14.5707 16.8755 12.646 16.8755C9.6231 16.8755 7.52148 14.6556 7.52148 11.4673C7.52148 8.18453 9.75285 6 13.1067 6C16.8026 6 18.7745 8.88125 18.7745 14.2304C18.7745 19.863 16.7319 22.7915 12.7876 22.7915C11.4888 22.7915 10.2607 22.4609 9.33997 21.8586C8.5484 21.339 8.05293 20.6778 8.05293 20.0873ZM16.4251 11.5145C16.4251 9.30635 15.0313 7.79489 12.9887 7.79489C10.9573 7.79489 9.56411 9.30635 9.56411 11.5027C9.56411 13.6518 10.9337 15.0925 12.9887 15.0925C15.0549 15.0925 16.4251 13.6636 16.4251 11.5145Z" fill="#FF0000"/>
<path d="M13.4961 27.2645C13.4513 27.1827 13.3286 27.1827 13.2838 27.2645C11.9307 29.7232 10.9551 31.0243 8.9986 33.0219C8.95554 33.0663 8.95554 33.1369 8.9986 33.1814C10.9551 35.1789 11.9307 36.48 13.2838 38.9387C13.3286 39.0205 13.4513 39.0205 13.4961 38.9387C14.8492 36.48 15.8248 35.1789 17.7813 33.1814C17.8244 33.1369 17.8244 33.0663 17.7813 33.0219C15.8248 31.0243 14.8492 29.7232 13.4961 27.2645Z" fill="#FF0000"/>
</svg>
