<svg width="28" height="46" viewBox="0 0 28 46" fill="none" xmlns="http://www.w3.org/2000/svg">
<rect width="28" height="46" rx="5" fill="white"/>
<path d="M8.51394 21.4137C8.51394 20.9883 8.71487 20.6574 9.41203 19.8657L14.3278 14.2409C15.6632 12.7165 16.1712 11.7239 16.1712 10.6131C16.1712 8.94697 14.9777 7.83615 13.1816 7.83615C11.6572 7.83615 10.5347 8.74604 10.1801 10.2823C10.0147 10.9085 9.68385 11.2276 9.19936 11.2276C8.62031 11.2276 8.24219 10.7904 8.24219 10.1523C8.24219 8.14338 10.1919 6.04004 13.3116 6.04004C16.2185 6.04004 18.2628 7.88343 18.2628 10.4831C18.2628 12.0193 17.6602 13.1419 15.5331 15.5643L11.1609 20.5629V20.7047H17.7192C18.3455 20.7047 18.7473 21.0474 18.7473 21.6145C18.7473 22.1699 18.3692 22.5126 17.7192 22.5126H9.92019C9.05752 22.5126 8.51394 22.099 8.51394 21.4137Z" fill="#FF0000"/>
<path d="M13.796 27.2961C13.7509 27.2143 13.6284 27.2143 13.5833 27.2961C12.2295 29.7566 11.2532 31.0586 9.29532 33.0576C9.25182 33.102 9.25182 33.1727 9.29532 33.2172C11.2532 35.2162 12.2295 36.5182 13.5833 38.9786C13.6284 39.0605 13.7509 39.0605 13.796 38.9786C15.1498 36.5182 16.1261 35.2162 18.084 33.2172C18.1275 33.1727 18.1275 33.102 18.084 33.0576C16.1261 31.0586 15.1498 29.7566 13.796 27.2961Z" fill="#FF0000"/>
</svg>
