<svg width="28" height="46" viewBox="0 0 28 46" fill="none" xmlns="http://www.w3.org/2000/svg">
<rect width="28" height="46" rx="5" fill="white"/>
<path d="M15.5893 21.734V19.324H9.34481C8.4191 19.324 7.80176 18.8372 7.80176 18.0537C7.80176 17.6144 7.94408 17.1989 8.3592 16.439C10.057 13.4354 11.1257 11.7259 13.8204 7.68933C14.5213 6.65646 15.0675 6.30029 15.8865 6.30029C16.9669 6.30029 17.5724 6.91763 17.5724 8.02178V17.5075H18.8071C19.4719 17.5075 19.8633 17.8399 19.8633 18.4217C19.8633 18.9915 19.4837 19.324 18.8071 19.324H17.5724V21.734C17.5724 22.4226 17.216 22.8143 16.575 22.8143C15.9458 22.8143 15.5893 22.4226 15.5893 21.734ZM9.7961 17.5075H15.5893V8.31853H15.4826C13.4645 11.2984 11.351 14.6938 9.7961 17.3888V17.5075Z" fill="#FF0000"/>
<path d="M14.2354 27.5015C14.1904 27.4193 14.067 27.4193 14.0219 27.5015C12.6615 29.9735 11.6807 31.2816 9.71362 33.2899C9.67033 33.3345 9.67033 33.4056 9.71362 33.4502C11.6807 35.4586 12.6615 36.7667 14.0219 39.2386C14.067 39.3209 14.1904 39.3209 14.2354 39.2386C15.5958 36.7667 16.5767 35.4586 18.5438 33.4502C18.587 33.4056 18.587 33.3345 18.5438 33.2899C16.5767 31.2816 15.5958 29.9735 14.2354 27.5015Z" fill="#FF0000"/>
</svg>
