<svg width="28" height="46" viewBox="0 0 28 46" fill="none" xmlns="http://www.w3.org/2000/svg">
<rect width="28" height="46" rx="5" fill="white"/>
<path d="M10.4787 22.1795C10.4787 21.9168 10.5622 21.6899 10.6934 21.4272L16.7236 8.56696V8.44755H9.32034C8.58014 8.44755 8.22168 8.06546 8.22168 7.54004C8.22168 7.00276 8.58014 6.62061 9.32034 6.62061H17.8222C18.4431 6.62061 18.9567 7.05047 18.9567 7.75501C18.9567 8.08932 18.7891 8.6386 18.5267 9.19986L12.4368 22.3467C12.2102 22.8243 11.9233 23.1108 11.4217 23.1108C10.932 23.1108 10.4787 22.7407 10.4787 22.1795Z" fill="#FF0000"/>
<path d="M14.442 27.7535C14.3966 27.6707 14.2726 27.6707 14.2273 27.7535C12.859 30.2397 11.8724 31.5554 9.89398 33.5753C9.85044 33.6203 9.85044 33.6917 9.89398 33.7366C11.8724 35.7566 12.859 37.0723 14.2273 39.5585C14.2726 39.6413 14.3966 39.6413 14.442 39.5585C15.8102 37.0723 16.7968 35.7566 18.7752 33.7366C18.8188 33.6917 18.8188 33.6203 18.7752 33.5753C16.7968 31.5554 15.8102 30.2397 14.442 27.7535Z" fill="#FF0000"/>
</svg>
