<svg width="28" height="46" viewBox="0 0 28 46" fill="none" xmlns="http://www.w3.org/2000/svg">
<rect width="28" height="46" rx="5" fill="white"/>
<path d="M8.78174 19.2039C8.78174 18.6722 9.14806 18.294 9.66802 18.294C10.0815 18.294 10.3418 18.5068 10.6487 19.1094C11.2632 20.3738 12.4921 21.0828 14.0994 21.0828C16.2143 21.0828 17.5619 19.9247 17.5619 18.1168C17.5619 16.3088 16.1789 15.0917 14.123 15.0917H12.6456C12.1026 15.0917 11.7006 14.7017 11.7006 14.1936C11.7006 13.6737 12.0784 13.3074 12.6456 13.3074H14.0404C15.7657 13.3074 17.0183 12.1375 17.0183 10.5186C17.0183 8.89969 15.8011 7.81254 13.9932 7.81254C12.5866 7.81254 11.5235 8.50976 11.0507 9.72688C10.814 10.3768 10.5189 10.625 10.0579 10.625C9.51437 10.625 9.15992 10.235 9.15992 9.64413C9.15992 7.81254 11.1333 6.04004 14.0404 6.04004C16.9947 6.04004 19.0978 7.80073 19.0978 10.2586C19.0978 12.043 17.7626 13.7446 16.1199 14.0282V14.1464C18.1167 14.3708 19.6414 16.1197 19.6414 18.1522C19.6414 20.9174 17.3488 22.8553 14.064 22.8553C11.0153 22.8553 8.78174 21.0119 8.78174 19.2039Z" fill="#FF0000"/>
<path d="M14.6073 27.2961C14.5624 27.2143 14.4397 27.2143 14.3948 27.2961C13.0407 29.7566 12.0644 31.0586 10.1065 33.0576C10.0634 33.102 10.0634 33.1727 10.1065 33.2172C12.0644 35.2162 13.0407 36.5182 14.3948 38.9786C14.4397 39.0605 14.5624 39.0605 14.6073 38.9786C15.9614 36.5182 16.9377 35.2162 18.8956 33.2172C18.9386 33.1727 18.9386 33.102 18.8956 33.0576C16.9377 31.0586 15.9614 29.7566 14.6073 27.2961Z" fill="#FF0000"/>
</svg>
