<svg width="28" height="46" viewBox="0 0 28 46" fill="none" xmlns="http://www.w3.org/2000/svg">
<rect width="28" height="46" rx="5" fill="white"/>
<path d="M18.1863 22.8155C17.7697 22.8155 17.4125 22.5776 16.9965 21.9946L12.0109 14.9392L9.96466 17.057V21.7566C9.96466 22.4586 9.55996 22.8988 8.91752 22.8988C8.27507 22.8988 7.88281 22.4586 7.88281 21.7566V7.56261C7.88281 6.86067 8.27507 6.42041 8.91752 6.42041C9.55996 6.42041 9.96466 6.86067 9.96466 7.56261V14.3681H10.0598L16.8295 7.14618C17.2699 6.65837 17.5433 6.50373 17.8886 6.50373C18.4121 6.50373 18.805 6.90822 18.805 7.40797C18.805 7.71731 18.7093 7.89578 18.2338 8.39547L13.5579 13.5115L18.6499 20.5788C19.1497 21.2688 19.2566 21.483 19.2566 21.7923C19.2566 22.3991 18.8169 22.8155 18.1863 22.8155Z" fill="#FF0000"/>
<path d="M13.6877 27.5961C13.6425 27.5136 13.5189 27.5136 13.4737 27.5961C12.1104 30.0734 11.1274 31.3843 9.15607 33.397C9.11269 33.4417 9.11269 33.5129 9.15607 33.5577C11.1274 35.5703 12.1104 36.8813 13.4737 39.3586C13.5189 39.441 13.6425 39.441 13.6877 39.3586C15.051 36.8813 16.034 35.5703 18.0053 33.5577C18.0487 33.5129 18.0487 33.4417 18.0053 33.397C16.034 31.3843 15.051 30.0734 13.6877 27.5961Z" fill="#FF0000"/>
</svg>
