<svg width="28" height="46" viewBox="0 0 28 46" fill="none" xmlns="http://www.w3.org/2000/svg">
<rect width="28" height="46" rx="5" fill="white"/>
<path d="M7.58203 19.8868C7.58203 19.2792 7.9347 18.8658 8.46945 18.8658C8.8822 18.8658 9.14989 19.0843 9.46552 19.7041C10.1338 21.0043 11.2519 21.7096 12.7105 21.7096C14.9217 21.7096 16.4653 20.1539 16.4653 17.9183C16.4653 15.7793 14.9703 14.2728 12.8683 14.2728C11.9202 14.2728 11.0819 14.5884 10.3772 15.2203C9.4898 16.047 9.247 16.1927 8.85792 16.1927C8.16535 16.1927 7.8133 15.6458 7.87399 14.7098L8.40876 7.90508C8.4816 7.00588 9.00421 6.58057 10.0488 6.58057H16.8659C17.5706 6.58057 17.984 6.93298 17.984 7.52838C17.984 8.1117 17.5828 8.43977 16.8659 8.43977H10.3165L9.8546 13.8473H9.97599C10.5229 13.0333 11.9445 12.45 13.3424 12.45C16.4289 12.45 18.6037 14.6612 18.6037 17.8085C18.6037 21.1627 16.1855 23.5445 12.7955 23.5445C9.58752 23.5445 7.58203 21.5876 7.58203 19.8868Z" fill="#FF0000"/>
<path d="M10.9956 28.6554C12.6448 28.6803 13.2852 30.1103 13.4958 30.7847C13.5171 30.8533 13.6524 30.8533 13.6737 30.7847C13.8843 30.1103 14.524 28.6803 16.1732 28.6554C18.3329 28.622 19.9572 31.0396 18.4762 33.4676C17.1553 35.6315 13.6342 39.5806 13.5844 39.5806C13.534 39.5806 10.0135 35.6315 8.6927 33.4676C7.21165 31.0396 8.83595 28.622 10.9956 28.6554Z" fill="#FF0000"/>
</svg>
