<svg width="28" height="46" viewBox="0 0 28 46" fill="none" xmlns="http://www.w3.org/2000/svg">
<rect width="28" height="46" rx="5" fill="white"/>
<path d="M15.7319 22.0162V19.562H9.37305C8.4304 19.562 7.80176 19.0668 7.80176 18.2685C7.80176 17.8216 7.94669 17.3983 8.3694 16.6248C10.0983 13.5661 11.1865 11.8252 13.9305 7.71475C14.6443 6.66298 15.2004 6.30029 16.0344 6.30029C17.1347 6.30029 17.7512 6.92893 17.7512 8.05328V17.7123H19.0085C19.6854 17.7123 20.084 18.0511 20.084 18.6435C20.084 19.2238 19.6975 19.562 19.0085 19.562H17.7512V22.0162C17.7512 22.7179 17.3883 23.1164 16.7355 23.1164C16.0948 23.1164 15.7319 22.7179 15.7319 22.0162ZM9.8326 17.7123H15.7319V8.35547H15.6232C13.5682 11.3898 11.416 14.8476 9.8326 17.5916V17.7123Z" fill="#FF0000"/>
<path d="M11.6689 28.4311C13.3096 28.4559 13.9467 29.8786 14.1562 30.5495C14.1774 30.6178 14.312 30.6178 14.3332 30.5495C14.5427 29.8786 15.1792 28.4559 16.8199 28.4311C18.9685 28.3979 20.5845 30.8031 19.111 33.2186C17.797 35.3715 14.2939 39.3003 14.2444 39.3003C14.1943 39.3003 10.6918 35.3715 9.37776 33.2186C7.9043 30.8031 9.52028 28.3979 11.6689 28.4311Z" fill="#FF0000"/>
</svg>
