<svg width="28" height="46" viewBox="0 0 28 46" fill="none" xmlns="http://www.w3.org/2000/svg">
<rect width="28" height="46" rx="5" fill="white"/>
<path d="M18.3753 23.1162C17.951 23.1162 17.5873 22.8741 17.1637 22.2804L12.0866 15.0954L10.0028 17.2523V22.0377C10.0028 22.7524 9.59072 23.2009 8.93649 23.2009C8.28227 23.2009 7.88281 22.7524 7.88281 22.0377V7.58355C7.88281 6.86875 8.28227 6.42041 8.93649 6.42041C9.59072 6.42041 10.0028 6.86875 10.0028 7.58355V14.5138H10.0997L16.9936 7.15949C17.442 6.66273 17.7204 6.50526 18.0721 6.50526C18.6052 6.50526 19.0053 6.91717 19.0053 7.42608C19.0053 7.74109 18.9078 7.92284 18.4237 8.43169L13.6619 13.6417L18.8473 20.8382C19.3563 21.5414 19.4652 21.7593 19.4652 22.074C19.4652 22.6919 19.0174 23.1162 18.3753 23.1162Z" fill="#FF0000"/>
<path d="M11.1044 28.5273C12.7487 28.5521 13.3872 29.978 13.5972 30.6504C13.6184 30.7188 13.7533 30.7188 13.7745 30.6504C13.9845 29.978 14.6224 28.5521 16.2668 28.5273C18.4201 28.494 20.0396 30.9046 18.5629 33.3254C17.246 35.4829 13.7352 39.4204 13.6856 39.4204C13.6353 39.4204 10.1251 35.4829 8.80821 33.3254C7.33151 30.9046 8.95104 28.494 11.1044 28.5273Z" fill="#FF0000"/>
</svg>
