<svg width="28" height="46" viewBox="0 0 28 46" fill="none" xmlns="http://www.w3.org/2000/svg">
<rect width="28" height="46" rx="5" fill="white"/>
<path d="M8.00525 23.2231C7.39968 23.2231 7 22.8722 7 22.315C7 22.0724 7.06055 21.8425 7.15745 21.5521L12.1353 7.63577C12.4381 6.788 12.862 6.40039 13.6371 6.40039C14.4122 6.40039 14.8361 6.788 15.1389 7.63577L20.1167 21.5521C20.2136 21.8183 20.2742 22.0724 20.2742 22.3029C20.2742 22.8722 19.8745 23.2231 19.2568 23.2231C18.6755 23.2231 18.3485 22.9448 18.1183 22.2303L16.7255 18.1001H10.5366L9.14376 22.2303C8.91361 22.9569 8.58661 23.2231 8.00525 23.2231ZM11.1058 16.3922H16.1563L13.6735 9.02862H13.5886L11.1058 16.3922Z" fill="#FF0000"/>
<path d="M11.3591 28.5113C13.0029 28.5361 13.6412 29.9614 13.851 30.6335C13.8722 30.7019 14.0074 30.7019 14.0285 30.6335C14.2382 29.9614 14.8761 28.5361 16.5199 28.5113C18.6722 28.478 20.2915 30.8876 18.8149 33.3076C17.4987 35.4643 13.9892 39.4004 13.9395 39.4004C13.889 39.4004 10.3803 35.4643 9.06409 33.3076C7.58748 30.8876 9.2067 28.478 11.3591 28.5113Z" fill="#FF0000"/>
</svg>
