<svg width="28" height="46" viewBox="0 0 28 46" fill="none" xmlns="http://www.w3.org/2000/svg">
<rect width="28" height="46" rx="5" fill="white"/>
<path d="M7.50195 15.1096C7.50195 9.31615 9.72994 6.1001 13.7292 6.1001C15.018 6.1001 16.2587 6.44943 17.1738 7.07577C17.9692 7.59375 18.4512 8.25619 18.4512 8.81027C18.4512 9.32819 18.0775 9.71385 17.5595 9.71385C17.2225 9.71385 16.9692 9.58089 16.5354 9.15972C15.6684 8.30438 14.7653 7.91895 13.6931 7.91895C11.0067 7.91895 9.58554 10.28 9.54944 14.7847H9.6457C10.1998 13.3155 11.9224 12.2794 13.8015 12.2794C16.861 12.2794 19.0047 14.4833 19.0047 17.6276C19.0047 20.9398 16.7406 23.1925 13.3917 23.1925C11.3563 23.1925 9.72994 22.349 8.7426 20.7954C7.91109 19.4706 7.50195 17.603 7.50195 15.1096ZM9.85087 17.6998C9.85087 19.8556 11.3442 21.3857 13.4759 21.3857C15.5481 21.3857 16.9331 19.9278 16.9331 17.7119C16.9331 15.5194 15.5361 14.0742 13.3917 14.0742C11.3081 14.0742 9.85087 15.5675 9.85087 17.6998Z" fill="#FF0000"/>
<path d="M10.9338 28.2706C12.5686 28.2953 13.2033 29.7128 13.4121 30.3813C13.4332 30.4493 13.5673 30.4493 13.5884 30.3813C13.7972 29.7128 14.4313 28.2953 16.0661 28.2706C18.2068 28.2375 19.8169 30.634 18.3488 33.0406C17.0396 35.1856 13.5493 39.1001 13.4999 39.1001C13.45 39.1001 9.96031 35.1856 8.65108 33.0406C7.183 30.634 8.79307 28.2375 10.9338 28.2706Z" fill="#FF0000"/>
</svg>
