<svg width="28" height="46" viewBox="0 0 28 46" fill="none" xmlns="http://www.w3.org/2000/svg">
<rect width="28" height="46" rx="5" fill="white"/>
<path d="M8.78174 19.444C8.78174 18.9024 9.15473 18.5172 9.68416 18.5172C10.1052 18.5172 10.3702 18.7336 10.6827 19.3472C11.3084 20.6346 12.5597 21.357 14.1963 21.357C16.3497 21.357 17.7218 20.1778 17.7218 18.3369C17.7218 16.496 16.3136 15.2567 14.2203 15.2567H12.716C12.163 15.2567 11.7537 14.8594 11.7537 14.342C11.7537 13.8125 12.1384 13.4398 12.716 13.4398H14.1362C15.8929 13.4398 17.1683 12.2486 17.1683 10.6C17.1683 8.95177 15.929 7.84483 14.0881 7.84483C12.6559 7.84483 11.5734 8.55474 11.092 9.79409C10.851 10.4558 10.5505 10.7082 10.0811 10.7082C9.52772 10.7082 9.16681 10.3116 9.16681 9.70995C9.16681 7.84482 11.1762 6.04004 14.1362 6.04004C17.1442 6.04004 19.2856 7.8328 19.2856 10.3356C19.2856 12.1525 17.9262 13.8852 16.2535 14.1737V14.2939C18.2868 14.5229 19.8392 16.3031 19.8392 18.373C19.8392 21.1881 17.5048 23.1618 14.1602 23.1618C11.056 23.1618 8.78174 21.2849 8.78174 19.444Z" fill="#FF0000"/>
<path d="M12.0416 28.2224C13.6746 28.247 14.3086 29.663 14.5172 30.3307C14.5382 30.3987 14.6722 30.3987 14.6933 30.3307C14.9018 29.663 15.5353 28.247 17.1682 28.2224C19.3066 28.1893 20.915 30.5832 19.4485 32.9872C18.1407 35.1298 14.6542 39.04 14.6049 39.04C14.555 39.04 11.0692 35.1298 9.76154 32.9872C8.29458 30.5832 9.9032 28.1893 12.0416 28.2224Z" fill="#FF0000"/>
</svg>
