<svg width="28" height="46" viewBox="0 0 28 46" fill="none" xmlns="http://www.w3.org/2000/svg">
<rect width="28" height="46" rx="5" fill="white"/>
<path d="M8.25498 22.9328C7.60528 22.9328 7.20801 22.4875 7.20801 21.7777V7.42369C7.20801 6.71384 7.60528 6.26861 8.25498 6.26861C8.90467 6.26861 9.31335 6.71384 9.31335 7.42369V21.7777C9.31335 22.4875 8.90467 22.9328 8.25498 22.9328ZM9.91737 14.9195V14.3179C9.91737 9.33672 12.0474 6.04004 15.7652 6.04004C19.4831 6.04004 21.6005 9.33672 21.6005 14.3179V14.9195C21.6005 19.8887 19.4711 23.1618 15.7532 23.1618C12.0474 23.1618 9.91737 19.9007 9.91737 14.9195ZM12.0233 14.3299V14.8955C12.0233 18.9024 13.4549 21.345 15.7652 21.345C18.0755 21.345 19.5071 18.9024 19.5071 14.8955V14.3299C19.5071 10.3236 18.0635 7.86886 15.7532 7.86886C13.4549 7.86886 12.0233 10.3236 12.0233 14.3299Z" fill="#FF0000"/>
<path d="M12.0147 28.2224C13.6476 28.247 14.2817 29.663 14.4903 30.3307C14.5113 30.3987 14.6453 30.3987 14.6664 30.3307C14.8749 29.663 15.5084 28.247 17.1413 28.2224C19.2797 28.1893 20.888 30.5832 19.4216 32.9872C18.1138 35.1298 14.6273 39.04 14.578 39.04C14.5281 39.04 11.0422 35.1298 9.73444 32.9872C8.26797 30.5832 9.87627 28.1893 12.0147 28.2224Z" fill="#FF0000"/>
</svg>
