<svg width="28" height="46" viewBox="0 0 28 46" fill="none" xmlns="http://www.w3.org/2000/svg">
<rect width="28" height="46" rx="5" fill="white"/>
<path d="M14.6991 7.59566C14.6991 6.86875 15.0985 6.42041 15.7533 6.42041C16.4076 6.42041 16.8191 6.86875 16.8191 7.59566V18.3544C16.8191 21.4924 15.0017 23.4315 12.0821 23.4315C10.5068 23.4315 9.25886 22.9588 8.39887 22.0619C7.84147 21.4803 7.50195 20.7534 7.50195 20.0992C7.50195 19.4692 7.84148 19.0819 8.38677 19.0819C8.81041 19.0819 9.04098 19.2876 9.35569 19.9055C9.87677 20.9719 10.7737 21.5293 11.9968 21.5293C13.7053 21.5293 14.6991 20.4024 14.6991 18.4397V7.59566Z" fill="#FF0000"/>
<path d="M10.954 28.5273C12.5983 28.5521 13.2368 29.978 13.4468 30.6504C13.468 30.7188 13.603 30.7188 13.6241 30.6504C13.8341 29.978 14.472 28.5521 16.1164 28.5273C18.2697 28.494 19.8892 30.9046 18.4125 33.3254C17.0956 35.4829 13.5848 39.4204 13.5352 39.4204C13.4849 39.4204 9.97475 35.4829 8.65782 33.3254C7.18112 30.9046 8.80064 28.494 10.954 28.5273Z" fill="#FF0000"/>
</svg>
