<svg width="28" height="46" viewBox="0 0 28 46" fill="none" xmlns="http://www.w3.org/2000/svg">
<rect width="28" height="46" rx="5" fill="white"/>
<path d="M10.5202 22.466C10.5202 22.1981 10.6052 21.9673 10.7389 21.7L16.8801 8.60279V8.48118H9.34056C8.58674 8.48118 8.22168 8.09206 8.22168 7.55697C8.22168 7.00979 8.58674 6.62061 9.34056 6.62061H17.999C18.6313 6.62061 19.1543 7.05839 19.1543 7.77589C19.1543 8.11636 18.9836 8.67574 18.7164 9.24734L12.5144 22.6361C12.2836 23.1226 11.9914 23.4142 11.4806 23.4142C10.9819 23.4142 10.5202 23.0376 10.5202 22.466Z" fill="#FF0000"/>
<path d="M11.8566 28.6874C13.507 28.7123 14.1479 30.1434 14.3586 30.8182C14.3799 30.8869 14.5154 30.8869 14.5366 30.8182C14.7474 30.1434 15.3877 28.7123 17.0381 28.6874C19.1993 28.6539 20.8248 31.0734 19.3427 33.5031C18.0209 35.6686 14.4971 39.6206 14.4473 39.6206C14.3969 39.6206 10.8738 35.6686 9.55201 33.5031C8.06987 31.0734 9.69535 28.6539 11.8566 28.6874Z" fill="#FF0000"/>
</svg>
