<svg width="28" height="46" viewBox="0 0 28 46" fill="none" xmlns="http://www.w3.org/2000/svg">
<rect width="28" height="46" rx="5" fill="white"/>
<path d="M8.51889 21.6936C8.51889 21.2602 8.72348 20.9237 9.43334 20.1177L14.4386 14.39C15.7983 12.8382 16.3157 11.8273 16.3157 10.6962C16.3157 9.00015 15.1004 7.86886 13.2715 7.86886C11.7194 7.86886 10.5764 8.79533 10.2154 10.3596C10.047 10.9973 9.7101 11.3219 9.21679 11.3219C8.6272 11.3219 8.24219 10.8771 8.24219 10.2274C8.24219 8.18169 10.2275 6.04004 13.4039 6.04004C16.3638 6.04004 18.4453 7.91701 18.4453 10.564C18.4453 12.1284 17.8317 13.2716 15.6659 15.7381L11.2141 20.8275V20.9717H17.8918C18.5296 20.9717 18.9386 21.3209 18.9386 21.8985C18.9386 22.4634 18.5536 22.8126 17.8918 22.8126H9.95075C9.07237 22.8126 8.51889 22.3913 8.51889 21.6936Z" fill="#FF0000"/>
<path d="M11.225 28.2224C12.858 28.247 13.4922 29.663 13.7006 30.3307C13.7217 30.3987 13.856 30.3987 13.877 30.3307C14.0853 29.663 14.719 28.247 16.352 28.2224C18.4902 28.1893 20.0989 30.5832 18.6319 32.9872C17.3244 35.1298 13.8379 39.04 13.7885 39.04C13.7383 39.04 10.2527 35.1298 8.94513 32.9872C7.47818 30.5832 9.08679 28.1893 11.225 28.2224Z" fill="#FF0000"/>
</svg>
