<svg width="28" height="46" viewBox="0 0 28 46" fill="none" xmlns="http://www.w3.org/2000/svg">
<rect width="28" height="46" rx="5" fill="white"/>
<path d="M13.5724 23.1618C10.1791 23.1618 7.82129 21.1881 7.82129 18.3489C7.82129 16.3638 9.15674 14.6911 11.1419 14.2097V14.0895C9.52937 13.56 8.47098 12.1044 8.47098 10.4318C8.47098 7.90499 10.6364 6.04004 13.6205 6.04004C16.6045 6.04004 18.782 7.90499 18.782 10.4318C18.782 12.0803 17.6875 13.56 16.099 14.0895V14.2097C18.0601 14.6791 19.4076 16.3638 19.4076 18.3249C19.4076 21.152 16.9771 23.1618 13.5724 23.1618ZM13.6205 13.3797C15.4493 13.3797 16.7367 12.2126 16.7367 10.576C16.7367 8.95177 15.4614 7.82078 13.6205 7.82078C11.7916 7.82078 10.5042 8.96379 10.5042 10.576C10.5042 12.2005 11.8036 13.3797 13.6205 13.3797ZM13.6205 21.4051C15.7985 21.4051 17.3624 20.0937 17.3624 18.2648C17.3624 16.4359 15.7985 15.0998 13.6205 15.0998C11.4424 15.0998 9.87854 16.4239 9.87854 18.2648C9.87854 20.0937 11.4424 21.4051 13.6205 21.4051Z" fill="#FF0000"/>
<path d="M11.6582 28.2224C13.2912 28.247 13.9253 29.663 14.1338 30.3307C14.1548 30.3987 14.2889 30.3987 14.3099 30.3307C14.5185 29.663 15.1519 28.247 16.7849 28.2224C18.9233 28.1893 20.5316 30.5832 19.0651 32.9872C17.7573 35.1298 14.2708 39.04 14.2216 39.04C14.1717 39.04 10.6858 35.1298 9.378 32.9872C7.91153 30.5832 9.51982 28.1893 11.6582 28.2224Z" fill="#FF0000"/>
</svg>
