<svg width="28" height="46" viewBox="0 0 28 46" fill="none" xmlns="http://www.w3.org/2000/svg">
<rect width="28" height="46" rx="5" fill="white"/>
<path d="M18.6029 24.6295C18.1335 24.6295 17.809 24.4131 17.3997 23.8596L16.4736 22.5843C15.643 22.9569 14.6927 23.1618 13.6097 23.1618C9.45852 23.1618 7.04004 20.4062 7.04004 15.8944V13.4759C7.04004 8.89161 9.5667 6.04004 13.6097 6.04004C17.592 6.04004 20.1914 8.89161 20.1914 13.4759V15.8944C20.1914 18.4691 19.4329 20.322 18.1095 21.5132L19.0122 22.7525C19.3368 23.2099 19.457 23.4383 19.457 23.7394C19.457 24.1962 19.1324 24.6295 18.6029 24.6295ZM9.13397 15.9184C9.13397 19.2751 10.8547 21.2969 13.5977 21.2969C14.1993 21.2969 14.7769 21.1881 15.3064 20.9717L14.6086 20.033C14.3435 19.6723 14.1392 19.3472 14.1392 18.9986C14.1392 18.4811 14.5365 18.0839 15.0533 18.0839C15.3785 18.0839 15.703 18.2648 16.0763 18.7816L16.8582 19.8647C17.6167 18.9746 18.0855 17.8314 18.0855 15.9184V13.4759C18.0855 10.0465 16.1484 7.92903 13.6097 7.92903C10.8547 7.92903 9.13397 10.0465 9.13397 13.4759V15.9184Z" fill="#FF0000"/>
<path d="M11.3467 28.2224C12.9797 28.247 13.6137 29.663 13.8223 30.3307C13.8433 30.3987 13.9773 30.3987 13.9984 30.3307C14.2069 29.663 14.8404 28.247 16.4734 28.2224C18.6118 28.1893 20.2201 30.5832 18.7536 32.9872C17.4458 35.1298 13.9593 39.04 13.91 39.04C13.8602 39.04 10.3743 35.1298 9.06648 32.9872C7.6 30.5832 9.2083 28.1893 11.3467 28.2224Z" fill="#FF0000"/>
</svg>
