<svg width="28" height="46" viewBox="0 0 28 46" fill="none" xmlns="http://www.w3.org/2000/svg">
<rect width="28" height="46" rx="5" fill="white"/>
<path d="M8.0626 20.3437C8.0626 19.8026 8.43497 19.4543 8.95207 19.4543C9.27698 19.4543 9.52922 19.5984 9.97424 20.0314C10.8517 20.8969 11.7417 21.2938 12.8474 21.2938C15.565 21.2938 16.9475 18.805 16.9475 14.4767H16.8394C16.2382 16.0995 14.699 17.0736 12.7393 17.0736C9.66135 17.0736 7.52148 14.813 7.52148 11.5669C7.52148 8.22429 9.79346 6 13.2083 6C16.9715 6 18.9793 8.93369 18.9793 14.38C18.9793 20.1155 16.8995 23.0974 12.8834 23.0974C11.561 23.0974 10.3106 22.7604 9.37306 22.1473C8.56709 21.6181 8.0626 20.9449 8.0626 20.3437ZM16.5872 11.615C16.5872 9.36641 15.168 7.82755 13.0882 7.82755C11.0198 7.82755 9.60128 9.36641 9.60128 11.603C9.60128 13.7908 10.9958 15.2581 13.0882 15.2581C15.192 15.2581 16.5872 13.8029 16.5872 11.615Z" fill="#FF0000"/>
<path d="M10.9355 28.1902C12.5672 28.2148 13.2008 29.6298 13.4092 30.297C13.4303 30.3649 13.5642 30.3649 13.5852 30.297C13.7936 29.6298 14.4266 28.2148 16.0584 28.1902C18.1952 28.1572 19.8023 30.5493 18.3369 32.9516C17.0301 35.0926 13.5462 39 13.4969 39C13.4471 39 9.96374 35.0926 8.65688 32.9516C7.19148 30.5493 8.79861 28.1572 10.9355 28.1902Z" fill="#FF0000"/>
</svg>
