<svg width="28" height="46" viewBox="0 0 28 46" fill="none" xmlns="http://www.w3.org/2000/svg">
<rect width="28" height="46" rx="5" fill="white"/>
<path d="M18.3962 24.2972C17.9352 24.2972 17.6164 24.0847 17.2145 23.5411L16.3049 22.2885C15.4891 22.6545 14.5559 22.8558 13.4922 22.8558C9.41527 22.8558 7.04004 20.1494 7.04004 15.7183V13.3431C7.04004 8.8405 9.52152 6.04028 13.4922 6.04028C17.4033 6.04028 19.9562 8.8405 19.9562 13.3431V15.7183C19.9562 18.247 19.2113 20.0668 17.9116 21.2367L18.7981 22.4538C19.1169 22.903 19.2349 23.1273 19.2349 23.423C19.2349 23.8716 18.9162 24.2972 18.3962 24.2972ZM9.09653 15.7419C9.09653 19.0385 10.7864 21.0242 13.4804 21.0242C14.0713 21.0242 14.6385 20.9173 15.1586 20.7049L14.4733 19.7829C14.2129 19.4287 14.0123 19.1094 14.0123 18.767C14.0123 18.2588 14.4024 17.8686 14.91 17.8686C15.2294 17.8686 15.5481 18.0463 15.9147 18.5539L16.6826 19.6176C17.4276 18.7434 17.888 17.6207 17.888 15.7419V13.3431C17.888 9.97499 15.9855 7.89548 13.4922 7.89548C10.7865 7.89548 9.09653 9.97499 9.09653 13.3431V15.7419Z" fill="black"/>
<path d="M12.7473 39.0403C12.6228 39.0403 12.5224 38.9435 12.5224 38.8248C12.5224 38.571 13.1581 36.9053 13.3116 35.7838C13.3305 35.6492 13.1593 35.5955 13.082 35.7053C12.7113 36.2306 12.3377 36.7925 11.3218 36.8061C9.42824 36.8309 8.33743 35.0324 8.93301 33.3956C9.22519 32.5934 13.2414 27.235 13.7874 27.235C14.3334 27.235 18.3495 32.5934 18.6417 33.3956C19.2373 35.0324 18.1465 36.8309 16.2529 36.8061C15.2371 36.7925 14.8634 36.2306 14.4927 35.7053C14.4154 35.5955 14.2442 35.6492 14.2631 35.7838C14.4166 36.9053 15.0523 38.571 15.0523 38.8248C15.0523 38.9435 14.952 39.0403 14.8274 39.0403H12.7473Z" fill="black"/>
</svg>
