<svg width="28" height="46" viewBox="0 0 28 46" fill="none" xmlns="http://www.w3.org/2000/svg">
<rect width="28" height="46" rx="5" fill="white"/>
<path d="M7.50195 14.9485C7.50195 9.25871 9.69005 6.10034 13.6178 6.10034C14.8835 6.10034 16.1019 6.44307 17.0007 7.05819C17.7819 7.56696 18.2552 8.21754 18.2552 8.76176C18.2552 9.27052 17.8882 9.64929 17.3794 9.64929C17.0485 9.64929 16.7998 9.51871 16.3737 9.10508C15.5222 8.26482 14.6353 7.88663 13.5823 7.88663C10.9439 7.88663 9.54824 10.2053 9.51279 14.6294H9.60733C10.1515 13.1864 11.8433 12.1689 13.6887 12.1689C16.6934 12.1689 18.7988 14.3334 18.7988 17.4214C18.7988 20.6743 16.5752 22.8867 13.2863 22.8867C11.2873 22.8867 9.69006 22.0582 8.72039 20.5325C7.90376 19.2313 7.50195 17.3972 7.50195 14.9485ZM9.80883 17.4923C9.80883 19.6095 11.2754 21.1122 13.369 21.1122C15.4041 21.1122 16.7643 19.6804 16.7643 17.5041C16.7643 15.3509 15.3923 13.9316 13.2863 13.9316C11.24 13.9316 9.80883 15.3982 9.80883 17.4923Z" fill="black"/>
<path d="M12.3512 39.1003C12.2265 39.1003 12.1261 39.0034 12.1261 38.8847C12.1261 38.6306 12.7625 36.963 12.9161 35.8403C12.935 35.7056 12.7636 35.6518 12.6862 35.7618C12.3151 36.2877 11.9411 36.8502 10.9242 36.8638C9.02856 36.8886 7.93658 35.0881 8.5328 33.4495C8.82529 32.6465 12.8458 27.2823 13.3924 27.2823C13.9389 27.2823 17.9594 32.6465 18.2519 33.4495C18.8482 35.0881 17.7562 36.8886 15.8606 36.8638C14.8436 36.8502 14.4696 36.2877 14.0985 35.7618C14.0211 35.6518 13.8497 35.7056 13.8686 35.8403C14.0223 36.963 14.6587 38.6306 14.6587 38.8847C14.6587 39.0034 14.5582 39.1003 14.4335 39.1003H12.3512Z" fill="black"/>
</svg>
