<svg width="28" height="46" viewBox="0 0 28 46" fill="none" xmlns="http://www.w3.org/2000/svg">
<rect width="28" height="46" rx="5" fill="white"/>
<path d="M8.78174 19.2044C8.78174 18.6726 9.14806 18.2942 9.66802 18.2942C10.0815 18.2942 10.3418 18.5067 10.6488 19.1094C11.2632 20.3737 12.4922 21.0832 14.0994 21.0832C16.2144 21.0832 17.5619 19.9251 17.5619 18.1171C17.5619 16.3091 16.179 15.092 14.1231 15.092H12.6456C12.1026 15.092 11.7006 14.7018 11.7006 14.1936C11.7006 13.6736 12.0784 13.3076 12.6456 13.3076H14.0404C15.7658 13.3076 17.0183 12.1377 17.0183 10.5186C17.0183 8.90012 15.8012 7.81285 13.9932 7.81285C12.5866 7.81285 11.5235 8.50996 11.0507 9.72709C10.814 10.377 10.5189 10.6249 10.0579 10.6249C9.51438 10.6249 9.15992 10.2353 9.15992 9.64445C9.15992 7.81285 11.1334 6.04028 14.0404 6.04028C16.9947 6.04028 19.0978 7.80105 19.0978 10.2589C19.0978 12.0433 17.7626 13.745 16.1199 14.0284V14.1464C18.1168 14.3713 19.6415 16.1197 19.6415 18.1525C19.6415 20.9174 17.3489 22.8558 14.064 22.8558C11.0153 22.8558 8.78174 21.0124 8.78174 19.2044Z" fill="black"/>
<path d="M13.4606 39.0403C13.3361 39.0403 13.2357 38.9435 13.2357 38.8248C13.2357 38.571 13.8714 36.9053 14.0249 35.7838C14.0438 35.6492 13.8726 35.5955 13.7953 35.7053C13.4246 36.2306 13.051 36.7925 12.0351 36.8061C10.1415 36.8309 9.05086 35.0324 9.64637 33.3956C9.9385 32.5934 13.9547 27.235 14.5007 27.235C15.0467 27.235 19.0628 32.5934 19.355 33.3956C19.9506 35.0324 18.8598 36.8309 16.9662 36.8061C15.9504 36.7925 15.5767 36.2306 15.206 35.7053C15.1287 35.5955 14.9575 35.6492 14.9764 35.7838C15.1299 36.9053 15.7656 38.571 15.7656 38.8248C15.7656 38.9435 15.6653 39.0403 15.5407 39.0403H13.4606Z" fill="black"/>
</svg>
