<svg width="28" height="46" viewBox="0 0 28 46" fill="none" xmlns="http://www.w3.org/2000/svg">
<rect width="28" height="46" rx="5" fill="white"/>
<path d="M7.98716 22.9203C7.39248 22.9203 7 22.5758 7 22.0286C7 21.7904 7.05946 21.5646 7.15461 21.2794L12.0428 7.61352C12.3402 6.7812 12.7565 6.40039 13.5176 6.40039C14.2788 6.40039 14.695 6.7812 14.9924 7.61352L19.8806 21.2794C19.9758 21.5408 20.0352 21.7904 20.0352 22.0167C20.0352 22.5758 19.6428 22.9203 19.0362 22.9203C18.4653 22.9203 18.1442 22.647 17.9182 21.9454L16.5505 17.8896H10.4729L9.10517 21.9454C8.87916 22.6589 8.55804 22.9203 7.98716 22.9203ZM11.0319 16.2124H15.9915L13.5533 8.98113H13.47L11.0319 16.2124Z" fill="black"/>
<path d="M12.7673 39.4004C12.6426 39.4004 12.5414 39.3029 12.5414 39.1835C12.5414 38.9281 13.1813 37.2515 13.3358 36.1228C13.3544 35.9873 13.1821 35.9333 13.1043 36.0438C12.7314 36.5725 12.3554 37.1381 11.3326 37.1517C9.42706 37.1767 8.32929 35.3665 8.92869 33.7191C9.22257 32.9117 13.2651 27.5185 13.8144 27.5185C14.3637 27.5185 18.4063 32.9117 18.7002 33.7191C19.2996 35.3665 18.2018 37.1767 16.2963 37.1517C15.2735 37.1381 14.8975 36.5725 14.5246 36.0438C14.4467 35.9333 14.2745 35.9873 14.2931 36.1228C14.4476 37.2515 15.0875 38.9281 15.0875 39.1835C15.0875 39.3029 14.9863 39.4004 14.8615 39.4004H12.7673Z" fill="black"/>
</svg>
