<svg width="28" height="46" viewBox="0 0 28 46" fill="none" xmlns="http://www.w3.org/2000/svg">
<rect width="28" height="46" rx="5" fill="white"/>
<path d="M8.23625 22.6309C7.59818 22.6309 7.20801 22.1935 7.20801 21.4964V7.39908C7.20801 6.70197 7.59818 6.26459 8.23625 6.26459C8.87433 6.26459 9.2757 6.70197 9.2757 7.39908V21.4964C9.2757 22.1935 8.87433 22.6309 8.23625 22.6309ZM9.86893 14.7609V14.17C9.86893 9.27789 11.9608 6.04028 15.6122 6.04028C19.2636 6.04028 21.3431 9.27789 21.3431 14.17V14.7609C21.3431 19.6412 19.2518 22.8558 15.6004 22.8558C11.9608 22.8558 9.86893 19.653 9.86893 14.7609ZM11.9372 14.1818V14.7373C11.9372 18.6726 13.3432 21.0714 15.6122 21.0714C17.8812 21.0714 19.2872 18.6726 19.2872 14.7373V14.1818C19.2872 10.2471 17.8694 7.83646 15.6004 7.83646C13.3432 7.83646 11.9372 10.2471 11.9372 14.1818Z" fill="black"/>
<path d="M13.4065 39.0403C13.2819 39.0403 13.1816 38.9435 13.1816 38.8248C13.1816 38.571 13.8173 36.9053 13.9708 35.7838C13.9897 35.6492 13.8185 35.5955 13.7412 35.7053C13.3705 36.2306 12.9968 36.7925 11.981 36.8061C10.0874 36.8309 8.99661 35.0324 9.59219 33.3956C9.88437 32.5934 13.9005 27.235 14.4465 27.235C14.9925 27.235 19.0087 32.5934 19.3009 33.3956C19.8965 35.0324 18.8057 36.8309 16.9121 36.8061C15.8962 36.7925 15.5226 36.2306 15.1519 35.7053C15.0746 35.5955 14.9034 35.6492 14.9223 35.7838C15.0758 36.9053 15.7115 38.571 15.7115 38.8248C15.7115 38.9435 15.6111 39.0403 15.4866 39.0403H13.4065Z" fill="black"/>
</svg>
