<svg width="28" height="46" viewBox="0 0 28 46" fill="none" xmlns="http://www.w3.org/2000/svg">
<rect width="28" height="46" rx="5" fill="white"/>
<path d="M15.5894 21.7338V19.3237H9.34481C8.4191 19.3237 7.80176 18.8374 7.80176 18.0534C7.80176 17.6146 7.94409 17.1989 8.3592 16.4392C10.057 13.4356 11.1257 11.7259 13.8204 7.68916C14.5213 6.65671 15.0675 6.30029 15.8865 6.30029C16.967 6.30029 17.5724 6.91763 17.5724 8.02184V17.5073H18.8071C19.4719 17.5073 19.8633 17.84 19.8633 18.4217C19.8633 18.9916 19.4837 19.3237 18.8071 19.3237H17.5724V21.7338C17.5724 22.4228 17.216 22.8142 16.575 22.8142C15.9458 22.8142 15.5894 22.4228 15.5894 21.7338ZM9.7961 17.5073H15.5894V8.31835H15.4826C13.4646 11.2983 11.351 14.694 9.7961 17.3887V17.5073Z" fill="black"/>
<path d="M13.0838 39.3003C12.9586 39.3003 12.8578 39.203 12.8578 39.0838C12.8578 38.8288 13.4965 37.1553 13.6507 36.0286C13.6697 35.8934 13.4977 35.8394 13.42 35.9497C13.0476 36.4775 12.6722 37.0421 11.6516 37.0557C9.74919 37.0806 8.65328 35.2737 9.25164 33.6292C9.54519 32.8233 13.5801 27.4398 14.1287 27.4398C14.6772 27.4398 18.7122 32.8233 19.0057 33.6292C19.6041 35.2737 18.5082 37.0806 16.6057 37.0557C15.5851 37.0421 15.2098 36.4775 14.8373 35.9497C14.7597 35.8394 14.5877 35.8934 14.6067 36.0286C14.7608 37.1553 15.3995 38.8288 15.3995 39.0838C15.3995 39.203 15.2987 39.3003 15.1736 39.3003H13.0838Z" fill="black"/>
</svg>
