<svg width="28" height="46" viewBox="0 0 28 46" fill="none" xmlns="http://www.w3.org/2000/svg">
<rect width="28" height="46" rx="5" fill="white"/>
<path d="M13.4695 22.8558C10.1369 22.8558 7.82129 20.9173 7.82129 18.1289C7.82129 16.1793 9.13286 14.5366 11.0825 14.0638V13.9457C9.49882 13.4257 8.45936 11.9961 8.45936 10.3534C8.45936 7.87187 10.5861 6.04028 13.5168 6.04028C16.4474 6.04028 18.586 7.87187 18.586 10.3534C18.586 11.9725 17.5111 13.4257 15.951 13.9457V14.0638C17.8771 14.5248 19.2004 16.1793 19.2004 18.1053C19.2004 20.8819 16.8134 22.8558 13.4695 22.8558ZM13.5168 13.2486C15.3129 13.2486 16.5773 12.1023 16.5773 10.495C16.5773 8.90012 15.3247 7.78924 13.5168 7.78924C11.7206 7.78924 10.4562 8.91193 10.4562 10.495C10.4562 12.0905 11.7324 13.2486 13.5168 13.2486ZM13.5168 21.1304C15.6559 21.1304 17.1918 19.8425 17.1918 18.0463C17.1918 16.2501 15.6559 14.938 13.5168 14.938C11.3776 14.938 9.84175 16.2383 9.84175 18.0463C9.84175 19.8425 11.3776 21.1304 13.5168 21.1304Z" fill="black"/>
<path d="M13.0671 39.0403C12.9426 39.0403 12.8422 38.9435 12.8422 38.8248C12.8422 38.571 13.478 36.9053 13.6314 35.7838C13.6503 35.6492 13.4791 35.5955 13.4018 35.7053C13.0311 36.2306 12.6575 36.7925 11.6416 36.8061C9.74807 36.8309 8.65726 35.0324 9.25284 33.3956C9.54502 32.5934 13.5612 27.235 14.1072 27.235C14.6532 27.235 18.6694 32.5934 18.9615 33.3956C19.5571 35.0324 18.4663 36.8309 16.5727 36.8061C15.5569 36.7925 15.1832 36.2306 14.8126 35.7053C14.7352 35.5955 14.5641 35.6492 14.5829 35.7838C14.7364 36.9053 15.3721 38.571 15.3721 38.8248C15.3721 38.9435 15.2718 39.0403 15.1472 39.0403H13.0671Z" fill="black"/>
</svg>
