<svg width="28" height="46" viewBox="0 0 28 46" fill="none" xmlns="http://www.w3.org/2000/svg">
<rect width="28" height="46" rx="5" fill="white"/>
<path d="M10.4787 22.1795C10.4787 21.9164 10.5622 21.6898 10.6934 21.4274L16.7235 8.56719V8.4473H9.32034C8.58014 8.4473 8.22168 8.06557 8.22168 7.54009C8.22168 7.00268 8.58014 6.62036 9.32034 6.62036H17.8222C18.4431 6.62036 18.9567 7.0504 18.9567 7.75481C18.9567 8.08943 18.7891 8.63876 18.5266 9.20003L12.4368 22.3465C12.2102 22.8242 11.9233 23.1106 11.4217 23.1106C10.932 23.1106 10.4787 22.7407 10.4787 22.1795Z" fill="black"/>
<path d="M13.2841 39.6204C13.1583 39.6204 13.0569 39.5225 13.0569 39.4026C13.0569 39.1462 13.6993 37.463 13.8543 36.3297C13.8734 36.1937 13.7005 36.1394 13.6223 36.2504C13.2477 36.7812 12.8702 37.349 11.8437 37.3628C9.93026 37.3878 8.82802 35.5704 9.42984 33.9165C9.72508 33.1059 13.7834 27.6913 14.3351 27.6913C14.8868 27.6913 18.9451 33.1059 19.2403 33.9165C19.8421 35.5704 18.7399 37.3878 16.8265 37.3628C15.8 37.349 15.4224 36.7812 15.0479 36.2504C14.9697 36.1394 14.7967 36.1937 14.8158 36.3297C14.9709 37.463 15.6133 39.1462 15.6133 39.4026C15.6133 39.5225 15.5119 39.6204 15.386 39.6204H13.2841Z" fill="black"/>
</svg>
