<svg width="28" height="46" viewBox="0 0 28 46" fill="none" xmlns="http://www.w3.org/2000/svg">
<rect width="28" height="46" rx="5" fill="white"/>
<path d="M18.1863 22.8152C17.7697 22.8152 17.4125 22.5775 16.9965 21.9945L12.0108 14.9389L9.96466 17.057V21.7562C9.96466 22.4581 9.55996 22.8984 8.91751 22.8984C8.27507 22.8984 7.88281 22.4581 7.88281 21.7562V7.56242C7.88281 6.86054 8.27507 6.42017 8.91751 6.42017C9.55996 6.42017 9.96466 6.86054 9.96466 7.56242V14.3678H10.0598L16.8295 7.14581C17.2699 6.65848 17.5432 6.50337 17.8885 6.50337C18.4121 6.50337 18.8049 6.90808 18.8049 7.40789C18.8049 7.71693 18.7093 7.89582 18.2338 8.39504L13.5578 13.5114L18.6498 20.5783C19.1496 21.2689 19.2566 21.4828 19.2566 21.7918C19.2566 22.3986 18.8168 22.8152 18.1863 22.8152Z" fill="black"/>
<path d="M12.5338 39.4202C12.4084 39.4202 12.3074 39.3227 12.3074 39.2033C12.3074 38.9477 12.9474 37.2706 13.1019 36.1414C13.121 36.0059 12.9486 35.9518 12.8708 36.0624C12.4975 36.5913 12.1214 37.1571 11.0986 37.1707C9.19202 37.1957 8.09375 35.3848 8.6934 33.7368C8.98759 32.9292 13.0312 27.5341 13.581 27.5341C14.1307 27.5341 18.1743 32.9292 18.4685 33.7368C19.0682 35.3848 17.9699 37.1957 16.0634 37.1707C15.0406 37.1571 14.6644 36.5913 14.2912 36.0624C14.2133 35.9518 14.041 36.0059 14.06 36.1414C14.2145 37.2706 14.8546 38.9477 14.8546 39.2033C14.8546 39.3227 14.7535 39.4202 14.6281 39.4202H12.5338Z" fill="black"/>
</svg>
