<svg width="28" height="46" viewBox="0 0 28 46" fill="none" xmlns="http://www.w3.org/2000/svg">
<rect width="28" height="46" rx="5" fill="white"/>
<path d="M8.05293 20.0875C8.05293 19.556 8.41865 19.2139 8.9265 19.2139C9.24561 19.2139 9.49334 19.3555 9.93042 19.7808C10.7922 20.6307 11.6663 21.0206 12.7522 21.0206C15.4213 21.0206 16.7791 18.5763 16.7791 14.3253H16.6729C16.0825 15.9191 14.5707 16.8758 12.6461 16.8758C9.62311 16.8758 7.52148 14.6556 7.52148 11.4675C7.52148 8.18444 9.75286 6.00024 13.1067 6.00024C16.8027 6.00024 18.7745 8.88163 18.7745 14.2303C18.7745 19.8633 16.7319 22.7919 12.7876 22.7919C11.4888 22.7919 10.2607 22.461 9.33998 21.8588C8.54841 21.3391 8.05293 20.6779 8.05293 20.0875ZM16.4252 11.5147C16.4252 9.30632 15.0314 7.79514 12.9888 7.79514C10.9573 7.79514 9.56412 9.30632 9.56412 11.5029C9.56412 13.6517 10.9337 15.0927 12.9888 15.0927C15.055 15.0927 16.4252 13.6635 16.4252 11.5147Z" fill="black"/>
<path d="M12.3509 39.0002C12.2265 39.0002 12.1262 38.9035 12.1262 38.7849C12.1262 38.5313 12.7614 36.8668 12.9148 35.7461C12.9337 35.6116 12.7626 35.5579 12.6853 35.6676C12.3149 36.1926 11.9416 36.7541 10.9264 36.7677C9.03422 36.7925 7.94419 34.9952 8.53934 33.3596C8.83131 32.558 12.8446 27.2034 13.3902 27.2034C13.9358 27.2034 17.9491 32.558 18.2411 33.3596C18.8362 34.9952 17.7462 36.7925 15.854 36.7677C14.8389 36.7541 14.4655 36.1926 14.0951 35.6676C14.0178 35.5579 13.8468 35.6116 13.8656 35.7461C14.019 36.8668 14.6543 38.5313 14.6543 38.7849C14.6543 38.9035 14.554 39.0002 14.4295 39.0002H12.3509Z" fill="black"/>
</svg>
