<svg width="28" height="46" viewBox="0 0 28 46" fill="none" xmlns="http://www.w3.org/2000/svg">
<rect width="28" height="46" rx="5" fill="white"/>
<path d="M14.5694 7.5743C14.5694 6.86054 14.9617 6.42017 15.6047 6.42017C16.2471 6.42017 16.6513 6.86054 16.6513 7.5743V18.1393C16.6513 21.2207 14.8666 23.1249 11.9996 23.1249C10.4527 23.1249 9.22722 22.6607 8.38271 21.78C7.83535 21.2088 7.50195 20.4951 7.50195 19.8526C7.50195 19.234 7.83536 18.8536 8.37083 18.8536C8.78684 18.8536 9.01326 19.0557 9.3223 19.6625C9.834 20.7096 10.7148 21.257 11.9159 21.257C13.5936 21.257 14.5694 20.1504 14.5694 18.223V7.5743Z" fill="black"/>
<path d="M12.3795 39.4202C12.2541 39.4202 12.1531 39.3227 12.1531 39.2033C12.1531 38.9477 12.7931 37.2706 12.9477 36.1414C12.9667 36.0059 12.7943 35.9518 12.7165 36.0624C12.3432 36.5913 11.9671 37.1571 10.9443 37.1707C9.03773 37.1957 7.93945 35.3848 8.53911 33.7368C8.83329 32.9292 12.8769 27.5341 13.4267 27.5341C13.9764 27.5341 18.02 32.9292 18.3142 33.7368C18.9139 35.3848 17.8156 37.1957 15.9091 37.1707C14.8863 37.1571 14.5101 36.5913 14.1369 36.0624C14.059 35.9518 13.8867 36.0059 13.9057 36.1414C14.0602 37.2706 14.7003 38.9477 14.7003 39.2033C14.7003 39.3227 14.5992 39.4202 14.4738 39.4202H12.3795Z" fill="black"/>
</svg>
