<svg width="28" height="46" viewBox="0 0 28 46" fill="none" xmlns="http://www.w3.org/2000/svg">
<rect width="28" height="46" rx="5" fill="white"/>
<path d="M8.51395 21.4138C8.51395 20.9882 8.71487 20.6576 9.41204 19.8661L14.3278 14.2408C15.6632 12.7168 16.1713 11.724 16.1713 10.6131C16.1713 8.94734 14.9778 7.83646 13.1816 7.83646C11.6572 7.83646 10.5347 8.74606 10.1801 10.2825C10.0147 10.9088 9.68385 11.2275 9.19936 11.2275C8.62031 11.2275 8.24219 10.7907 8.24219 10.1527C8.24219 8.1434 10.192 6.04028 13.3116 6.04028C16.2186 6.04028 18.2628 7.88368 18.2628 10.4832C18.2628 12.0197 17.6602 13.1424 15.5332 15.5648L11.1609 20.5632V20.7049H17.7193C18.3456 20.7049 18.7473 21.0478 18.7473 21.615C18.7473 22.1699 18.3692 22.5128 17.7193 22.5128H9.9202C9.05752 22.5128 8.51395 22.0991 8.51395 21.4138Z" fill="black"/>
<path d="M12.6493 39.0403C12.5253 39.0403 12.4248 38.9435 12.4248 38.8248C12.4248 38.571 13.0605 36.9053 13.2141 35.7838C13.2325 35.6492 13.0614 35.5955 12.9841 35.7053C12.6136 36.2306 12.24 36.7925 11.2238 36.8061C9.33051 36.8309 8.23982 35.0324 8.83534 33.3956C9.12735 32.5934 13.1439 27.235 13.6896 27.235C14.2353 27.235 18.2519 32.5934 18.5439 33.3956C19.1394 35.0324 18.0487 36.8309 16.1555 36.8061C15.1393 36.7925 14.7657 36.2306 14.3952 35.7053C14.3178 35.5955 14.1467 35.6492 14.1652 35.7838C14.3187 36.9053 14.9545 38.571 14.9545 38.8248C14.9545 38.9435 14.8539 39.0403 14.73 39.0403H12.6493Z" fill="black"/>
</svg>
