<svg width="28" height="46" viewBox="0 0 28 46" fill="none" xmlns="http://www.w3.org/2000/svg">
<rect width="28" height="46" rx="5" fill="white"/>
<path d="M7.58203 19.6463C7.58203 19.0497 7.92832 18.6438 8.45342 18.6438C8.85872 18.6438 9.12157 18.8584 9.4315 19.4669C10.0877 20.7436 11.1856 21.4362 12.6178 21.4362C14.7892 21.4362 16.3048 19.9086 16.3048 17.7134C16.3048 15.6131 14.8368 14.1337 12.7728 14.1337C11.8418 14.1337 11.0187 14.4437 10.3267 15.0641C9.45534 15.8759 9.21693 16.0189 8.83488 16.0189C8.15481 16.0189 7.80912 15.4819 7.86872 14.5629L8.39382 7.88085C8.46535 6.99814 8.97852 6.58032 10.0043 6.58032H16.6982C17.3902 6.58032 17.7961 6.92662 17.7961 7.51132C17.7961 8.0841 17.4021 8.40594 16.6982 8.40594H10.2671L9.81355 13.7159H9.93275C10.4698 12.9166 11.8657 12.3439 13.2383 12.3439C16.2691 12.3439 18.4046 14.5152 18.4046 17.6056C18.4046 20.8992 16.0301 23.238 12.7013 23.238C9.5513 23.238 7.58203 21.3164 7.58203 19.6463Z" fill="black"/>
<path d="M12.4258 39.5803C12.3 39.5803 12.1987 39.4826 12.1987 39.3628C12.1987 39.1065 12.8406 37.4245 12.9956 36.2921C13.0146 36.1562 12.8418 36.1019 12.7637 36.2128C12.3894 36.7433 12.0121 37.3107 10.9864 37.3244C9.07431 37.3494 7.97286 35.5333 8.57425 33.8805C8.86928 33.0706 12.9246 27.6599 13.4759 27.6599C14.0273 27.6599 18.0826 33.0706 18.3776 33.8805C18.979 35.5333 17.8776 37.3494 15.9655 37.3244C14.9398 37.3107 14.5625 36.7433 14.1882 36.2128C14.1101 36.1019 13.9373 36.1562 13.9563 36.2921C14.1113 37.4245 14.7532 39.1065 14.7532 39.3628C14.7532 39.4826 14.6519 39.5803 14.5261 39.5803H12.4258Z" fill="black"/>
</svg>
