<svg width="280" height="73" viewBox="0 0 280 73" fill="none" xmlns="http://www.w3.org/2000/svg">
<rect width="280" height="73" rx="36.5" fill="white"/>
<path d="M193.599 73H168.22L175.512 50.9092H186.307L193.599 73ZM207.617 57.8975C209.757 57.8975 211.608 58.2861 213.171 59.0625C214.743 59.8295 215.96 60.9184 216.821 62.3291C217.683 63.7306 218.119 65.3786 218.129 67.2725H210.855C210.751 66.1268 210.42 65.2557 209.861 64.6592C209.312 64.0531 208.602 63.75 207.73 63.75C207.049 63.7501 206.453 63.9491 205.941 64.3467C205.43 64.7349 205.032 65.3267 204.748 66.1221C204.464 66.908 204.321 67.8977 204.321 69.0908C204.321 70.284 204.464 71.2788 204.748 72.0742C204.873 72.4209 205.023 72.7288 205.192 73H196.832C196.485 71.8199 196.311 70.5357 196.311 69.1475C196.311 66.9127 196.761 64.9521 197.66 63.2666C198.56 61.5718 199.853 60.2558 201.538 59.3184C203.224 58.3715 205.25 57.8975 207.617 57.8975ZM218.129 70.9092C218.118 71.6419 218.047 72.3388 217.916 73H210.255C210.286 72.9481 210.316 72.8954 210.345 72.8408C210.629 72.3106 210.799 71.6666 210.855 70.9092H218.129ZM230.625 58.1816H234.375V63.8633H230.625V72.9834C230.625 72.989 230.626 72.9945 230.626 73H222.784V63.8633H220V58.1816H222.784V52.9541H230.625V58.1816ZM244.165 72.9912C243.944 72.9952 243.722 73 243.5 73H236.379C236.377 72.9847 236.376 72.9694 236.374 72.9541H244.158C244.16 72.9666 244.163 72.9789 244.165 72.9912ZM246.942 57.8975C250.096 57.8975 252.581 58.5516 254.399 59.8584C256.227 61.1652 257.189 62.9736 257.283 65.2842H250.067C250.03 64.8392 249.873 64.4557 249.599 64.1338C249.324 63.8118 248.969 63.565 248.533 63.3945C248.107 63.2147 247.634 63.125 247.113 63.125C246.441 63.125 245.863 63.2479 245.38 63.4941C244.897 63.7404 244.66 64.0914 244.67 64.5459C244.661 64.8677 244.798 65.1659 245.082 65.4404C245.376 65.7149 245.939 65.9276 246.772 66.0791L251.204 66.875C253.439 67.2822 255.1 67.9688 256.189 68.9346C256.648 69.3342 257.01 69.7919 257.279 70.3057C254.673 71.3691 251.917 72.1427 249.051 72.5801C248.656 72.3887 248.106 72.2285 247.397 72.1025L243.533 71.4209C241.308 71.0326 239.641 70.2931 238.533 69.2041C237.425 68.1151 236.876 66.7139 236.886 65C236.876 63.4848 237.274 62.2015 238.079 61.1504C238.893 60.0899 240.053 59.2846 241.559 58.7354C243.074 58.1766 244.869 57.8975 246.942 57.8975ZM177.896 68.5225H183.922L181.022 58.9209H180.796L177.896 68.5225Z" fill="#FF008C"/>
</svg>
