<svg width="280" height="73" viewBox="0 0 280 73" fill="none" xmlns="http://www.w3.org/2000/svg">
<rect width="280" height="73" rx="36.5" fill="#00231B"/>
<path d="M185.599 73H160.22L167.512 50.9092H178.307L185.599 73ZM198.665 73H190.824V50.9092H198.665V73ZM210.501 73H202.66V50.9092H210.501V73ZM241.321 73H233.48V58.1816H241.321V73ZM259.691 57.8975C261.235 57.8975 262.576 58.2527 263.712 58.9629C264.858 59.6636 265.743 60.6294 266.368 61.8604C266.752 62.6047 267.017 63.4135 267.165 64.2861C264.833 66.2742 262.248 67.9739 259.465 69.3301V67.7275C259.474 66.648 259.199 65.8001 258.641 65.1846C258.091 64.5691 257.324 64.2618 256.34 64.2617C255.696 64.2617 255.132 64.4035 254.649 64.6875C254.176 64.9621 253.811 65.36 253.556 65.8809C253.3 66.3922 253.167 67.0079 253.157 67.7275V71.7051C250.641 72.3936 248.018 72.8217 245.316 72.9541V58.1816H252.76V62.3291H252.987C253.461 60.9468 254.294 59.863 255.487 59.0771C256.69 58.2912 258.091 57.8975 259.691 57.8975ZM228.814 71.3633H215.179V65.4541H228.814V71.3633ZM169.896 68.5225H175.922L173.022 58.9209H172.796L169.896 68.5225ZM237.401 48.75C238.471 48.75 239.381 49.1 240.129 49.8008C240.886 50.5014 241.265 51.3445 241.265 52.3291C241.265 53.3139 240.886 54.1576 240.129 54.8584C239.381 55.5591 238.471 55.9092 237.401 55.9092C236.341 55.9092 235.431 55.5591 234.674 54.8584C233.916 54.1576 233.538 53.3139 233.538 52.3291C233.538 51.3444 233.916 50.5014 234.674 49.8008C235.431 49.1001 236.341 48.75 237.401 48.75Z" fill="#00372A"/>
</svg>
