<svg width="280" height="73" viewBox="0 0 280 73" fill="none" xmlns="http://www.w3.org/2000/svg">
<rect width="280" height="73" rx="36.5" fill="#14003F"/>
<path d="M126.488 50.9092C128.704 50.9092 130.566 51.2071 132.071 51.8037C133.586 52.4002 134.727 53.2432 135.494 54.332C136.271 55.421 136.659 56.7044 136.659 58.1816C136.659 59.2517 136.423 60.2277 135.949 61.1084C135.485 61.989 134.831 62.7277 133.988 63.3242C133.146 63.9112 132.161 64.3187 131.034 64.5459V64.8291C132.284 64.8765 133.421 65.1941 134.443 65.7812C135.466 66.3589 136.281 67.159 136.887 68.1816C137.493 69.1949 137.796 70.3886 137.796 71.7617C137.796 72.187 137.766 72.5998 137.706 73H128.384C128.406 72.9847 128.428 72.9699 128.449 72.9541C129.112 72.4522 129.443 71.7134 129.443 70.7383C129.443 70.0567 129.287 69.4792 128.975 69.0059C128.662 68.5324 128.217 68.172 127.64 67.9258C127.071 67.6796 126.384 67.5566 125.579 67.5566H121.772V73H113.875V50.9092H126.488ZM148.548 73H140.707V58.1816H148.548V73ZM160.384 57.8975C161.463 57.8975 162.411 58.087 163.226 58.4658C164.04 58.8351 164.721 59.3322 165.271 59.957C165.82 60.5725 166.236 61.2498 166.521 61.9883H166.691V58.1816H174.532V73H165.735C165.996 72.6699 166.211 72.2763 166.379 71.8184C166.663 71.0608 166.805 70.1514 166.805 69.0908C166.805 68.0115 166.663 67.0882 166.379 66.3213C166.104 65.5449 165.706 64.9531 165.186 64.5459C164.674 64.1292 164.059 63.9209 163.339 63.9209C162.619 63.9209 162.004 64.1292 161.492 64.5459C160.99 64.9531 160.602 65.5449 160.327 66.3213C160.062 67.0882 159.93 68.0115 159.93 69.0908C159.93 70.1704 160.062 71.0891 160.327 71.8467C160.491 72.2941 160.698 72.6779 160.943 73H152.257C151.994 71.8587 151.861 70.5558 151.861 69.0908C151.861 66.4585 152.269 64.3186 153.083 62.6709C153.907 61.0232 154.967 59.8149 156.265 59.0479C157.571 58.2809 158.945 57.8975 160.384 57.8975ZM194.216 61.9883H194.329C194.613 61.2497 195.03 60.5725 195.579 59.957C196.128 59.332 196.811 58.8351 197.625 58.4658C198.439 58.0871 199.386 57.8975 200.466 57.8975C201.905 57.8975 203.274 58.2808 204.571 59.0479C205.878 59.8149 206.939 61.0232 207.753 62.6709C208.577 64.3186 208.988 66.4585 208.988 69.0908C208.988 70.5358 208.859 71.8387 208.6 73H199.943C200.17 72.6798 200.36 72.3058 200.509 71.875C200.783 71.0985 200.921 70.1703 200.921 69.0908C200.921 68.0115 200.783 67.0882 200.509 66.3213C200.244 65.5449 199.855 64.9531 199.344 64.5459C198.842 64.1293 198.231 63.921 197.512 63.9209C196.792 63.9209 196.171 64.1292 195.65 64.5459C195.139 64.9531 194.741 65.5449 194.457 66.3213C194.183 67.0882 194.046 68.0115 194.046 69.0908C194.046 70.1514 194.182 71.0702 194.457 71.8467C194.62 72.288 194.824 72.6715 195.062 73H186.375V50.9092H194.216V61.9883ZM220.11 73H212.27V50.9092H220.11V73ZM231.946 73H224.105V58.1816H231.946V73ZM250.316 57.8975C251.86 57.8975 253.201 58.2527 254.337 58.9629C255.483 59.6636 256.368 60.6294 256.993 61.8604C257.628 63.0913 257.94 64.4978 257.931 66.0791V70.0332C255.447 71.1034 252.822 71.9061 250.09 72.4043V67.7275C250.099 66.648 249.824 65.8001 249.266 65.1846C248.716 64.5691 247.949 64.2618 246.965 64.2617C246.321 64.2617 245.757 64.4035 245.274 64.6875C244.801 64.9621 244.436 65.36 244.181 65.8809C243.925 66.3922 243.792 67.0079 243.782 67.7275V72.9961C243.688 72.9968 243.594 73 243.5 73H235.941V58.1816H243.385V62.3291H243.612C244.086 60.9468 244.919 59.863 246.112 59.0771C247.315 58.2912 248.716 57.8975 250.316 57.8975ZM269.642 57.8975C270.721 57.8975 271.669 58.087 272.483 58.4658C272.525 58.4845 272.565 58.505 272.605 58.5244C269.526 62.5875 265.616 65.9853 261.128 68.4658C261.188 66.1178 261.592 64.1862 262.341 62.6709C263.165 61.0232 264.225 59.8149 265.522 59.0479C266.829 58.2809 268.202 57.8975 269.642 57.8975ZM121.772 62.6709H125.012C125.703 62.6709 126.314 62.5615 126.844 62.3438C127.374 62.126 127.786 61.8133 128.079 61.4062C128.382 60.9897 128.534 60.4832 128.534 59.8867C128.534 58.9872 128.212 58.3006 127.568 57.8271C126.924 57.3442 126.11 57.1025 125.125 57.1025H121.772V62.6709ZM144.628 48.75C145.698 48.75 146.607 49.1 147.355 49.8008C148.113 50.5014 148.491 51.3445 148.491 52.3291C148.491 53.3139 148.113 54.1576 147.355 54.8584C146.607 55.5591 145.698 55.9092 144.628 55.9092C143.567 55.9092 142.658 55.5591 141.9 54.8584C141.143 54.1576 140.765 53.3139 140.765 52.3291C140.765 51.3444 141.143 50.5014 141.9 49.8008C142.658 49.1001 143.567 48.75 144.628 48.75ZM228.026 48.75C229.096 48.75 230.006 49.1 230.754 49.8008C231.511 50.5014 231.89 51.3445 231.89 52.3291C231.89 53.3139 231.511 54.1576 230.754 54.8584C230.006 55.5591 229.096 55.9092 228.026 55.9092C226.966 55.9092 226.056 55.5591 225.299 54.8584C224.541 54.1576 224.163 53.3139 224.163 52.3291C224.163 51.3444 224.541 50.5014 225.299 49.8008C226.056 49.1001 226.966 48.75 228.026 48.75ZM277.043 50.9092C276.688 51.7337 276.304 52.5422 275.892 53.334V50.9092H277.043Z" fill="#1B0056"/>
</svg>
