<svg width="280" height="73" viewBox="0 0 280 73" fill="none" xmlns="http://www.w3.org/2000/svg">
<rect width="280" height="73" rx="36.5" fill="black"/>
<path d="M57 39.4376C57.0003 40.9617 56.4573 42.4375 55.4658 43.6075C54.4742 44.7775 53.097 45.5673 51.5745 45.8392C50.052 46.1111 48.481 45.8477 47.1355 45.0951C45.7901 44.3425 44.7556 43.1484 44.2128 41.7212C44.2077 46.0013 44.4865 48.8491 48.6098 51H37.3836C41.5069 48.8497 41.7857 46.0025 41.7806 41.7212C41.327 42.9112 40.5292 43.9441 39.4858 44.6921C38.4425 45.4402 37.1995 45.8707 35.9105 45.9303C34.6214 45.9899 33.3429 45.676 32.2331 45.0274C31.1232 44.3789 30.2307 43.4242 29.6659 42.2813C29.101 41.1384 28.8887 39.8575 29.0551 38.597C29.2215 37.3365 29.7594 36.1517 30.6021 35.1891C31.4449 34.2265 32.5557 33.5283 33.797 33.1809C35.0383 32.8335 36.3558 32.8522 37.5865 33.2345C36.8938 32.2597 36.4858 31.1165 36.407 29.9291C36.3281 28.7418 36.5814 27.556 37.1392 26.5006C37.6971 25.4452 38.5382 24.5608 39.5709 23.9436C40.6036 23.3264 41.7884 23 42.9964 23C44.2043 23 45.3892 23.3264 46.4219 23.9436C47.4546 24.5608 48.2957 25.4452 48.8535 26.5006C49.4114 27.556 49.6647 28.7418 49.5858 29.9291C49.5069 31.1165 49.099 32.2597 48.4063 33.2345C49.3957 32.9271 50.4448 32.8536 51.4684 33.0199C52.4921 33.1862 53.4616 33.5876 54.2984 34.1917C55.1353 34.7957 55.8159 35.5854 56.2853 36.4968C56.7546 37.4082 56.9995 38.4157 57 39.4376Z" fill="white" fill-opacity="0.25"/>
<path d="M119 37C114.485 39.6308 110.018 44.9031 107.5 51C104.982 44.9031 100.515 39.6308 96 37C100.515 34.3692 104.982 29.0969 107.5 23C110.018 29.0969 114.485 34.3692 119 37Z" fill="#FF0000" fill-opacity="0.25"/>
<path d="M250 30.7939C250 40.8362 236 51 236 51C236 51 222 40.8362 222 30.7939C222 25.1008 226.409 23.0006 228.728 23.0006C233.576 23.0006 236 27.0938 236 27.0938C236 27.0938 238.424 23 243.272 23C245.591 23.0006 250 25.1001 250 30.7939Z" fill="#FF0000" fill-opacity="0.25"/>
<path d="M183 40.2203C183 44.121 179.673 45.9078 177.373 45.9091C174.808 45.9091 172.87 44.7345 171.716 43.7753C171.868 46.9486 172.611 49.2156 175.945 51H165.055C168.389 49.2156 169.132 46.9486 169.284 43.7753C168.13 44.7338 166.191 45.9103 163.627 45.9091C161.33 45.9091 158 44.121 158 40.2203C158 33.0909 162.968 35.031 170.5 23C178.032 35.031 183 33.0915 183 40.2203Z" fill="white" fill-opacity="0.25"/>
<path d="M147.954 50.9092C150.946 50.9092 153.532 51.4916 155.71 52.6562C157.897 53.8115 159.583 55.4783 160.767 57.6562C161.96 59.8247 162.557 62.424 162.557 65.4541C162.557 68.362 162.01 70.8769 160.92 73H150.318C150.726 72.8944 151.108 72.7622 151.463 72.5996C152.486 72.1356 153.263 71.3355 153.793 70.1992C154.333 69.0629 154.603 67.4806 154.603 65.4541C154.602 63.4278 154.328 61.8462 153.778 60.71C153.239 59.5737 152.443 58.7736 151.392 58.3096C150.35 57.8457 149.072 57.6133 147.557 57.6133H144.772V73H136.875V50.9092H147.954ZM176.608 57.8975C178.256 57.8975 179.748 58.1537 181.083 58.665C182.418 59.1764 183.56 59.9192 184.507 60.8945C185.454 61.8604 186.183 63.0354 186.694 64.418C187.206 65.8004 187.461 67.3581 187.461 69.0908V70.9092H173.257V71.25C173.257 71.8984 173.383 72.4813 173.635 73H166.012C165.691 71.834 165.529 70.5499 165.529 69.1475C165.529 66.8938 165.984 64.9238 166.893 63.2383C167.802 61.5528 169.085 60.2412 170.742 59.3037C172.399 58.3663 174.355 57.8975 176.608 57.8975ZM187.453 73H180.283C180.289 72.9848 180.296 72.9695 180.302 72.9541H187.461C187.458 72.9693 187.456 72.9849 187.453 73ZM200.49 57.8975C202.053 57.8975 203.454 58.0829 204.694 58.4521C205.935 58.812 206.991 59.3183 207.862 59.9717C208.733 60.6155 209.396 61.3731 209.851 62.2441C210.315 63.1058 210.547 64.0435 210.547 65.0566V73H202.688C202.737 72.7726 202.763 72.5299 202.763 72.2725V70.4541C202.554 70.5393 202.331 70.6205 202.095 70.6963C201.868 70.772 201.621 70.8429 201.356 70.9092C201.101 70.9755 200.826 71.0369 200.532 71.0938C200.248 71.1505 199.95 71.2027 199.638 71.25C199.032 71.3447 198.535 71.501 198.146 71.7188C197.768 71.9271 197.483 72.1875 197.294 72.5C197.201 72.6565 197.133 72.8233 197.088 73H189.689C189.772 72.2183 189.958 71.5255 190.249 70.9229C190.656 70.0708 191.224 69.3746 191.953 68.835C192.682 68.2952 193.53 67.8837 194.496 67.5996C195.471 67.3156 196.523 67.1311 197.649 67.0459C198.871 66.9512 199.851 66.8367 200.59 66.7041C201.338 66.5621 201.878 66.3682 202.209 66.1221C202.54 65.8664 202.706 65.5299 202.706 65.1133V65.0566C202.706 64.4886 202.488 64.053 202.053 63.75C201.617 63.447 201.058 63.2959 200.376 63.2959C199.628 63.296 199.017 63.4616 198.544 63.793C198.08 64.1149 197.801 64.6119 197.706 65.2842H190.49C190.585 63.9584 191.006 62.7366 191.754 61.6191C192.511 60.4924 193.615 59.5932 195.063 58.9209C196.512 58.2391 198.322 57.8975 200.49 57.8975ZM222.134 73H214.293V50.9092H222.134V73ZM236.413 57.8975C238.061 57.8975 239.552 58.1537 240.888 58.665C242.223 59.1764 243.365 59.9192 244.312 60.8945C245.258 61.8604 245.988 63.0354 246.499 64.418C247.01 65.8004 247.266 67.3581 247.266 69.0908V70.9092H233.062V71.25C233.062 71.8984 233.188 72.4813 233.439 73H225.816C225.496 71.834 225.334 70.5499 225.334 69.1475C225.334 66.8938 225.788 64.9238 226.697 63.2383C227.606 61.5528 228.89 60.2412 230.547 59.3037C232.204 58.3663 234.159 57.8975 236.413 57.8975ZM245.327 72.9541C244.722 72.9839 244.113 73 243.5 73H240.088C240.094 72.9848 240.101 72.9695 240.106 72.9541H245.327ZM263.249 57.8975C263.59 57.8975 263.926 57.9266 264.258 57.9834C264.599 58.0307 264.926 58.1016 265.238 58.1963V64.8867C264.85 64.7542 264.372 64.6542 263.804 64.5879C263.236 64.5216 262.747 64.4883 262.34 64.4883C261.573 64.4883 260.882 64.6643 260.267 65.0146C259.661 65.3555 259.182 65.838 258.832 66.4629C258.482 67.0784 258.306 67.8034 258.306 68.6367V69.8691C255.825 70.9713 253.2 71.8045 250.465 72.333V58.1816H258.079V62.3291H258.306C258.703 60.7952 259.334 59.6731 260.195 58.9629C261.066 58.2528 262.084 57.8975 263.249 57.8975ZM176.779 63.4092C176.145 63.4092 175.563 63.5467 175.032 63.8213C174.502 64.0864 174.076 64.4554 173.754 64.9287C173.441 65.4022 173.276 65.9564 173.257 66.5908H180.245C180.236 65.9659 180.074 65.4168 179.762 64.9434C179.459 64.4605 179.047 64.0864 178.526 63.8213C178.015 63.5467 177.433 63.4092 176.779 63.4092ZM236.584 63.4092C235.95 63.4092 235.367 63.5467 234.837 63.8213C234.307 64.0864 233.881 64.4554 233.559 64.9287C233.246 65.4022 233.08 65.9564 233.062 66.5908H240.05C240.04 65.9659 239.879 65.4168 239.566 64.9434C239.263 64.4605 238.852 64.0864 238.331 63.8213C237.82 63.5467 237.237 63.4092 236.584 63.4092Z" fill="#111111"/>
</svg>
