<svg width="280" height="73" viewBox="0 0 280 73" fill="none" xmlns="http://www.w3.org/2000/svg">
<rect width="280" height="73" rx="36.5" fill="#2D0000"/>
<path d="M101.637 69.7725C101.684 70.6623 101.906 71.4106 102.304 72.0166C102.558 72.4047 102.88 72.7323 103.267 73H94.5107C94.2666 72.0262 94.1413 70.9503 94.1367 69.7725H101.637ZM106.637 50.5117C108.985 50.5118 111.017 50.9045 112.73 51.6904C114.444 52.4764 115.765 53.5848 116.693 55.0146C117.631 56.435 118.104 58.0968 118.113 60H110.557C110.481 59.0531 110.126 58.3145 109.491 57.7842C108.866 57.254 107.915 56.9883 106.637 56.9883C105.822 56.9883 105.155 57.0883 104.634 57.2871C104.122 57.4765 103.743 57.7369 103.497 58.0684C103.251 58.3996 103.123 58.7782 103.113 59.2041C103.094 59.5544 103.156 59.8722 103.298 60.1562C103.449 60.4308 103.687 60.6819 104.009 60.9092C104.331 61.1269 104.742 61.326 105.244 61.5059C105.746 61.6858 106.343 61.8462 107.034 61.9883L109.421 62.5C111.03 62.8409 112.408 63.291 113.554 63.8496C114.7 64.4083 115.637 65.0667 116.366 65.8242C117.095 66.5723 117.631 67.4151 117.972 68.3525C118.322 69.2899 118.502 70.3131 118.512 71.4209C118.509 71.9717 118.465 72.4979 118.385 73H109.68C109.795 72.9021 109.898 72.7975 109.988 72.6846C110.282 72.3154 110.434 71.8942 110.443 71.4209C110.434 70.9759 110.287 70.5873 110.003 70.2559C109.728 69.915 109.274 69.6118 108.64 69.3467C108.005 69.0721 107.148 68.8158 106.068 68.5791L103.171 67.9541C100.595 67.3954 98.5639 66.4629 97.0771 65.1562C95.5999 63.84 94.8656 62.0451 94.875 59.7725C94.8656 57.926 95.3583 56.3112 96.3525 54.9287C97.3563 53.5368 98.744 52.4522 100.515 51.6758C102.295 50.8994 104.336 50.5117 106.637 50.5117ZM148.334 57.8975C150.427 57.8975 152.122 58.5704 153.419 59.915C154.726 61.2597 155.379 63.0494 155.379 65.2842V73H147.538V67.2725C147.538 66.3162 147.296 65.568 146.813 65.0283C146.331 64.4793 145.682 64.2042 144.868 64.2041C144.063 64.2041 143.424 64.4791 142.95 65.0283C142.486 65.568 142.254 66.3162 142.254 67.2725V73H134.754V67.2725C134.754 66.3163 134.513 65.568 134.03 65.0283C133.547 64.4791 132.898 64.2041 132.084 64.2041C131.544 64.2041 131.08 64.328 130.691 64.5742C130.303 64.8204 130 65.1758 129.782 65.6396C129.574 66.094 129.47 66.6384 129.47 67.2725V73H121.629V58.1816H129.072V62.3291H129.3C129.754 60.9658 130.531 59.8862 131.629 59.0908C132.727 58.2954 134.035 57.8975 135.55 57.8975C137.084 57.8975 138.405 58.3048 139.513 59.1191C140.62 59.924 141.288 60.9941 141.516 62.3291H141.743C142.113 60.9942 142.898 59.924 144.101 59.1191C145.303 58.3047 146.715 57.8975 148.334 57.8975ZM169.076 57.8975C170.639 57.8975 172.04 58.0829 173.28 58.4521C174.521 58.812 175.577 59.3183 176.448 59.9717C177.319 60.6155 177.982 61.3731 178.437 62.2441C178.9 63.1058 179.133 64.0435 179.133 65.0566V73H171.273C171.323 72.7726 171.349 72.5299 171.349 72.2725V70.4541C171.14 70.5393 170.917 70.6205 170.681 70.6963C170.454 70.772 170.207 70.8429 169.942 70.9092C169.687 70.9755 169.412 71.0369 169.118 71.0938C168.834 71.1505 168.536 71.2027 168.224 71.25C167.618 71.3447 167.121 71.501 166.732 71.7188C166.354 71.9271 166.069 72.1875 165.88 72.5C165.787 72.6565 165.719 72.8233 165.674 73H158.275C158.358 72.2183 158.544 71.5254 158.835 70.9229C159.242 70.0708 159.81 69.3746 160.539 68.835C161.268 68.2952 162.116 67.8837 163.082 67.5996C164.057 67.3156 165.109 67.1311 166.235 67.0459C167.457 66.9512 168.437 66.8367 169.176 66.7041C169.924 66.5621 170.464 66.3682 170.795 66.1221C171.126 65.8664 171.292 65.5298 171.292 65.1133V65.0566C171.292 64.4886 171.074 64.053 170.639 63.75C170.203 63.447 169.644 63.2959 168.962 63.2959C168.214 63.296 167.603 63.4616 167.13 63.793C166.666 64.1149 166.387 64.612 166.292 65.2842H159.076C159.171 63.9585 159.592 62.7365 160.34 61.6191C161.097 60.4924 162.201 59.5932 163.649 58.9209C165.098 58.2391 166.908 57.8975 169.076 57.8975ZM190.72 73H182.879V50.9092H190.72V73ZM202.556 73H194.715V50.9092H202.556V73ZM222.247 61.9883H222.36C222.644 61.2497 223.061 60.5725 223.61 59.957C224.16 59.332 224.842 58.8351 225.656 58.4658C226.471 58.0871 227.418 57.8975 228.497 57.8975C229.936 57.8975 231.305 58.2808 232.603 59.0479C233.909 59.8149 234.97 61.0232 235.784 62.6709C236.608 64.3185 237.02 66.4585 237.02 69.0908C237.02 70.5357 236.889 71.8387 236.631 73H227.975C228.201 72.6798 228.391 72.3057 228.54 71.875C228.815 71.0985 228.952 70.1703 228.952 69.0908C228.952 68.0115 228.815 67.0882 228.54 66.3213C228.275 65.5449 227.886 64.9531 227.375 64.5459C226.873 64.1293 226.263 63.921 225.543 63.9209C224.823 63.9209 224.202 64.1292 223.682 64.5459C223.17 64.9531 222.772 65.545 222.488 66.3213C222.214 67.0882 222.077 68.0115 222.077 69.0908C222.077 70.1514 222.214 71.0702 222.488 71.8467C222.652 72.288 222.855 72.6715 223.094 73H214.406V50.9092H222.247V61.9883ZM248.142 72.707C246.622 72.9 245.072 73 243.5 73H240.301V50.9092H248.142V72.707ZM259.978 69.0752C257.512 70.3249 254.885 71.3018 252.137 71.9688V58.1816H259.978V69.0752ZM271.416 60.0117C269.256 62.5732 266.752 64.834 263.973 66.7207V58.1816H271.416V60.0117ZM256.058 48.75C257.128 48.75 258.037 49.1 258.785 49.8008C259.543 50.5014 259.921 51.3445 259.921 52.3291C259.921 53.3139 259.543 54.1577 258.785 54.8584C258.037 55.5591 257.128 55.9092 256.058 55.9092C254.997 55.9092 254.088 55.559 253.33 54.8584C252.573 54.1577 252.194 53.3139 252.194 52.3291C252.194 51.3445 252.573 50.5014 253.33 49.8008C254.088 49.1001 254.997 48.75 256.058 48.75Z" fill="#3A0000"/>
</svg>
