<svg width="280" height="73" viewBox="0 0 280 73" fill="none" xmlns="http://www.w3.org/2000/svg">
<rect width="280" height="73" rx="36.5" fill="#765600"/>
<path d="M131.906 35.5332L127.385 45.3174L134.394 47.2588L138.915 37.4746L147.677 39.9014L143.154 49.6855L148.954 51.293L145.038 59.6406L139.29 58.0479L136.275 64.5713L142.094 66.1836L138.896 73H132.65L132.412 72.9336L132.382 73H122.499L123.65 70.5068L116.642 68.5654L114.594 73H104.711L107.881 66.1387L102.082 64.5322L105.999 56.1846L111.745 57.7764L114.76 51.2529L108.943 49.6416L112.859 41.2939L118.624 42.8906L123.146 33.1064L131.906 35.5332ZM177.124 48.0596L170.215 73H157.103L161.84 55.8994L161.577 55.8271L150.139 58.9785L153.003 48.6406L165.91 44.9531L177.124 48.0596ZM120.506 60.2031L127.515 62.1445L130.529 55.6211L123.521 53.6797L120.506 60.2031Z" fill="#946D00"/>
</svg>
