<svg width="334" height="440" viewBox="0 0 334 440" fill="none" xmlns="http://www.w3.org/2000/svg">
<rect x="6.76392" y="35" width="319" height="375" fill="black"/>
<rect x="245.764" y="384" width="57" height="51" fill="black"/>
<rect x="26.7639" y="5" width="57" height="51" fill="black"/>
<path d="M29.2 0C13.074 0 0 17.237 0 38.5V401.5C0 422.763 13.074 440 29.2 440H304.498C320.624 440 333.696 422.763 333.696 401.5V38.5C333.696 17.237 320.624 0 304.498 0H29.2ZM56.032 8.408V8.41H56.047C69.634 8.42 80.489 19.263 80.489 32.852C80.489 38.562 78.486 43.849 75.223 48.025C76.343 47.867 77.455 47.715 78.619 47.715C92.214 47.715 103.077 58.872 103.077 72.467C103.077 86.061 92.214 97.219 78.619 97.219C72.859 97.219 67.539 95.171 63.325 91.797L75.934 121.99H35.817L48.237 92.246C44.117 95.361 39.004 97.219 33.461 97.219C19.867 97.219 8.709 86.059 8.709 72.465C8.709 58.87 19.867 47.713 33.461 47.713C34.52 47.713 35.52 47.897 36.543 48.025C33.328 43.865 31.295 38.516 31.295 32.852C31.295 19.263 42.445 8.418 56.032 8.408ZM69.714 132.69H150.072V141.606H132.954C129.309 141.606 126.496 142.556 124.514 144.458C122.534 146.36 121.542 148.778 121.542 151.71V233.374L187.755 162.646C191.559 158.525 193.46 154.642 193.46 150.997C193.46 148.223 192.152 145.965 189.536 144.222C186.921 142.478 182.642 141.606 176.699 141.606H171.826V132.69H243.98V141.606H238.394C233.56 141.606 228.249 143.033 222.464 145.886C216.679 148.739 211.331 152.701 206.417 157.772L165.644 200.21L224.011 286.272C227.261 291.107 230.628 294.554 234.115 296.614C237.601 298.595 241.723 299.587 246.478 299.587H252.896V308.503H173.609V299.587H182.642C189.219 299.587 193.578 299.032 195.718 297.923C197.937 296.813 199.046 295.427 199.046 293.763C199.046 292.257 198.571 290.751 197.62 289.245L149.12 217.921L121.542 247.521V290.791C121.542 293.484 122.334 295.465 123.919 296.733C126.455 298.635 129.467 299.587 132.954 299.587H150.072V308.503H69.714V299.587H85.167C89.13 299.587 92.062 298.795 93.964 297.21C95.866 295.546 96.818 293.405 96.818 290.79V150.4C96.818 147.627 95.746 145.488 93.607 143.982C91.467 142.397 87.862 141.605 82.79 141.605H69.714V132.689V132.69ZM255.558 318.013H295.675L283.064 348.206C287.279 344.832 292.598 342.784 298.359 342.784C311.953 342.784 322.818 353.942 322.818 367.536C322.818 381.131 311.953 392.288 298.358 392.288C297.195 392.288 296.083 392.136 294.962 391.978C298.225 396.154 300.228 401.44 300.228 407.151C300.228 420.74 289.375 431.584 275.788 431.593H275.771C262.183 431.583 251.036 420.74 251.036 407.151C251.036 401.486 253.069 396.138 256.284 391.978C255.261 392.106 254.259 392.29 253.2 392.29C239.606 392.29 228.449 381.131 228.449 367.536C228.449 353.942 239.606 342.784 253.201 342.784C258.743 342.784 263.856 344.642 267.976 347.757L255.558 318.013Z" fill="white"/>
</svg>
