<svg width="334" height="440" viewBox="0 0 334 440" fill="none" xmlns="http://www.w3.org/2000/svg">
<rect x="6.76392" y="37" width="319" height="375" fill="black"/>
<rect x="245.764" y="386" width="57" height="51" fill="black"/>
<rect x="26.7639" y="7" width="57" height="51" fill="black"/>
<path d="M29.2 0C13.074 0 0 17.237 0 38.5V401.5C0 422.763 13.074 440 29.2 440H304.498C320.624 440 333.696 422.763 333.696 401.5V38.5C333.696 17.237 320.624 0 304.498 0H29.2ZM56.032 8.408V8.41H56.047C69.634 8.42 80.489 19.263 80.489 32.852C80.489 38.562 78.486 43.849 75.223 48.025C76.343 47.867 77.455 47.715 78.619 47.715C92.214 47.715 103.077 58.872 103.077 72.467C103.077 86.061 92.214 97.219 78.619 97.219C72.859 97.219 67.539 95.171 63.325 91.797L75.934 121.99H35.817L48.237 92.246C44.117 95.361 39.004 97.219 33.461 97.219C19.867 97.219 8.709 86.059 8.709 72.465C8.709 58.87 19.867 47.713 33.461 47.713C34.52 47.713 35.519 47.897 36.543 48.025C33.328 43.865 31.295 38.516 31.295 32.852C31.295 19.263 42.445 8.418 56.032 8.408ZM151.498 129.004H159.463L222.584 289.838C225.12 296.336 230.311 299.586 238.157 299.586H243.625V308.502H173.491V299.586H179.077C186.367 299.586 191.52 298.794 194.532 297.209C196.592 296.099 197.622 294.396 197.622 292.098C197.622 290.75 197.344 289.324 196.789 287.818L182.169 250.492H112.746L104.546 271.889C102.406 277.594 101.334 282.111 101.334 285.439C101.334 289.323 103.118 292.652 106.684 295.426C110.329 298.2 115.6 299.586 122.494 299.586H128.438V308.502H64.723V299.586C71.538 299.586 76.927 298.12 80.889 295.187C84.851 292.177 88.496 286.511 91.825 278.189L151.498 129.004ZM148.051 162.883L116.551 241.219H178.721L148.051 162.883ZM255.559 318.012H295.676L283.065 348.205C287.28 344.831 292.6 342.783 298.36 342.783C311.954 342.783 322.819 353.94 322.819 367.535C322.819 381.13 311.954 392.287 298.359 392.287C297.196 392.287 296.084 392.135 294.963 391.977C298.226 396.153 300.229 401.439 300.229 407.15C300.229 420.739 289.376 431.583 275.789 431.592H275.772C262.184 431.582 251.037 420.739 251.037 407.15C251.037 401.485 253.07 396.137 256.285 391.977C255.262 392.105 254.26 392.289 253.201 392.289C239.607 392.289 228.45 381.13 228.45 367.535C228.45 353.941 239.607 342.783 253.202 342.783C258.744 342.783 263.857 344.641 267.977 347.756L255.559 318.012Z" fill="white"/>
</svg>
