<svg width="334" height="440" viewBox="0 0 334 440" fill="none" xmlns="http://www.w3.org/2000/svg">
<rect x="6.76392" y="33" width="319" height="375" fill="black"/>
<rect x="245.764" y="382" width="57" height="51" fill="black"/>
<rect x="26.7639" y="3" width="57" height="51" fill="black"/>
<path d="M29.2 0C13.074 0 0 17.237 0 38.5V401.5C0 422.763 13.074 440 29.2 440H304.498C320.624 440 333.696 422.763 333.696 401.5V38.5C333.696 17.237 320.624 0 304.498 0H29.2ZM56.032 8.408V8.41H56.047C69.634 8.42 80.489 19.263 80.489 32.852C80.489 38.562 78.486 43.849 75.223 48.025C76.343 47.867 77.455 47.713 78.619 47.713C92.214 47.713 103.077 58.873 103.077 72.467C103.077 86.061 92.214 97.219 78.619 97.219C72.859 97.219 67.539 95.171 63.325 91.797L75.934 121.988H35.817L48.237 92.246C44.117 95.361 39.004 97.219 33.461 97.219C19.867 97.219 8.709 86.057 8.709 72.463C8.709 58.868 19.867 47.713 33.461 47.713C34.52 47.713 35.519 47.897 36.543 48.025C33.328 43.865 31.295 38.516 31.295 32.852C31.295 19.263 42.445 8.418 56.032 8.408ZM136.998 132.688H214.741V141.604H203.684C199.325 141.604 196.195 142.395 194.294 143.98C192.471 145.565 191.559 147.864 191.559 150.875V264.873C191.559 273.67 189.42 281.635 185.141 288.768C180.861 295.821 174.601 301.446 166.36 305.646C158.118 309.767 148.806 311.828 138.424 311.828C124.318 311.828 112.787 307.707 103.832 299.465C94.877 291.144 90.399 281.002 90.399 269.035C90.399 260.159 92.659 253.065 97.176 247.755C101.693 242.446 107.239 239.791 113.816 239.791C119.206 239.791 123.644 241.535 127.131 245.021C130.618 248.429 132.361 252.788 132.361 258.098C132.361 262.694 130.935 266.578 128.082 269.748C125.229 272.838 121.94 274.383 118.215 274.383C116.789 274.383 114.808 273.988 112.272 273.195C110.132 272.561 108.706 272.245 107.992 272.245C106.645 272.245 105.576 272.799 104.784 273.908C103.912 275.018 103.474 276.681 103.474 278.9C103.474 284.844 106.447 290.272 112.391 295.186C118.414 300.02 125.783 302.438 134.501 302.438C144.406 302.438 152.212 299.03 157.918 292.215C163.624 285.32 166.477 275.731 166.477 263.447V150.875C166.477 147.785 165.407 145.486 163.267 143.98C161.207 142.395 157.643 141.604 152.571 141.604H136.998V132.687V132.688ZM255.558 318.012H295.676L283.065 348.205C287.28 344.831 292.6 342.783 298.36 342.783C311.954 342.783 322.819 353.941 322.819 367.535C322.819 381.13 311.954 392.287 298.359 392.287C297.196 392.287 296.084 392.135 294.963 391.977C298.226 396.153 300.229 401.439 300.229 407.15C300.229 420.739 289.376 431.583 275.789 431.592H275.772C262.184 431.582 251.037 420.739 251.037 407.15C251.037 401.485 253.07 396.137 256.285 391.977C255.262 392.105 254.26 392.289 253.201 392.289C239.607 392.289 228.45 381.13 228.45 367.535C228.45 353.941 239.607 342.783 253.202 342.783C258.744 342.783 263.857 344.641 267.977 347.756L255.559 318.012H255.558Z" fill="white"/>
</svg>
