<svg width="334" height="440" viewBox="0 0 334 440" fill="none" xmlns="http://www.w3.org/2000/svg">
<rect x="6.76392" y="34" width="319" height="375" fill="black"/>
<rect x="245.764" y="383" width="57" height="51" fill="black"/>
<rect x="26.7639" y="4" width="57" height="51" fill="black"/>
<path d="M29.2 0C13.074 0 0 17.237 0 38.5V401.5C0 422.763 13.074 440 29.2 440H304.498C320.624 440 333.696 422.763 333.696 401.5V38.5C333.696 17.237 320.624 0 304.498 0H29.2ZM56.032 8.408V8.41H56.047C69.634 8.42 80.489 19.263 80.489 32.852C80.489 38.562 78.486 43.849 75.223 48.025C76.343 47.867 77.455 47.715 78.619 47.715C92.214 47.715 103.077 58.872 103.077 72.467C103.077 86.061 92.214 97.219 78.619 97.219C72.859 97.219 67.539 95.171 63.325 91.797L75.934 121.99H35.817L48.237 92.246C44.117 95.361 39.004 97.219 33.461 97.219C19.867 97.219 8.709 86.059 8.709 72.465C8.709 58.87 19.867 47.713 33.461 47.713C34.52 47.713 35.519 47.897 36.543 48.025C33.328 43.865 31.295 38.516 31.295 32.852C31.295 19.263 42.445 8.418 56.032 8.408ZM155.303 140.535C171.707 140.535 185.379 147.35 196.315 160.98C207.251 174.611 212.719 193.75 212.719 218.396C212.719 238.842 209.667 256.118 203.565 270.225C197.542 284.251 189.538 294.713 179.553 301.607C169.568 308.423 158.315 311.83 145.793 311.83C133.668 311.83 124.159 309.175 117.264 303.865C110.449 298.476 107.041 292.057 107.041 284.607C107.041 279.694 108.428 275.732 111.201 272.721C114.054 269.709 117.621 268.203 121.901 268.203C125.784 268.203 129.071 269.512 131.766 272.127C134.46 274.742 135.809 277.872 135.809 281.517C135.809 284.133 134.58 287.025 132.123 290.195C130.618 292.177 129.863 293.88 129.863 295.307C129.863 297.526 131.173 299.467 133.787 301.131C136.403 302.716 140.602 303.508 146.387 303.508C154.629 303.508 161.88 301.25 168.141 296.732C174.401 292.136 179.475 284.647 183.358 274.266C187.241 263.805 189.182 250.293 189.182 233.73L188.944 223.15C183.793 230.917 177.77 236.782 170.875 240.744C163.981 244.627 156.255 246.568 147.695 246.568C135.808 246.568 124.99 242.408 115.243 234.088C105.574 225.767 100.741 213.522 100.741 197.355C100.741 181.585 106.091 168.193 116.789 157.178C127.567 146.083 140.404 140.535 155.303 140.535ZM155.66 149.094C146.785 149.094 139.493 152.818 133.787 160.268C128.082 167.638 125.229 178.771 125.229 193.67C125.229 207.3 128.082 217.485 133.787 224.22C139.493 230.877 146.942 234.205 156.135 234.205C165.249 234.205 172.895 230.6 179.076 223.389C185.337 216.177 188.469 206.073 188.469 193.076C188.469 179.604 185.219 168.906 178.721 160.98C172.302 153.056 164.616 149.094 155.661 149.094H155.66ZM255.559 318.012H295.676L283.065 348.205C287.28 344.831 292.6 342.783 298.36 342.783C311.954 342.783 322.819 353.941 322.819 367.535C322.819 381.13 311.954 392.287 298.359 392.287C297.196 392.287 296.084 392.135 294.963 391.977C298.226 396.153 300.229 401.439 300.229 407.15C300.229 420.739 289.376 431.583 275.789 431.592H275.772C262.184 431.582 251.037 420.739 251.037 407.15C251.037 401.485 253.07 396.137 256.285 391.977C255.262 392.105 254.26 392.289 253.201 392.289C239.607 392.289 228.45 381.13 228.45 367.535C228.45 353.941 239.607 342.783 253.202 342.783C258.744 342.783 263.857 344.641 267.977 347.756L255.559 318.012Z" fill="white"/>
</svg>
