<svg width="334" height="440" viewBox="0 0 334 440" fill="none" xmlns="http://www.w3.org/2000/svg">
<rect x="6.76392" y="34.1396" width="319" height="376.744" fill="#FF0000"/>
<rect x="245.764" y="384.763" width="57" height="51.2372" fill="#FF0000"/>
<rect x="26.7639" y="4" width="57" height="51.2372" fill="#FF0000"/>
<path d="M29.2 0C13.074 0 0 17.237 0 38.5V401.5C0 422.763 13.074 440 29.2 440H304.498C320.624 440 333.696 422.763 333.696 401.5V38.5C333.696 17.237 320.624 0 304.498 0H29.2ZM56.084 3.717L103.477 61.987L56.084 120.273L8.709 61.986L56.084 3.717ZM159.479 140.533C169.385 140.533 177.983 142.239 185.274 145.646C192.644 149.054 198.23 153.69 202.034 159.555C205.917 165.419 207.86 171.559 207.86 177.979C207.86 192.877 198.468 205.279 179.686 215.186C192.366 219.782 201.518 225.805 207.145 233.254C212.771 240.624 215.586 249.539 215.586 260C215.586 272.759 211.505 283.894 203.342 293.404C192.802 305.688 177.784 311.828 158.289 311.828C141.093 311.828 127.501 307.708 117.516 299.467C107.531 291.146 102.537 280.804 102.537 268.441C102.537 259.169 105.39 251.086 111.096 244.191C116.881 237.218 126.828 231.313 140.934 226.479C120.092 217.524 109.67 203.695 109.67 184.992C109.67 172.867 114.346 162.446 123.698 153.729C133.128 144.932 145.056 140.533 159.478 140.533H159.479ZM158.645 148.736C148.263 148.736 140.182 151.272 134.397 156.344C128.612 161.336 125.719 167.876 125.719 175.959C125.719 183.963 128.215 190.341 133.207 195.096C138.279 199.851 150.722 205.518 170.534 212.096C178.854 207.341 184.44 202.665 187.294 198.068C190.146 193.393 191.573 187.29 191.573 179.762C191.573 169.856 188.76 162.209 183.133 156.82C177.507 151.431 169.343 148.736 158.645 148.736ZM149.85 229.806C138.597 234.562 130.79 239.912 126.432 245.856C122.073 251.799 119.892 259.089 119.892 267.726C119.892 278.98 123.182 287.737 129.76 293.998C136.417 300.179 145.967 303.27 158.409 303.27C171.564 303.27 181.786 300.18 189.076 293.998C196.367 287.738 200.014 279.496 200.014 269.273C200.014 260.001 196.844 252.987 190.504 248.233C184.244 243.478 170.692 237.335 149.85 229.807V229.806ZM275.426 316.523L322.819 374.793L275.426 433.08L228.051 374.793L275.426 316.523Z" fill="white"/>
</svg>
