<svg width="334" height="440" viewBox="0 0 334 440" fill="none" xmlns="http://www.w3.org/2000/svg">
<rect x="6.76392" y="33.1396" width="319" height="376.744" fill="#FF0000"/>
<rect x="245.764" y="383.763" width="57" height="51.2372" fill="#FF0000"/>
<rect x="26.7639" y="3" width="57" height="51.2372" fill="#FF0000"/>
<path d="M29.2 0C13.074 0 0 17.237 0 38.5V401.5C0 422.763 13.074 440 29.2 440H304.498C320.624 440 333.696 422.763 333.696 401.5V38.5C333.696 17.237 320.624 0 304.498 0H29.2ZM56.082 3.717H56.084L103.477 61.988L56.084 120.275L8.709 61.986L56.082 3.717ZM169.58 140.535C181.15 140.535 190.978 143.705 199.06 150.045C205.797 155.196 209.166 161.378 209.166 168.59C209.166 173.424 207.66 177.386 204.649 180.477C201.717 183.567 198.109 185.113 193.83 185.113C189.868 185.113 186.46 183.805 183.608 181.189C180.834 178.574 179.448 175.484 179.448 171.918C179.448 169.541 180.399 166.845 182.301 163.834C184.045 161.06 184.916 158.882 184.916 157.297C184.916 155.077 183.846 153.255 181.706 151.828C178.853 150.005 174.93 149.094 169.938 149.094C162.251 149.094 155.237 151.512 148.897 156.346C142.557 161.18 137.169 169.501 132.731 181.309C128.372 193.037 126.194 206.232 126.194 220.893C126.194 223.033 126.311 226.243 126.549 230.521C132.731 222.28 139.229 216.377 146.045 212.811C152.861 209.244 160.35 207.461 168.512 207.461C181.667 207.461 192.682 211.938 201.557 220.893C210.512 229.768 214.991 241.022 214.991 254.653C214.991 271.057 209.72 284.688 199.18 295.545C188.64 306.402 175.603 311.83 160.07 311.83C149.134 311.83 139.387 308.937 130.828 303.152C122.27 297.288 115.258 288.175 109.789 275.812C104.4 263.45 101.705 249.027 101.705 232.543C101.705 214.713 105.033 198.545 111.69 184.043C118.347 169.541 126.827 158.684 137.13 151.473C147.51 144.182 158.327 140.535 169.58 140.535ZM161.973 219.109C152.067 219.109 143.943 222.716 137.603 229.928C131.343 237.06 128.213 247.124 128.213 260.121C128.213 274.227 131.265 285.004 137.368 292.453C143.47 299.903 151.236 303.627 160.666 303.627C170.018 303.627 177.546 300.102 183.252 293.049C188.958 285.996 191.811 275.455 191.811 261.428C191.811 246.529 189.156 235.753 183.846 229.096C178.616 222.439 171.324 219.109 161.973 219.109ZM275.424 316.523H275.426L322.819 374.795L275.426 433.082L228.049 374.793L275.424 316.523Z" fill="white"/>
</svg>
