<svg width="334" height="440" viewBox="0 0 334 440" fill="none" xmlns="http://www.w3.org/2000/svg">
<rect x="7.76392" y="33.1396" width="319" height="376.744" fill="#FF0000"/>
<rect x="217.764" y="384" width="103" height="42" fill="#FF0000"/>
<rect x="7.76392" y="15" width="105" height="51" fill="#FF0000"/>
<path d="M29.2 0C13.074 0 0 17.237 0 38.5V401.5C0 422.763 13.074 440 29.2 440H304.498C320.624 440 333.696 422.763 333.696 401.5V38.5C333.696 17.237 320.624 0 304.498 0H29.2ZM86.416 16.174C100.029 15.855 112.92 26.028 113.491 44.217C114.467 75.307 65.751 97.162 61.178 114.232C56.181 95.583 9.765 76.659 8.728 44.217C7.734 13.061 46.132 6.307 61.18 32.369C67.442 21.523 77.103 16.391 86.416 16.174ZM159.479 140.535C169.385 140.535 177.983 142.239 185.274 145.646C192.644 149.054 198.232 153.69 202.035 159.555C205.919 165.419 207.86 171.559 207.86 177.979C207.86 192.877 198.468 205.279 179.686 215.186C192.366 219.782 201.52 225.805 207.146 233.254C212.774 240.624 215.586 249.541 215.586 260.002C215.586 272.761 211.505 283.895 203.342 293.404C192.802 305.688 177.784 311.83 158.289 311.83C141.093 311.83 127.501 307.709 117.516 299.467C107.531 291.146 102.539 280.804 102.539 268.441C102.539 259.169 105.392 251.086 111.098 244.191C116.883 237.218 126.828 231.313 140.934 226.479C120.092 217.524 109.67 203.695 109.67 184.992C109.67 172.867 114.346 162.446 123.698 153.729C133.128 144.932 145.056 140.535 159.478 140.535H159.479ZM158.647 148.736C148.265 148.736 140.182 151.272 134.397 156.344C128.612 161.336 125.719 167.876 125.719 175.959C125.719 183.963 128.215 190.343 133.207 195.098C138.279 199.853 150.722 205.518 170.534 212.096C178.854 207.341 184.442 202.665 187.295 198.068C190.148 193.393 191.575 187.29 191.575 179.762C191.575 169.856 188.76 162.209 183.133 156.82C177.507 151.431 169.345 148.736 158.647 148.736ZM149.85 229.806C138.597 234.562 130.79 239.912 126.432 245.856C122.073 251.799 119.895 259.09 119.895 267.729C119.895 278.982 123.182 287.737 129.76 293.998C136.417 300.179 145.967 303.27 158.409 303.27C171.564 303.27 181.788 300.18 189.079 293.998C196.369 287.738 200.014 279.496 200.014 269.273C200.014 260.001 196.844 252.987 190.504 248.233C184.244 243.478 170.692 237.335 149.85 229.807V229.806ZM270.493 325.77C275.065 342.84 323.782 364.693 322.805 395.783C322.235 413.972 309.343 424.147 295.731 423.828V423.826C286.417 423.609 276.756 418.477 270.494 407.631C255.446 433.692 217.049 426.938 218.044 395.783C219.08 363.341 265.495 344.419 270.493 325.77Z" fill="white"/>
</svg>
