<svg width="334" height="440" viewBox="0 0 334 440" fill="none" xmlns="http://www.w3.org/2000/svg">
<rect x="6.76392" y="34.1396" width="319" height="376.744" fill="#FF0000"/>
<rect x="216.764" y="385" width="103" height="42" fill="#FF0000"/>
<rect x="6.76392" y="16" width="105" height="51" fill="#FF0000"/>
<path d="M29.2 0C13.074 0 0 17.237 0 38.5V401.5C0 422.763 13.074 440 29.2 440H304.498C320.624 440 333.696 422.763 333.696 401.5V38.5C333.696 17.237 320.624 0 304.498 0H29.2ZM86.416 16.174C100.029 15.855 112.92 26.028 113.491 44.217C114.467 75.307 65.751 97.162 61.178 114.232C56.181 95.583 9.765 76.659 8.728 44.217C7.734 13.062 46.132 6.307 61.18 32.369C67.442 21.523 77.103 16.391 86.416 16.174ZM120.726 140.535C140.776 145.132 157.141 147.43 169.821 147.43C175.764 147.43 181.35 146.875 186.581 145.766C191.811 144.576 195.735 143.23 198.35 141.725C199.697 141.011 200.569 140.655 200.965 140.655C201.758 140.655 202.153 141.249 202.153 142.437C202.153 145.211 200.371 148.896 196.805 153.492C193.239 158.009 188.365 161.616 182.184 164.311C176.082 167.005 169.028 168.351 161.024 168.351C151.752 168.351 140.696 166.925 127.858 164.072L123.936 209.48C129.959 206.47 135.704 204.21 141.172 202.705C146.64 201.199 151.832 200.447 156.744 200.447C172.277 200.447 185.314 205.598 195.854 215.9C206.473 226.203 211.782 238.922 211.782 254.059C211.782 270.859 206.156 284.688 194.902 295.545C183.649 306.402 169.067 311.83 151.157 311.83C137.447 311.83 126.273 307.946 117.635 300.18C109.076 292.334 104.797 283.024 104.797 272.246C104.797 265.748 106.144 260.755 108.838 257.268C111.612 253.701 115.138 251.918 119.418 251.918C123.618 251.918 127.026 253.344 129.641 256.198C132.335 258.971 133.684 262.618 133.684 267.135C133.684 270.542 133.01 273.195 131.662 275.098C130.394 277 128.016 278.586 124.53 279.854C121.043 281.201 119.3 282.747 119.3 284.49C119.3 287.026 120.488 289.839 122.866 292.93C125.243 295.941 128.81 298.437 133.565 300.418C138.399 302.32 143.907 303.271 150.088 303.271C162.213 303.271 171.446 299.507 177.785 291.979C184.205 284.449 187.415 272.205 187.415 255.246C187.415 239.793 184.045 228.501 177.309 221.369C170.573 214.237 161.975 210.669 151.514 210.669C146.759 210.669 142.005 211.542 137.25 213.285C132.495 215.029 127.74 217.644 122.985 221.131C122.43 226.678 121.438 230.403 120.012 232.305C118.586 234.127 116.764 235.039 114.545 235.039C112.96 235.039 111.692 234.484 110.741 233.375C109.79 232.265 109.315 230.719 109.315 228.738C109.315 225.251 110.939 221.804 114.188 218.396C115.138 217.366 115.813 216.455 116.209 215.662L118.944 180.715C120.054 166.925 120.647 153.532 120.726 140.535ZM270.494 325.77C275.066 342.84 323.783 364.693 322.806 395.783C322.236 413.972 309.344 424.147 295.732 423.828V423.826C286.418 423.609 276.757 418.477 270.495 407.631C255.447 433.692 217.05 426.939 218.045 395.783C219.081 363.341 265.496 344.419 270.494 325.77Z" fill="white"/>
</svg>
