<svg width="334" height="440" viewBox="0 0 334 440" fill="none" xmlns="http://www.w3.org/2000/svg">
<rect x="6.76392" y="34.1396" width="319" height="376.744" fill="#FF0000"/>
<rect x="216.764" y="385" width="103" height="42" fill="#FF0000"/>
<rect x="6.76392" y="16" width="105" height="51" fill="#FF0000"/>
<path d="M29.2 0C13.074 0 0 17.237 0 38.5V401.5C0 422.763 13.074 440 29.2 440H304.498C320.624 440 333.696 422.763 333.696 401.5V38.5C333.696 17.237 320.624 0 304.498 0H29.2ZM86.414 16.174H86.416C100.028 15.856 112.918 26.029 113.489 44.217C114.465 75.307 65.751 97.162 61.179 114.232C56.181 95.583 9.765 76.659 8.729 44.217C7.734 13.062 46.13 6.307 61.179 32.369C67.439 21.523 77.101 16.392 86.414 16.174ZM152.584 129.004H160.547L223.668 289.838C226.204 296.336 231.395 299.586 239.241 299.586H244.709V308.502H174.575V299.586H180.162C187.453 299.586 192.604 298.794 195.616 297.209C197.676 296.099 198.706 294.394 198.706 292.096C198.706 290.749 198.428 289.322 197.873 287.816L183.253 250.492H113.83L105.63 271.889C103.49 277.595 102.42 282.111 102.42 285.439C102.42 289.323 104.202 292.652 107.768 295.426C111.413 298.2 116.684 299.586 123.578 299.586H129.522V308.502H65.807V299.586C72.622 299.586 78.011 298.12 81.973 295.187C85.935 292.176 89.583 286.511 92.91 278.189L152.584 129.004ZM149.137 162.883L117.635 241.219H179.805L149.137 162.883ZM270.494 325.77C275.066 342.84 323.783 364.693 322.806 395.783C322.236 413.971 309.343 424.144 295.732 423.826H295.73C286.417 423.608 276.757 418.476 270.495 407.631C255.447 433.692 217.05 426.939 218.045 395.783C219.081 363.341 265.496 344.419 270.494 325.77Z" fill="white"/>
</svg>
