<svg width="334" height="440" viewBox="0 0 334 440" fill="none" xmlns="http://www.w3.org/2000/svg">
<rect x="6.76392" y="33.1396" width="319" height="376.744" fill="#FF0000"/>
<rect x="216.764" y="384" width="103" height="42" fill="#FF0000"/>
<rect x="6.76392" y="15" width="105" height="51" fill="#FF0000"/>
<path d="M29.2 0C13.074 0 0 17.237 0 38.5V401.5C0 422.763 13.074 440 29.2 440H304.498C320.624 440 333.696 422.763 333.696 401.5V38.5C333.696 17.237 320.624 0 304.498 0H29.2ZM86.414 16.174H86.416C100.028 15.856 112.918 26.029 113.489 44.217C114.465 75.307 65.751 97.162 61.179 114.232C56.181 95.583 9.765 76.659 8.729 44.217C7.734 13.061 46.13 6.307 61.179 32.369C67.439 21.523 77.101 16.392 86.414 16.174ZM155.674 129.004C170.652 129.004 184.321 132.808 196.684 140.416C209.047 147.945 218.954 158.801 226.403 172.986C233.852 187.092 237.576 202.902 237.576 220.416C237.576 236.424 234.644 250.69 228.78 263.211C222.994 275.732 213.882 287.183 201.44 297.564C202.708 300.814 204.094 305.252 205.6 310.879C208.374 321.419 211.029 328.273 213.565 331.443C216.101 334.613 218.993 336.197 222.243 336.197C225.253 336.197 227.829 334.494 229.969 331.086C232.188 327.757 233.377 322.172 233.535 314.326H240.668C240.589 328.591 237.814 339.09 232.346 345.826C226.878 352.562 219.746 355.932 210.95 355.932C202.787 355.932 196.13 352.642 190.979 346.064C185.907 339.566 182.539 327.046 180.875 308.502C176.437 309.612 172.158 310.443 168.037 310.998C163.917 311.553 159.993 311.83 156.267 311.83C141.527 311.83 127.897 308.026 115.375 300.418C102.933 292.731 93.029 281.755 85.659 267.49C78.368 253.146 74.723 236.98 74.723 218.99C74.723 193.472 83.003 171.68 99.567 153.611C114.624 137.207 133.327 129.004 155.674 129.004ZM156.032 138.039C146.205 138.039 137.367 140.812 129.522 146.359C121.755 151.907 115.653 160.585 111.215 172.393C106.857 184.121 104.678 200.091 104.678 220.299C104.678 234.563 105.985 246.806 108.6 257.029C111.215 267.252 115.297 276.959 120.844 286.152C120.686 282.507 120.606 279.576 120.606 277.357C120.606 267.531 123.738 259.447 129.998 253.107C136.338 246.767 144.619 243.597 154.842 243.597C165.144 243.597 173.782 247.045 180.756 253.939C185.986 259.169 190.9 268.243 195.496 281.16C199.776 273.077 202.906 264.321 204.887 254.89C206.868 245.46 207.86 233.65 207.86 219.465C207.86 199.495 205.68 183.725 201.32 172.155C196.962 160.505 190.82 151.907 182.895 146.359C174.97 140.812 166.017 138.039 156.032 138.039ZM154.485 252.869C147.035 252.869 140.933 255.247 136.178 260.002C131.423 264.757 129.048 270.897 129.048 278.426C129.048 285.876 131.98 292.929 137.844 299.586C143.471 302.043 149.374 303.271 155.555 303.271C160.31 303.271 164.787 302.677 168.987 301.488C173.173 300.305 177.175 298.545 180.875 296.258C180.717 281.993 178.854 271.652 175.287 265.232C170.77 256.991 163.836 252.869 154.485 252.869ZM270.493 325.769C275.065 342.84 323.782 364.693 322.805 395.783C322.235 413.972 309.341 424.147 295.729 423.828L295.731 423.826C286.417 423.609 276.756 418.477 270.494 407.631C255.446 433.692 217.049 426.938 218.044 395.783C219.08 363.341 265.495 344.418 270.493 325.769Z" fill="white"/>
</svg>
