<svg width="334" height="440" viewBox="0 0 334 440" fill="none" xmlns="http://www.w3.org/2000/svg">
<rect x="5.76392" y="35.1396" width="319" height="376.744" fill="#FF0000"/>
<rect x="215.764" y="386" width="103" height="42" fill="#FF0000"/>
<rect x="6.76392" y="14" width="105" height="51" fill="#FF0000"/>
<path d="M29.2 0C13.074 0 0 17.237 0 38.5V401.5C0 422.763 13.074 440 29.2 440H304.498C320.624 440 333.696 422.763 333.696 401.5V38.5C333.696 17.237 320.624 0 304.498 0H29.2ZM86.414 16.174H86.416C100.028 15.856 112.918 26.029 113.489 44.217C114.465 75.307 65.751 97.162 61.179 114.232C56.181 95.583 9.765 76.659 8.729 44.217C7.734 13.062 46.13 6.308 61.179 32.369C67.439 21.524 77.101 16.392 86.414 16.174ZM138.08 132.689H215.823V141.604H204.768C200.409 141.604 197.279 142.397 195.378 143.982C193.555 145.567 192.643 147.865 192.643 150.877V264.875C192.643 273.672 190.504 281.635 186.225 288.768C181.945 295.821 175.684 301.448 167.442 305.648C159.2 309.769 149.89 311.83 139.508 311.83C125.402 311.83 113.871 307.709 104.916 299.467C95.961 291.146 91.483 281.002 91.483 269.035C91.483 260.159 93.741 253.067 98.258 247.758C102.775 242.448 108.323 239.793 114.901 239.793C120.29 239.793 124.728 241.537 128.215 245.023C131.702 248.431 133.445 252.79 133.445 258.1C133.445 262.696 132.019 266.578 129.166 269.748C126.313 272.838 123.024 274.385 119.299 274.385C117.873 274.385 115.892 273.988 113.356 273.195C111.216 272.561 109.79 272.245 109.076 272.245C107.729 272.245 106.66 272.799 105.868 273.908C104.996 275.018 104.558 276.683 104.558 278.902C104.558 284.846 107.531 290.274 113.475 295.188C119.498 300.022 126.867 302.438 135.585 302.438C145.49 302.438 153.296 299.03 159.002 292.215C164.708 285.32 167.561 275.731 167.561 263.447V150.877C167.561 147.787 166.491 145.488 164.351 143.982C162.291 142.397 158.725 141.604 153.653 141.604H138.08V132.689ZM270.494 325.77C275.066 342.841 323.783 364.694 322.806 395.784C322.236 413.973 309.344 424.146 295.732 423.827C286.418 423.61 276.757 418.478 270.495 407.632C255.447 433.693 217.05 426.939 218.045 395.784C219.081 363.342 265.496 344.42 270.494 325.771V325.77Z" fill="white"/>
</svg>
