<svg width="334" height="440" viewBox="0 0 334 440" fill="none" xmlns="http://www.w3.org/2000/svg">
<rect x="6.76416" y="31.1396" width="319" height="376.744" fill="black"/>
<rect x="245.764" y="381.763" width="57" height="51.2372" fill="black"/>
<rect x="26.7642" y="1" width="57" height="51.2372" fill="black"/>
<path d="M29.2 0C13.074 0 0 17.237 0 38.5V401.502C0 422.765 13.074 440.002 29.2 440.002H304.498C320.624 440.002 333.696 422.765 333.696 401.502V38.5C333.696 17.237 320.624 0 304.498 0H29.2ZM55.852 8.047C55.852 8.047 102.19 41.885 103.123 71.115C103.899 95.402 78.099 103.237 62.348 89.701L75.981 122.354H35.864L49.479 89.719C33.944 103.599 9.473 95.068 8.721 71.115C7.841 43.105 55.852 8.047 55.852 8.047ZM113.698 140.654C121.464 142.636 129.864 143.627 138.898 143.627H212.836V149.094C201.979 168.193 193.856 184.359 188.467 197.594C183.078 210.749 178.999 223.351 176.225 235.396C173.451 247.442 171.628 261.468 170.756 277.476C169.964 290.711 169.21 298.914 168.496 302.084C167.783 305.174 166.319 307.551 164.1 309.214C161.96 310.958 159.145 311.83 155.659 311.83C151.696 311.83 148.606 310.484 146.387 307.79C144.168 305.095 143.059 300.855 143.059 295.07C143.059 289.92 143.971 283.5 145.793 275.813C147.616 268.046 151.775 256.476 158.273 241.102C166.912 220.497 174.401 204.29 180.741 192.482L197.145 162.289H132.717C127.962 162.289 124.395 163.953 122.017 167.281C119.72 170.61 116.947 180.556 113.697 197.119H105.139L113.698 140.654ZM255.541 317.65H295.659L282.026 350.303C297.776 336.767 323.577 344.602 322.801 368.889C321.868 398.119 275.53 431.957 275.53 431.957V431.955C275.53 431.955 227.52 396.898 228.399 368.889C229.15 344.936 253.619 336.402 269.155 350.283L255.541 317.65Z" fill="white"/>
</svg>
