<svg width="334" height="440" viewBox="0 0 334 440" fill="none" xmlns="http://www.w3.org/2000/svg">
<rect x="6.76416" y="32.1396" width="319" height="376.744" fill="black"/>
<rect x="245.764" y="382.763" width="57" height="51.2372" fill="black"/>
<rect x="26.7642" y="2" width="57" height="51.2372" fill="black"/>
<path d="M29.2 0C13.074 0 0 17.237 0 38.5V401.5C0 422.763 13.074 440 29.2 440H304.498C320.624 440 333.696 422.763 333.696 401.5V38.5C333.696 17.237 320.624 0 304.498 0H29.2ZM55.854 8.045C55.854 8.045 102.19 41.885 103.124 71.115C103.899 95.402 78.099 103.235 62.348 89.699L75.981 122.352H35.866L49.479 89.719C33.944 103.599 9.473 95.066 8.721 71.113C7.841 43.103 55.854 8.047 55.854 8.047V8.045ZM154.59 129.004C169.568 129.004 183.237 132.808 195.6 140.416C207.963 147.945 217.87 158.801 225.319 172.986C232.768 187.092 236.493 202.902 236.493 220.416C236.493 236.424 233.56 250.69 227.696 263.211C221.911 275.732 212.798 287.183 200.356 297.564C201.624 300.814 203.01 305.252 204.516 310.879C207.29 321.419 209.945 328.273 212.481 331.443C215.017 334.613 217.909 336.197 221.159 336.197C224.17 336.197 226.745 334.494 228.885 331.086C231.104 327.757 232.293 322.172 232.452 314.326H239.584C239.505 328.591 236.73 339.09 231.262 345.826C225.794 352.562 218.662 355.932 209.866 355.932C201.703 355.932 195.046 352.642 189.895 346.064C184.823 339.566 181.455 327.046 179.791 308.502C175.353 309.612 171.074 310.443 166.953 310.998C162.833 311.553 158.909 311.83 155.183 311.83C140.443 311.83 126.813 308.026 114.291 300.418C101.849 292.731 91.945 281.755 84.575 267.49C77.284 253.146 73.639 236.98 73.639 218.99C73.639 193.472 81.919 171.68 98.483 153.611C113.54 137.207 132.243 129.004 154.59 129.004ZM154.946 138.039C145.119 138.039 136.283 140.812 128.438 146.359C120.672 151.907 114.569 160.585 110.131 172.393C105.773 184.121 103.594 200.091 103.594 220.299C103.594 234.563 104.901 246.806 107.516 257.029C110.131 267.252 114.213 276.959 119.76 286.152C119.602 282.507 119.522 279.576 119.522 277.357C119.522 267.531 122.654 259.447 128.914 253.107C135.254 246.767 143.535 243.597 153.758 243.597C164.06 243.597 172.698 247.045 179.672 253.939C184.902 259.169 189.816 268.243 194.412 281.16C198.692 273.077 201.822 264.321 203.803 254.89C205.784 245.46 206.776 233.65 206.776 219.465C206.776 199.495 204.596 183.725 200.236 172.155C195.878 160.505 189.736 151.907 181.811 146.359C173.886 140.812 164.931 138.039 154.946 138.039ZM153.401 252.869C145.951 252.869 139.849 255.247 135.094 260.002C130.339 264.757 127.964 270.897 127.964 278.426C127.964 285.876 130.896 292.929 136.76 299.586C142.387 302.043 148.29 303.271 154.471 303.271C159.226 303.271 163.703 302.677 167.903 301.488C172.089 300.305 176.091 298.545 179.791 296.258C179.633 281.993 177.77 271.652 174.203 265.232C169.686 256.991 162.752 252.869 153.401 252.869ZM255.543 317.649H295.659L282.026 350.3C297.776 336.764 323.577 344.599 322.801 368.886C321.868 398.116 275.53 431.954 275.53 431.954C275.53 431.954 227.52 396.895 228.399 368.886C229.15 344.933 253.621 336.402 269.157 350.282L255.543 317.647V317.649Z" fill="white"/>
</svg>
