<svg width="334" height="440" viewBox="0 0 334 440" fill="none" xmlns="http://www.w3.org/2000/svg">
<rect x="6.76416" y="33.1396" width="319" height="376.744" fill="black"/>
<rect x="245.764" y="383.763" width="57" height="51.2372" fill="black"/>
<rect x="26.7642" y="3" width="57" height="51.2372" fill="black"/>
<path d="M29.2 0C13.074 0 0 17.237 0 38.5V401.5C0 422.763 13.074 440 29.2 440H304.498C320.624 440 333.696 422.763 333.696 401.5V38.5C333.696 17.237 320.624 0 304.498 0H29.2ZM55.854 8.045C55.854 8.045 102.192 41.883 103.125 71.113C103.901 95.4 78.101 103.235 62.35 89.699L75.983 122.352H35.866L49.479 89.719C33.944 103.599 9.475 95.066 8.723 71.113C7.843 43.103 55.854 8.045 55.854 8.045ZM119.643 140.535C139.693 145.132 156.057 147.43 168.737 147.43C174.68 147.43 180.268 146.875 185.498 145.766C190.728 144.576 194.651 143.228 197.266 141.723C198.613 141.009 199.485 140.654 199.881 140.654C200.674 140.654 201.071 141.247 201.071 142.436C201.071 145.209 199.287 148.896 195.721 153.492C192.155 158.009 187.281 161.614 181.1 164.309C174.998 167.003 167.944 168.349 159.94 168.349C150.668 168.349 139.612 166.923 126.774 164.07L122.852 209.48C128.875 206.47 134.62 204.21 140.088 202.705C145.556 201.199 150.748 200.445 155.66 200.445C171.193 200.445 184.23 205.596 194.77 215.898C205.39 226.201 210.698 238.92 210.698 254.057C210.698 270.857 205.072 284.686 193.818 295.543C182.565 306.4 167.985 311.83 150.075 311.83C136.365 311.83 125.189 307.946 116.551 300.18C107.992 292.334 103.713 283.022 103.713 272.244C103.713 265.746 105.06 260.754 107.754 257.268C110.528 253.701 114.054 251.918 118.334 251.918C122.534 251.918 125.942 253.344 128.557 256.198C131.251 258.971 132.6 262.616 132.6 267.133C132.6 270.54 131.926 273.196 130.578 275.098C129.311 277 126.933 278.584 123.446 279.852C119.959 281.199 118.216 282.745 118.216 284.488C118.216 287.024 119.404 289.838 121.782 292.928C124.159 295.939 127.726 298.437 132.481 300.418C137.315 302.32 142.823 303.27 149.004 303.27C161.129 303.27 170.362 299.505 176.701 291.977C183.121 284.448 186.331 272.205 186.331 255.247C186.331 239.793 182.961 228.5 176.225 221.367C169.489 214.235 160.891 210.67 150.43 210.67C145.675 210.67 140.921 211.54 136.166 213.283C131.412 215.027 126.656 217.642 121.901 221.129C121.346 226.676 120.357 230.403 118.93 232.305C117.504 234.127 115.68 235.037 113.461 235.037C111.876 235.037 110.608 234.483 109.657 233.373C108.706 232.263 108.231 230.719 108.231 228.738C108.231 225.251 109.855 221.804 113.104 218.396C114.054 217.366 114.729 216.455 115.125 215.662L117.86 180.712C118.97 166.924 119.564 153.532 119.643 140.535ZM255.543 317.648H295.66L282.028 350.301C297.778 336.765 323.579 344.6 322.803 368.887C321.87 398.117 275.532 431.955 275.532 431.955C275.532 431.955 227.52 396.896 228.399 368.887C229.15 344.934 253.621 336.401 269.157 350.281L255.543 317.648Z" fill="white"/>
</svg>
