<svg width="334" height="440" viewBox="0 0 334 440" fill="none" xmlns="http://www.w3.org/2000/svg">
<rect x="6.76416" y="34.1396" width="319" height="376.744" fill="black"/>
<rect x="245.764" y="384.763" width="57" height="51.2372" fill="black"/>
<rect x="26.7642" y="4" width="57" height="51.2372" fill="black"/>
<path d="M29.2 0C13.074 0 0 17.237 0 38.5V401.5C0 422.763 13.074 440 29.2 440H304.498C320.624 440 333.696 422.763 333.696 401.5V38.5C333.696 17.237 320.624 0 304.498 0H29.2ZM55.854 8.047C55.854 8.047 102.192 41.885 103.125 71.115C103.901 95.402 78.101 103.237 62.35 89.701L75.983 122.354H35.866L49.479 89.719C33.944 103.599 9.473 95.068 8.721 71.115C7.841 43.105 55.854 8.047 55.854 8.047ZM151.5 129.004H159.463L222.584 289.838C225.12 296.336 230.311 299.586 238.157 299.586H243.625V308.502H173.491V299.586H179.078C186.369 299.586 191.52 298.794 194.532 297.209C196.592 296.099 197.622 294.396 197.622 292.098C197.622 290.751 197.344 289.324 196.789 287.818L182.169 250.492H112.746L104.546 271.889C102.406 277.595 101.336 282.111 101.336 285.439C101.336 289.323 103.118 292.652 106.684 295.426C110.329 298.2 115.6 299.586 122.494 299.586H128.438V308.502H64.723V299.586C71.538 299.586 76.927 298.12 80.889 295.187C84.851 292.176 88.499 286.511 91.827 278.189L151.5 129.004ZM148.053 162.883L116.551 241.221H178.721L148.053 162.883ZM255.543 317.648H295.659L282.026 350.301C297.776 336.765 323.577 344.6 322.801 368.887C321.868 398.117 275.531 431.955 275.531 431.955C275.531 431.955 227.52 396.897 228.399 368.887C229.15 344.934 253.621 336.402 269.157 350.283L255.543 317.648Z" fill="white"/>
</svg>
