<svg width="334" height="440" viewBox="0 0 334 440" fill="none" xmlns="http://www.w3.org/2000/svg">
<rect x="6.76416" y="31.1396" width="319" height="376.744" fill="black"/>
<rect x="245.764" y="381.763" width="57" height="51.2372" fill="black"/>
<rect x="26.7642" y="1" width="57" height="51.2372" fill="black"/>
<path d="M29.2 0C13.074 0 0 17.237 0 38.5V401.5C0 422.763 13.074 440 29.2 440H304.498C320.624 440 333.696 422.763 333.696 401.5V38.5C333.696 17.237 320.624 0 304.498 0H29.2ZM55.852 8.047C55.852 8.047 102.19 41.885 103.123 71.115C103.899 95.402 78.099 103.237 62.348 89.701L75.981 122.354H35.864L49.477 89.719C33.942 103.599 9.473 95.068 8.721 71.115C7.841 43.105 55.852 8.047 55.852 8.047ZM168.496 140.535C180.066 140.535 189.894 143.705 197.976 150.045C204.713 155.196 208.082 161.378 208.082 168.59C208.082 173.424 206.576 177.386 203.565 180.477C200.633 183.567 197.025 185.111 192.746 185.111C188.784 185.111 185.376 183.805 182.524 181.189C179.75 178.574 178.364 175.484 178.364 171.918C178.364 169.541 179.315 166.845 181.217 163.834C182.961 161.06 183.832 158.882 183.832 157.297C183.832 155.077 182.761 153.255 180.622 151.828C177.768 150.005 173.847 149.094 168.854 149.094C161.167 149.094 154.153 151.512 147.813 156.346C141.473 161.18 136.085 169.501 131.647 181.309C127.288 193.037 125.11 206.232 125.11 220.893C125.11 223.033 125.227 226.243 125.465 230.521C131.646 222.28 138.146 216.375 144.961 212.809C151.777 209.242 159.265 207.461 167.428 207.461C180.583 207.461 191.598 211.938 200.473 220.893C209.428 229.768 213.907 241.022 213.907 254.653C213.907 271.057 208.636 284.688 198.096 295.545C187.556 306.402 174.519 311.83 158.986 311.83C148.05 311.83 138.303 308.937 129.744 303.152C121.186 297.288 114.174 288.175 108.705 275.812C103.316 263.45 100.621 249.027 100.621 232.543C100.621 214.713 103.949 198.545 110.606 184.043C117.263 169.541 125.743 158.683 136.046 151.471C146.426 144.18 157.243 140.535 168.496 140.535ZM160.889 219.109C150.983 219.109 142.859 222.716 136.519 229.928C130.259 237.06 127.129 247.124 127.129 260.121C127.129 274.227 130.181 285.004 136.284 292.453C142.386 299.903 150.152 303.627 159.582 303.627C168.934 303.627 176.462 300.102 182.168 293.049C187.874 285.996 190.727 275.455 190.727 261.428C190.727 246.529 188.072 235.753 182.762 229.096C177.532 222.439 170.24 219.109 160.889 219.109ZM255.541 317.649H295.659L282.026 350.3C297.776 336.764 323.577 344.599 322.801 368.886C321.868 398.116 275.53 431.954 275.53 431.954C275.53 431.954 227.518 396.895 228.397 368.886C229.148 344.933 253.619 336.401 269.155 350.282L255.541 317.647V317.649Z" fill="white"/>
</svg>
