<svg width="334" height="440" viewBox="0 0 334 440" fill="none" xmlns="http://www.w3.org/2000/svg">
<rect x="6.76416" y="31.1396" width="319" height="376.744" fill="black"/>
<rect x="245.764" y="381.763" width="57" height="51.2372" fill="black"/>
<rect x="26.7642" y="1" width="57" height="51.2372" fill="black"/>
<path d="M29.2 0C13.074 0 0 17.237 0 38.5V401.5C0 422.763 13.074 440 29.2 440H304.498C320.624 440 333.696 422.763 333.696 401.5V38.5C333.696 17.237 320.624 0 304.498 0H29.2ZM55.854 8.045C55.854 8.045 102.192 41.885 103.125 71.115C103.901 95.402 78.101 103.235 62.35 89.699L75.983 122.352H35.866L49.479 89.719C33.944 103.599 9.473 95.066 8.721 71.113C7.841 43.103 55.854 8.047 55.854 8.047V8.045ZM155.304 140.535C171.707 140.535 185.379 147.35 196.314 160.98C207.251 174.611 212.719 193.75 212.719 218.396C212.719 238.842 209.667 256.118 203.565 270.225C197.542 284.251 189.538 294.711 179.553 301.605C169.568 308.421 158.315 311.83 145.793 311.83C133.668 311.83 124.159 309.175 117.264 303.865C110.449 298.476 107.041 292.057 107.041 284.607C107.041 279.694 108.428 275.732 111.201 272.721C114.054 269.709 117.621 268.203 121.901 268.203C125.784 268.203 129.071 269.51 131.766 272.125C134.46 274.74 135.809 277.872 135.809 281.518C135.809 284.133 134.58 287.025 132.123 290.195C130.618 292.177 129.866 293.88 129.866 295.307C129.866 297.526 131.172 299.467 133.787 301.131C136.403 302.716 140.604 303.508 146.389 303.508C154.631 303.508 161.88 301.25 168.141 296.732C174.401 292.136 179.475 284.647 183.358 274.266C187.241 263.805 189.182 250.293 189.182 233.73L188.944 223.15C183.793 230.917 177.77 236.782 170.875 240.744C163.981 244.627 156.255 246.568 147.695 246.568C135.808 246.568 124.992 242.408 115.245 234.088C105.576 225.767 100.741 213.522 100.741 197.355C100.741 181.585 106.091 168.191 116.789 157.175C127.567 146.081 140.405 140.535 155.304 140.535ZM155.66 149.094C146.785 149.094 139.493 152.818 133.787 160.268C128.082 167.638 125.229 178.771 125.229 193.67C125.229 207.3 128.082 217.485 133.787 224.22C139.493 230.877 146.942 234.205 156.135 234.205C165.249 234.205 172.897 230.6 179.078 223.389C185.339 216.177 188.469 206.073 188.469 193.076C188.469 179.604 185.219 168.906 178.721 160.98C172.302 153.056 164.616 149.094 155.661 149.094H155.66ZM255.543 317.648H295.659L282.026 350.301C297.776 336.765 323.577 344.6 322.801 368.887C321.868 398.117 275.531 431.955 275.531 431.955C275.531 431.955 227.52 396.896 228.399 368.887C229.15 344.934 253.621 336.402 269.157 350.283L255.543 317.648Z" fill="white"/>
</svg>
