<svg width="203" height="288" viewBox="0 0 203 288" fill="none" xmlns="http://www.w3.org/2000/svg">
<mask id="mask0_1865_560" style="mask-type:luminance" maskUnits="userSpaceOnUse" x="0" y="0" width="203" height="288">
<path d="M193 0H10C4.47715 0 0 4.47715 0 10V278C0 283.523 4.47715 288 10 288H193C198.523 288 203 283.523 203 278V10C203 4.47715 198.523 0 193 0Z" fill="white"/>
</mask>
<g mask="url(#mask0_1865_560)">
<path d="M193 0H10C4.47715 0 0 4.47715 0 10V278C0 283.523 4.47715 288 10 288H193C198.523 288 203 283.523 203 278V10C203 4.47715 198.523 0 193 0Z" fill="white"/>
<path d="M7.47852 40.1997C6.39747 40.1997 5.73682 39.4598 5.73682 38.2798V14.3948C5.73682 13.2138 6.39747 12.4728 7.47852 12.4728C8.55958 12.4728 9.24024 13.2138 9.24024 14.3948V38.2798C9.24024 39.4598 8.55958 40.1997 7.47852 40.1997ZM10.2452 26.8698V25.8698C10.2452 17.5798 13.7887 12.0928 19.9747 12.0928C26.1607 12.0928 29.6842 17.5798 29.6842 25.8698V26.8698C29.6842 35.1398 26.1407 40.5797 19.9547 40.5797C13.7887 40.5797 10.2452 35.1598 10.2452 26.8698ZM13.7486 25.8898V26.8298C13.7486 33.4898 16.131 37.5598 19.9747 37.5598C23.8185 37.5598 26.2008 33.4898 26.2008 26.8298V25.8898C26.2008 19.2198 23.7984 15.1357 19.9547 15.1357C16.131 15.1357 13.7486 19.2198 13.7486 25.8898Z" fill="black"/>
<path d="M16.0324 68C15.815 68 15.6387 67.83 15.6387 67.61C15.6387 66.89 16.9316 64.2 17.1901 62.1C17.2179 61.87 16.886 61.79 16.7639 61.98C16.0982 63.04 15.1904 64.51 12.9784 64.46H12.9355C12.9068 64.47 12.8781 64.47 12.8492 64.47C10.4471 64.47 8.5 62.35 8.5 59.75C8.5 57.14 10.4471 55.03 12.8492 55.03C13.3182 55.03 13.7697 55.11 14.1928 55.26C14.2915 55.29 14.3921 55.18 14.3431 55.09C13.9682 54.39 13.7531 53.58 13.7531 52.72C13.7531 50.15 15.625 48 18 48C20.375 48 22.2469 50.15 22.2469 52.72C22.2469 53.58 22.0318 54.39 21.6569 55.09C21.6079 55.18 21.7085 55.29 21.8072 55.26C22.2303 55.11 22.6818 55.03 23.1508 55.03C25.5529 55.03 27.5 57.14 27.5 59.75C27.5 62.35 25.5529 64.47 23.1508 64.47C23.1219 64.47 23.0932 64.47 23.0645 64.46H23.0216C20.8096 64.51 19.9018 63.04 19.2361 61.98C19.114 61.79 18.7821 61.87 18.8099 62.1C19.0684 64.2 20.3613 66.89 20.3613 67.61C20.3613 67.83 20.185 68 19.9676 68H16.0324Z" fill="black"/>
<path d="M195.521 247.8C196.602 247.8 197.263 248.54 197.263 249.72V273.6C197.263 274.79 196.602 275.53 195.521 275.53C194.44 275.53 193.76 274.79 193.76 273.6V249.72C193.76 248.54 194.44 247.8 195.521 247.8ZM192.755 261.13V262.13C192.755 270.42 189.211 275.91 183.025 275.91C176.839 275.91 173.316 270.42 173.316 262.13V261.13C173.316 252.86 176.859 247.42 183.045 247.42C189.211 247.42 192.755 252.84 192.755 261.13ZM189.251 262.11V261.17C189.251 254.51 186.869 250.44 183.025 250.44C179.181 250.44 176.799 254.51 176.799 261.17V262.11C176.799 268.78 179.201 272.86 183.045 272.86C186.869 272.86 189.251 268.78 189.251 262.11Z" fill="black"/>
<path d="M186.968 220C187.185 220 187.361 220.17 187.361 220.39C187.361 221.11 186.068 223.8 185.81 225.9C185.782 226.13 186.114 226.21 186.236 226.02C186.902 224.96 187.81 223.49 190.022 223.54H190.065C190.093 223.53 190.122 223.53 190.151 223.53C192.553 223.53 194.5 225.65 194.5 228.25C194.5 230.86 192.553 232.97 190.151 232.97C189.682 232.97 189.23 232.89 188.807 232.74C188.708 232.71 188.608 232.82 188.657 232.91C189.032 233.61 189.247 234.42 189.247 235.28C189.247 237.85 187.375 240 185 240C182.625 240 180.753 237.85 180.753 235.28C180.753 234.42 180.968 233.61 181.343 232.91C181.392 232.82 181.292 232.71 181.193 232.74C180.77 232.89 180.318 232.97 179.849 232.97C177.447 232.97 175.5 230.86 175.5 228.25C175.5 225.65 177.447 223.53 179.849 223.53C179.878 223.53 179.907 223.53 179.935 223.54H179.978C182.19 223.49 183.098 224.96 183.764 226.02C183.886 226.21 184.218 226.13 184.19 225.9C183.932 223.8 182.639 221.11 182.639 220.39C182.639 220.17 182.815 220 183.032 220H186.968Z" fill="black"/>
<path d="M52.84 72C52.325 72 51.9075 71.5799 51.9075 71.0699C51.9075 69.3399 54.9696 62.88 55.5817 57.83C55.6476 57.29 54.8615 57.08 54.5725 57.55C52.9958 60.09 50.8456 63.64 45.6068 63.51L45.5051 63.52C45.4372 63.52 45.3693 63.52 45.3008 63.52C39.6117 63.52 35 58.45 35 52.2C35 45.94 39.6117 40.87 45.3008 40.87C46.4114 40.87 47.4808 41.07 48.483 41.42C48.7167 41.51 48.9551 41.23 48.8388 41.02C47.951 39.34 47.4416 37.4 47.4416 35.32C47.4416 29.16 51.875 24 57.5 24C63.125 24 67.5584 29.16 67.5584 35.32C67.5584 37.4 67.049 39.34 66.1612 41.02C66.0449 41.23 66.2833 41.51 66.517 41.42C67.5192 41.07 68.5886 40.87 69.6992 40.87C75.3883 40.87 80 45.94 80 52.2C80 58.45 75.3883 63.52 69.6992 63.52C69.6307 63.52 69.5628 63.52 69.4949 63.52L69.3932 63.51C64.1544 63.64 62.0042 60.09 60.4275 57.55C60.1385 57.08 59.3524 57.29 59.4183 57.83C60.0304 62.88 63.0925 69.3399 63.0925 71.0699C63.0925 71.5799 62.675 72 62.16 72H52.84Z" fill="black"/>
<path d="M52.84 152C52.325 152 51.9075 152.42 51.9075 152.93C51.9075 154.66 54.9696 161.12 55.5817 166.17C55.6476 166.71 54.8615 166.92 54.5725 166.45C52.9958 163.91 50.8456 160.36 45.6068 160.49L45.5051 160.48C45.4372 160.48 45.3693 160.48 45.3008 160.48C39.6117 160.48 35 165.55 35 171.8C35 178.06 39.6117 183.13 45.3008 183.13C46.4114 183.13 47.4808 182.93 48.483 182.58C48.7167 182.49 48.9551 182.77 48.8388 182.98C47.951 184.66 47.4416 186.6 47.4416 188.68C47.4416 194.84 51.875 200 57.5 200C63.125 200 67.5584 194.84 67.5584 188.68C67.5584 186.6 67.049 184.66 66.1612 182.98C66.0449 182.77 66.2833 182.49 66.517 182.58C67.5192 182.93 68.5886 183.13 69.6992 183.13C75.3883 183.13 80 178.06 80 171.8C80 165.55 75.3883 160.48 69.6992 160.48C69.6307 160.48 69.5628 160.48 69.4949 160.48L69.3932 160.49C64.1544 160.36 62.0042 163.91 60.4275 166.45C60.1385 166.92 59.3524 166.71 59.4183 166.17C60.0304 161.12 63.0925 154.66 63.0925 152.93C63.0925 152.42 62.675 152 62.16 152H52.84Z" fill="black"/>
<path d="M140.84 72C140.325 72 139.908 71.5799 139.908 71.0699C139.908 69.3399 142.97 62.88 143.582 57.83C143.648 57.29 142.862 57.08 142.573 57.55C140.996 60.09 138.846 63.64 133.607 63.51L133.505 63.52C133.437 63.52 133.369 63.52 133.301 63.52C127.612 63.52 123 58.45 123 52.2C123 45.94 127.612 40.87 133.301 40.87C134.411 40.87 135.481 41.07 136.483 41.42C136.717 41.51 136.955 41.23 136.839 41.02C135.951 39.34 135.442 37.4 135.442 35.32C135.442 29.16 139.875 24 145.5 24C151.125 24 155.558 29.16 155.558 35.32C155.558 37.4 155.049 39.34 154.161 41.02C154.045 41.23 154.283 41.51 154.517 41.42C155.519 41.07 156.589 40.87 157.699 40.87C163.388 40.87 168 45.94 168 52.2C168 58.45 163.388 63.52 157.699 63.52C157.631 63.52 157.563 63.52 157.495 63.52L157.393 63.51C152.154 63.64 150.004 60.09 148.427 57.55C148.138 57.08 147.352 57.29 147.418 57.83C148.03 62.88 151.092 69.3399 151.092 71.0699C151.092 71.5799 150.675 72 150.16 72H140.84Z" fill="black"/>
<path d="M52.84 136C52.325 136 51.9075 135.58 51.9075 135.07C51.9075 133.34 54.9696 126.88 55.5817 121.83C55.6476 121.29 54.8615 121.08 54.5725 121.55C52.9958 124.09 50.8456 127.64 45.6068 127.51L45.5051 127.52C45.4372 127.52 45.3693 127.52 45.3008 127.52C39.6117 127.52 35 122.45 35 116.2C35 109.94 39.6117 104.87 45.3008 104.87C46.4114 104.87 47.4808 105.07 48.483 105.42C48.7167 105.51 48.9551 105.23 48.8388 105.02C47.951 103.34 47.4416 101.4 47.4416 99.3199C47.4416 93.1599 51.875 88 57.5 88C63.125 88 67.5584 93.1599 67.5584 99.3199C67.5584 101.4 67.049 103.34 66.1612 105.02C66.0449 105.23 66.2833 105.51 66.517 105.42C67.5192 105.07 68.5886 104.87 69.6992 104.87C75.3883 104.87 80 109.94 80 116.2C80 122.45 75.3883 127.52 69.6992 127.52C69.6307 127.52 69.5628 127.52 69.4949 127.52L69.3932 127.51C64.1544 127.64 62.0042 124.09 60.4275 121.55C60.1385 121.08 59.3524 121.29 59.4183 121.83C60.0304 126.88 63.0925 133.34 63.0925 135.07C63.0925 135.58 62.675 136 62.16 136H52.84Z" fill="black"/>
<path d="M52.84 216C52.325 216 51.9075 216.42 51.9075 216.93C51.9075 218.66 54.9696 225.12 55.5817 230.17C55.6476 230.71 54.8615 230.92 54.5725 230.45C52.9958 227.91 50.8456 224.36 45.6068 224.49L45.5051 224.48C45.4372 224.48 45.3693 224.48 45.3008 224.48C39.6117 224.48 35 229.55 35 235.8C35 242.06 39.6117 247.13 45.3008 247.13C46.4114 247.13 47.4808 246.93 48.483 246.58C48.7167 246.49 48.9551 246.77 48.8388 246.98C47.951 248.66 47.4416 250.6 47.4416 252.68C47.4416 258.84 51.875 264 57.5 264C63.125 264 67.5584 258.84 67.5584 252.68C67.5584 250.6 67.049 248.66 66.1612 246.98C66.0449 246.77 66.2833 246.49 66.517 246.58C67.5192 246.93 68.5886 247.13 69.6992 247.13C75.3883 247.13 80 242.06 80 235.8C80 229.55 75.3883 224.48 69.6992 224.48C69.6307 224.48 69.5628 224.48 69.4949 224.48L69.3932 224.49C64.1544 224.36 62.0042 227.91 60.4275 230.45C60.1385 230.92 59.3524 230.71 59.4183 230.17C60.0304 225.12 63.0925 218.66 63.0925 216.93C63.0925 216.42 62.675 216 62.16 216H52.84Z" fill="black"/>
<path d="M140.84 136C140.325 136 139.908 135.58 139.908 135.07C139.908 133.34 142.97 126.88 143.582 121.83C143.648 121.29 142.862 121.08 142.573 121.55C140.996 124.09 138.846 127.64 133.607 127.51L133.505 127.52C133.437 127.52 133.369 127.52 133.301 127.52C127.612 127.52 123 122.45 123 116.2C123 109.94 127.612 104.87 133.301 104.87C134.411 104.87 135.481 105.07 136.483 105.42C136.717 105.51 136.955 105.23 136.839 105.02C135.951 103.34 135.442 101.4 135.442 99.3199C135.442 93.1599 139.875 88 145.5 88C151.125 88 155.558 93.1599 155.558 99.3199C155.558 101.4 155.049 103.34 154.161 105.02C154.045 105.23 154.283 105.51 154.517 105.42C155.519 105.07 156.589 104.87 157.699 104.87C163.388 104.87 168 109.94 168 116.2C168 122.45 163.388 127.52 157.699 127.52C157.631 127.52 157.563 127.52 157.495 127.52L157.393 127.51C152.154 127.64 150.004 124.09 148.427 121.55C148.138 121.08 147.352 121.29 147.418 121.83C148.03 126.88 151.092 133.34 151.092 135.07C151.092 135.58 150.675 136 150.16 136H140.84Z" fill="black"/>
<path d="M96.84 104C96.325 104 95.9075 103.58 95.9075 103.07C95.9075 101.34 98.9696 94.88 99.5817 89.83C99.6476 89.29 98.8615 89.08 98.5725 89.55C96.9958 92.09 94.8456 95.64 89.6068 95.51L89.5051 95.52C89.4372 95.52 89.3693 95.52 89.3008 95.52C83.6117 95.52 79 90.45 79 84.2C79 77.94 83.6117 72.87 89.3008 72.87C90.4114 72.87 91.4808 73.07 92.483 73.42C92.7167 73.51 92.9551 73.23 92.8388 73.02C91.951 71.34 91.4416 69.3999 91.4416 67.3199C91.4416 61.1599 95.875 56 101.5 56C107.125 56 111.558 61.1599 111.558 67.3199C111.558 69.3999 111.049 71.34 110.161 73.02C110.045 73.23 110.283 73.51 110.517 73.42C111.519 73.07 112.589 72.87 113.699 72.87C119.388 72.87 124 77.94 124 84.2C124 90.45 119.388 95.52 113.699 95.52C113.631 95.52 113.563 95.52 113.495 95.52L113.393 95.51C108.154 95.64 106.004 92.09 104.427 89.55C104.138 89.08 103.352 89.29 103.418 89.83C104.03 94.88 107.092 101.34 107.092 103.07C107.092 103.58 106.675 104 106.16 104H96.84Z" fill="black"/>
<path d="M96.84 184C96.325 184 95.9075 184.42 95.9075 184.93C95.9075 186.66 98.9696 193.12 99.5817 198.17C99.6476 198.71 98.8615 198.92 98.5725 198.45C96.9958 195.91 94.8456 192.36 89.6068 192.49L89.5051 192.48C89.4372 192.48 89.3693 192.48 89.3008 192.48C83.6117 192.48 79 197.55 79 203.8C79 210.06 83.6117 215.13 89.3008 215.13C90.4114 215.13 91.4808 214.93 92.483 214.58C92.7167 214.49 92.9551 214.77 92.8388 214.98C91.951 216.66 91.4416 218.6 91.4416 220.68C91.4416 226.84 95.875 232 101.5 232C107.125 232 111.558 226.84 111.558 220.68C111.558 218.6 111.049 216.66 110.161 214.98C110.045 214.77 110.283 214.49 110.517 214.58C111.519 214.93 112.589 215.13 113.699 215.13C119.388 215.13 124 210.06 124 203.8C124 197.55 119.388 192.48 113.699 192.48C113.631 192.48 113.563 192.48 113.495 192.48L113.393 192.49C108.154 192.36 106.004 195.91 104.427 198.45C104.138 198.92 103.352 198.71 103.418 198.17C104.03 193.12 107.092 186.66 107.092 184.93C107.092 184.42 106.675 184 106.16 184H96.84Z" fill="black"/>
<path d="M140.84 216C140.325 216 139.908 216.42 139.908 216.93C139.908 218.66 142.97 225.12 143.582 230.17C143.648 230.71 142.862 230.92 142.573 230.45C140.996 227.91 138.846 224.36 133.607 224.49L133.505 224.48C133.437 224.48 133.369 224.48 133.301 224.48C127.612 224.48 123 229.55 123 235.8C123 242.06 127.612 247.13 133.301 247.13C134.411 247.13 135.481 246.93 136.483 246.58C136.717 246.49 136.955 246.77 136.839 246.98C135.951 248.66 135.442 250.6 135.442 252.68C135.442 258.84 139.875 264 145.5 264C151.125 264 155.558 258.84 155.558 252.68C155.558 250.6 155.049 248.66 154.161 246.98C154.045 246.77 154.283 246.49 154.517 246.58C155.519 246.93 156.589 247.13 157.699 247.13C163.388 247.13 168 242.06 168 235.8C168 229.55 163.388 224.48 157.699 224.48C157.631 224.48 157.563 224.48 157.495 224.48L157.393 224.49C152.154 224.36 150.004 227.91 148.427 230.45C148.138 230.92 147.352 230.71 147.418 230.17C148.03 225.12 151.092 218.66 151.092 216.93C151.092 216.42 150.675 216 150.16 216H140.84Z" fill="black"/>
<path d="M140.84 152C140.325 152 139.908 152.42 139.908 152.93C139.908 154.66 142.97 161.12 143.582 166.17C143.648 166.71 142.862 166.92 142.573 166.45C140.996 163.91 138.846 160.36 133.607 160.49L133.505 160.48C133.437 160.48 133.369 160.48 133.301 160.48C127.612 160.48 123 165.55 123 171.8C123 178.06 127.612 183.13 133.301 183.13C134.411 183.13 135.481 182.93 136.483 182.58C136.717 182.49 136.955 182.77 136.839 182.98C135.951 184.66 135.442 186.6 135.442 188.68C135.442 194.84 139.875 200 145.5 200C151.125 200 155.558 194.84 155.558 188.68C155.558 186.6 155.049 184.66 154.161 182.98C154.045 182.77 154.283 182.49 154.517 182.58C155.519 182.93 156.589 183.13 157.699 183.13C163.388 183.13 168 178.06 168 171.8C168 165.55 163.388 160.48 157.699 160.48C157.631 160.48 157.563 160.48 157.495 160.48L157.393 160.49C152.154 160.36 150.004 163.91 148.427 166.45C148.138 166.92 147.352 166.71 147.418 166.17C148.03 161.12 151.092 154.66 151.092 152.93C151.092 152.42 150.675 152 150.16 152H140.84Z" fill="black"/>
</g>
</svg>
