<svg width="203" height="288" viewBox="0 0 203 288" fill="none" xmlns="http://www.w3.org/2000/svg">
<mask id="mask0_1865_737" style="mask-type:luminance" maskUnits="userSpaceOnUse" x="0" y="0" width="203" height="288">
<path d="M193 0H10C4.47715 0 0 4.47715 0 10V278C0 283.523 4.47715 288 10 288H193C198.523 288 203 283.523 203 278V10C203 4.47715 198.523 0 193 0Z" fill="white"/>
</mask>
<g mask="url(#mask0_1865_737)">
<path d="M193 0H10C4.47715 0 0 4.47715 0 10V278C0 283.523 4.47715 288 10 288H193C198.523 288 203 283.523 203 278V10C203 4.47715 198.523 0 193 0Z" fill="white"/>
<path d="M25.8081 43.0198C25.0273 43.0198 24.4868 42.6597 23.8062 41.7397L22.2646 39.6198C20.8833 40.2398 19.3018 40.5797 17.5 40.5797C10.5933 40.5797 6.56934 35.9997 6.56934 28.4897V24.4598C6.56934 16.8398 10.7734 12.0928 17.5 12.0928C24.1265 12.0928 28.4507 16.8398 28.4507 24.4598V28.4897C28.4507 32.7697 27.1895 35.8598 24.9873 37.8398L26.4888 39.8998C27.0293 40.6598 27.2295 41.0398 27.2295 41.5398C27.2295 42.2998 26.689 43.0198 25.8081 43.0198ZM10.0527 28.5298C10.0527 34.1098 12.9155 37.4797 17.48 37.4797C18.481 37.4797 19.4419 37.2998 20.3228 36.9398L19.1616 35.3798C18.7212 34.7698 18.3809 34.2298 18.3809 33.6498C18.3809 32.7898 19.0415 32.1298 19.9023 32.1298C20.4429 32.1298 20.9834 32.4297 21.604 33.2897L22.9053 35.0997C24.1665 33.6097 24.9473 31.7098 24.9473 28.5298V24.4598C24.9473 18.7598 21.7241 15.2358 17.5 15.2358C12.9155 15.2358 10.0527 18.7598 10.0527 24.4598V28.5298Z" fill="black"/>
<path d="M16.0324 68C15.815 68 15.6387 67.83 15.6387 67.61C15.6387 66.89 16.9316 64.2 17.1901 62.1C17.2179 61.87 16.886 61.79 16.7639 61.98C16.0982 63.04 15.1904 64.51 12.9784 64.46H12.9355C12.9068 64.47 12.8781 64.47 12.8492 64.47C10.4471 64.47 8.5 62.35 8.5 59.75C8.5 57.14 10.4471 55.03 12.8492 55.03C13.3182 55.03 13.7697 55.11 14.1928 55.26C14.2915 55.29 14.3921 55.18 14.3431 55.09C13.9682 54.39 13.7531 53.58 13.7531 52.72C13.7531 50.15 15.625 48 18 48C20.375 48 22.2469 50.15 22.2469 52.72C22.2469 53.58 22.0318 54.39 21.6569 55.09C21.6079 55.18 21.7085 55.29 21.8072 55.26C22.2303 55.11 22.6818 55.03 23.1508 55.03C25.5529 55.03 27.5 57.14 27.5 59.75C27.5 62.35 25.5529 64.47 23.1508 64.47C23.1219 64.47 23.0932 64.47 23.0645 64.46H23.0216C20.8096 64.51 19.9018 63.04 19.2361 61.98C19.114 61.79 18.7821 61.87 18.8099 62.1C19.0684 64.2 20.3613 66.89 20.3613 67.61C20.3613 67.83 20.185 68 19.9676 68H16.0324Z" fill="black"/>
<path d="M177.192 244.98C177.973 244.98 178.513 245.34 179.194 246.26L180.735 248.38C182.117 247.76 183.698 247.42 185.5 247.42C192.407 247.42 196.431 252 196.431 259.51V263.54C196.431 271.16 192.227 275.91 185.5 275.91C178.874 275.91 174.549 271.16 174.549 263.54V259.51C174.549 255.23 175.811 252.14 178.013 250.16L176.511 248.1C175.971 247.34 175.771 246.96 175.771 246.46C175.771 245.7 176.311 244.98 177.192 244.98ZM192.947 259.47C192.947 253.89 190.084 250.52 185.52 250.52C184.519 250.52 183.558 250.7 182.677 251.06L183.838 252.62C184.279 253.23 184.619 253.77 184.619 254.35C184.619 255.21 183.958 255.87 183.098 255.87C182.557 255.87 182.017 255.57 181.396 254.71L180.095 252.9C178.833 254.39 178.053 256.29 178.053 259.47V263.54C178.053 269.24 181.276 272.76 185.5 272.76C190.084 272.76 192.947 269.24 192.947 263.54V259.47Z" fill="black"/>
<path d="M186.968 220C187.185 220 187.361 220.17 187.361 220.39C187.361 221.11 186.068 223.8 185.81 225.9C185.782 226.13 186.114 226.21 186.236 226.02C186.902 224.96 187.81 223.49 190.022 223.54H190.065C190.093 223.53 190.122 223.53 190.151 223.53C192.553 223.53 194.5 225.65 194.5 228.25C194.5 230.86 192.553 232.97 190.151 232.97C189.682 232.97 189.23 232.89 188.807 232.74C188.708 232.71 188.608 232.82 188.657 232.91C189.032 233.61 189.247 234.42 189.247 235.28C189.247 237.85 187.375 240 185 240C182.625 240 180.753 237.85 180.753 235.28C180.753 234.42 180.968 233.61 181.343 232.91C181.392 232.82 181.292 232.71 181.193 232.74C180.77 232.89 180.318 232.97 179.849 232.97C177.447 232.97 175.5 230.86 175.5 228.25C175.5 225.65 177.447 223.53 179.849 223.53C179.878 223.53 179.907 223.53 179.935 223.54H179.978C182.19 223.49 183.098 224.96 183.764 226.02C183.886 226.21 184.218 226.13 184.19 225.9C183.932 223.8 182.639 221.11 182.639 220.39C182.639 220.17 182.815 220 183.032 220H186.968Z" fill="black"/>
</g>
</svg>
