<svg width="203" height="288" viewBox="0 0 203 288" fill="none" xmlns="http://www.w3.org/2000/svg">
<mask id="mask0_1865_779" style="mask-type:luminance" maskUnits="userSpaceOnUse" x="0" y="0" width="203" height="288">
<path d="M193 0H10C4.47715 0 0 4.47715 0 10V278C0 283.523 4.47715 288 10 288H193C198.523 288 203 283.523 203 278V10C203 4.47715 198.523 0 193 0Z" fill="white"/>
</mask>
<g mask="url(#mask0_1865_779)">
<path d="M193 0H10C4.47715 0 0 4.47715 0 10V278C0 283.523 4.47715 288 10 288H193C198.523 288 203 283.523 203 278V10C203 4.47715 198.523 0 193 0Z" fill="white"/>
<path d="M25.7485 40.0602C25.0479 40.0602 24.4473 39.6601 23.7466 38.6801L15.3584 26.8101L11.915 30.3701V38.2802C11.915 39.4602 11.2344 40.2001 10.1533 40.2001C9.07227 40.2001 8.41162 39.4602 8.41162 38.2802V14.3951C8.41162 13.2141 9.07227 12.4731 10.1533 12.4731C11.2344 12.4731 11.915 13.2141 11.915 14.3951V25.8501H12.0752L23.4663 13.6941C24.207 12.8741 24.6675 12.6131 25.248 12.6131C26.1289 12.6131 26.7896 13.2941 26.7896 14.1351C26.7896 14.6551 26.6294 14.9561 25.8286 15.7961L17.9609 24.4001L26.5293 36.3001C27.3701 37.4601 27.5503 37.8201 27.5503 38.3401C27.5503 39.3601 26.8096 40.0602 25.7485 40.0602Z" fill="black"/>
<path d="M16.0324 68C15.815 68 15.6387 67.83 15.6387 67.61C15.6387 66.89 16.9316 64.2 17.1901 62.1C17.2179 61.87 16.886 61.79 16.7639 61.98C16.0982 63.04 15.1904 64.51 12.9784 64.46H12.9355C12.9068 64.47 12.8781 64.47 12.8492 64.47C10.4471 64.47 8.5 62.35 8.5 59.75C8.5 57.14 10.4471 55.03 12.8492 55.03C13.3182 55.03 13.7697 55.11 14.1928 55.26C14.2915 55.29 14.3921 55.18 14.3431 55.09C13.9682 54.39 13.7531 53.58 13.7531 52.72C13.7531 50.15 15.625 48 18 48C20.375 48 22.2469 50.15 22.2469 52.72C22.2469 53.58 22.0318 54.39 21.6569 55.09C21.6079 55.18 21.7085 55.29 21.8072 55.26C22.2303 55.11 22.6818 55.03 23.1508 55.03C25.5529 55.03 27.5 57.14 27.5 59.75C27.5 62.35 25.5529 64.47 23.1508 64.47C23.1219 64.47 23.0932 64.47 23.0645 64.46H23.0216C20.8096 64.51 19.9018 63.04 19.2361 61.98C19.114 61.79 18.7821 61.87 18.8099 62.1C19.0684 64.2 20.3613 66.89 20.3613 67.61C20.3613 67.83 20.185 68 19.9676 68H16.0324Z" fill="black"/>
<path d="M177.251 247.94C177.952 247.94 178.553 248.34 179.253 249.32L187.642 261.19L191.085 257.63V249.72C191.085 248.54 191.766 247.8 192.847 247.8C193.928 247.8 194.588 248.54 194.588 249.72V273.6C194.588 274.79 193.928 275.53 192.847 275.53C191.766 275.53 191.085 274.79 191.085 273.6V262.15H190.925L179.534 274.31C178.793 275.13 178.333 275.39 177.752 275.39C176.871 275.39 176.21 274.71 176.21 273.87C176.21 273.34 176.371 273.04 177.171 272.2L185.039 263.6L176.471 251.7C175.63 250.54 175.45 250.18 175.45 249.66C175.45 248.64 176.19 247.94 177.251 247.94Z" fill="black"/>
<path d="M186.968 220C187.185 220 187.361 220.17 187.361 220.39C187.361 221.11 186.068 223.8 185.81 225.9C185.782 226.13 186.114 226.21 186.236 226.02C186.902 224.96 187.81 223.49 190.022 223.54H190.065C190.093 223.53 190.122 223.53 190.151 223.53C192.553 223.53 194.5 225.65 194.5 228.25C194.5 230.86 192.553 232.97 190.151 232.97C189.682 232.97 189.23 232.89 188.807 232.74C188.708 232.71 188.608 232.82 188.657 232.91C189.032 233.61 189.247 234.42 189.247 235.28C189.247 237.85 187.375 240 185 240C182.625 240 180.753 237.85 180.753 235.28C180.753 234.42 180.968 233.61 181.343 232.91C181.392 232.82 181.292 232.71 181.193 232.74C180.77 232.89 180.318 232.97 179.849 232.97C177.447 232.97 175.5 230.86 175.5 228.25C175.5 225.65 177.447 223.53 179.849 223.53C179.878 223.53 179.907 223.53 179.935 223.54H179.978C182.19 223.49 183.098 224.96 183.764 226.02C183.886 226.21 184.218 226.13 184.19 225.9C183.932 223.8 182.639 221.11 182.639 220.39C182.639 220.17 182.815 220 183.032 220H186.968Z" fill="black"/>
</g>
</svg>
