<svg width="203" height="288" viewBox="0 0 203 288" fill="none" xmlns="http://www.w3.org/2000/svg">
<mask id="mask0_1865_611" style="mask-type:luminance" maskUnits="userSpaceOnUse" x="0" y="0" width="203" height="288">
<path d="M193 0H10C4.47715 0 0 4.47715 0 10V278C0 283.523 4.47715 288 10 288H193C198.523 288 203 283.523 203 278V10C203 4.47715 198.523 0 193 0Z" fill="white"/>
</mask>
<g mask="url(#mask0_1865_611)">
<path d="M193 0H10C4.47715 0 0 4.47715 0 10V278C0 283.523 4.47715 288 10 288H193C198.523 288 203 283.523 203 278V10C203 4.47715 198.523 0 193 0Z" fill="white"/>
<path d="M8.19092 40.2601C7.18994 40.2601 6.5293 39.6801 6.5293 38.7601C6.5293 38.3601 6.62939 37.9801 6.78955 37.5001L15.0176 14.4951C15.5181 13.0941 16.2188 12.4531 17.5 12.4531C18.7812 12.4531 19.4819 13.0941 19.9824 14.4951L28.2104 37.5001C28.3706 37.9401 28.4707 38.3601 28.4707 38.7401C28.4707 39.6801 27.8101 40.2601 26.7891 40.2601C25.8281 40.2601 25.2876 39.8001 24.9072 38.6201L22.605 31.7901H12.375L10.0728 38.6201C9.69238 39.8201 9.15186 40.2601 8.19092 40.2601ZM13.3159 28.9701H21.6641L17.5601 16.8001H17.4199L13.3159 28.9701Z" fill="black"/>
<path d="M16.0324 68C15.815 68 15.6387 67.83 15.6387 67.61C15.6387 66.89 16.9316 64.2 17.1901 62.1C17.2179 61.87 16.886 61.79 16.7639 61.98C16.0982 63.04 15.1904 64.51 12.9784 64.46H12.9355C12.9068 64.47 12.8781 64.47 12.8492 64.47C10.4471 64.47 8.5 62.35 8.5 59.75C8.5 57.14 10.4471 55.03 12.8492 55.03C13.3182 55.03 13.7697 55.11 14.1928 55.26C14.2915 55.29 14.3921 55.18 14.3431 55.09C13.9682 54.39 13.7531 53.58 13.7531 52.72C13.7531 50.15 15.625 48 18 48C20.375 48 22.2469 50.15 22.2469 52.72C22.2469 53.58 22.0318 54.39 21.6569 55.09C21.6079 55.18 21.7085 55.29 21.8072 55.26C22.2303 55.11 22.6818 55.03 23.1508 55.03C25.5529 55.03 27.5 57.14 27.5 59.75C27.5 62.35 25.5529 64.47 23.1508 64.47C23.1219 64.47 23.0932 64.47 23.0645 64.46H23.0216C20.8096 64.51 19.9018 63.04 19.2361 61.98C19.114 61.79 18.7821 61.87 18.8099 62.1C19.0684 64.2 20.3613 66.89 20.3613 67.61C20.3613 67.83 20.185 68 19.9676 68H16.0324Z" fill="black"/>
<path d="M194.809 247.74C195.81 247.74 196.471 248.32 196.471 249.24C196.471 249.64 196.371 250.02 196.21 250.5L187.982 273.5C187.482 274.91 186.781 275.55 185.5 275.55C184.219 275.55 183.518 274.91 183.018 273.5L174.79 250.5C174.629 250.06 174.529 249.64 174.529 249.26C174.529 248.32 175.19 247.74 176.211 247.74C177.172 247.74 177.712 248.2 178.093 249.38L180.395 256.21H190.625L192.927 249.38C193.308 248.18 193.848 247.74 194.809 247.74ZM189.684 259.03H181.336L185.44 271.2H185.58L189.684 259.03Z" fill="black"/>
<path d="M186.968 220C187.185 220 187.361 220.17 187.361 220.39C187.361 221.11 186.068 223.8 185.81 225.9C185.782 226.13 186.114 226.21 186.236 226.02C186.902 224.96 187.81 223.49 190.022 223.54H190.065C190.093 223.53 190.122 223.53 190.151 223.53C192.553 223.53 194.5 225.65 194.5 228.25C194.5 230.86 192.553 232.97 190.151 232.97C189.682 232.97 189.23 232.89 188.807 232.74C188.708 232.71 188.608 232.82 188.657 232.91C189.032 233.61 189.247 234.42 189.247 235.28C189.247 237.85 187.375 240 185 240C182.625 240 180.753 237.85 180.753 235.28C180.753 234.42 180.968 233.61 181.343 232.91C181.392 232.82 181.292 232.71 181.193 232.74C180.77 232.89 180.318 232.97 179.849 232.97C177.447 232.97 175.5 230.86 175.5 228.25C175.5 225.65 177.447 223.53 179.849 223.53C179.878 223.53 179.907 223.53 179.935 223.54H179.978C182.19 223.49 183.098 224.96 183.764 226.02C183.886 226.21 184.218 226.13 184.19 225.9C183.932 223.8 182.639 221.11 182.639 220.39C182.639 220.17 182.815 220 183.032 220H186.968Z" fill="black"/>
<path d="M96.84 168C96.325 168 95.9075 167.58 95.9075 167.07C95.9075 165.34 98.9696 158.88 99.5817 153.83C99.6476 153.29 98.8615 153.08 98.5725 153.55C96.9958 156.09 94.8456 159.64 89.6068 159.51L89.5051 159.52C89.4372 159.52 89.3693 159.52 89.3008 159.52C83.6117 159.52 79 154.45 79 148.2C79 141.94 83.6117 136.87 89.3008 136.87C90.4114 136.87 91.4808 137.07 92.483 137.42C92.7167 137.51 92.9551 137.23 92.8388 137.02C91.951 135.34 91.4416 133.4 91.4416 131.32C91.4416 125.16 95.875 120 101.5 120C107.125 120 111.558 125.16 111.558 131.32C111.558 133.4 111.049 135.34 110.161 137.02C110.045 137.23 110.283 137.51 110.517 137.42C111.519 137.07 112.589 136.87 113.699 136.87C119.388 136.87 124 141.94 124 148.2C124 154.45 119.388 159.52 113.699 159.52C113.631 159.52 113.563 159.52 113.495 159.52L113.393 159.51C108.154 159.64 106.004 156.09 104.427 153.55C104.138 153.08 103.352 153.29 103.418 153.83C104.03 158.88 107.092 165.34 107.092 167.07C107.092 167.58 106.675 168 106.16 168H96.84Z" fill="black"/>
</g>
</svg>
