<svg width="203" height="288" viewBox="0 0 203 288" fill="none" xmlns="http://www.w3.org/2000/svg">
<mask id="mask0_1865_158" style="mask-type:luminance" maskUnits="userSpaceOnUse" x="0" y="0" width="203" height="288">
<path d="M193 0H10C4.47715 0 0 4.47715 0 10V278C0 283.523 4.47715 288 10 288H193C198.523 288 203 283.523 203 278V10C203 4.47715 198.523 0 193 0Z" fill="white"/>
</mask>
<g mask="url(#mask0_1865_158)">
<path d="M193 0H10C4.47715 0 0 4.47715 0 10V278C0 283.523 4.47715 288 10 288H193C198.523 288 203 283.523 203 278V10C203 4.47715 198.523 0 193 0Z" fill="white"/>
<path d="M20.4634 38.38V34.31H9.93311C8.37158 34.31 7.33057 33.49 7.33057 32.17C7.33057 31.43 7.5708 30.73 8.27148 29.45C11.1343 24.38 12.936 21.5 17.4805 14.695C18.6616 12.954 19.5825 12.353 20.9639 12.353C22.7856 12.353 23.8066 13.394 23.8066 15.256V31.25H25.8887C27.0098 31.25 27.6704 31.81 27.6704 32.79C27.6704 33.75 27.0298 34.31 25.8887 34.31H23.8066V38.38C23.8066 39.54 23.2061 40.2 22.125 40.2C21.064 40.2 20.4634 39.54 20.4634 38.38ZM10.6938 31.25H20.4634V15.756H20.2832C16.8799 20.78 13.3164 26.51 10.6938 31.05V31.25Z" fill="black"/>
<path d="M16.0324 68C15.815 68 15.6387 67.83 15.6387 67.61C15.6387 66.89 16.9316 64.2 17.1901 62.1C17.2179 61.87 16.886 61.79 16.7639 61.98C16.0982 63.04 15.1904 64.51 12.9784 64.46H12.9355C12.9068 64.47 12.8781 64.47 12.8492 64.47C10.4471 64.47 8.5 62.35 8.5 59.75C8.5 57.14 10.4471 55.03 12.8492 55.03C13.3182 55.03 13.7697 55.11 14.1928 55.26C14.2915 55.29 14.3921 55.18 14.3431 55.09C13.9682 54.39 13.7531 53.58 13.7531 52.72C13.7531 50.15 15.625 48 18 48C20.375 48 22.2469 50.15 22.2469 52.72C22.2469 53.58 22.0318 54.39 21.6569 55.09C21.6079 55.18 21.7085 55.29 21.8072 55.26C22.2303 55.11 22.6818 55.03 23.1508 55.03C25.5529 55.03 27.5 57.14 27.5 59.75C27.5 62.35 25.5529 64.47 23.1508 64.47C23.1219 64.47 23.0932 64.47 23.0645 64.46H23.0216C20.8096 64.51 19.9018 63.04 19.2361 61.98C19.114 61.79 18.7821 61.87 18.8099 62.1C19.0684 64.2 20.3613 66.89 20.3613 67.61C20.3613 67.83 20.185 68 19.9676 68H16.0324Z" fill="black"/>
<path d="M182.537 249.62V253.69H193.067C194.628 253.69 195.669 254.51 195.669 255.83C195.669 256.57 195.429 257.27 194.729 258.55C191.866 263.62 190.064 266.5 185.52 273.3C184.338 275.05 183.417 275.65 182.036 275.65C180.214 275.65 179.193 274.61 179.193 272.74V256.75H177.111C175.99 256.75 175.33 256.19 175.33 255.21C175.33 254.25 175.97 253.69 177.111 253.69H179.193V249.62C179.193 248.46 179.794 247.8 180.875 247.8C181.936 247.8 182.537 248.46 182.537 249.62ZM192.306 256.75H182.537V272.24H182.717C186.12 267.22 189.684 261.49 192.306 256.95V256.75Z" fill="black"/>
<path d="M186.968 220C187.185 220 187.361 220.17 187.361 220.39C187.361 221.11 186.068 223.8 185.81 225.9C185.782 226.13 186.114 226.21 186.236 226.02C186.902 224.96 187.81 223.49 190.022 223.54H190.065C190.093 223.53 190.122 223.53 190.151 223.53C192.553 223.53 194.5 225.65 194.5 228.25C194.5 230.86 192.553 232.97 190.151 232.97C189.682 232.97 189.23 232.89 188.807 232.74C188.708 232.71 188.608 232.82 188.657 232.91C189.032 233.61 189.247 234.42 189.247 235.28C189.247 237.85 187.375 240 185 240C182.625 240 180.753 237.85 180.753 235.28C180.753 234.42 180.968 233.61 181.343 232.91C181.392 232.82 181.292 232.71 181.193 232.74C180.77 232.89 180.318 232.97 179.849 232.97C177.447 232.97 175.5 230.86 175.5 228.25C175.5 225.65 177.447 223.53 179.849 223.53C179.878 223.53 179.907 223.53 179.935 223.54H179.978C182.19 223.49 183.098 224.96 183.764 226.02C183.886 226.21 184.218 226.13 184.19 225.9C183.932 223.8 182.639 221.11 182.639 220.39C182.639 220.17 182.815 220 183.032 220H186.968Z" fill="black"/>
<path d="M52.84 72C52.325 72 51.9075 71.5799 51.9075 71.0699C51.9075 69.3399 54.9696 62.88 55.5817 57.83C55.6476 57.29 54.8615 57.08 54.5725 57.55C52.9958 60.09 50.8456 63.64 45.6068 63.51L45.5051 63.52C45.4372 63.52 45.3693 63.52 45.3008 63.52C39.6117 63.52 35 58.45 35 52.2C35 45.94 39.6117 40.87 45.3008 40.87C46.4114 40.87 47.4808 41.07 48.483 41.42C48.7167 41.51 48.9551 41.23 48.8388 41.02C47.951 39.34 47.4416 37.4 47.4416 35.32C47.4416 29.16 51.875 24 57.5 24C63.125 24 67.5584 29.16 67.5584 35.32C67.5584 37.4 67.049 39.34 66.1612 41.02C66.0449 41.23 66.2833 41.51 66.517 41.42C67.5192 41.07 68.5886 40.87 69.6992 40.87C75.3883 40.87 80 45.94 80 52.2C80 58.45 75.3883 63.52 69.6992 63.52C69.6307 63.52 69.5628 63.52 69.4949 63.52L69.3932 63.51C64.1544 63.64 62.0042 60.09 60.4275 57.55C60.1385 57.08 59.3524 57.29 59.4183 57.83C60.0304 62.88 63.0925 69.3399 63.0925 71.0699C63.0925 71.5799 62.675 72 62.16 72H52.84Z" fill="black"/>
<path d="M52.84 216C52.325 216 51.9075 216.42 51.9075 216.93C51.9075 218.66 54.9696 225.12 55.5817 230.17C55.6476 230.71 54.8615 230.92 54.5725 230.45C52.9958 227.91 50.8456 224.36 45.6068 224.49L45.5051 224.48C45.4372 224.48 45.3693 224.48 45.3008 224.48C39.6117 224.48 35 229.55 35 235.8C35 242.06 39.6117 247.13 45.3008 247.13C46.4114 247.13 47.4808 246.93 48.483 246.58C48.7167 246.49 48.9551 246.77 48.8388 246.98C47.951 248.66 47.4416 250.6 47.4416 252.68C47.4416 258.84 51.875 264 57.5 264C63.125 264 67.5584 258.84 67.5584 252.68C67.5584 250.6 67.049 248.66 66.1612 246.98C66.0449 246.77 66.2833 246.49 66.517 246.58C67.5192 246.93 68.5886 247.13 69.6992 247.13C75.3883 247.13 80 242.06 80 235.8C80 229.55 75.3883 224.48 69.6992 224.48C69.6307 224.48 69.5628 224.48 69.4949 224.48L69.3932 224.49C64.1544 224.36 62.0042 227.91 60.4275 230.45C60.1385 230.92 59.3524 230.71 59.4183 230.17C60.0304 225.12 63.0925 218.66 63.0925 216.93C63.0925 216.42 62.675 216 62.16 216H52.84Z" fill="black"/>
<path d="M140.84 72C140.325 72 139.908 71.5799 139.908 71.0699C139.908 69.3399 142.97 62.88 143.582 57.83C143.648 57.29 142.862 57.08 142.573 57.55C140.996 60.09 138.846 63.64 133.607 63.51L133.505 63.52C133.437 63.52 133.369 63.52 133.301 63.52C127.612 63.52 123 58.45 123 52.2C123 45.94 127.612 40.87 133.301 40.87C134.411 40.87 135.481 41.07 136.483 41.42C136.717 41.51 136.955 41.23 136.839 41.02C135.951 39.34 135.442 37.4 135.442 35.32C135.442 29.16 139.875 24 145.5 24C151.125 24 155.558 29.16 155.558 35.32C155.558 37.4 155.049 39.34 154.161 41.02C154.045 41.23 154.283 41.51 154.517 41.42C155.519 41.07 156.589 40.87 157.699 40.87C163.388 40.87 168 45.94 168 52.2C168 58.45 163.388 63.52 157.699 63.52C157.631 63.52 157.563 63.52 157.495 63.52L157.393 63.51C152.154 63.64 150.004 60.09 148.427 57.55C148.138 57.08 147.352 57.29 147.418 57.83C148.03 62.88 151.092 69.3399 151.092 71.0699C151.092 71.5799 150.675 72 150.16 72H140.84Z" fill="black"/>
<path d="M140.84 216C140.325 216 139.908 216.42 139.908 216.93C139.908 218.66 142.97 225.12 143.582 230.17C143.648 230.71 142.862 230.92 142.573 230.45C140.996 227.91 138.846 224.36 133.607 224.49L133.505 224.48C133.437 224.48 133.369 224.48 133.301 224.48C127.612 224.48 123 229.55 123 235.8C123 242.06 127.612 247.13 133.301 247.13C134.411 247.13 135.481 246.93 136.483 246.58C136.717 246.49 136.955 246.77 136.839 246.98C135.951 248.66 135.442 250.6 135.442 252.68C135.442 258.84 139.875 264 145.5 264C151.125 264 155.558 258.84 155.558 252.68C155.558 250.6 155.049 248.66 154.161 246.98C154.045 246.77 154.283 246.49 154.517 246.58C155.519 246.93 156.589 247.13 157.699 247.13C163.388 247.13 168 242.06 168 235.8C168 229.55 163.388 224.48 157.699 224.48C157.631 224.48 157.563 224.48 157.495 224.48L157.393 224.49C152.154 224.36 150.004 227.91 148.427 230.45C148.138 230.92 147.352 230.71 147.418 230.17C148.03 225.12 151.092 218.66 151.092 216.93C151.092 216.42 150.675 216 150.16 216H140.84Z" fill="black"/>
</g>
</svg>
