<svg width="203" height="288" viewBox="0 0 203 288" fill="none" xmlns="http://www.w3.org/2000/svg">
<mask id="mask0_1864_85" style="mask-type:luminance" maskUnits="userSpaceOnUse" x="0" y="0" width="203" height="288">
<path d="M193 0H10C4.47715 0 0 4.47715 0 10V278C0 283.523 4.47715 288 10 288H193C198.523 288 203 283.523 203 278V10C203 4.47715 198.523 0 193 0Z" fill="white"/>
</mask>
<g mask="url(#mask0_1864_85)">
<path d="M193 0H10C4.47715 0 0 4.47715 0 10V278C0 283.523 4.47715 288 10 288H193C198.523 288 203 283.523 203 278V10C203 4.47715 198.523 0 193 0Z" fill="white"/>
<path d="M8.31104 34.39C8.31104 33.49 8.93164 32.85 9.8125 32.85C10.5132 32.85 10.9536 33.21 11.4741 34.23C12.5151 36.38 14.5972 37.58 17.3198 37.58C20.9033 37.58 23.1855 35.62 23.1855 32.55C23.1855 29.49 20.8433 27.43 17.3599 27.43H14.8574C13.9365 27.43 13.2559 26.77 13.2559 25.91C13.2559 25.03 13.8965 24.4 14.8574 24.4H17.2197C20.1426 24.4 22.2646 22.42 22.2646 19.68C22.2646 16.94 20.2026 15.096 17.1396 15.096C14.7573 15.096 12.9556 16.28 12.1548 18.34C11.7544 19.44 11.2539 19.86 10.4731 19.86C9.55224 19.86 8.95166 19.2 8.95166 18.2C8.95166 15.096 12.2949 12.093 17.2197 12.093C22.2246 12.093 25.7881 15.076 25.7881 19.24C25.7881 22.26 23.5259 25.15 20.7432 25.63V25.83C24.1265 26.21 26.709 29.17 26.709 32.61C26.709 37.3 22.8252 40.58 17.2598 40.58C12.0947 40.58 8.31104 37.46 8.31104 34.39Z" fill="black"/>
<path d="M16.0324 68C15.815 68 15.6387 67.83 15.6387 67.61C15.6387 66.89 16.9316 64.2 17.1901 62.1C17.2179 61.87 16.886 61.79 16.7639 61.98C16.0982 63.04 15.1904 64.51 12.9784 64.46H12.9355C12.9068 64.47 12.8781 64.47 12.8492 64.47C10.4471 64.47 8.5 62.35 8.5 59.75C8.5 57.14 10.4471 55.03 12.8492 55.03C13.3182 55.03 13.7697 55.11 14.1928 55.26C14.2915 55.29 14.3921 55.18 14.3431 55.09C13.9682 54.39 13.7531 53.58 13.7531 52.72C13.7531 50.15 15.625 48 18 48C20.375 48 22.2469 50.15 22.2469 52.72C22.2469 53.58 22.0318 54.39 21.6569 55.09C21.6079 55.18 21.7085 55.29 21.8072 55.26C22.2303 55.11 22.6818 55.03 23.1508 55.03C25.5529 55.03 27.5 57.14 27.5 59.75C27.5 62.35 25.5529 64.47 23.1508 64.47C23.1219 64.47 23.0932 64.47 23.0645 64.46H23.0216C20.8096 64.51 19.9018 63.04 19.2361 61.98C19.114 61.79 18.7821 61.87 18.8099 62.1C19.0684 64.2 20.3613 66.89 20.3613 67.61C20.3613 67.83 20.185 68 19.9676 68H16.0324Z" fill="black"/>
<path d="M194.689 253.61C194.689 254.51 194.068 255.15 193.188 255.15C192.487 255.15 192.046 254.79 191.526 253.77C190.485 251.62 188.403 250.42 185.68 250.42C182.097 250.42 179.814 252.38 179.814 255.45C179.814 258.51 182.157 260.57 185.64 260.57H188.143C189.063 260.57 189.744 261.23 189.744 262.09C189.744 262.97 189.104 263.6 188.143 263.6H185.78C182.857 263.6 180.735 265.58 180.735 268.32C180.735 271.06 182.797 272.9 185.86 272.9C188.243 272.9 190.044 271.72 190.845 269.66C191.246 268.56 191.746 268.14 192.527 268.14C193.448 268.14 194.048 268.8 194.048 269.8C194.048 272.9 190.705 275.91 185.78 275.91C180.775 275.91 177.212 272.92 177.212 268.76C177.212 265.74 179.474 262.85 182.257 262.37V262.17C178.874 261.79 176.291 258.83 176.291 255.39C176.291 250.7 180.175 247.42 185.74 247.42C190.905 247.42 194.689 250.54 194.689 253.61Z" fill="black"/>
<path d="M186.968 220C187.185 220 187.361 220.17 187.361 220.39C187.361 221.11 186.068 223.8 185.81 225.9C185.782 226.13 186.114 226.21 186.236 226.02C186.902 224.96 187.81 223.49 190.022 223.54H190.065C190.093 223.53 190.122 223.53 190.151 223.53C192.553 223.53 194.5 225.65 194.5 228.25C194.5 230.86 192.553 232.97 190.151 232.97C189.682 232.97 189.23 232.89 188.807 232.74C188.708 232.71 188.608 232.82 188.657 232.91C189.032 233.61 189.247 234.42 189.247 235.28C189.247 237.85 187.375 240 185 240C182.625 240 180.753 237.85 180.753 235.28C180.753 234.42 180.968 233.61 181.343 232.91C181.392 232.82 181.292 232.71 181.193 232.74C180.77 232.89 180.318 232.97 179.849 232.97C177.447 232.97 175.5 230.86 175.5 228.25C175.5 225.65 177.447 223.53 179.849 223.53C179.878 223.53 179.907 223.53 179.935 223.54H179.978C182.19 223.49 183.098 224.96 183.764 226.02C183.886 226.21 184.218 226.13 184.19 225.9C183.932 223.8 182.639 221.11 182.639 220.39C182.639 220.17 182.815 220 183.032 220H186.968Z" fill="black"/>
<path d="M96.84 72C96.325 72 95.9075 71.5799 95.9075 71.0699C95.9075 69.3399 98.9696 62.88 99.5817 57.83C99.6476 57.29 98.8615 57.08 98.5725 57.55C96.9958 60.09 94.8456 63.64 89.6068 63.51L89.5051 63.52C89.4372 63.52 89.3693 63.52 89.3008 63.52C83.6117 63.52 79 58.45 79 52.2C79 45.94 83.6117 40.87 89.3008 40.87C90.4114 40.87 91.4808 41.07 92.483 41.42C92.7167 41.51 92.9551 41.23 92.8388 41.02C91.951 39.34 91.4416 37.4 91.4416 35.32C91.4416 29.16 95.875 24 101.5 24C107.125 24 111.558 29.16 111.558 35.32C111.558 37.4 111.049 39.34 110.161 41.02C110.045 41.23 110.283 41.51 110.517 41.42C111.519 41.07 112.589 40.87 113.699 40.87C119.388 40.87 124 45.94 124 52.2C124 58.45 119.388 63.52 113.699 63.52C113.631 63.52 113.563 63.52 113.495 63.52L113.393 63.51C108.154 63.64 106.004 60.09 104.427 57.55C104.138 57.08 103.352 57.29 103.418 57.83C104.03 62.88 107.092 69.3399 107.092 71.0699C107.092 71.5799 106.675 72 106.16 72H96.84Z" fill="black"/>
<path d="M96.84 168C96.325 168 95.9075 167.58 95.9075 167.07C95.9075 165.34 98.9696 158.88 99.5817 153.83C99.6476 153.29 98.8615 153.08 98.5725 153.55C96.9958 156.09 94.8456 159.64 89.6068 159.51L89.5051 159.52C89.4372 159.52 89.3693 159.52 89.3008 159.52C83.6117 159.52 79 154.45 79 148.2C79 141.94 83.6117 136.87 89.3008 136.87C90.4114 136.87 91.4808 137.07 92.483 137.42C92.7167 137.51 92.9551 137.23 92.8388 137.02C91.951 135.34 91.4416 133.4 91.4416 131.32C91.4416 125.16 95.875 120 101.5 120C107.125 120 111.558 125.16 111.558 131.32C111.558 133.4 111.049 135.34 110.161 137.02C110.045 137.23 110.283 137.51 110.517 137.42C111.519 137.07 112.589 136.87 113.699 136.87C119.388 136.87 124 141.94 124 148.2C124 154.45 119.388 159.52 113.699 159.52C113.631 159.52 113.563 159.52 113.495 159.52L113.393 159.51C108.154 159.64 106.004 156.09 104.427 153.55C104.138 153.08 103.352 153.29 103.418 153.83C104.03 158.88 107.092 165.34 107.092 167.07C107.092 167.58 106.675 168 106.16 168H96.84Z" fill="black"/>
<path d="M96.84 216C96.325 216 95.9075 216.42 95.9075 216.93C95.9075 218.66 98.9696 225.12 99.5817 230.17C99.6476 230.71 98.8615 230.92 98.5725 230.45C96.9958 227.91 94.8456 224.36 89.6068 224.49L89.5051 224.48C89.4372 224.48 89.3693 224.48 89.3008 224.48C83.6117 224.48 79 229.55 79 235.8C79 242.06 83.6117 247.13 89.3008 247.13C90.4114 247.13 91.4808 246.93 92.483 246.58C92.7167 246.49 92.9551 246.77 92.8388 246.98C91.951 248.66 91.4416 250.6 91.4416 252.68C91.4416 258.84 95.875 264 101.5 264C107.125 264 111.558 258.84 111.558 252.68C111.558 250.6 111.049 248.66 110.161 246.98C110.045 246.77 110.283 246.49 110.517 246.58C111.519 246.93 112.589 247.13 113.699 247.13C119.388 247.13 124 242.06 124 235.8C124 229.55 119.388 224.48 113.699 224.48C113.631 224.48 113.563 224.48 113.495 224.48L113.393 224.49C108.154 224.36 106.004 227.91 104.427 230.45C104.138 230.92 103.352 230.71 103.418 230.17C104.03 225.12 107.092 218.66 107.092 216.93C107.092 216.42 106.675 216 106.16 216H96.84Z" fill="black"/>
</g>
</svg>
