<svg width="203" height="288" viewBox="0 0 203 288" fill="none" xmlns="http://www.w3.org/2000/svg">
<mask id="mask0_1863_3" style="mask-type:luminance" maskUnits="userSpaceOnUse" x="0" y="0" width="203" height="288">
<path d="M193 0H10C4.47715 0 0 4.47715 0 10V278C0 283.523 4.47715 288 10 288H193C198.523 288 203 283.523 203 278V10C203 4.47715 198.523 0 193 0Z" fill="white"/>
</mask>
<g mask="url(#mask0_1863_3)">
<path d="M193 0H10C4.47715 0 0 4.47715 0 10V278C0 283.523 4.47715 288 10 288H193C198.523 288 203 283.523 203 278V10C203 4.47715 198.523 0 193 0Z" fill="white"/>
<path d="M9.23193 38.1382C9.23193 37.4175 9.57227 36.8569 10.7534 35.5156L19.0815 25.9863C21.3438 23.4038 22.2046 21.7222 22.2046 19.8403C22.2046 17.0176 20.1826 15.1357 17.1396 15.1357C14.5571 15.1357 12.6553 16.6772 12.0547 19.2798C11.7744 20.3408 11.2139 20.8813 10.3931 20.8813C9.41211 20.8813 8.77148 20.1406 8.77148 19.0596C8.77148 15.6562 12.0747 12.0928 17.3599 12.0928C22.2847 12.0928 25.748 15.2158 25.748 19.6201C25.748 22.2227 24.7271 24.1245 21.1235 28.2285L13.7163 36.6968V36.937H24.8271C25.8882 36.937 26.5688 37.5176 26.5688 38.4785C26.5688 39.4194 25.9282 40 24.8271 40H11.6143C10.1528 40 9.23193 39.2993 9.23193 38.1382Z" fill="#FF0000"/>
<path d="M18.1801 48.104C18.1038 47.9653 17.8962 47.9653 17.8199 48.104C15.5263 52.2724 13.8722 54.4782 10.5553 57.8648C10.4816 57.9401 10.4816 58.0599 10.5553 58.1352C13.8722 61.5218 15.5263 63.7276 17.8199 67.896C17.8962 68.0347 18.1038 68.0347 18.1801 67.896C20.4737 63.7276 22.1278 61.5218 25.4447 58.1352C25.5184 58.0599 25.5184 57.9401 25.4447 57.8648C22.1278 54.4782 20.4737 52.2724 18.1801 48.104Z" fill="#FF0000"/>
<path d="M193.768 249.862C193.768 250.583 193.428 251.143 192.247 252.484L183.918 262.014C181.656 264.596 180.795 266.278 180.795 268.16C180.795 270.982 182.817 272.864 185.86 272.864C188.443 272.864 190.345 271.323 190.945 268.72C191.226 267.659 191.786 267.119 192.607 267.119C193.588 267.119 194.229 267.859 194.229 268.94C194.229 272.344 190.925 275.907 185.64 275.907C180.715 275.907 177.252 272.784 177.252 268.38C177.252 265.777 178.273 263.875 181.876 259.771L189.284 251.303V251.063H178.173C177.112 251.063 176.431 250.482 176.431 249.521C176.431 248.581 177.072 248 178.173 248H191.386C192.847 248 193.768 248.701 193.768 249.862Z" fill="#FF0000"/>
<path d="M184.82 239.896C184.896 240.035 185.104 240.035 185.18 239.896C187.474 235.728 189.128 233.522 192.445 230.135C192.518 230.06 192.518 229.94 192.445 229.865C189.128 226.478 187.474 224.272 185.18 220.104C185.104 219.965 184.896 219.965 184.82 220.104C182.526 224.272 180.872 226.478 177.555 229.865C177.482 229.94 177.482 230.06 177.555 230.135C180.872 233.522 182.526 235.728 184.82 239.896Z" fill="#FF0000"/>
<path d="M101.95 23.2599C101.759 22.9134 101.241 22.9134 101.05 23.2599C95.3158 33.6809 91.1805 39.1955 82.8882 47.6621C82.7039 47.8503 82.7039 48.1498 82.8882 48.338C91.1805 56.8045 95.3158 62.3191 101.05 72.7401C101.241 73.0866 101.759 73.0866 101.95 72.7401C107.684 62.3191 111.819 56.8045 120.112 48.338C120.296 48.1498 120.296 47.8503 120.112 47.6621C111.819 39.1955 107.684 33.6809 101.95 23.2599Z" fill="#FF0000"/>
<path d="M101.95 215.26C101.759 214.913 101.241 214.913 101.05 215.26C95.3158 225.681 91.1805 231.196 82.8882 239.662C82.7039 239.85 82.7039 240.15 82.8882 240.338C91.1805 248.804 95.3158 254.319 101.05 264.74C101.241 265.087 101.759 265.087 101.95 264.74C107.684 254.319 111.819 248.804 120.112 240.338C120.296 240.15 120.296 239.85 120.112 239.662C111.819 231.196 107.684 225.681 101.95 215.26Z" fill="#FF0000"/>
</g>
</svg>
