<svg width="203" height="288" viewBox="0 0 203 288" fill="none" xmlns="http://www.w3.org/2000/svg">
<mask id="mask0_1865_707" style="mask-type:luminance" maskUnits="userSpaceOnUse" x="0" y="0" width="203" height="288">
<path d="M193 0H10C4.47715 0 0 4.47715 0 10V278C0 283.523 4.47715 288 10 288H193C198.523 288 203 283.523 203 278V10C203 4.47715 198.523 0 193 0Z" fill="white"/>
</mask>
<g mask="url(#mask0_1865_707)">
<path d="M193 0H10C4.47715 0 0 4.47715 0 10V278C0 283.523 4.47715 288 10 288H193C198.523 288 203 283.523 203 278V10C203 4.47715 198.523 0 193 0Z" fill="white"/>
<path d="M25.8081 43.0229C25.0273 43.0229 24.4868 42.6626 23.8062 41.7417L22.2646 39.6196C20.8833 40.2402 19.3018 40.5806 17.5 40.5806C10.5933 40.5806 6.56934 35.9961 6.56934 28.4888V24.4648C6.56934 16.8374 10.7734 12.0928 17.5 12.0928C24.1265 12.0928 28.4507 16.8374 28.4507 24.4648V28.4888C28.4507 32.7729 27.1895 35.856 24.9873 37.8379L26.4888 39.8999C27.0293 40.6606 27.2295 41.041 27.2295 41.5415C27.2295 42.3022 26.689 43.0229 25.8081 43.0229ZM10.0527 28.5288C10.0527 34.1143 12.9155 37.4775 17.48 37.4775C18.481 37.4775 19.4419 37.2974 20.3228 36.937L19.1616 35.3755C18.7212 34.7749 18.3809 34.2344 18.3809 33.6538C18.3809 32.793 19.0415 32.1323 19.9023 32.1323C20.4429 32.1323 20.9834 32.4326 21.604 33.2935L22.9053 35.0952C24.1665 33.6138 24.9473 31.7119 24.9473 28.5288V24.4648C24.9473 18.7593 21.7241 15.2358 17.5 15.2358C12.9155 15.2358 10.0527 18.7593 10.0527 24.4648V28.5288Z" fill="#FF0000"/>
<path d="M18.1801 48.104C18.1038 47.9653 17.8962 47.9653 17.8199 48.104C15.5263 52.2724 13.8722 54.4782 10.5553 57.8648C10.4816 57.9401 10.4816 58.0599 10.5553 58.1352C13.8722 61.5218 15.5263 63.7276 17.8199 67.896C17.8962 68.0347 18.1038 68.0347 18.1801 67.896C20.4737 63.7276 22.1278 61.5218 25.4447 58.1352C25.5184 58.0599 25.5184 57.9401 25.4447 57.8648C22.1278 54.4782 20.4737 52.2724 18.1801 48.104Z" fill="#FF0000"/>
<path d="M177.192 244.977C177.973 244.977 178.513 245.337 179.194 246.258L180.735 248.38C182.117 247.76 183.698 247.419 185.5 247.419C192.407 247.419 196.431 252.004 196.431 259.511V263.535C196.431 271.163 192.227 275.907 185.5 275.907C178.874 275.907 174.549 271.163 174.549 263.535V259.511C174.549 255.227 175.811 252.144 178.013 250.162L176.511 248.1C175.971 247.339 175.771 246.959 175.771 246.458C175.771 245.698 176.311 244.977 177.192 244.977ZM192.947 259.471C192.947 253.886 190.084 250.522 185.52 250.522C184.519 250.522 183.558 250.703 182.677 251.063L183.838 252.625C184.279 253.225 184.619 253.766 184.619 254.346C184.619 255.207 183.958 255.868 183.098 255.868C182.557 255.868 182.017 255.567 181.396 254.707L180.095 252.905C178.833 254.386 178.053 256.288 178.053 259.471V263.535C178.053 269.241 181.276 272.764 185.5 272.764C190.084 272.764 192.947 269.241 192.947 263.535V259.471Z" fill="#FF0000"/>
<path d="M184.82 239.896C184.896 240.035 185.104 240.035 185.18 239.896C187.474 235.728 189.128 233.522 192.445 230.135C192.518 230.06 192.518 229.94 192.445 229.865C189.128 226.478 187.474 224.272 185.18 220.104C185.104 219.965 184.896 219.965 184.82 220.104C182.526 224.272 180.872 226.478 177.555 229.865C177.482 229.94 177.482 230.06 177.555 230.135C180.872 233.522 182.526 235.728 184.82 239.896Z" fill="#FF0000"/>
</g>
</svg>
