<svg width="203" height="288" viewBox="0 0 203 288" fill="none" xmlns="http://www.w3.org/2000/svg">
<mask id="mask0_1865_503" style="mask-type:luminance" maskUnits="userSpaceOnUse" x="0" y="0" width="203" height="288">
<path d="M193 0H10C4.47715 0 0 4.47715 0 10V278C0 283.523 4.47715 288 10 288H193C198.523 288 203 283.523 203 278V10C203 4.47715 198.523 0 193 0Z" fill="white"/>
</mask>
<g mask="url(#mask0_1865_503)">
<path d="M193 0H10C4.47715 0 0 4.47715 0 10V278C0 283.523 4.47715 288 10 288H193C198.523 288 203 283.523 203 278V10C203 4.47715 198.523 0 193 0Z" fill="white"/>
<path d="M7.47852 40.2002C6.39747 40.2002 5.73682 39.4595 5.73682 38.2783V14.395C5.73682 13.2139 6.39747 12.4731 7.47852 12.4731C8.55958 12.4731 9.24024 13.2139 9.24024 14.395V38.2783C9.24024 39.4595 8.55958 40.2002 7.47852 40.2002ZM10.2452 26.8672V25.8662C10.2452 17.5781 13.7887 12.0928 19.9747 12.0928C26.1607 12.0928 29.6842 17.5781 29.6842 25.8662V26.8672C29.6842 35.1353 26.1407 40.5806 19.9547 40.5806C13.7887 40.5806 10.2452 35.1553 10.2452 26.8672ZM13.7486 25.8862V26.8271C13.7486 33.4937 16.131 37.5576 19.9747 37.5576C23.8185 37.5576 26.2008 33.4937 26.2008 26.8271V25.8862C26.2008 19.2197 23.7984 15.1357 19.9547 15.1357C16.131 15.1357 13.7486 19.2197 13.7486 25.8862Z" fill="#FF0000"/>
<path d="M18.1801 48.104C18.1038 47.9653 17.8962 47.9653 17.8199 48.104C15.5263 52.2724 13.8722 54.4782 10.5553 57.8648C10.4816 57.9401 10.4816 58.0599 10.5553 58.1352C13.8722 61.5218 15.5263 63.7276 17.8199 67.896C17.8962 68.0347 18.1038 68.0347 18.1801 67.896C20.4737 63.7276 22.1278 61.5218 25.4447 58.1352C25.5184 58.0599 25.5184 57.9401 25.4447 57.8648C22.1278 54.4782 20.4737 52.2724 18.1801 48.104Z" fill="#FF0000"/>
<path d="M195.521 247.8C196.602 247.8 197.263 248.541 197.263 249.722V273.605C197.263 274.786 196.602 275.527 195.521 275.527C194.44 275.527 193.76 274.786 193.76 273.605V249.722C193.76 248.541 194.44 247.8 195.521 247.8ZM192.755 261.133V262.134C192.755 270.422 189.211 275.907 183.025 275.907C176.839 275.907 173.316 270.422 173.316 262.134V261.133C173.316 252.865 176.859 247.419 183.045 247.419C189.211 247.419 192.755 252.845 192.755 261.133ZM189.251 262.114V261.173C189.251 254.506 186.869 250.442 183.025 250.442C179.181 250.442 176.799 254.506 176.799 261.173V262.114C176.799 268.78 179.201 272.864 183.045 272.864C186.869 272.864 189.251 268.78 189.251 262.114Z" fill="#FF0000"/>
<path d="M184.82 239.896C184.896 240.035 185.104 240.035 185.18 239.896C187.474 235.728 189.128 233.522 192.445 230.135C192.518 230.06 192.518 229.94 192.445 229.865C189.128 226.478 187.474 224.272 185.18 220.104C185.104 219.965 184.896 219.965 184.82 220.104C182.526 224.272 180.872 226.478 177.555 229.865C177.482 229.94 177.482 230.06 177.555 230.135C180.872 233.522 182.526 235.728 184.82 239.896Z" fill="#FF0000"/>
<path d="M57.9501 23.2599C57.7594 22.9134 57.2406 22.9134 57.0499 23.2599C51.3158 33.6809 47.1805 39.1955 38.8882 47.6621C38.7039 47.8503 38.7039 48.1498 38.8882 48.338C47.1805 56.8045 51.3158 62.3191 57.0499 72.7401C57.2406 73.0866 57.7594 73.0866 57.9501 72.7401C63.6842 62.3191 67.8195 56.8045 76.1118 48.338C76.2961 48.1498 76.2961 47.8503 76.1118 47.6621C67.8195 39.1955 63.6842 33.6809 57.9501 23.2599Z" fill="#FF0000"/>
<path d="M57.9501 215.26C57.7594 214.913 57.2406 214.913 57.0499 215.26C51.3158 225.681 47.1805 231.196 38.8882 239.662C38.7039 239.85 38.7039 240.15 38.8882 240.338C47.1805 248.804 51.3158 254.319 57.0499 264.74C57.2406 265.087 57.7594 265.087 57.9501 264.74C63.6842 254.319 67.8195 248.804 76.1118 240.338C76.2961 240.15 76.2961 239.85 76.1118 239.662C67.8195 231.196 63.6842 225.681 57.9501 215.26Z" fill="#FF0000"/>
<path d="M145.95 23.2599C145.759 22.9134 145.241 22.9134 145.05 23.2599C139.316 33.6809 135.181 39.1955 126.888 47.6621C126.704 47.8503 126.704 48.1498 126.888 48.338C135.181 56.8045 139.316 62.3191 145.05 72.7401C145.241 73.0866 145.759 73.0866 145.95 72.7401C151.684 62.3191 155.819 56.8045 164.112 48.338C164.296 48.1498 164.296 47.8503 164.112 47.6621C155.819 39.1955 151.684 33.6809 145.95 23.2599Z" fill="#FF0000"/>
<path d="M57.9501 87.2599C57.7594 86.9134 57.2406 86.9134 57.0499 87.2599C51.3158 97.6809 47.1805 103.196 38.8882 111.662C38.7039 111.85 38.7039 112.15 38.8882 112.338C47.1805 120.804 51.3158 126.319 57.0499 136.74C57.2406 137.087 57.7594 137.087 57.9501 136.74C63.6842 126.319 67.8195 120.804 76.1118 112.338C76.2961 112.15 76.2961 111.85 76.1118 111.662C67.8195 103.196 63.6842 97.6809 57.9501 87.2599Z" fill="#FF0000"/>
<path d="M57.9501 151.26C57.7594 150.913 57.2406 150.913 57.0499 151.26C51.3158 161.681 47.1805 167.196 38.8882 175.662C38.7039 175.85 38.7039 176.15 38.8882 176.338C47.1805 184.804 51.3158 190.319 57.0499 200.74C57.2406 201.087 57.7594 201.087 57.9501 200.74C63.6842 190.319 67.8195 184.804 76.1118 176.338C76.2961 176.15 76.2961 175.85 76.1118 175.662C67.8195 167.196 63.6842 161.681 57.9501 151.26Z" fill="#FF0000"/>
<path d="M145.95 87.2599C145.759 86.9134 145.241 86.9134 145.05 87.2599C139.316 97.6809 135.181 103.196 126.888 111.662C126.704 111.85 126.704 112.15 126.888 112.338C135.181 120.804 139.316 126.319 145.05 136.74C145.241 137.087 145.759 137.087 145.95 136.74C151.684 126.319 155.819 120.804 164.112 112.338C164.296 112.15 164.296 111.85 164.112 111.662C155.819 103.196 151.684 97.6809 145.95 87.2599Z" fill="#FF0000"/>
<path d="M101.95 55.2599C101.759 54.9134 101.241 54.9134 101.05 55.2599C95.3158 65.6809 91.1805 71.1955 82.8882 79.6621C82.7039 79.8503 82.7039 80.1498 82.8882 80.338C91.1805 88.8045 95.3158 94.3191 101.05 104.74C101.241 105.087 101.759 105.087 101.95 104.74C107.684 94.3191 111.819 88.8045 120.112 80.338C120.296 80.1498 120.296 79.8503 120.112 79.6621C111.819 71.1955 107.684 65.6809 101.95 55.2599Z" fill="#FF0000"/>
<path d="M101.95 183.26C101.759 182.913 101.241 182.913 101.05 183.26C95.3158 193.681 91.1805 199.196 82.8882 207.662C82.7039 207.85 82.7039 208.15 82.8882 208.338C91.1805 216.804 95.3158 222.319 101.05 232.74C101.241 233.087 101.759 233.087 101.95 232.74C107.684 222.319 111.819 216.804 120.112 208.338C120.296 208.15 120.296 207.85 120.112 207.662C111.819 199.196 107.684 193.681 101.95 183.26Z" fill="#FF0000"/>
<path d="M145.95 151.26C145.759 150.913 145.241 150.913 145.05 151.26C139.316 161.681 135.181 167.196 126.888 175.662C126.704 175.85 126.704 176.15 126.888 176.338C135.181 184.804 139.316 190.319 145.05 200.74C145.241 201.087 145.759 201.087 145.95 200.74C151.684 190.319 155.819 184.804 164.112 176.338C164.296 176.15 164.296 175.85 164.112 175.662C155.819 167.196 151.684 161.681 145.95 151.26Z" fill="#FF0000"/>
<path d="M145.95 215.26C145.759 214.913 145.241 214.913 145.05 215.26C139.316 225.681 135.181 231.196 126.888 239.662C126.704 239.85 126.704 240.15 126.888 240.338C135.181 248.804 139.316 254.319 145.05 264.74C145.241 265.087 145.759 265.087 145.95 264.74C151.684 254.319 155.819 248.804 164.112 240.338C164.296 240.15 164.296 239.85 164.112 239.662C155.819 231.196 151.684 225.681 145.95 215.26Z" fill="#FF0000"/>
</g>
</svg>
