<svg width="203" height="288" viewBox="0 0 203 288" fill="none" xmlns="http://www.w3.org/2000/svg">
<mask id="mask0_1865_665" style="mask-type:luminance" maskUnits="userSpaceOnUse" x="0" y="0" width="203" height="288">
<path d="M193 0H10C4.47715 0 0 4.47715 0 10V278C0 283.523 4.47715 288 10 288H193C198.523 288 203 283.523 203 278V10C203 4.47715 198.523 0 193 0Z" fill="white"/>
</mask>
<g mask="url(#mask0_1865_665)">
<path d="M193 0H10C4.47715 0 0 4.47715 0 10V278C0 283.523 4.47715 288 10 288H193C198.523 288 203 283.523 203 278V10C203 4.47715 198.523 0 193 0Z" fill="white"/>
<path d="M19.9229 14.415C19.9229 13.2139 20.5835 12.4731 21.6646 12.4731C22.7456 12.4731 23.4263 13.2139 23.4263 14.415V32.1924C23.4263 37.3774 20.4233 40.5806 15.5986 40.5806C12.9961 40.5806 10.9341 39.7998 9.5127 38.3184C8.5918 37.3574 8.03125 36.1562 8.03125 35.0752C8.03125 34.0342 8.5918 33.3936 9.49268 33.3936C10.1934 33.3936 10.5737 33.7339 11.0942 34.7549C11.9551 36.5166 13.4365 37.4375 15.4585 37.4375C18.2812 37.4375 19.9229 35.5757 19.9229 32.3325V14.415Z" fill="#FF0000"/>
<path d="M18.1801 48.104C18.1038 47.9653 17.8962 47.9653 17.8199 48.104C15.5263 52.2724 13.8722 54.4782 10.5553 57.8648C10.4816 57.9401 10.4816 58.0599 10.5553 58.1352C13.8722 61.5218 15.5263 63.7276 17.8199 67.896C17.8962 68.0347 18.1038 68.0347 18.1801 67.896C20.4737 63.7276 22.1278 61.5218 25.4447 58.1352C25.5184 58.0599 25.5184 57.9401 25.4447 57.8648C22.1278 54.4782 20.4737 52.2724 18.1801 48.104Z" fill="#FF0000"/>
<path d="M183.077 273.585C183.077 274.786 182.417 275.527 181.335 275.527C180.254 275.527 179.574 274.786 179.574 273.585V255.808C179.574 250.623 182.577 247.419 187.401 247.419C190.004 247.419 192.066 248.2 193.487 249.682C194.408 250.643 194.969 251.844 194.969 252.925C194.969 253.966 194.408 254.606 193.507 254.606C192.807 254.606 192.426 254.266 191.906 253.245C191.045 251.483 189.563 250.562 187.542 250.562C184.719 250.562 183.077 252.424 183.077 255.667V273.585Z" fill="#FF0000"/>
<path d="M184.82 239.896C184.896 240.035 185.104 240.035 185.18 239.896C187.474 235.728 189.128 233.522 192.445 230.135C192.518 230.06 192.518 229.94 192.445 229.865C189.128 226.478 187.474 224.272 185.18 220.104C185.104 219.965 184.896 219.965 184.82 220.104C182.526 224.272 180.872 226.478 177.555 229.865C177.482 229.94 177.482 230.06 177.555 230.135C180.872 233.522 182.526 235.728 184.82 239.896Z" fill="#FF0000"/>
</g>
</svg>
