<svg width="203" height="288" viewBox="0 0 203 288" fill="none" xmlns="http://www.w3.org/2000/svg">
<mask id="mask0_1865_293" style="mask-type:luminance" maskUnits="userSpaceOnUse" x="0" y="0" width="203" height="288">
<path d="M193 0H10C4.47715 0 0 4.47715 0 10V278C0 283.523 4.47715 288 10 288H193C198.523 288 203 283.523 203 278V10C203 4.47715 198.523 0 193 0Z" fill="white"/>
</mask>
<g mask="url(#mask0_1865_293)">
<path d="M193 0H10C4.47715 0 0 4.47715 0 10V278C0 283.523 4.47715 288 10 288H193C198.523 288 203 283.523 203 278V10C203 4.47715 198.523 0 193 0Z" fill="white"/>
<path d="M11.5347 38.7588C11.5347 38.3184 11.6748 37.938 11.895 37.4976L22.0049 15.9365V15.7363H9.59277C8.35156 15.7363 7.75098 15.0957 7.75098 14.2148C7.75098 13.314 8.35156 12.6733 9.59277 12.6733H23.8467C24.8877 12.6733 25.7485 13.394 25.7485 14.5752C25.7485 15.1357 25.4683 16.0566 25.0278 16.9976L14.8179 39.0391C14.4375 39.8398 13.957 40.3203 13.1162 40.3203C12.2954 40.3203 11.5347 39.6997 11.5347 38.7588Z" fill="#FF0000"/>
<path d="M18.1801 48.104C18.1038 47.9653 17.8962 47.9653 17.8199 48.104C15.5263 52.2724 13.8722 54.4782 10.5553 57.8648C10.4816 57.9401 10.4816 58.0599 10.5553 58.1352C13.8722 61.5218 15.5263 63.7276 17.8199 67.896C17.8962 68.0347 18.1038 68.0347 18.1801 67.896C20.4737 63.7276 22.1278 61.5218 25.4447 58.1352C25.5184 58.0599 25.5184 57.9401 25.4447 57.8648C22.1278 54.4782 20.4737 52.2724 18.1801 48.104Z" fill="#FF0000"/>
<path d="M191.465 249.241C191.465 249.682 191.325 250.062 191.105 250.502L180.995 272.063V272.264H193.407C194.648 272.264 195.249 272.904 195.249 273.785C195.249 274.686 194.648 275.327 193.407 275.327H179.153C178.112 275.327 177.251 274.606 177.251 273.425C177.251 272.864 177.532 271.943 177.972 271.002L188.182 248.961C188.563 248.16 189.043 247.68 189.884 247.68C190.705 247.68 191.465 248.3 191.465 249.241Z" fill="#FF0000"/>
<path d="M184.82 239.896C184.896 240.035 185.104 240.035 185.18 239.896C187.474 235.728 189.128 233.522 192.445 230.135C192.518 230.06 192.518 229.94 192.445 229.865C189.128 226.478 187.474 224.272 185.18 220.104C185.104 219.965 184.896 219.965 184.82 220.104C182.526 224.272 180.872 226.478 177.555 229.865C177.482 229.94 177.482 230.06 177.555 230.135C180.872 233.522 182.526 235.728 184.82 239.896Z" fill="#FF0000"/>
<path d="M57.9501 23.2599C57.7594 22.9134 57.2406 22.9134 57.0499 23.2599C51.3158 33.6809 47.1805 39.1955 38.8882 47.6621C38.7039 47.8503 38.7039 48.1498 38.8882 48.338C47.1805 56.8045 51.3158 62.3191 57.0499 72.7401C57.2406 73.0866 57.7594 73.0866 57.9501 72.7401C63.6842 62.3191 67.8195 56.8045 76.1118 48.338C76.2961 48.1498 76.2961 47.8503 76.1118 47.6621C67.8195 39.1955 63.6842 33.6809 57.9501 23.2599Z" fill="#FF0000"/>
<path d="M57.9501 215.26C57.7594 214.913 57.2406 214.913 57.0499 215.26C51.3158 225.681 47.1805 231.196 38.8882 239.662C38.7039 239.85 38.7039 240.15 38.8882 240.338C47.1805 248.804 51.3158 254.319 57.0499 264.74C57.2406 265.087 57.7594 265.087 57.9501 264.74C63.6842 254.319 67.8195 248.804 76.1118 240.338C76.2961 240.15 76.2961 239.85 76.1118 239.662C67.8195 231.196 63.6842 225.681 57.9501 215.26Z" fill="#FF0000"/>
<path d="M145.95 23.2599C145.759 22.9134 145.241 22.9134 145.05 23.2599C139.316 33.6809 135.181 39.1955 126.888 47.6621C126.704 47.8503 126.704 48.1498 126.888 48.338C135.181 56.8045 139.316 62.3191 145.05 72.7401C145.241 73.0866 145.759 73.0866 145.95 72.7401C151.684 62.3191 155.819 56.8045 164.112 48.338C164.296 48.1498 164.296 47.8503 164.112 47.6621C155.819 39.1955 151.684 33.6809 145.95 23.2599Z" fill="#FF0000"/>
<path d="M57.9501 119.26C57.7594 118.913 57.2406 118.913 57.0499 119.26C51.3158 129.681 47.1805 135.196 38.8882 143.662C38.7039 143.85 38.7039 144.15 38.8882 144.338C47.1805 152.804 51.3158 158.319 57.0499 168.74C57.2406 169.087 57.7594 169.087 57.9501 168.74C63.6842 158.319 67.8195 152.804 76.1118 144.338C76.2961 144.15 76.2961 143.85 76.1118 143.662C67.8195 135.196 63.6842 129.681 57.9501 119.26Z" fill="#FF0000"/>
<path d="M101.95 71.2599C101.759 70.9134 101.241 70.9134 101.05 71.2599C95.3158 81.6809 91.1805 87.1955 82.8882 95.6621C82.7039 95.8503 82.7039 96.1498 82.8882 96.338C91.1805 104.804 95.3158 110.319 101.05 120.74C101.241 121.087 101.759 121.087 101.95 120.74C107.684 110.319 111.819 104.804 120.112 96.338C120.296 96.1498 120.296 95.8503 120.112 95.6621C111.819 87.1955 107.684 81.6809 101.95 71.2599Z" fill="#FF0000"/>
<path d="M145.95 119.26C145.759 118.913 145.241 118.913 145.05 119.26C139.316 129.681 135.181 135.196 126.888 143.662C126.704 143.85 126.704 144.15 126.888 144.338C135.181 152.804 139.316 158.319 145.05 168.74C145.241 169.087 145.759 169.087 145.95 168.74C151.684 158.319 155.819 152.804 164.112 144.338C164.296 144.15 164.296 143.85 164.112 143.662C155.819 135.196 151.684 129.681 145.95 119.26Z" fill="#FF0000"/>
<path d="M145.95 215.26C145.759 214.913 145.241 214.913 145.05 215.26C139.316 225.681 135.181 231.196 126.888 239.662C126.704 239.85 126.704 240.15 126.888 240.338C135.181 248.804 139.316 254.319 145.05 264.74C145.241 265.087 145.759 265.087 145.95 264.74C151.684 254.319 155.819 248.804 164.112 240.338C164.296 240.15 164.296 239.85 164.112 239.662C155.819 231.196 151.684 225.681 145.95 215.26Z" fill="#FF0000"/>
</g>
</svg>
