<svg width="203" height="288" viewBox="0 0 203 288" fill="none" xmlns="http://www.w3.org/2000/svg">
<mask id="mask0_1865_749" style="mask-type:luminance" maskUnits="userSpaceOnUse" x="0" y="0" width="203" height="288">
<path d="M193 0H10C4.47715 0 0 4.47715 0 10V278C0 283.523 4.47715 288 10 288H193C198.523 288 203 283.523 203 278V10C203 4.47715 198.523 0 193 0Z" fill="white"/>
</mask>
<g mask="url(#mask0_1865_749)">
<path d="M193 0H10C4.47715 0 0 4.47715 0 10V278C0 283.523 4.47715 288 10 288H193C198.523 288 203 283.523 203 278V10C203 4.47715 198.523 0 193 0Z" fill="white"/>
<path d="M25.7485 40.0601C25.0479 40.0601 24.4473 39.6597 23.7466 38.6787L15.3584 26.8071L11.915 30.3706V38.2783C11.915 39.4595 11.2344 40.2002 10.1533 40.2002C9.07227 40.2002 8.41162 39.4595 8.41162 38.2783V14.395C8.41162 13.2139 9.07227 12.4731 10.1533 12.4731C11.2344 12.4731 11.915 13.2139 11.915 14.395V25.8462H12.0752L23.4663 13.6943C24.207 12.8735 24.6675 12.6133 25.248 12.6133C26.1289 12.6133 26.7896 13.2939 26.7896 14.1348C26.7896 14.6553 26.6294 14.9556 25.8286 15.7964L17.9609 24.4048L26.5293 36.2964C27.3701 37.4575 27.5503 37.8179 27.5503 38.3384C27.5503 39.3594 26.8096 40.0601 25.7485 40.0601Z" fill="#FF0000"/>
<path d="M18.1801 48.104C18.1038 47.9653 17.8962 47.9653 17.8199 48.104C15.5263 52.2724 13.8722 54.4782 10.5553 57.8648C10.4816 57.9401 10.4816 58.0599 10.5553 58.1352C13.8722 61.5218 15.5263 63.7276 17.8199 67.896C17.8962 68.0347 18.1038 68.0347 18.1801 67.896C20.4737 63.7276 22.1278 61.5218 25.4447 58.1352C25.5184 58.0599 25.5184 57.9401 25.4447 57.8648C22.1278 54.4782 20.4737 52.2724 18.1801 48.104Z" fill="#FF0000"/>
<path d="M177.251 247.94C177.952 247.94 178.553 248.34 179.253 249.321L187.642 261.193L191.085 257.629V249.722C191.085 248.541 191.766 247.8 192.847 247.8C193.928 247.8 194.588 248.541 194.588 249.722V273.605C194.588 274.786 193.928 275.527 192.847 275.527C191.766 275.527 191.085 274.786 191.085 273.605V262.154H190.925L179.534 274.306C178.793 275.126 178.333 275.387 177.752 275.387C176.871 275.387 176.21 274.706 176.21 273.865C176.21 273.345 176.371 273.044 177.171 272.204L185.039 263.595L176.471 251.704C175.63 250.542 175.45 250.182 175.45 249.662C175.45 248.641 176.19 247.94 177.251 247.94Z" fill="#FF0000"/>
<path d="M184.82 239.896C184.896 240.035 185.104 240.035 185.18 239.896C187.474 235.728 189.128 233.522 192.445 230.135C192.518 230.06 192.518 229.94 192.445 229.865C189.128 226.478 187.474 224.272 185.18 220.104C185.104 219.965 184.896 219.965 184.82 220.104C182.526 224.272 180.872 226.478 177.555 229.865C177.482 229.94 177.482 230.06 177.555 230.135C180.872 233.522 182.526 235.728 184.82 239.896Z" fill="#FF0000"/>
</g>
</svg>
