<svg width="203" height="288" viewBox="0 0 203 288" fill="none" xmlns="http://www.w3.org/2000/svg">
<mask id="mask0_1865_429" style="mask-type:luminance" maskUnits="userSpaceOnUse" x="0" y="0" width="203" height="288">
<path d="M193 0H10C4.47715 0 0 4.47715 0 10V278C0 283.523 4.47715 288 10 288H193C198.523 288 203 283.523 203 278V10C203 4.47715 198.523 0 193 0Z" fill="white"/>
</mask>
<g mask="url(#mask0_1865_429)">
<path d="M193 0H10C4.47715 0 0 4.47715 0 10V278C0 283.523 4.47715 288 10 288H193C198.523 288 203 283.523 203 278V10C203 4.47715 198.523 0 193 0Z" fill="white"/>
<path d="M8.95166 35.936C8.95166 35.0352 9.57227 34.4546 10.4331 34.4546C10.9736 34.4546 11.394 34.6948 12.1348 35.4155C13.5962 36.8569 15.0776 37.5176 16.9194 37.5176C21.4438 37.5176 23.7461 33.3735 23.7461 26.1665H23.5659C22.5649 28.8691 20.0024 30.4907 16.7393 30.4907C11.6143 30.4907 8.05078 26.7271 8.05078 21.3218C8.05078 15.7563 11.8345 12.0527 17.52 12.0527C23.7861 12.0527 27.1294 16.9375 27.1294 26.0063C27.1294 35.5557 23.666 40.5205 16.9795 40.5205C14.7773 40.5205 12.6953 39.96 11.1338 38.939C9.79248 38.0581 8.95166 36.937 8.95166 35.936ZM23.1455 21.4019C23.1455 17.6582 20.7832 15.0957 17.3198 15.0957C13.8765 15.0957 11.5142 17.6582 11.5142 21.3818C11.5142 25.0254 13.8364 27.4678 17.3198 27.4678C20.8232 27.4678 23.1455 25.0454 23.1455 21.4019Z" fill="#FF0000"/>
<path d="M18.1801 48.104C18.1038 47.9653 17.8962 47.9653 17.8199 48.104C15.5263 52.2724 13.8722 54.4782 10.5553 57.8648C10.4816 57.9401 10.4816 58.0599 10.5553 58.1352C13.8722 61.5218 15.5263 63.7276 17.8199 67.896C17.8962 68.0347 18.1038 68.0347 18.1801 67.896C20.4737 63.7276 22.1278 61.5218 25.4447 58.1352C25.5184 58.0599 25.5184 57.9401 25.4447 57.8648C22.1278 54.4782 20.4737 52.2724 18.1801 48.104Z" fill="#FF0000"/>
<path d="M194.048 252.064C194.048 252.965 193.428 253.545 192.567 253.545C192.026 253.545 191.606 253.305 190.865 252.584C189.404 251.143 187.922 250.482 186.081 250.482C181.556 250.482 179.254 254.626 179.254 261.833H179.434C180.435 259.131 182.998 257.509 186.261 257.509C191.386 257.509 194.949 261.273 194.949 266.678C194.949 272.244 191.166 275.947 185.48 275.947C179.214 275.947 175.871 271.062 175.871 261.994C175.871 252.444 179.334 247.479 186.021 247.479C188.223 247.479 190.305 248.04 191.866 249.061C193.208 249.942 194.048 251.063 194.048 252.064ZM179.854 266.598C179.854 270.342 182.217 272.904 185.68 272.904C189.124 272.904 191.486 270.342 191.486 266.618C191.486 262.975 189.164 260.532 185.68 260.532C182.177 260.532 179.854 262.955 179.854 266.598Z" fill="#FF0000"/>
<path d="M184.82 239.896C184.896 240.035 185.104 240.035 185.18 239.896C187.474 235.728 189.128 233.522 192.445 230.135C192.518 230.06 192.518 229.94 192.445 229.865C189.128 226.478 187.474 224.272 185.18 220.104C185.104 219.965 184.896 219.965 184.82 220.104C182.526 224.272 180.872 226.478 177.555 229.865C177.482 229.94 177.482 230.06 177.555 230.135C180.872 233.522 182.526 235.728 184.82 239.896Z" fill="#FF0000"/>
<path d="M57.9501 23.2599C57.7594 22.9134 57.2406 22.9134 57.0499 23.2599C51.3158 33.6809 47.1805 39.1955 38.8882 47.6621C38.7039 47.8503 38.7039 48.1498 38.8882 48.338C47.1805 56.8045 51.3158 62.3191 57.0499 72.7401C57.2406 73.0866 57.7594 73.0866 57.9501 72.7401C63.6842 62.3191 67.8195 56.8045 76.1118 48.338C76.2961 48.1498 76.2961 47.8503 76.1118 47.6621C67.8195 39.1955 63.6842 33.6809 57.9501 23.2599Z" fill="#FF0000"/>
<path d="M57.9501 215.26C57.7594 214.913 57.2406 214.913 57.0499 215.26C51.3158 225.681 47.1805 231.196 38.8882 239.662C38.7039 239.85 38.7039 240.15 38.8882 240.338C47.1805 248.804 51.3158 254.319 57.0499 264.74C57.2406 265.087 57.7594 265.087 57.9501 264.74C63.6842 254.319 67.8195 248.804 76.1118 240.338C76.2961 240.15 76.2961 239.85 76.1118 239.662C67.8195 231.196 63.6842 225.681 57.9501 215.26Z" fill="#FF0000"/>
<path d="M145.95 23.2599C145.759 22.9134 145.241 22.9134 145.05 23.2599C139.316 33.6809 135.181 39.1955 126.888 47.6621C126.704 47.8503 126.704 48.1498 126.888 48.338C135.181 56.8045 139.316 62.3191 145.05 72.7401C145.241 73.0866 145.759 73.0866 145.95 72.7401C151.684 62.3191 155.819 56.8045 164.112 48.338C164.296 48.1498 164.296 47.8503 164.112 47.6621C155.819 39.1955 151.684 33.6809 145.95 23.2599Z" fill="#FF0000"/>
<path d="M57.9501 87.2599C57.7594 86.9134 57.2406 86.9134 57.0499 87.2599C51.3158 97.6809 47.1805 103.196 38.8882 111.662C38.7039 111.85 38.7039 112.15 38.8882 112.338C47.1805 120.804 51.3158 126.319 57.0499 136.74C57.2406 137.087 57.7594 137.087 57.9501 136.74C63.6842 126.319 67.8195 120.804 76.1118 112.338C76.2961 112.15 76.2961 111.85 76.1118 111.662C67.8195 103.196 63.6842 97.6809 57.9501 87.2599Z" fill="#FF0000"/>
<path d="M57.9501 151.26C57.7594 150.913 57.2406 150.913 57.0499 151.26C51.3158 161.681 47.1805 167.196 38.8882 175.662C38.7039 175.85 38.7039 176.15 38.8882 176.338C47.1805 184.804 51.3158 190.319 57.0499 200.74C57.2406 201.087 57.7594 201.087 57.9501 200.74C63.6842 190.319 67.8195 184.804 76.1118 176.338C76.2961 176.15 76.2961 175.85 76.1118 175.662C67.8195 167.196 63.6842 161.681 57.9501 151.26Z" fill="#FF0000"/>
<path d="M145.95 87.2599C145.759 86.9134 145.241 86.9134 145.05 87.2599C139.316 97.6809 135.181 103.196 126.888 111.662C126.704 111.85 126.704 112.15 126.888 112.338C135.181 120.804 139.316 126.319 145.05 136.74C145.241 137.087 145.759 137.087 145.95 136.74C151.684 126.319 155.819 120.804 164.112 112.338C164.296 112.15 164.296 111.85 164.112 111.662C155.819 103.196 151.684 97.6809 145.95 87.2599Z" fill="#FF0000"/>
<path d="M101.95 119.26C101.759 118.913 101.241 118.913 101.05 119.26C95.3158 129.681 91.1805 135.196 82.8882 143.662C82.7039 143.85 82.7039 144.15 82.8882 144.338C91.1805 152.804 95.3158 158.319 101.05 168.74C101.241 169.087 101.759 169.087 101.95 168.74C107.684 158.319 111.819 152.804 120.112 144.338C120.296 144.15 120.296 143.85 120.112 143.662C111.819 135.196 107.684 129.681 101.95 119.26Z" fill="#FF0000"/>
<path d="M145.95 151.26C145.759 150.913 145.241 150.913 145.05 151.26C139.316 161.681 135.181 167.196 126.888 175.662C126.704 175.85 126.704 176.15 126.888 176.338C135.181 184.804 139.316 190.319 145.05 200.74C145.241 201.087 145.759 201.087 145.95 200.74C151.684 190.319 155.819 184.804 164.112 176.338C164.296 176.15 164.296 175.85 164.112 175.662C155.819 167.196 151.684 161.681 145.95 151.26Z" fill="#FF0000"/>
<path d="M145.95 215.26C145.759 214.913 145.241 214.913 145.05 215.26C139.316 225.681 135.181 231.196 126.888 239.662C126.704 239.85 126.704 240.15 126.888 240.338C135.181 248.804 139.316 254.319 145.05 264.74C145.241 265.087 145.759 265.087 145.95 264.74C151.684 254.319 155.819 248.804 164.112 240.338C164.296 240.15 164.296 239.85 164.112 239.662C155.819 231.196 151.684 225.681 145.95 215.26Z" fill="#FF0000"/>
</g>
</svg>
