<svg width="203" height="288" viewBox="0 0 203 288" fill="none" xmlns="http://www.w3.org/2000/svg">
<mask id="mask0_1865_231" style="mask-type:luminance" maskUnits="userSpaceOnUse" x="0" y="0" width="203" height="288">
<path d="M193 0H10C4.47715 0 0 4.47715 0 10V278C0 283.523 4.47715 288 10 288H193C198.523 288 203 283.523 203 278V10C203 4.47715 198.523 0 193 0Z" fill="white"/>
</mask>
<g mask="url(#mask0_1865_231)">
<path d="M193 0H10C4.47715 0 0 4.47715 0 10V278C0 283.523 4.47715 288 10 288H193C198.523 288 203 283.523 203 278V10C203 4.47715 198.523 0 193 0Z" fill="white"/>
<path d="M8.03076 27.1274C8.03076 17.498 11.7344 12.1528 18.3809 12.1528C20.5229 12.1528 22.585 12.7334 24.1064 13.7744C25.4277 14.6353 26.2285 15.7363 26.2285 16.6572C26.2285 17.5181 25.6079 18.1587 24.7471 18.1587C24.1865 18.1587 23.7661 17.9385 23.0454 17.2378C21.604 15.8164 20.1025 15.1758 18.3208 15.1758C13.8564 15.1758 11.4941 19.0996 11.4341 26.5869H11.5942C12.5151 24.1445 15.3779 22.4229 18.501 22.4229C23.5859 22.4229 27.1494 26.0864 27.1494 31.3115C27.1494 36.8169 23.3857 40.5605 17.8203 40.5605C14.437 40.5605 11.7344 39.1592 10.0928 36.5767C8.71143 34.3745 8.03076 31.2715 8.03076 27.1274ZM11.9346 31.4316C11.9346 35.0151 14.417 37.5576 17.9604 37.5576C21.4038 37.5576 23.7061 35.1353 23.7061 31.4517C23.7061 27.8081 21.3838 25.4058 17.8203 25.4058C14.3569 25.4058 11.9346 27.8882 11.9346 31.4316Z" fill="#FF0000"/>
<path d="M18.1801 48.104C18.1038 47.9653 17.8962 47.9653 17.8199 48.104C15.5263 52.2724 13.8722 54.4782 10.5553 57.8648C10.4816 57.9401 10.4816 58.0599 10.5553 58.1352C13.8722 61.5218 15.5263 63.7276 17.8199 67.896C17.8962 68.0347 18.1038 68.0347 18.1801 67.896C20.4737 63.7276 22.1278 61.5218 25.4447 58.1352C25.5184 58.0599 25.5184 57.9401 25.4447 57.8648C22.1278 54.4782 20.4737 52.2724 18.1801 48.104Z" fill="#FF0000"/>
<path d="M194.969 260.873C194.969 270.502 191.266 275.847 184.619 275.847C182.477 275.847 180.415 275.267 178.894 274.226C177.572 273.365 176.771 272.264 176.771 271.343C176.771 270.482 177.392 269.841 178.253 269.841C178.813 269.841 179.234 270.062 179.955 270.762C181.396 272.184 182.897 272.824 184.679 272.824C189.144 272.824 191.506 268.9 191.566 261.413H191.406C190.485 263.855 187.622 265.577 184.499 265.577C179.414 265.577 175.851 261.914 175.851 256.688C175.851 251.183 179.614 247.439 185.18 247.439C188.563 247.439 191.266 248.841 192.907 251.423C194.289 253.625 194.969 256.729 194.969 260.873ZM191.065 256.568C191.065 252.985 188.583 250.442 185.04 250.442C181.596 250.442 179.294 252.865 179.294 256.548C179.294 260.192 181.616 262.594 185.18 262.594C188.643 262.594 191.065 260.112 191.065 256.568Z" fill="#FF0000"/>
<path d="M184.82 239.896C184.896 240.035 185.104 240.035 185.18 239.896C187.474 235.728 189.128 233.522 192.445 230.135C192.518 230.06 192.518 229.94 192.445 229.865C189.128 226.478 187.474 224.272 185.18 220.104C185.104 219.965 184.896 219.965 184.82 220.104C182.526 224.272 180.872 226.478 177.555 229.865C177.482 229.94 177.482 230.06 177.555 230.135C180.872 233.522 182.526 235.728 184.82 239.896Z" fill="#FF0000"/>
<path d="M57.9501 23.2599C57.7594 22.9134 57.2406 22.9134 57.0499 23.2599C51.3158 33.6809 47.1805 39.1955 38.8882 47.6621C38.7039 47.8503 38.7039 48.1498 38.8882 48.338C47.1805 56.8045 51.3158 62.3191 57.0499 72.7401C57.2406 73.0866 57.7594 73.0866 57.9501 72.7401C63.6842 62.3191 67.8195 56.8045 76.1118 48.338C76.2961 48.1498 76.2961 47.8503 76.1118 47.6621C67.8195 39.1955 63.6842 33.6809 57.9501 23.2599Z" fill="#FF0000"/>
<path d="M57.9501 215.26C57.7594 214.913 57.2406 214.913 57.0499 215.26C51.3158 225.681 47.1805 231.196 38.8882 239.662C38.7039 239.85 38.7039 240.15 38.8882 240.338C47.1805 248.804 51.3158 254.319 57.0499 264.74C57.2406 265.087 57.7594 265.087 57.9501 264.74C63.6842 254.319 67.8195 248.804 76.1118 240.338C76.2961 240.15 76.2961 239.85 76.1118 239.662C67.8195 231.196 63.6842 225.681 57.9501 215.26Z" fill="#FF0000"/>
<path d="M145.95 23.2599C145.759 22.9134 145.241 22.9134 145.05 23.2599C139.316 33.6809 135.181 39.1955 126.888 47.6621C126.704 47.8503 126.704 48.1498 126.888 48.338C135.181 56.8045 139.316 62.3191 145.05 72.7401C145.241 73.0866 145.759 73.0866 145.95 72.7401C151.684 62.3191 155.819 56.8045 164.112 48.338C164.296 48.1498 164.296 47.8503 164.112 47.6621C155.819 39.1955 151.684 33.6809 145.95 23.2599Z" fill="#FF0000"/>
<path d="M57.9501 119.26C57.7594 118.913 57.2406 118.913 57.0499 119.26C51.3158 129.681 47.1805 135.196 38.8882 143.662C38.7039 143.85 38.7039 144.15 38.8882 144.338C47.1805 152.804 51.3158 158.319 57.0499 168.74C57.2406 169.087 57.7594 169.087 57.9501 168.74C63.6842 158.319 67.8195 152.804 76.1118 144.338C76.2961 144.15 76.2961 143.85 76.1118 143.662C67.8195 135.196 63.6842 129.681 57.9501 119.26Z" fill="#FF0000"/>
<path d="M145.95 119.26C145.759 118.913 145.241 118.913 145.05 119.26C139.316 129.681 135.181 135.196 126.888 143.662C126.704 143.85 126.704 144.15 126.888 144.338C135.181 152.804 139.316 158.319 145.05 168.74C145.241 169.087 145.759 169.087 145.95 168.74C151.684 158.319 155.819 152.804 164.112 144.338C164.296 144.15 164.296 143.85 164.112 143.662C155.819 135.196 151.684 129.681 145.95 119.26Z" fill="#FF0000"/>
<path d="M145.95 215.26C145.759 214.913 145.241 214.913 145.05 215.26C139.316 225.681 135.181 231.196 126.888 239.662C126.704 239.85 126.704 240.15 126.888 240.338C135.181 248.804 139.316 254.319 145.05 264.74C145.241 265.087 145.759 265.087 145.95 264.74C151.684 254.319 155.819 248.804 164.112 240.338C164.296 240.15 164.296 239.85 164.112 239.662C155.819 231.196 151.684 225.681 145.95 215.26Z" fill="#FF0000"/>
</g>
</svg>
