<svg width="203" height="288" viewBox="0 0 203 288" fill="none" xmlns="http://www.w3.org/2000/svg">
<mask id="mask0_1865_119" style="mask-type:luminance" maskUnits="userSpaceOnUse" x="0" y="0" width="203" height="288">
<path d="M193 0H10C4.47715 0 0 4.47715 0 10V278C0 283.523 4.47715 288 10 288H193C198.523 288 203 283.523 203 278V10C203 4.47715 198.523 0 193 0Z" fill="white"/>
</mask>
<g mask="url(#mask0_1865_119)">
<path d="M193 0H10C4.47715 0 0 4.47715 0 10V278C0 283.523 4.47715 288 10 288H193C198.523 288 203 283.523 203 278V10C203 4.47715 198.523 0 193 0Z" fill="white"/>
<path d="M20.4634 38.3784V34.3145H9.93311C8.37158 34.3145 7.33057 33.4937 7.33057 32.1724C7.33057 31.4316 7.5708 30.731 8.27148 29.4497C11.1343 24.3848 12.936 21.502 17.4805 14.6953C18.6616 12.9536 19.5825 12.353 20.9639 12.353C22.7856 12.353 23.8066 13.394 23.8066 15.2559V31.2515H25.8887C27.0098 31.2515 27.6704 31.812 27.6704 32.793C27.6704 33.7539 27.0298 34.3145 25.8887 34.3145H23.8066V38.3784C23.8066 39.5396 23.2061 40.2002 22.125 40.2002C21.064 40.2002 20.4634 39.5396 20.4634 38.3784ZM10.6938 31.2515H20.4634V15.7563H20.2832C16.8799 20.7812 13.3164 26.5068 10.6938 31.0513V31.2515Z" fill="#FF0000"/>
<path d="M18.1801 48.104C18.1038 47.9653 17.8962 47.9653 17.8199 48.104C15.5263 52.2724 13.8722 54.4782 10.5553 57.8648C10.4816 57.9401 10.4816 58.0599 10.5553 58.1352C13.8722 61.5218 15.5263 63.7276 17.8199 67.896C17.8962 68.0347 18.1038 68.0347 18.1801 67.896C20.4737 63.7276 22.1278 61.5218 25.4447 58.1352C25.5184 58.0599 25.5184 57.9401 25.4447 57.8648C22.1278 54.4782 20.4737 52.2724 18.1801 48.104Z" fill="#FF0000"/>
<path d="M182.537 249.622V253.686H193.067C194.628 253.686 195.669 254.506 195.669 255.828C195.669 256.568 195.429 257.269 194.729 258.55C191.866 263.615 190.064 266.498 185.52 273.305C184.338 275.046 183.417 275.647 182.036 275.647C180.214 275.647 179.193 274.606 179.193 272.744V256.749H177.111C175.99 256.749 175.33 256.188 175.33 255.207C175.33 254.246 175.97 253.686 177.111 253.686H179.193V249.622C179.193 248.46 179.794 247.8 180.875 247.8C181.936 247.8 182.537 248.46 182.537 249.622ZM192.306 256.749H182.537V272.244H182.717C186.12 267.219 189.684 261.493 192.306 256.949V256.749Z" fill="#FF0000"/>
<path d="M184.82 239.896C184.896 240.035 185.104 240.035 185.18 239.896C187.474 235.728 189.128 233.522 192.445 230.135C192.518 230.06 192.518 229.94 192.445 229.865C189.128 226.478 187.474 224.272 185.18 220.104C185.104 219.965 184.896 219.965 184.82 220.104C182.526 224.272 180.872 226.478 177.555 229.865C177.482 229.94 177.482 230.06 177.555 230.135C180.872 233.522 182.526 235.728 184.82 239.896Z" fill="#FF0000"/>
<path d="M57.9501 23.2599C57.7594 22.9134 57.2406 22.9134 57.0499 23.2599C51.3158 33.6809 47.1805 39.1955 38.8882 47.6621C38.7039 47.8503 38.7039 48.1498 38.8882 48.338C47.1805 56.8045 51.3158 62.3191 57.0499 72.7401C57.2406 73.0866 57.7594 73.0866 57.9501 72.7401C63.6842 62.3191 67.8195 56.8045 76.1118 48.338C76.2961 48.1498 76.2961 47.8503 76.1118 47.6621C67.8195 39.1955 63.6842 33.6809 57.9501 23.2599Z" fill="#FF0000"/>
<path d="M57.9501 215.26C57.7594 214.913 57.2406 214.913 57.0499 215.26C51.3158 225.681 47.1805 231.196 38.8882 239.662C38.7039 239.85 38.7039 240.15 38.8882 240.338C47.1805 248.804 51.3158 254.319 57.0499 264.74C57.2406 265.087 57.7594 265.087 57.9501 264.74C63.6842 254.319 67.8195 248.804 76.1118 240.338C76.2961 240.15 76.2961 239.85 76.1118 239.662C67.8195 231.196 63.6842 225.681 57.9501 215.26Z" fill="#FF0000"/>
<path d="M145.95 23.2599C145.759 22.9134 145.241 22.9134 145.05 23.2599C139.316 33.6809 135.181 39.1955 126.888 47.6621C126.704 47.8503 126.704 48.1498 126.888 48.338C135.181 56.8045 139.316 62.3191 145.05 72.7401C145.241 73.0866 145.759 73.0866 145.95 72.7401C151.684 62.3191 155.819 56.8045 164.112 48.338C164.296 48.1498 164.296 47.8503 164.112 47.6621C155.819 39.1955 151.684 33.6809 145.95 23.2599Z" fill="#FF0000"/>
<path d="M145.95 215.26C145.759 214.913 145.241 214.913 145.05 215.26C139.316 225.681 135.181 231.196 126.888 239.662C126.704 239.85 126.704 240.15 126.888 240.338C135.181 248.804 139.316 254.319 145.05 264.74C145.241 265.087 145.759 265.087 145.95 264.74C151.684 254.319 155.819 248.804 164.112 240.338C164.296 240.15 164.296 239.85 164.112 239.662C155.819 231.196 151.684 225.681 145.95 215.26Z" fill="#FF0000"/>
</g>
</svg>
