<svg width="203" height="288" viewBox="0 0 203 288" fill="none" xmlns="http://www.w3.org/2000/svg">
<mask id="mask0_1864_49" style="mask-type:luminance" maskUnits="userSpaceOnUse" x="0" y="0" width="203" height="288">
<path d="M193 0H10C4.47715 0 0 4.47715 0 10V278C0 283.523 4.47715 288 10 288H193C198.523 288 203 283.523 203 278V10C203 4.47715 198.523 0 193 0Z" fill="white"/>
</mask>
<g mask="url(#mask0_1864_49)">
<path d="M193 0H10C4.47715 0 0 4.47715 0 10V278C0 283.523 4.47715 288 10 288H193C198.523 288 203 283.523 203 278V10C203 4.47715 198.523 0 193 0Z" fill="white"/>
<path d="M8.31104 34.3945C8.31104 33.4937 8.93164 32.853 9.8125 32.853C10.5132 32.853 10.9536 33.2134 11.4741 34.2344C12.5151 36.3765 14.5972 37.5776 17.3198 37.5776C20.9033 37.5776 23.1855 35.6157 23.1855 32.5527C23.1855 29.4897 20.8433 27.4277 17.3599 27.4277H14.8574C13.9365 27.4277 13.2559 26.7671 13.2559 25.9062C13.2559 25.0254 13.8965 24.4048 14.8574 24.4048H17.2197C20.1426 24.4048 22.2646 22.4229 22.2646 19.6802C22.2646 16.9375 20.2026 15.0957 17.1396 15.0957C14.7573 15.0957 12.9556 16.2769 12.1548 18.3389C11.7544 19.4399 11.2539 19.8604 10.4731 19.8604C9.55224 19.8604 8.95166 19.1997 8.95166 18.1987C8.95166 15.0957 12.2949 12.0928 17.2197 12.0928C22.2246 12.0928 25.7881 15.0757 25.7881 19.2397C25.7881 22.2627 23.5259 25.1455 20.7432 25.626V25.8262C24.1265 26.2065 26.709 29.1694 26.709 32.6128C26.709 37.2974 22.8252 40.5806 17.2598 40.5806C12.0947 40.5806 8.31104 37.4575 8.31104 34.3945Z" fill="#FF0000"/>
<path d="M18.1801 48.104C18.1038 47.9653 17.8962 47.9653 17.8199 48.104C15.5263 52.2724 13.8722 54.4782 10.5553 57.8648C10.4816 57.9401 10.4816 58.0599 10.5553 58.1352C13.8722 61.5218 15.5263 63.7276 17.8199 67.896C17.8962 68.0347 18.1038 68.0347 18.1801 67.896C20.4737 63.7276 22.1278 61.5218 25.4447 58.1352C25.5184 58.0599 25.5184 57.9401 25.4447 57.8648C22.1278 54.4782 20.4737 52.2724 18.1801 48.104Z" fill="#FF0000"/>
<path d="M194.689 253.605C194.689 254.506 194.068 255.147 193.188 255.147C192.487 255.147 192.046 254.787 191.526 253.766C190.485 251.624 188.403 250.422 185.68 250.422C182.097 250.422 179.814 252.384 179.814 255.447C179.814 258.51 182.157 260.572 185.64 260.572H188.143C189.063 260.572 189.744 261.233 189.744 262.094C189.744 262.975 189.104 263.595 188.143 263.595H185.78C182.857 263.595 180.735 265.577 180.735 268.32C180.735 271.062 182.797 272.904 185.86 272.904C188.243 272.904 190.044 271.723 190.845 269.661C191.246 268.56 191.746 268.14 192.527 268.14C193.448 268.14 194.048 268.8 194.048 269.801C194.048 272.904 190.705 275.907 185.78 275.907C180.775 275.907 177.212 272.924 177.212 268.76C177.212 265.737 179.474 262.854 182.257 262.374V262.174C178.874 261.793 176.291 258.831 176.291 255.387C176.291 250.703 180.175 247.419 185.74 247.419C190.905 247.419 194.689 250.542 194.689 253.605Z" fill="#FF0000"/>
<path d="M184.82 239.896C184.896 240.035 185.104 240.035 185.18 239.896C187.474 235.728 189.128 233.522 192.445 230.135C192.518 230.06 192.518 229.94 192.445 229.865C189.128 226.478 187.474 224.272 185.18 220.104C185.104 219.965 184.896 219.965 184.82 220.104C182.526 224.272 180.872 226.478 177.555 229.865C177.482 229.94 177.482 230.06 177.555 230.135C180.872 233.522 182.526 235.728 184.82 239.896Z" fill="#FF0000"/>
<path d="M101.95 23.2599C101.759 22.9134 101.241 22.9134 101.05 23.2599C95.3158 33.6809 91.1805 39.1955 82.8882 47.6621C82.7039 47.8503 82.7039 48.1498 82.8882 48.338C91.1805 56.8045 95.3158 62.3191 101.05 72.7401C101.241 73.0866 101.759 73.0866 101.95 72.7401C107.684 62.3191 111.819 56.8045 120.112 48.338C120.296 48.1498 120.296 47.8503 120.112 47.6621C111.819 39.1955 107.684 33.6809 101.95 23.2599Z" fill="#FF0000"/>
<path d="M101.95 119.26C101.759 118.913 101.241 118.913 101.05 119.26C95.3158 129.681 91.1805 135.196 82.8882 143.662C82.7039 143.85 82.7039 144.15 82.8882 144.338C91.1805 152.804 95.3158 158.319 101.05 168.74C101.241 169.087 101.759 169.087 101.95 168.74C107.684 158.319 111.819 152.804 120.112 144.338C120.296 144.15 120.296 143.85 120.112 143.662C111.819 135.196 107.684 129.681 101.95 119.26Z" fill="#FF0000"/>
<path d="M101.95 215.26C101.759 214.913 101.241 214.913 101.05 215.26C95.3158 225.681 91.1805 231.196 82.8882 239.662C82.7039 239.85 82.7039 240.15 82.8882 240.338C91.1805 248.804 95.3158 254.319 101.05 264.74C101.241 265.087 101.759 265.087 101.95 264.74C107.684 254.319 111.819 248.804 120.112 240.338C120.296 240.15 120.296 239.85 120.112 239.662C111.819 231.196 107.684 225.681 101.95 215.26Z" fill="#FF0000"/>
</g>
</svg>
