<svg width="203" height="288" viewBox="0 0 203 288" fill="none" xmlns="http://www.w3.org/2000/svg">
<mask id="mask0_1865_675" style="mask-type:luminance" maskUnits="userSpaceOnUse" x="0" y="0" width="203" height="288">
<path d="M193 0H10C4.47715 0 0 4.47715 0 10V278C0 283.523 4.47715 288 10 288H193C198.523 288 203 283.523 203 278V10C203 4.47715 198.523 0 193 0Z" fill="white"/>
</mask>
<g mask="url(#mask0_1865_675)">
<path d="M193 0H10C4.47715 0 0 4.47715 0 10V278C0 283.523 4.47715 288 10 288H193C198.523 288 203 283.523 203 278V10C203 4.47715 198.523 0 193 0Z" fill="white"/>
<path d="M19.9229 14.4152C19.9229 13.2142 20.5835 12.4731 21.6646 12.4731C22.7456 12.4731 23.4263 13.2142 23.4263 14.4152V32.1921C23.4263 37.3771 20.4233 40.5811 15.5986 40.5811C12.9961 40.5811 10.9341 39.8001 9.5127 38.3181C8.5918 37.3571 8.03125 36.1562 8.03125 35.0752C8.03125 34.0342 8.5918 33.3942 9.49268 33.3942C10.1934 33.3942 10.5737 33.7342 11.0942 34.7552C11.9551 36.5172 13.4365 37.4381 15.4585 37.4381C18.2812 37.4381 19.9229 35.5762 19.9229 32.3332V14.4152Z" fill="#FF0000"/>
<path d="M13.7347 49.0011C16.4518 49.0421 17.5069 51.398 17.8537 52.509C17.8888 52.622 18.1122 52.622 18.1472 52.509C18.4938 51.398 19.5482 49.0421 22.2653 49.0011C25.8229 48.9461 28.4995 52.929 26.0587 56.929C23.8832 60.494 18.0821 67 18 67C17.9165 67 12.1169 60.494 9.94128 56.929C7.50054 52.929 10.177 48.9461 13.7347 49.0011Z" fill="#FF0000"/>
<path d="M183.077 273.585C183.077 274.786 182.417 275.527 181.335 275.527C180.254 275.527 179.574 274.786 179.574 273.585V255.808C179.574 250.623 182.577 247.419 187.401 247.419C190.004 247.419 192.066 248.2 193.487 249.682C194.408 250.643 194.969 251.844 194.969 252.925C194.969 253.966 194.408 254.606 193.507 254.606C192.807 254.606 192.426 254.266 191.906 253.245C191.045 251.483 189.563 250.562 187.542 250.562C184.719 250.562 183.077 252.424 183.077 255.667V273.585Z" fill="#FF0000"/>
<path d="M189.265 238.999C186.548 238.958 185.493 236.602 185.146 235.491C185.111 235.378 184.888 235.378 184.853 235.491C184.506 236.602 183.452 238.958 180.735 238.999C177.177 239.054 174.501 235.071 176.941 231.071C179.117 227.506 184.918 221 185 221C185.083 221 190.883 227.506 193.059 231.071C195.499 235.071 192.823 239.054 189.265 238.999Z" fill="#FF0000"/>
</g>
</svg>
