<svg width="203" height="288" viewBox="0 0 203 288" fill="none" xmlns="http://www.w3.org/2000/svg">
<mask id="mask0_1865_309" style="mask-type:luminance" maskUnits="userSpaceOnUse" x="0" y="0" width="203" height="288">
<path d="M193 0H10C4.47715 0 0 4.47715 0 10V278C0 283.523 4.47715 288 10 288H193C198.523 288 203 283.523 203 278V10C203 4.47715 198.523 0 193 0Z" fill="white"/>
</mask>
<g mask="url(#mask0_1865_309)">
<path d="M193 0H10C4.47715 0 0 4.47715 0 10V278C0 283.523 4.47715 288 10 288H193C198.523 288 203 283.523 203 278V10C203 4.47715 198.523 0 193 0Z" fill="white"/>
<path d="M11.5347 38.7589C11.5347 38.3179 11.6748 37.9378 11.895 37.4978L22.0049 15.9369V15.7358H9.59277C8.35156 15.7358 7.75098 15.0958 7.75098 14.2148C7.75098 13.3138 8.35156 12.6729 9.59277 12.6729H23.8467C24.8877 12.6729 25.7485 13.3939 25.7485 14.5749C25.7485 15.1359 25.4683 16.0568 25.0278 16.9978L14.8179 39.0388C14.4375 39.8398 13.957 40.3199 13.1162 40.3199C12.2954 40.3199 11.5347 39.6999 11.5347 38.7589Z" fill="#FF0000"/>
<path d="M13.7347 49.0011C16.4518 49.0421 17.5069 51.398 17.8537 52.509C17.8888 52.622 18.1122 52.622 18.1472 52.509C18.4938 51.398 19.5482 49.0421 22.2653 49.0011C25.8229 48.9461 28.4995 52.929 26.0587 56.929C23.8832 60.494 18.0821 67 18 67C17.9165 67 12.1169 60.494 9.94128 56.929C7.50054 52.929 10.177 48.9461 13.7347 49.0011Z" fill="#FF0000"/>
<path d="M191.465 249.241C191.465 249.682 191.325 250.062 191.105 250.502L180.995 272.063V272.264H193.407C194.648 272.264 195.249 272.904 195.249 273.785C195.249 274.686 194.648 275.327 193.407 275.327H179.153C178.112 275.327 177.251 274.606 177.251 273.425C177.251 272.864 177.532 271.943 177.972 271.002L188.182 248.961C188.563 248.16 189.043 247.68 189.884 247.68C190.705 247.68 191.465 248.3 191.465 249.241Z" fill="#FF0000"/>
<path d="M189.265 238.999C186.548 238.958 185.493 236.602 185.146 235.491C185.111 235.378 184.888 235.378 184.853 235.491C184.506 236.602 183.452 238.958 180.735 238.999C177.177 239.054 174.501 235.071 176.941 231.071C179.117 227.506 184.918 221 185 221C185.083 221 190.883 227.506 193.059 231.071C195.499 235.071 192.823 239.054 189.265 238.999Z" fill="#FF0000"/>
<path d="M47.2207 26.2508C53.7689 26.3518 56.3116 32.0458 57.1476 34.7308C57.2321 35.0028 57.7704 35.0028 57.8549 34.7308C58.6901 32.0458 61.2313 26.3518 67.7794 26.2508C76.3533 26.1198 82.8039 35.7448 76.9216 45.4108C71.6786 54.0268 57.6979 69.7498 57.5 69.7498C57.2989 69.7498 43.3219 54.0278 38.0785 45.4108C32.1963 35.7448 38.6467 26.1198 47.2207 26.2508Z" fill="#FF0000"/>
<path d="M47.2207 261.749C53.7689 261.648 56.3116 255.954 57.1476 253.269C57.2321 252.997 57.7704 252.997 57.8549 253.269C58.6901 255.954 61.2313 261.648 67.7794 261.749C76.3533 261.88 82.8039 252.255 76.9216 242.589C71.6786 233.973 57.6979 218.25 57.5 218.25C57.2989 218.25 43.3219 233.972 38.0785 242.589C32.1963 252.255 38.6467 261.88 47.2207 261.749Z" fill="#FF0000"/>
<path d="M135.221 26.2508C141.769 26.3518 144.312 32.0458 145.148 34.7308C145.232 35.0028 145.77 35.0028 145.855 34.7308C146.69 32.0458 149.231 26.3518 155.779 26.2508C164.353 26.1198 170.804 35.7448 164.922 45.4108C159.679 54.0268 145.698 69.7498 145.5 69.7498C145.299 69.7498 131.322 54.0278 126.079 45.4108C120.196 35.7448 126.647 26.1198 135.221 26.2508Z" fill="#FF0000"/>
<path d="M47.2207 122.251C53.7689 122.352 56.3116 128.046 57.1476 130.731C57.2321 131.003 57.7704 131.003 57.8549 130.731C58.6901 128.046 61.2313 122.352 67.7794 122.251C76.3533 122.12 82.8039 131.745 76.9216 141.411C71.6786 150.027 57.6979 165.75 57.5 165.75C57.2989 165.75 43.3219 150.028 38.0785 141.411C32.1963 131.745 38.6467 122.12 47.2207 122.251Z" fill="#FF0000"/>
<path d="M91.2207 74.2508C97.7689 74.3518 100.312 80.0458 101.148 82.7308C101.232 83.0028 101.77 83.0028 101.855 82.7308C102.69 80.0458 105.231 74.3518 111.779 74.2508C120.353 74.1198 126.804 83.7448 120.922 93.4108C115.679 102.027 101.698 117.75 101.5 117.75C101.299 117.75 87.3219 102.028 82.0785 93.4108C76.1963 83.7448 82.6467 74.1198 91.2207 74.2508Z" fill="#FF0000"/>
<path d="M135.221 122.251C141.769 122.352 144.312 128.046 145.148 130.731C145.232 131.003 145.77 131.003 145.855 130.731C146.69 128.046 149.231 122.352 155.779 122.251C164.353 122.12 170.804 131.745 164.922 141.411C159.679 150.027 145.698 165.75 145.5 165.75C145.299 165.75 131.322 150.028 126.079 141.411C120.196 131.745 126.647 122.12 135.221 122.251Z" fill="#FF0000"/>
<path d="M135.221 261.749C141.769 261.648 144.312 255.954 145.148 253.269C145.232 252.997 145.77 252.997 145.855 253.269C146.69 255.954 149.231 261.648 155.779 261.749C164.353 261.88 170.804 252.255 164.922 242.589C159.679 233.973 145.698 218.25 145.5 218.25C145.299 218.25 131.322 233.972 126.079 242.589C120.196 252.255 126.647 261.88 135.221 261.749Z" fill="#FF0000"/>
</g>
</svg>
