<svg width="203" height="288" viewBox="0 0 203 288" fill="none" xmlns="http://www.w3.org/2000/svg">
<mask id="mask0_1865_132" style="mask-type:luminance" maskUnits="userSpaceOnUse" x="0" y="0" width="203" height="288">
<path d="M193 0H10C4.47715 0 0 4.47715 0 10V278C0 283.523 4.47715 288 10 288H193C198.523 288 203 283.523 203 278V10C203 4.47715 198.523 0 193 0Z" fill="white"/>
</mask>
<g mask="url(#mask0_1865_132)">
<path d="M193 0H10C4.47715 0 0 4.47715 0 10V278C0 283.523 4.47715 288 10 288H193C198.523 288 203 283.523 203 278V10C203 4.47715 198.523 0 193 0Z" fill="white"/>
<path d="M20.4634 38.378V34.314H9.93311C8.37158 34.314 7.33057 33.494 7.33057 32.172C7.33057 31.432 7.5708 30.731 8.27148 29.45C11.1343 24.385 12.936 21.502 17.4805 14.695C18.6616 12.954 19.5825 12.353 20.9639 12.353C22.7856 12.353 23.8066 13.394 23.8066 15.256V31.251H25.8887C27.0098 31.251 27.6704 31.812 27.6704 32.793C27.6704 33.754 27.0298 34.314 25.8887 34.314H23.8066V38.378C23.8066 39.54 23.2061 40.2 22.125 40.2C21.064 40.2 20.4634 39.54 20.4634 38.378ZM10.6938 31.251H20.4634V15.756H20.2832C16.8799 20.781 13.3164 26.507 10.6938 31.051V31.251Z" fill="#FF0000"/>
<path d="M13.7347 49.0011C16.4518 49.0421 17.5069 51.398 17.8537 52.509C17.8888 52.622 18.1122 52.622 18.1472 52.509C18.4938 51.398 19.5482 49.0421 22.2653 49.0011C25.8229 48.9461 28.4995 52.929 26.0587 56.929C23.8832 60.494 18.0821 67 18 67C17.9165 67 12.1169 60.494 9.94128 56.929C7.50054 52.929 10.177 48.9461 13.7347 49.0011Z" fill="#FF0000"/>
<path d="M182.537 249.622V253.686H193.067C194.628 253.686 195.669 254.506 195.669 255.828C195.669 256.568 195.429 257.269 194.729 258.55C191.866 263.615 190.064 266.498 185.52 273.305C184.338 275.046 183.417 275.647 182.036 275.647C180.214 275.647 179.193 274.606 179.193 272.744V256.749H177.111C175.99 256.749 175.33 256.188 175.33 255.207C175.33 254.246 175.97 253.686 177.111 253.686H179.193V249.622C179.193 248.46 179.794 247.8 180.875 247.8C181.936 247.8 182.537 248.46 182.537 249.622ZM192.306 256.749H182.537V272.244H182.717C186.12 267.219 189.684 261.493 192.306 256.949V256.749Z" fill="#FF0000"/>
<path d="M189.265 238.999C186.548 238.958 185.493 236.602 185.146 235.491C185.111 235.378 184.888 235.378 184.853 235.491C184.506 236.602 183.452 238.958 180.735 238.999C177.177 239.054 174.501 235.071 176.941 231.071C179.117 227.506 184.918 221 185 221C185.083 221 190.883 227.506 193.059 231.071C195.499 235.071 192.823 239.054 189.265 238.999Z" fill="#FF0000"/>
<path d="M47.2206 26.2511C53.7688 26.3521 56.3116 32.0461 57.1475 34.7311C57.2321 35.0031 57.7704 35.0031 57.8549 34.7311C58.6901 32.0461 61.2313 26.3521 67.7794 26.2511C76.3533 26.1201 82.8038 35.7451 76.9215 45.4111C71.6786 54.0271 57.6978 69.7501 57.5 69.7501C57.2989 69.7501 43.3218 54.0281 38.0785 45.4111C32.1963 35.7451 38.6467 26.1201 47.2206 26.2511Z" fill="#FF0000"/>
<path d="M47.2206 261.749C53.7688 261.648 56.3116 255.954 57.1475 253.269C57.2321 252.997 57.7704 252.997 57.8549 253.269C58.6901 255.954 61.2313 261.648 67.7794 261.749C76.3533 261.88 82.8038 252.255 76.9215 242.589C71.6786 233.973 57.6978 218.25 57.5 218.25C57.2989 218.25 43.3218 233.972 38.0785 242.589C32.1963 252.255 38.6467 261.88 47.2206 261.749Z" fill="#FF0000"/>
<path d="M135.221 26.2511C141.769 26.3521 144.312 32.0461 145.148 34.7311C145.232 35.0031 145.77 35.0031 145.855 34.7311C146.69 32.0461 149.231 26.3521 155.779 26.2511C164.353 26.1201 170.804 35.7451 164.922 45.4111C159.679 54.0271 145.698 69.7501 145.5 69.7501C145.299 69.7501 131.322 54.0281 126.079 45.4111C120.196 35.7451 126.647 26.1201 135.221 26.2511Z" fill="#FF0000"/>
<path d="M135.221 261.749C141.769 261.648 144.312 255.954 145.148 253.269C145.232 252.997 145.77 252.997 145.855 253.269C146.69 255.954 149.231 261.648 155.779 261.749C164.353 261.88 170.804 252.255 164.922 242.589C159.679 233.973 145.698 218.25 145.5 218.25C145.299 218.25 131.322 233.972 126.079 242.589C120.196 252.255 126.647 261.88 135.221 261.749Z" fill="#FF0000"/>
</g>
</svg>
