<svg width="203" height="288" viewBox="0 0 203 288" fill="none" xmlns="http://www.w3.org/2000/svg">
<mask id="mask0_1864_61" style="mask-type:luminance" maskUnits="userSpaceOnUse" x="0" y="0" width="203" height="288">
<path d="M193 0H10C4.47715 0 0 4.47715 0 10V278C0 283.523 4.47715 288 10 288H193C198.523 288 203 283.523 203 278V10C203 4.47715 198.523 0 193 0Z" fill="white"/>
</mask>
<g mask="url(#mask0_1864_61)">
<path d="M193 0H10C4.47715 0 0 4.47715 0 10V278C0 283.523 4.47715 288 10 288H193C198.523 288 203 283.523 203 278V10C203 4.47715 198.523 0 193 0Z" fill="white"/>
<path d="M8.31104 34.395C8.31104 33.494 8.93164 32.853 9.8125 32.853C10.5132 32.853 10.9536 33.213 11.4741 34.234C12.5151 36.376 14.5972 37.578 17.3198 37.578C20.9033 37.578 23.1855 35.616 23.1855 32.553C23.1855 29.49 20.8433 27.428 17.3599 27.428H14.8574C13.9365 27.428 13.2559 26.767 13.2559 25.906C13.2559 25.025 13.8965 24.405 14.8574 24.405H17.2197C20.1426 24.405 22.2646 22.423 22.2646 19.68C22.2646 16.938 20.2026 15.096 17.1396 15.096C14.7573 15.096 12.9556 16.277 12.1548 18.339C11.7544 19.44 11.2539 19.86 10.4731 19.86C9.55224 19.86 8.95166 19.2 8.95166 18.199C8.95166 15.096 12.2949 12.093 17.2197 12.093C22.2246 12.093 25.7881 15.076 25.7881 19.24C25.7881 22.263 23.5259 25.146 20.7432 25.626V25.826C24.1265 26.207 26.709 29.169 26.709 32.613C26.709 37.297 22.8252 40.581 17.2598 40.581C12.0947 40.581 8.31104 37.458 8.31104 34.395Z" fill="#FF0000"/>
<path d="M13.7347 49.0011C16.4518 49.0421 17.5069 51.398 17.8537 52.509C17.8888 52.622 18.1122 52.622 18.1472 52.509C18.4938 51.398 19.5482 49.0421 22.2653 49.0011C25.8229 48.9461 28.4995 52.929 26.0587 56.929C23.8832 60.494 18.0821 67 18 67C17.9165 67 12.1169 60.494 9.94128 56.929C7.50054 52.929 10.177 48.9461 13.7347 49.0011Z" fill="#FF0000"/>
<path d="M194.689 253.605C194.689 254.506 194.068 255.147 193.188 255.147C192.487 255.147 192.046 254.787 191.526 253.766C190.485 251.624 188.403 250.422 185.68 250.422C182.097 250.422 179.814 252.384 179.814 255.447C179.814 258.51 182.157 260.572 185.64 260.572H188.143C189.063 260.572 189.744 261.233 189.744 262.094C189.744 262.975 189.104 263.595 188.143 263.595H185.78C182.857 263.595 180.735 265.577 180.735 268.32C180.735 271.062 182.797 272.904 185.86 272.904C188.243 272.904 190.044 271.723 190.845 269.661C191.246 268.56 191.746 268.14 192.527 268.14C193.448 268.14 194.048 268.8 194.048 269.801C194.048 272.904 190.705 275.907 185.78 275.907C180.775 275.907 177.212 272.924 177.212 268.76C177.212 265.737 179.474 262.854 182.257 262.374V262.174C178.874 261.793 176.291 258.831 176.291 255.387C176.291 250.703 180.175 247.419 185.74 247.419C190.905 247.419 194.689 250.542 194.689 253.605Z" fill="#FF0000"/>
<path d="M189.265 238.999C186.548 238.958 185.493 236.602 185.146 235.491C185.111 235.378 184.888 235.378 184.853 235.491C184.506 236.602 183.452 238.958 180.735 238.999C177.177 239.054 174.501 235.071 176.941 231.071C179.117 227.506 184.918 221 185 221C185.083 221 190.883 227.506 193.059 231.071C195.499 235.071 192.823 239.054 189.265 238.999Z" fill="#FF0000"/>
<path d="M91.2206 26.2511C97.7688 26.3521 100.312 32.0461 101.148 34.7311C101.232 35.0031 101.77 35.0031 101.855 34.7311C102.69 32.0461 105.231 26.3521 111.779 26.2511C120.353 26.1201 126.804 35.7451 120.922 45.4111C115.679 54.0271 101.698 69.7501 101.5 69.7501C101.299 69.7501 87.3218 54.0281 82.0785 45.4111C76.1963 35.7451 82.6467 26.1201 91.2206 26.2511Z" fill="#FF0000"/>
<path d="M91.2206 122.251C97.7688 122.352 100.312 128.046 101.148 130.731C101.232 131.003 101.77 131.003 101.855 130.731C102.69 128.046 105.231 122.352 111.779 122.251C120.353 122.12 126.804 131.745 120.922 141.411C115.679 150.027 101.698 165.75 101.5 165.75C101.299 165.75 87.3218 150.028 82.0785 141.411C76.1963 131.745 82.6467 122.12 91.2206 122.251Z" fill="#FF0000"/>
<path d="M91.2206 261.749C97.7688 261.648 100.312 255.954 101.148 253.269C101.232 252.997 101.77 252.997 101.855 253.269C102.69 255.954 105.231 261.648 111.779 261.749C120.353 261.88 126.804 252.255 120.922 242.589C115.679 233.973 101.698 218.25 101.5 218.25C101.299 218.25 87.3218 233.972 82.0785 242.589C76.1963 252.255 82.6467 261.88 91.2206 261.749Z" fill="#FF0000"/>
</g>
</svg>
