<svg width="203" height="288" viewBox="0 0 203 288" fill="none" xmlns="http://www.w3.org/2000/svg">
<mask id="mask0_1865_759" style="mask-type:luminance" maskUnits="userSpaceOnUse" x="0" y="0" width="203" height="288">
<path d="M193 0H10C4.47715 0 0 4.47715 0 10V278C0 283.523 4.47715 288 10 288H193C198.523 288 203 283.523 203 278V10C203 4.47715 198.523 0 193 0Z" fill="white"/>
</mask>
<g mask="url(#mask0_1865_759)">
<path d="M193 0H10C4.47715 0 0 4.47715 0 10V278C0 283.523 4.47715 288 10 288H193C198.523 288 203 283.523 203 278V10C203 4.47715 198.523 0 193 0Z" fill="white"/>
<path d="M25.7485 40.0602C25.0479 40.0602 24.4473 39.6601 23.7466 38.6791L15.3584 26.8072L11.915 30.3712V38.2782C11.915 39.4592 11.2344 40.2002 10.1533 40.2002C9.07227 40.2002 8.41162 39.4592 8.41162 38.2782V14.3951C8.41162 13.2141 9.07227 12.4731 10.1533 12.4731C11.2344 12.4731 11.915 13.2141 11.915 14.3951V25.8462H12.0752L23.4663 13.6942C24.207 12.8742 24.6675 12.6132 25.248 12.6132C26.1289 12.6132 26.7896 13.2942 26.7896 14.1352C26.7896 14.6552 26.6294 14.9561 25.8286 15.7961L17.9609 24.4052L26.5293 36.2961C27.3701 37.4581 27.5503 37.8182 27.5503 38.3382C27.5503 39.3592 26.8096 40.0602 25.7485 40.0602Z" fill="#FF0000"/>
<path d="M13.7347 49.0011C16.4518 49.0421 17.5069 51.398 17.8537 52.509C17.8888 52.622 18.1122 52.622 18.1472 52.509C18.4938 51.398 19.5482 49.0421 22.2653 49.0011C25.8229 48.9461 28.4995 52.929 26.0587 56.929C23.8832 60.494 18.0821 67 18 67C17.9165 67 12.1169 60.494 9.94128 56.929C7.50054 52.929 10.177 48.9461 13.7347 49.0011Z" fill="#FF0000"/>
<path d="M177.251 247.94C177.952 247.94 178.553 248.34 179.253 249.321L187.642 261.193L191.085 257.629V249.722C191.085 248.541 191.766 247.8 192.847 247.8C193.928 247.8 194.588 248.541 194.588 249.722V273.605C194.588 274.786 193.928 275.527 192.847 275.527C191.766 275.527 191.085 274.786 191.085 273.605V262.154H190.925L179.534 274.306C178.793 275.126 178.333 275.387 177.752 275.387C176.871 275.387 176.21 274.706 176.21 273.865C176.21 273.345 176.371 273.044 177.171 272.204L185.039 263.595L176.471 251.704C175.63 250.542 175.45 250.182 175.45 249.662C175.45 248.641 176.19 247.94 177.251 247.94Z" fill="#FF0000"/>
<path d="M189.265 238.999C186.548 238.958 185.493 236.602 185.146 235.491C185.111 235.378 184.888 235.378 184.853 235.491C184.506 236.602 183.452 238.958 180.735 238.999C177.177 239.054 174.501 235.071 176.941 231.071C179.117 227.506 184.918 221 185 221C185.083 221 190.883 227.506 193.059 231.071C195.499 235.071 192.823 239.054 189.265 238.999Z" fill="#FF0000"/>
</g>
</svg>
