<svg width="203" height="288" viewBox="0 0 203 288" fill="none" xmlns="http://www.w3.org/2000/svg">
<mask id="mask0_1865_591" style="mask-type:luminance" maskUnits="userSpaceOnUse" x="0" y="0" width="203" height="288">
<path d="M193 0H10C4.47715 0 0 4.47715 0 10V278C0 283.523 4.47715 288 10 288H193C198.523 288 203 283.523 203 278V10C203 4.47715 198.523 0 193 0Z" fill="white"/>
</mask>
<g mask="url(#mask0_1865_591)">
<path d="M193 0H10C4.47715 0 0 4.47715 0 10V278C0 283.523 4.47715 288 10 288H193C198.523 288 203 283.523 203 278V10C203 4.47715 198.523 0 193 0Z" fill="white"/>
<path d="M8.19092 40.2601C7.18994 40.2601 6.5293 39.6801 6.5293 38.7591C6.5293 38.3581 6.62939 37.9781 6.78955 37.4981L15.0176 14.4951C15.5181 13.0941 16.2188 12.4531 17.5 12.4531C18.7812 12.4531 19.4819 13.0941 19.9824 14.4951L28.2104 37.4981C28.3706 37.9381 28.4707 38.3581 28.4707 38.7391C28.4707 39.6801 27.8101 40.2601 26.7891 40.2601C25.8281 40.2601 25.2876 39.8001 24.9072 38.6191L22.605 31.7921H12.375L10.0728 38.6191C9.69238 39.8201 9.15186 40.2601 8.19092 40.2601ZM13.3159 28.9691H21.6641L17.5601 16.7971H17.4199L13.3159 28.9691Z" fill="#FF0000"/>
<path d="M13.7347 49.0011C16.4518 49.0421 17.5069 51.398 17.8537 52.509C17.8888 52.622 18.1122 52.622 18.1472 52.509C18.4938 51.398 19.5482 49.0421 22.2653 49.0011C25.8229 48.9461 28.4995 52.929 26.0587 56.929C23.8832 60.494 18.0821 67 18 67C17.9165 67 12.1169 60.494 9.94128 56.929C7.50054 52.929 10.177 48.9461 13.7347 49.0011Z" fill="#FF0000"/>
<path d="M194.809 247.74C195.81 247.74 196.471 248.32 196.471 249.241C196.471 249.642 196.371 250.022 196.21 250.502L187.982 273.505C187.482 274.906 186.781 275.547 185.5 275.547C184.219 275.547 183.518 274.906 183.018 273.505L174.79 250.502C174.629 250.062 174.529 249.642 174.529 249.261C174.529 248.32 175.19 247.74 176.211 247.74C177.172 247.74 177.712 248.2 178.093 249.381L180.395 256.208H190.625L192.927 249.381C193.308 248.18 193.848 247.74 194.809 247.74ZM189.684 259.031H181.336L185.44 271.203H185.58L189.684 259.031Z" fill="#FF0000"/>
<path d="M189.265 238.999C186.548 238.958 185.493 236.602 185.146 235.491C185.111 235.378 184.888 235.378 184.853 235.491C184.506 236.602 183.452 238.958 180.735 238.999C177.177 239.054 174.501 235.071 176.941 231.071C179.117 227.506 184.918 221 185 221C185.083 221 190.883 227.506 193.059 231.071C195.499 235.071 192.823 239.054 189.265 238.999Z" fill="#FF0000"/>
<path d="M91.2206 122.251C97.7688 122.352 100.312 128.046 101.148 130.731C101.232 131.003 101.77 131.003 101.855 130.731C102.69 128.046 105.231 122.352 111.779 122.251C120.353 122.12 126.804 131.745 120.922 141.411C115.679 150.027 101.698 165.75 101.5 165.75C101.299 165.75 87.3218 150.028 82.0785 141.411C76.1963 131.745 82.6467 122.12 91.2206 122.251Z" fill="#FF0000"/>
</g>
</svg>
