<svg width="203" height="288" viewBox="0 0 203 288" fill="none" xmlns="http://www.w3.org/2000/svg">
<mask id="mask0_1865_717" style="mask-type:luminance" maskUnits="userSpaceOnUse" x="0" y="0" width="203" height="288">
<path d="M193 0H10C4.47715 0 0 4.47715 0 10V278C0 283.523 4.47715 288 10 288H193C198.523 288 203 283.523 203 278V10C203 4.47715 198.523 0 193 0Z" fill="white"/>
</mask>
<g mask="url(#mask0_1865_717)">
<path d="M193 0H10C4.47715 0 0 4.47715 0 10V278C0 283.523 4.47715 288 10 288H193C198.523 288 203 283.523 203 278V10C203 4.47715 198.523 0 193 0Z" fill="white"/>
<path d="M25.8081 43.0228C25.0273 43.0228 24.4868 42.6628 23.8062 41.7418L22.2646 39.6198C20.8833 40.2398 19.3018 40.5808 17.5 40.5808C10.5933 40.5808 6.56934 35.9958 6.56934 28.4888V24.4648C6.56934 16.8368 10.7734 12.0928 17.5 12.0928C24.1265 12.0928 28.4507 16.8368 28.4507 24.4648V28.4888C28.4507 32.7728 27.1895 35.8558 24.9873 37.8378L26.4888 39.8998C27.0293 40.6608 27.2295 41.0408 27.2295 41.5418C27.2295 42.3018 26.689 43.0228 25.8081 43.0228ZM10.0527 28.5288C10.0527 34.1138 12.9155 37.4778 17.48 37.4778C18.481 37.4778 19.4419 37.2968 20.3228 36.9368L19.1616 35.3748C18.7212 34.7748 18.3809 34.2338 18.3809 33.6538C18.3809 32.7928 19.0415 32.1318 19.9023 32.1318C20.4429 32.1318 20.9834 32.4328 21.604 33.2928L22.9053 35.0948C24.1665 33.6138 24.9473 31.7118 24.9473 28.5288V24.4648C24.9473 18.7588 21.7241 15.2358 17.5 15.2358C12.9155 15.2358 10.0527 18.7588 10.0527 24.4648V28.5288Z" fill="#FF0000"/>
<path d="M13.7347 49.0011C16.4518 49.0421 17.5069 51.398 17.8537 52.509C17.8888 52.622 18.1122 52.622 18.1472 52.509C18.4938 51.398 19.5482 49.0421 22.2653 49.0011C25.8229 48.9461 28.4995 52.929 26.0587 56.929C23.8832 60.494 18.0821 67 18 67C17.9165 67 12.1169 60.494 9.94128 56.929C7.50054 52.929 10.177 48.9461 13.7347 49.0011Z" fill="#FF0000"/>
<path d="M177.192 244.977C177.973 244.977 178.513 245.337 179.194 246.258L180.735 248.38C182.117 247.76 183.698 247.419 185.5 247.419C192.407 247.419 196.431 252.004 196.431 259.511V263.535C196.431 271.163 192.227 275.907 185.5 275.907C178.874 275.907 174.549 271.163 174.549 263.535V259.511C174.549 255.227 175.811 252.144 178.013 250.162L176.511 248.1C175.971 247.339 175.771 246.959 175.771 246.458C175.771 245.698 176.311 244.977 177.192 244.977ZM192.947 259.471C192.947 253.886 190.084 250.522 185.52 250.522C184.519 250.522 183.558 250.703 182.677 251.063L183.838 252.625C184.279 253.225 184.619 253.766 184.619 254.346C184.619 255.207 183.958 255.868 183.098 255.868C182.557 255.868 182.017 255.567 181.396 254.707L180.095 252.905C178.833 254.386 178.053 256.288 178.053 259.471V263.535C178.053 269.241 181.276 272.764 185.5 272.764C190.084 272.764 192.947 269.241 192.947 263.535V259.471Z" fill="#FF0000"/>
<path d="M189.265 238.999C186.548 238.958 185.493 236.602 185.146 235.491C185.111 235.378 184.888 235.378 184.853 235.491C184.506 236.602 183.452 238.958 180.735 238.999C177.177 239.054 174.501 235.071 176.941 231.071C179.117 227.506 184.918 221 185 221C185.083 221 190.883 227.506 193.059 231.071C195.499 235.071 192.823 239.054 189.265 238.999Z" fill="#FF0000"/>
</g>
</svg>
