<svg width="203" height="288" viewBox="0 0 203 288" fill="none" xmlns="http://www.w3.org/2000/svg">
<mask id="mask0_1865_246" style="mask-type:luminance" maskUnits="userSpaceOnUse" x="0" y="0" width="203" height="288">
<path d="M193 0H10C4.47715 0 0 4.47715 0 10V278C0 283.523 4.47715 288 10 288H193C198.523 288 203 283.523 203 278V10C203 4.47715 198.523 0 193 0Z" fill="white"/>
</mask>
<g mask="url(#mask0_1865_246)">
<path d="M193 0H10C4.47715 0 0 4.47715 0 10V278C0 283.523 4.47715 288 10 288H193C198.523 288 203 283.523 203 278V10C203 4.47715 198.523 0 193 0Z" fill="white"/>
<path d="M8.03076 27.1268C8.03076 17.4978 11.7344 12.1528 18.3809 12.1528C20.5229 12.1528 22.585 12.7328 24.1064 13.7738C25.4277 14.6348 26.2285 15.7358 26.2285 16.6568C26.2285 17.5178 25.6079 18.1588 24.7471 18.1588C24.1865 18.1588 23.7661 17.9378 23.0454 17.2378C21.604 15.8158 20.1025 15.1758 18.3208 15.1758C13.8564 15.1758 11.4941 19.0998 11.4341 26.5868H11.5942C12.5151 24.1448 15.3779 22.4228 18.501 22.4228C23.5859 22.4228 27.1494 26.0858 27.1494 31.3118C27.1494 36.8168 23.3857 40.5608 17.8203 40.5608C14.437 40.5608 11.7344 39.1588 10.0928 36.5768C8.71143 34.3748 8.03076 31.2708 8.03076 27.1268ZM11.9346 31.4318C11.9346 35.0148 14.417 37.5578 17.9604 37.5578C21.4038 37.5578 23.7061 35.1348 23.7061 31.4518C23.7061 27.8078 21.3838 25.4058 17.8203 25.4058C14.3569 25.4058 11.9346 27.8878 11.9346 31.4318Z" fill="#FF0000"/>
<path d="M13.7347 49.0011C16.4518 49.0421 17.5069 51.398 17.8537 52.509C17.8888 52.622 18.1122 52.622 18.1472 52.509C18.4938 51.398 19.5482 49.0421 22.2653 49.0011C25.8229 48.9461 28.4995 52.929 26.0587 56.929C23.8832 60.494 18.0821 67 18 67C17.9165 67 12.1169 60.494 9.94128 56.929C7.50054 52.929 10.177 48.9461 13.7347 49.0011Z" fill="#FF0000"/>
<path d="M194.969 260.873C194.969 270.502 191.266 275.847 184.619 275.847C182.477 275.847 180.415 275.267 178.894 274.226C177.572 273.365 176.771 272.264 176.771 271.343C176.771 270.482 177.392 269.841 178.253 269.841C178.813 269.841 179.234 270.062 179.955 270.762C181.396 272.184 182.897 272.824 184.679 272.824C189.144 272.824 191.506 268.9 191.566 261.413H191.406C190.485 263.855 187.622 265.577 184.499 265.577C179.414 265.577 175.851 261.914 175.851 256.688C175.851 251.183 179.614 247.439 185.18 247.439C188.563 247.439 191.266 248.841 192.907 251.423C194.289 253.625 194.969 256.729 194.969 260.873ZM191.065 256.568C191.065 252.985 188.583 250.442 185.04 250.442C181.596 250.442 179.294 252.865 179.294 256.548C179.294 260.192 181.616 262.594 185.18 262.594C188.643 262.594 191.065 260.112 191.065 256.568Z" fill="#FF0000"/>
<path d="M189.265 238.999C186.548 238.958 185.493 236.602 185.146 235.491C185.111 235.378 184.888 235.378 184.853 235.491C184.506 236.602 183.452 238.958 180.735 238.999C177.177 239.054 174.501 235.071 176.941 231.071C179.117 227.506 184.918 221 185 221C185.083 221 190.883 227.506 193.059 231.071C195.499 235.071 192.823 239.054 189.265 238.999Z" fill="#FF0000"/>
<path d="M47.2207 26.2508C53.7689 26.3518 56.3116 32.0458 57.1476 34.7308C57.2321 35.0028 57.7704 35.0028 57.8549 34.7308C58.6901 32.0458 61.2313 26.3518 67.7794 26.2508C76.3533 26.1198 82.8039 35.7448 76.9216 45.4108C71.6786 54.0268 57.6979 69.7498 57.5 69.7498C57.2989 69.7498 43.3219 54.0278 38.0785 45.4108C32.1963 35.7448 38.6467 26.1198 47.2207 26.2508Z" fill="#FF0000"/>
<path d="M47.2207 261.749C53.7689 261.648 56.3116 255.954 57.1476 253.269C57.2321 252.997 57.7704 252.997 57.8549 253.269C58.6901 255.954 61.2313 261.648 67.7794 261.749C76.3533 261.88 82.8039 252.255 76.9216 242.589C71.6786 233.973 57.6979 218.25 57.5 218.25C57.2989 218.25 43.3219 233.972 38.0785 242.589C32.1963 252.255 38.6467 261.88 47.2207 261.749Z" fill="#FF0000"/>
<path d="M135.221 26.2508C141.769 26.3518 144.312 32.0458 145.148 34.7308C145.232 35.0028 145.77 35.0028 145.855 34.7308C146.69 32.0458 149.231 26.3518 155.779 26.2508C164.353 26.1198 170.804 35.7448 164.922 45.4108C159.679 54.0268 145.698 69.7498 145.5 69.7498C145.299 69.7498 131.322 54.0278 126.079 45.4108C120.196 35.7448 126.647 26.1198 135.221 26.2508Z" fill="#FF0000"/>
<path d="M47.2207 122.251C53.7689 122.352 56.3116 128.046 57.1476 130.731C57.2321 131.003 57.7704 131.003 57.8549 130.731C58.6901 128.046 61.2313 122.352 67.7794 122.251C76.3533 122.12 82.8039 131.745 76.9216 141.411C71.6786 150.027 57.6979 165.75 57.5 165.75C57.2989 165.75 43.3219 150.028 38.0785 141.411C32.1963 131.745 38.6467 122.12 47.2207 122.251Z" fill="#FF0000"/>
<path d="M135.221 122.251C141.769 122.352 144.312 128.046 145.148 130.731C145.232 131.003 145.77 131.003 145.855 130.731C146.69 128.046 149.231 122.352 155.779 122.251C164.353 122.12 170.804 131.745 164.922 141.411C159.679 150.027 145.698 165.75 145.5 165.75C145.299 165.75 131.322 150.028 126.079 141.411C120.196 131.745 126.647 122.12 135.221 122.251Z" fill="#FF0000"/>
<path d="M135.221 261.749C141.769 261.648 144.312 255.954 145.148 253.269C145.232 252.997 145.77 252.997 145.855 253.269C146.69 255.954 149.231 261.648 155.779 261.749C164.353 261.88 170.804 252.255 164.922 242.589C159.679 233.973 145.698 218.25 145.5 218.25C145.299 218.25 131.322 233.972 126.079 242.589C120.196 252.255 126.647 261.88 135.221 261.749Z" fill="#FF0000"/>
</g>
</svg>
