<svg width="203" height="288" viewBox="0 0 203 288" fill="none" xmlns="http://www.w3.org/2000/svg">
<mask id="mask0_1865_447" style="mask-type:luminance" maskUnits="userSpaceOnUse" x="0" y="0" width="203" height="288">
<path d="M193 0H10C4.47715 0 0 4.47715 0 10V278C0 283.523 4.47715 288 10 288H193C198.523 288 203 283.523 203 278V10C203 4.47715 198.523 0 193 0Z" fill="white"/>
</mask>
<g mask="url(#mask0_1865_447)">
<path d="M193 0H10C4.47715 0 0 4.47715 0 10V278C0 283.523 4.47715 288 10 288H193C198.523 288 203 283.523 203 278V10C203 4.47715 198.523 0 193 0Z" fill="white"/>
<path d="M8.95166 35.9362C8.95166 35.0352 9.57227 34.4552 10.4331 34.4552C10.9736 34.4552 11.394 34.6952 12.1348 35.4162C13.5962 36.8572 15.0776 37.5182 16.9194 37.5182C21.4438 37.5182 23.7461 33.3742 23.7461 26.1672H23.5659C22.5649 28.8692 20.0024 30.4912 16.7393 30.4912C11.6143 30.4912 8.05078 26.7272 8.05078 21.3222C8.05078 15.7562 11.8345 12.0532 17.52 12.0532C23.7861 12.0532 27.1294 16.9382 27.1294 26.0062C27.1294 35.5562 23.666 40.5212 16.9795 40.5212C14.7773 40.5212 12.6953 39.9602 11.1338 38.9392C9.79248 38.0582 8.95166 36.9372 8.95166 35.9362ZM23.1455 21.4022C23.1455 17.6582 20.7832 15.0962 17.3198 15.0962C13.8765 15.0962 11.5142 17.6582 11.5142 21.3822C11.5142 25.0252 13.8364 27.4682 17.3198 27.4682C20.8232 27.4682 23.1455 25.0452 23.1455 21.4022Z" fill="#FF0000"/>
<path d="M13.7347 49.0011C16.4518 49.0421 17.5069 51.398 17.8537 52.509C17.8888 52.622 18.1122 52.622 18.1472 52.509C18.4938 51.398 19.5482 49.0421 22.2653 49.0011C25.8229 48.9461 28.4995 52.929 26.0587 56.929C23.8832 60.494 18.0821 67 18 67C17.9165 67 12.1169 60.494 9.94128 56.929C7.50054 52.929 10.177 48.9461 13.7347 49.0011Z" fill="#FF0000"/>
<path d="M194.048 252.064C194.048 252.965 193.428 253.545 192.567 253.545C192.026 253.545 191.606 253.305 190.865 252.584C189.404 251.143 187.922 250.482 186.081 250.482C181.556 250.482 179.254 254.626 179.254 261.833H179.434C180.435 259.131 182.998 257.509 186.261 257.509C191.386 257.509 194.949 261.273 194.949 266.678C194.949 272.244 191.166 275.947 185.48 275.947C179.214 275.947 175.871 271.062 175.871 261.994C175.871 252.444 179.334 247.479 186.021 247.479C188.223 247.479 190.305 248.04 191.866 249.061C193.208 249.942 194.048 251.063 194.048 252.064ZM179.854 266.598C179.854 270.342 182.217 272.904 185.68 272.904C189.124 272.904 191.486 270.342 191.486 266.618C191.486 262.975 189.164 260.532 185.68 260.532C182.177 260.532 179.854 262.955 179.854 266.598Z" fill="#FF0000"/>
<path d="M189.265 238.999C186.548 238.958 185.493 236.602 185.146 235.491C185.111 235.378 184.888 235.378 184.853 235.491C184.506 236.602 183.452 238.958 180.735 238.999C177.177 239.054 174.501 235.071 176.941 231.071C179.117 227.506 184.918 221 185 221C185.083 221 190.883 227.506 193.059 231.071C195.499 235.071 192.823 239.054 189.265 238.999Z" fill="#FF0000"/>
<path d="M47.2207 26.2508C53.7689 26.3518 56.3116 32.0458 57.1476 34.7308C57.2321 35.0028 57.7704 35.0028 57.8549 34.7308C58.6901 32.0458 61.2313 26.3518 67.7794 26.2508C76.3533 26.1198 82.8039 35.7448 76.9216 45.4108C71.6786 54.0268 57.6979 69.7498 57.5 69.7498C57.2989 69.7498 43.3219 54.0278 38.0785 45.4108C32.1963 35.7448 38.6467 26.1198 47.2207 26.2508Z" fill="#FF0000"/>
<path d="M47.2207 197.749C53.7689 197.648 56.3116 191.954 57.1476 189.269C57.2321 188.997 57.7704 188.997 57.8549 189.269C58.6901 191.954 61.2313 197.648 67.7794 197.749C76.3533 197.88 82.8039 188.255 76.9216 178.589C71.6786 169.973 57.6979 154.25 57.5 154.25C57.2989 154.25 43.3219 169.972 38.0785 178.589C32.1963 188.255 38.6467 197.88 47.2207 197.749Z" fill="#FF0000"/>
<path d="M135.221 26.2508C141.769 26.3518 144.312 32.0458 145.148 34.7308C145.232 35.0028 145.77 35.0028 145.855 34.7308C146.69 32.0458 149.231 26.3518 155.779 26.2508C164.353 26.1198 170.804 35.7448 164.922 45.4108C159.679 54.0268 145.698 69.7498 145.5 69.7498C145.299 69.7498 131.322 54.0278 126.079 45.4108C120.196 35.7448 126.647 26.1198 135.221 26.2508Z" fill="#FF0000"/>
<path d="M47.2207 90.2508C53.7689 90.3518 56.3116 96.0458 57.1476 98.7308C57.2321 99.0028 57.7704 99.0028 57.8549 98.7308C58.6901 96.0458 61.2313 90.3518 67.7794 90.2508C76.3533 90.1198 82.8039 99.7448 76.9216 109.411C71.6786 118.027 57.6979 133.75 57.5 133.75C57.2989 133.75 43.3219 118.028 38.0785 109.411C32.1963 99.7448 38.6467 90.1198 47.2207 90.2508Z" fill="#FF0000"/>
<path d="M47.2207 261.749C53.7689 261.648 56.3116 255.954 57.1476 253.269C57.2321 252.997 57.7704 252.997 57.8549 253.269C58.6901 255.954 61.2313 261.648 67.7794 261.749C76.3533 261.88 82.8039 252.255 76.9216 242.589C71.6786 233.973 57.6979 218.25 57.5 218.25C57.2989 218.25 43.3219 233.972 38.0785 242.589C32.1963 252.255 38.6467 261.88 47.2207 261.749Z" fill="#FF0000"/>
<path d="M135.221 90.2508C141.769 90.3518 144.312 96.0458 145.148 98.7308C145.232 99.0028 145.77 99.0028 145.855 98.7308C146.69 96.0458 149.231 90.3518 155.779 90.2508C164.353 90.1198 170.804 99.7448 164.922 109.411C159.679 118.027 145.698 133.75 145.5 133.75C145.299 133.75 131.322 118.028 126.079 109.411C120.196 99.7448 126.647 90.1198 135.221 90.2508Z" fill="#FF0000"/>
<path d="M91.2207 122.251C97.7689 122.352 100.312 128.046 101.148 130.731C101.232 131.003 101.77 131.003 101.855 130.731C102.69 128.046 105.231 122.352 111.779 122.251C120.353 122.12 126.804 131.745 120.922 141.411C115.679 150.027 101.698 165.75 101.5 165.75C101.299 165.75 87.3219 150.028 82.0785 141.411C76.1963 131.745 82.6467 122.12 91.2207 122.251Z" fill="#FF0000"/>
<path d="M135.221 261.749C141.769 261.648 144.312 255.954 145.148 253.269C145.232 252.997 145.77 252.997 145.855 253.269C146.69 255.954 149.231 261.648 155.779 261.749C164.353 261.88 170.804 252.255 164.922 242.589C159.679 233.973 145.698 218.25 145.5 218.25C145.299 218.25 131.322 233.972 126.079 242.589C120.196 252.255 126.647 261.88 135.221 261.749Z" fill="#FF0000"/>
<path d="M135.221 197.749C141.769 197.648 144.312 191.954 145.148 189.269C145.232 188.997 145.77 188.997 145.855 189.269C146.69 191.954 149.231 197.648 155.779 197.749C164.353 197.88 170.804 188.255 164.922 178.589C159.679 169.973 145.698 154.25 145.5 154.25C145.299 154.25 131.322 169.972 126.079 178.589C120.196 188.255 126.647 197.88 135.221 197.749Z" fill="#FF0000"/>
</g>
</svg>
