<svg width="203" height="288" viewBox="0 0 203 288" fill="none" xmlns="http://www.w3.org/2000/svg">
<mask id="mask0_1863_14" style="mask-type:luminance" maskUnits="userSpaceOnUse" x="0" y="0" width="203" height="288">
<path d="M193 0H10C4.47715 0 0 4.47715 0 10V278C0 283.523 4.47715 288 10 288H193C198.523 288 203 283.523 203 278V10C203 4.47715 198.523 0 193 0Z" fill="white"/>
</mask>
<g mask="url(#mask0_1863_14)">
<path d="M193 0H10C4.47715 0 0 4.47715 0 10V278C0 283.523 4.47715 288 10 288H193C198.523 288 203 283.523 203 278V10C203 4.47715 198.523 0 193 0Z" fill="white"/>
<path d="M9.23193 38.138C9.23193 37.417 9.57227 36.857 10.7534 35.516L19.0815 25.986C21.3438 23.404 22.2046 21.722 22.2046 19.84C22.2046 17.018 20.1826 15.136 17.1396 15.136C14.5571 15.136 12.6553 16.677 12.0547 19.28C11.7744 20.341 11.2139 20.881 10.3931 20.881C9.41211 20.881 8.77148 20.141 8.77148 19.06C8.77148 15.656 12.0747 12.093 17.3599 12.093C22.2847 12.093 25.748 15.216 25.748 19.62C25.748 22.223 24.7271 24.125 21.1235 28.229L13.7163 36.697V36.937H24.8271C25.8882 36.937 26.5688 37.518 26.5688 38.479C26.5688 39.419 25.9282 40 24.8271 40H11.6143C10.1528 40 9.23193 39.299 9.23193 38.138Z" fill="#FF0000"/>
<path d="M13.7347 49.0011C16.4518 49.0421 17.5069 51.398 17.8537 52.509C17.8888 52.622 18.1122 52.622 18.1472 52.509C18.4938 51.398 19.5482 49.0421 22.2653 49.0011C25.8229 48.9461 28.4995 52.929 26.0587 56.929C23.8832 60.494 18.0821 67 18 67C17.9165 67 12.1169 60.494 9.94128 56.929C7.50054 52.929 10.177 48.9461 13.7347 49.0011Z" fill="#FF0000"/>
<path d="M193.768 249.862C193.768 250.583 193.428 251.143 192.247 252.484L183.918 262.014C181.656 264.596 180.795 266.278 180.795 268.16C180.795 270.982 182.817 272.864 185.86 272.864C188.443 272.864 190.345 271.323 190.945 268.72C191.226 267.659 191.786 267.119 192.607 267.119C193.588 267.119 194.229 267.859 194.229 268.94C194.229 272.344 190.925 275.907 185.64 275.907C180.715 275.907 177.252 272.784 177.252 268.38C177.252 265.777 178.273 263.875 181.876 259.771L189.284 251.303V251.063H178.173C177.112 251.063 176.431 250.482 176.431 249.521C176.431 248.581 177.072 248 178.173 248H191.386C192.847 248 193.768 248.701 193.768 249.862Z" fill="#FF0000"/>
<path d="M189.265 238.999C186.548 238.958 185.493 236.602 185.146 235.491C185.111 235.378 184.888 235.378 184.853 235.491C184.506 236.602 183.452 238.958 180.735 238.999C177.177 239.054 174.501 235.071 176.941 231.071C179.117 227.506 184.918 221 185 221C185.083 221 190.883 227.506 193.059 231.071C195.499 235.071 192.823 239.054 189.265 238.999Z" fill="#FF0000"/>
<path d="M91.2206 26.2511C97.7688 26.3521 100.312 32.0461 101.148 34.7311C101.232 35.0031 101.77 35.0031 101.855 34.7311C102.69 32.0461 105.231 26.3521 111.779 26.2511C120.353 26.1201 126.804 35.7451 120.922 45.4111C115.679 54.0271 101.698 69.7501 101.5 69.7501C101.299 69.7501 87.3218 54.0281 82.0785 45.4111C76.1963 35.7451 82.6467 26.1201 91.2206 26.2511Z" fill="#FF0000"/>
<path d="M91.2206 261.749C97.7688 261.648 100.312 255.954 101.148 253.269C101.232 252.997 101.77 252.997 101.855 253.269C102.69 255.954 105.231 261.648 111.779 261.749C120.353 261.88 126.804 252.255 120.922 242.589C115.679 233.973 101.698 218.25 101.5 218.25C101.299 218.25 87.3218 233.972 82.0785 242.589C76.1963 252.255 82.6467 261.88 91.2206 261.749Z" fill="#FF0000"/>
</g>
</svg>
