<svg width="203" height="288" viewBox="0 0 203 288" fill="none" xmlns="http://www.w3.org/2000/svg">
<mask id="mask0_1865_187" style="mask-type:luminance" maskUnits="userSpaceOnUse" x="0" y="0" width="203" height="288">
<path d="M193 0H10C4.47715 0 0 4.47715 0 10V278C0 283.523 4.47715 288 10 288H193C198.523 288 203 283.523 203 278V10C203 4.47715 198.523 0 193 0Z" fill="white"/>
</mask>
<g mask="url(#mask0_1865_187)">
<path d="M193 0H10C4.47715 0 0 4.47715 0 10V278C0 283.523 4.47715 288 10 288H193C198.523 288 203 283.523 203 278V10C203 4.47715 198.523 0 193 0Z" fill="white"/>
<path d="M8.11133 34.5551C8.11133 33.5541 8.69189 32.873 9.57275 32.873C10.2534 32.873 10.6938 33.2331 11.2144 34.2541C12.3154 36.3961 14.1572 37.5581 16.5596 37.5581C20.2031 37.5581 22.7456 34.9951 22.7456 31.3121C22.7456 27.7881 20.2832 25.3061 16.8198 25.3061C15.2583 25.3061 13.877 25.8261 12.7158 26.8671C11.2544 28.2291 10.854 28.4691 10.2134 28.4691C9.07227 28.4691 8.4917 27.5681 8.5918 26.0261L9.47266 14.8151C9.59277 13.3341 10.4536 12.6331 12.1753 12.6331H23.4062C24.5674 12.6331 25.248 13.2141 25.248 14.1951C25.248 15.1561 24.5874 15.6961 23.4062 15.6961H12.6157L11.855 24.6051H12.0552C12.9561 23.2641 15.2983 22.3031 17.6006 22.3031C22.6855 22.3031 26.269 25.9461 26.269 31.1311C26.269 36.6571 22.2852 40.5811 16.6997 40.5811C11.4146 40.5811 8.11133 37.3571 8.11133 34.5551Z" fill="#FF0000"/>
<path d="M13.7347 49.0011C16.4518 49.0421 17.5069 51.398 17.8537 52.509C17.8888 52.622 18.1122 52.622 18.1472 52.509C18.4938 51.398 19.5482 49.0421 22.2653 49.0011C25.8229 48.9461 28.4995 52.929 26.0587 56.929C23.8832 60.494 18.0821 67 18 67C17.9165 67 12.1169 60.494 9.94128 56.929C7.50054 52.929 10.177 48.9461 13.7347 49.0011Z" fill="#FF0000"/>
<path d="M194.889 253.445C194.889 254.446 194.308 255.127 193.427 255.127C192.747 255.127 192.306 254.767 191.786 253.746C190.685 251.604 188.843 250.442 186.44 250.442C182.797 250.442 180.254 253.005 180.254 256.688C180.254 260.212 182.717 262.694 186.18 262.694C187.742 262.694 189.123 262.174 190.284 261.133C191.746 259.771 192.146 259.531 192.787 259.531C193.928 259.531 194.508 260.432 194.408 261.974L193.527 273.185C193.407 274.666 192.546 275.367 190.825 275.367H179.594C178.433 275.367 177.752 274.786 177.752 273.805C177.752 272.844 178.413 272.304 179.594 272.304H190.384L191.145 263.395H190.945C190.044 264.736 187.702 265.697 185.399 265.697C180.314 265.697 176.731 262.054 176.731 256.869C176.731 251.343 180.715 247.419 186.3 247.419C191.585 247.419 194.889 250.643 194.889 253.445Z" fill="#FF0000"/>
<path d="M189.265 238.999C186.548 238.958 185.493 236.602 185.146 235.491C185.111 235.378 184.888 235.378 184.853 235.491C184.506 236.602 183.452 238.958 180.735 238.999C177.177 239.054 174.501 235.071 176.941 231.071C179.117 227.506 184.918 221 185 221C185.083 221 190.883 227.506 193.059 231.071C195.499 235.071 192.823 239.054 189.265 238.999Z" fill="#FF0000"/>
<path d="M47.2207 26.2511C53.7689 26.3521 56.3116 32.0461 57.1476 34.7311C57.2321 35.0031 57.7704 35.0031 57.8549 34.7311C58.6901 32.0461 61.2313 26.3521 67.7794 26.2511C76.3533 26.1201 82.8039 35.7451 76.9216 45.4111C71.6786 54.0271 57.6979 69.7501 57.5 69.7501C57.2989 69.7501 43.3219 54.0281 38.0785 45.4111C32.1963 35.7451 38.6467 26.1201 47.2207 26.2511Z" fill="#FF0000"/>
<path d="M47.2207 261.749C53.7689 261.648 56.3116 255.954 57.1476 253.269C57.2321 252.997 57.7704 252.997 57.8549 253.269C58.6901 255.954 61.2313 261.648 67.7794 261.749C76.3533 261.88 82.8039 252.255 76.9216 242.589C71.6786 233.973 57.6979 218.25 57.5 218.25C57.2989 218.25 43.3219 233.972 38.0785 242.589C32.1963 252.255 38.6467 261.88 47.2207 261.749Z" fill="#FF0000"/>
<path d="M135.221 26.2511C141.769 26.3521 144.312 32.0461 145.148 34.7311C145.232 35.0031 145.77 35.0031 145.855 34.7311C146.69 32.0461 149.231 26.3521 155.779 26.2511C164.353 26.1201 170.804 35.7451 164.922 45.4111C159.679 54.0271 145.698 69.7501 145.5 69.7501C145.299 69.7501 131.322 54.0281 126.079 45.4111C120.196 35.7451 126.647 26.1201 135.221 26.2511Z" fill="#FF0000"/>
<path d="M91.2207 122.251C97.7689 122.352 100.312 128.046 101.148 130.731C101.232 131.003 101.77 131.003 101.855 130.731C102.69 128.046 105.231 122.352 111.779 122.251C120.353 122.12 126.804 131.745 120.922 141.411C115.679 150.027 101.698 165.75 101.5 165.75C101.299 165.75 87.3219 150.028 82.0785 141.411C76.1963 131.745 82.6467 122.12 91.2207 122.251Z" fill="#FF0000"/>
<path d="M135.221 261.749C141.769 261.648 144.312 255.954 145.148 253.269C145.232 252.997 145.77 252.997 145.855 253.269C146.69 255.954 149.231 261.648 155.779 261.749C164.353 261.88 170.804 252.255 164.922 242.589C159.679 233.973 145.698 218.25 145.5 218.25C145.299 218.25 131.322 233.972 126.079 242.589C120.196 252.255 126.647 261.88 135.221 261.749Z" fill="#FF0000"/>
</g>
</svg>
