<svg width="203" height="288" viewBox="0 0 203 288" fill="none" xmlns="http://www.w3.org/2000/svg">
<mask id="mask0_1865_522" style="mask-type:luminance" maskUnits="userSpaceOnUse" x="0" y="0" width="203" height="288">
<path d="M193 0H10C4.47715 0 0 4.47715 0 10V278C0 283.523 4.47715 288 10 288H193C198.523 288 203 283.523 203 278V10C203 4.47715 198.523 0 193 0Z" fill="white"/>
</mask>
<g mask="url(#mask0_1865_522)">
<path d="M193 0H10C4.47715 0 0 4.47715 0 10V278C0 283.523 4.47715 288 10 288H193C198.523 288 203 283.523 203 278V10C203 4.47715 198.523 0 193 0Z" fill="white"/>
<path d="M7.47852 40.1998C6.39747 40.1998 5.73682 39.4588 5.73682 38.2778V14.3948C5.73682 13.2138 6.39747 12.4728 7.47852 12.4728C8.55958 12.4728 9.24024 13.2138 9.24024 14.3948V38.2778C9.24024 39.4588 8.55958 40.1998 7.47852 40.1998ZM10.2452 26.8668V25.8658C10.2452 17.5778 13.7887 12.0928 19.9747 12.0928C26.1607 12.0928 29.6842 17.5778 29.6842 25.8658V26.8668C29.6842 35.1348 26.1407 40.5808 19.9547 40.5808C13.7887 40.5808 10.2452 35.1548 10.2452 26.8668ZM13.7486 25.8858V26.8268C13.7486 33.4938 16.131 37.5578 19.9747 37.5578C23.8185 37.5578 26.2008 33.4938 26.2008 26.8268V25.8858C26.2008 19.2198 23.7984 15.1358 19.9547 15.1358C16.131 15.1358 13.7486 19.2198 13.7486 25.8858Z" fill="#FF0000"/>
<path d="M13.7347 49.0011C16.4518 49.0421 17.5069 51.398 17.8537 52.509C17.8888 52.622 18.1122 52.622 18.1472 52.509C18.4938 51.398 19.5482 49.0421 22.2653 49.0011C25.8229 48.9461 28.4995 52.929 26.0587 56.929C23.8832 60.494 18.0821 67 18 67C17.9165 67 12.1169 60.494 9.94128 56.929C7.50054 52.929 10.177 48.9461 13.7347 49.0011Z" fill="#FF0000"/>
<path d="M195.521 247.8C196.602 247.8 197.263 248.541 197.263 249.722V273.605C197.263 274.786 196.602 275.527 195.521 275.527C194.44 275.527 193.76 274.786 193.76 273.605V249.722C193.76 248.541 194.44 247.8 195.521 247.8ZM192.755 261.133V262.134C192.755 270.422 189.211 275.907 183.025 275.907C176.839 275.907 173.316 270.422 173.316 262.134V261.133C173.316 252.865 176.859 247.419 183.045 247.419C189.211 247.419 192.755 252.845 192.755 261.133ZM189.251 262.114V261.173C189.251 254.506 186.869 250.442 183.025 250.442C179.181 250.442 176.799 254.506 176.799 261.173V262.114C176.799 268.78 179.201 272.864 183.045 272.864C186.869 272.864 189.251 268.78 189.251 262.114Z" fill="#FF0000"/>
<path d="M189.265 238.999C186.548 238.958 185.493 236.602 185.146 235.491C185.111 235.378 184.888 235.378 184.853 235.491C184.506 236.602 183.452 238.958 180.735 238.999C177.177 239.054 174.501 235.071 176.941 231.071C179.117 227.506 184.918 221 185 221C185.083 221 190.883 227.506 193.059 231.071C195.499 235.071 192.823 239.054 189.265 238.999Z" fill="#FF0000"/>
<path d="M47.2207 26.2508C53.7689 26.3518 56.3116 32.0458 57.1476 34.7308C57.2321 35.0028 57.7704 35.0028 57.8549 34.7308C58.6901 32.0458 61.2313 26.3518 67.7794 26.2508C76.3533 26.1198 82.8039 35.7448 76.9216 45.4108C71.6786 54.0268 57.6979 69.7498 57.5 69.7498C57.2989 69.7498 43.3219 54.0278 38.0785 45.4108C32.1963 35.7448 38.6467 26.1198 47.2207 26.2508Z" fill="#FF0000"/>
<path d="M47.2207 197.749C53.7689 197.648 56.3116 191.954 57.1476 189.269C57.2321 188.997 57.7704 188.997 57.8549 189.269C58.6901 191.954 61.2313 197.648 67.7794 197.749C76.3533 197.88 82.8039 188.255 76.9216 178.589C71.6786 169.973 57.6979 154.25 57.5 154.25C57.2989 154.25 43.3219 169.972 38.0785 178.589C32.1963 188.255 38.6467 197.88 47.2207 197.749Z" fill="#FF0000"/>
<path d="M135.221 26.2508C141.769 26.3518 144.312 32.0458 145.148 34.7308C145.232 35.0028 145.77 35.0028 145.855 34.7308C146.69 32.0458 149.231 26.3518 155.779 26.2508C164.353 26.1198 170.804 35.7448 164.922 45.4108C159.679 54.0268 145.698 69.7498 145.5 69.7498C145.299 69.7498 131.322 54.0278 126.079 45.4108C120.196 35.7448 126.647 26.1198 135.221 26.2508Z" fill="#FF0000"/>
<path d="M47.2207 90.2508C53.7689 90.3518 56.3116 96.0458 57.1476 98.7308C57.2321 99.0028 57.7704 99.0028 57.8549 98.7308C58.6901 96.0458 61.2313 90.3518 67.7794 90.2508C76.3533 90.1198 82.8039 99.7448 76.9216 109.411C71.6786 118.027 57.6979 133.75 57.5 133.75C57.2989 133.75 43.3219 118.028 38.0785 109.411C32.1963 99.7448 38.6467 90.1198 47.2207 90.2508Z" fill="#FF0000"/>
<path d="M47.2207 261.749C53.7689 261.648 56.3116 255.954 57.1476 253.269C57.2321 252.997 57.7704 252.997 57.8549 253.269C58.6901 255.954 61.2313 261.648 67.7794 261.749C76.3533 261.88 82.8039 252.255 76.9216 242.589C71.6786 233.973 57.6979 218.25 57.5 218.25C57.2989 218.25 43.3219 233.972 38.0785 242.589C32.1963 252.255 38.6467 261.88 47.2207 261.749Z" fill="#FF0000"/>
<path d="M135.221 90.2508C141.769 90.3518 144.312 96.0458 145.148 98.7308C145.232 99.0028 145.77 99.0028 145.855 98.7308C146.69 96.0458 149.231 90.3518 155.779 90.2508C164.353 90.1198 170.804 99.7448 164.922 109.411C159.679 118.027 145.698 133.75 145.5 133.75C145.299 133.75 131.322 118.028 126.079 109.411C120.196 99.7448 126.647 90.1198 135.221 90.2508Z" fill="#FF0000"/>
<path d="M91.2207 58.2508C97.7689 58.3518 100.312 64.0458 101.148 66.7308C101.232 67.0028 101.77 67.0028 101.855 66.7308C102.69 64.0458 105.231 58.3518 111.779 58.2508C120.353 58.1198 126.804 67.7448 120.922 77.4108C115.679 86.0268 101.698 101.75 101.5 101.75C101.299 101.75 87.3219 86.0278 82.0785 77.4108C76.1963 67.7448 82.6467 58.1198 91.2207 58.2508Z" fill="#FF0000"/>
<path d="M91.2207 229.749C97.7689 229.648 100.312 223.954 101.148 221.269C101.232 220.997 101.77 220.997 101.855 221.269C102.69 223.954 105.231 229.648 111.779 229.749C120.353 229.88 126.804 220.255 120.922 210.589C115.679 201.973 101.698 186.25 101.5 186.25C101.299 186.25 87.3219 201.972 82.0785 210.589C76.1963 220.255 82.6467 229.88 91.2207 229.749Z" fill="#FF0000"/>
<path d="M135.221 261.749C141.769 261.648 144.312 255.954 145.148 253.269C145.232 252.997 145.77 252.997 145.855 253.269C146.69 255.954 149.231 261.648 155.779 261.749C164.353 261.88 170.804 252.255 164.922 242.589C159.679 233.973 145.698 218.25 145.5 218.25C145.299 218.25 131.322 233.972 126.079 242.589C120.196 252.255 126.647 261.88 135.221 261.749Z" fill="#FF0000"/>
<path d="M135.221 197.749C141.769 197.648 144.312 191.954 145.148 189.269C145.232 188.997 145.77 188.997 145.855 189.269C146.69 191.954 149.231 197.648 155.779 197.749C164.353 197.88 170.804 188.255 164.922 178.589C159.679 169.973 145.698 154.25 145.5 154.25C145.299 154.25 131.322 169.972 126.079 178.589C120.196 188.255 126.647 197.88 135.221 197.749Z" fill="#FF0000"/>
</g>
</svg>
