<svg width="203" height="288" viewBox="0 0 203 288" fill="none" xmlns="http://www.w3.org/2000/svg">
<mask id="mask0_1864_73" style="mask-type:luminance" maskUnits="userSpaceOnUse" x="0" y="0" width="203" height="288">
<path d="M193 0H10C4.47715 0 0 4.47715 0 10V278C0 283.523 4.47715 288 10 288H193C198.523 288 203 283.523 203 278V10C203 4.47715 198.523 0 193 0Z" fill="white"/>
</mask>
<g mask="url(#mask0_1864_73)">
<path d="M193 0H10C4.47715 0 0 4.47715 0 10V278C0 283.523 4.47715 288 10 288H193C198.523 288 203 283.523 203 278V10C203 4.47715 198.523 0 193 0Z" fill="white"/>
<path d="M8.31104 34.395C8.31104 33.494 8.93164 32.853 9.8125 32.853C10.5132 32.853 10.9536 33.213 11.4741 34.234C12.5151 36.376 14.5972 37.578 17.3198 37.578C20.9033 37.578 23.1855 35.616 23.1855 32.553C23.1855 29.49 20.8433 27.428 17.3599 27.428H14.8574C13.9365 27.428 13.2559 26.767 13.2559 25.906C13.2559 25.025 13.8965 24.405 14.8574 24.405H17.2197C20.1426 24.405 22.2646 22.423 22.2646 19.68C22.2646 16.938 20.2026 15.096 17.1396 15.096C14.7573 15.096 12.9556 16.277 12.1548 18.339C11.7544 19.44 11.2539 19.86 10.4731 19.86C9.55224 19.86 8.95166 19.2 8.95166 18.199C8.95166 15.096 12.2949 12.093 17.2197 12.093C22.2246 12.093 25.7881 15.076 25.7881 19.24C25.7881 22.263 23.5259 25.146 20.7432 25.626V25.826C24.1265 26.207 26.709 29.169 26.709 32.613C26.709 37.297 22.8252 40.581 17.2598 40.581C12.0947 40.581 8.31104 37.458 8.31104 34.395Z" fill="black"/>
<path d="M16.2375 68C16.0275 68 15.8572 67.836 15.8572 67.635C15.8572 67.205 16.9342 64.383 17.1943 62.483C17.2256 62.255 16.9357 62.164 16.8047 62.35C16.177 63.24 15.5441 64.192 13.8225 64.215C10.615 64.257 8.76719 61.21 9.77613 58.437C10.2708 57.078 17.0754 48 18 48C18.9245 48 25.7292 57.078 26.2239 58.437C27.2328 61.21 25.385 64.257 22.1775 64.215C20.4559 64.192 19.823 63.24 19.1953 62.35C19.0643 62.164 18.7744 62.255 18.8057 62.483C19.0658 64.383 20.1428 67.205 20.1428 67.635C20.1428 67.836 19.9725 68 19.7625 68H16.2375Z" fill="black"/>
<path d="M194.689 253.605C194.689 254.506 194.068 255.147 193.188 255.147C192.487 255.147 192.046 254.787 191.526 253.766C190.485 251.624 188.403 250.422 185.68 250.422C182.097 250.422 179.814 252.384 179.814 255.447C179.814 258.51 182.157 260.572 185.64 260.572H188.143C189.063 260.572 189.744 261.233 189.744 262.094C189.744 262.975 189.104 263.595 188.143 263.595H185.78C182.857 263.595 180.735 265.577 180.735 268.32C180.735 271.062 182.797 272.904 185.86 272.904C188.243 272.904 190.044 271.723 190.845 269.661C191.246 268.56 191.746 268.14 192.527 268.14C193.448 268.14 194.048 268.8 194.048 269.801C194.048 272.904 190.705 275.907 185.78 275.907C180.775 275.907 177.212 272.924 177.212 268.76C177.212 265.737 179.474 262.854 182.257 262.374V262.174C178.874 261.793 176.291 258.831 176.291 255.387C176.291 250.703 180.175 247.419 185.74 247.419C190.905 247.419 194.689 250.542 194.689 253.605Z" fill="black"/>
<path d="M186.762 220C186.973 220 187.143 220.164 187.143 220.365C187.143 220.795 186.066 223.617 185.806 225.517C185.774 225.745 186.064 225.836 186.195 225.65C186.823 224.76 187.456 223.808 189.178 223.785C192.385 223.743 194.233 226.79 193.224 229.563C192.729 230.922 185.925 240 185 240C184.075 240 177.271 230.922 176.776 229.563C175.767 226.79 177.615 223.743 180.823 223.785C182.544 223.808 183.177 224.76 183.805 225.65C183.936 225.836 184.226 225.745 184.194 225.517C183.934 223.617 182.857 220.795 182.857 220.365C182.857 220.164 183.027 220 183.238 220H186.762Z" fill="black"/>
<path d="M97.353 72C96.8588 72 96.4582 71.608 96.4582 71.123C96.4582 70.093 98.9923 63.318 99.6043 58.76C99.6779 58.211 98.9958 57.993 98.6876 58.439C97.2105 60.576 95.7215 62.861 91.6706 62.916C84.1234 63.017 79.7757 55.704 82.1497 49.05C83.3137 45.787 99.3245 24 101.5 24C103.675 24 119.686 45.787 120.85 49.05C123.224 55.704 118.877 63.017 111.329 62.916C107.279 62.861 105.789 60.576 104.312 58.439C104.004 57.993 103.322 58.211 103.396 58.76C104.008 63.318 106.542 70.093 106.542 71.123C106.542 71.608 106.141 72 105.647 72H97.353Z" fill="black"/>
<path d="M97.353 168C96.8588 168 96.4582 167.608 96.4582 167.123C96.4582 166.093 98.9923 159.318 99.6043 154.76C99.6779 154.211 98.9958 153.993 98.6876 154.439C97.2105 156.576 95.7215 158.861 91.6706 158.916C84.1234 159.017 79.7757 151.704 82.1497 145.05C83.3137 141.787 99.3245 120 101.5 120C103.675 120 119.686 141.787 120.85 145.05C123.224 151.704 118.877 159.017 111.329 158.916C107.279 158.861 105.789 156.576 104.312 154.439C104.004 153.993 103.322 154.211 103.396 154.76C104.008 159.318 106.542 166.093 106.542 167.123C106.542 167.608 106.141 168 105.647 168H97.353Z" fill="black"/>
<path d="M97.353 216C96.8588 216 96.4582 216.392 96.4582 216.877C96.4582 217.907 98.9923 224.682 99.6043 229.24C99.6779 229.789 98.9958 230.007 98.6876 229.561C97.2105 227.424 95.7215 225.139 91.6706 225.084C84.1234 224.983 79.7757 232.296 82.1497 238.95C83.3137 242.213 99.3245 264 101.5 264C103.675 264 119.686 242.213 120.85 238.95C123.224 232.296 118.877 224.983 111.329 225.084C107.279 225.139 105.789 227.424 104.312 229.561C104.004 230.007 103.322 229.789 103.396 229.24C104.008 224.682 106.542 217.907 106.542 216.877C106.542 216.392 106.141 216 105.647 216H97.353Z" fill="black"/>
</g>
</svg>
