<svg width="203" height="288" viewBox="0 0 203 288" fill="none" xmlns="http://www.w3.org/2000/svg">
<mask id="mask0_1865_465" style="mask-type:luminance" maskUnits="userSpaceOnUse" x="0" y="0" width="203" height="288">
<path d="M193 0H10C4.47715 0 0 4.47715 0 10V278C0 283.523 4.47715 288 10 288H193C198.523 288 203 283.523 203 278V10C203 4.47715 198.523 0 193 0Z" fill="white"/>
</mask>
<g mask="url(#mask0_1865_465)">
<path d="M193 0H10C4.47715 0 0 4.47715 0 10V278C0 283.523 4.47715 288 10 288H193C198.523 288 203 283.523 203 278V10C203 4.47715 198.523 0 193 0Z" fill="white"/>
<path d="M8.95166 35.9357C8.95166 35.0347 9.57227 34.4548 10.4331 34.4548C10.9736 34.4548 11.394 34.6948 12.1348 35.4158C13.5962 36.8568 15.0776 37.5178 16.9194 37.5178C21.4438 37.5178 23.7461 33.3737 23.7461 26.1667H23.5659C22.5649 28.8687 20.0024 30.4908 16.7393 30.4908C11.6143 30.4908 8.05078 26.7268 8.05078 21.3218C8.05078 15.7558 11.8345 12.0527 17.52 12.0527C23.7861 12.0527 27.1294 16.9377 27.1294 26.0057C27.1294 35.5557 23.666 40.5208 16.9795 40.5208C14.7773 40.5208 12.6953 39.9598 11.1338 38.9388C9.79248 38.0578 8.95166 36.9367 8.95166 35.9357ZM23.1455 21.4017C23.1455 17.6577 20.7832 15.0958 17.3198 15.0958C13.8765 15.0958 11.5142 17.6578 11.5142 21.3818C11.5142 25.0248 13.8364 27.4678 17.3198 27.4678C20.8232 27.4678 23.1455 25.0447 23.1455 21.4017Z" fill="black"/>
<path d="M16.2375 68C16.0275 68 15.8572 67.836 15.8572 67.635C15.8572 67.205 16.9342 64.383 17.1943 62.483C17.2256 62.255 16.9357 62.164 16.8047 62.35C16.177 63.24 15.5441 64.192 13.8225 64.215C10.615 64.257 8.76719 61.21 9.77613 58.437C10.2708 57.078 17.0754 48 18 48C18.9245 48 25.7292 57.078 26.2239 58.437C27.2328 61.21 25.385 64.257 22.1775 64.215C20.4559 64.192 19.823 63.24 19.1953 62.35C19.0643 62.164 18.7744 62.255 18.8057 62.483C19.0658 64.383 20.1428 67.205 20.1428 67.635C20.1428 67.836 19.9725 68 19.7625 68H16.2375Z" fill="black"/>
<path d="M194.048 252.064C194.048 252.965 193.428 253.545 192.567 253.545C192.026 253.545 191.606 253.305 190.865 252.584C189.404 251.143 187.922 250.482 186.081 250.482C181.556 250.482 179.254 254.626 179.254 261.833H179.434C180.435 259.131 182.998 257.509 186.261 257.509C191.386 257.509 194.949 261.273 194.949 266.678C194.949 272.244 191.166 275.947 185.48 275.947C179.214 275.947 175.871 271.062 175.871 261.994C175.871 252.444 179.334 247.479 186.021 247.479C188.223 247.479 190.305 248.04 191.866 249.061C193.208 249.942 194.048 251.063 194.048 252.064ZM179.854 266.598C179.854 270.342 182.217 272.904 185.68 272.904C189.124 272.904 191.486 270.342 191.486 266.618C191.486 262.975 189.164 260.532 185.68 260.532C182.177 260.532 179.854 262.955 179.854 266.598Z" fill="black"/>
<path d="M186.762 220C186.973 220 187.143 220.164 187.143 220.365C187.143 220.795 186.066 223.617 185.806 225.517C185.774 225.745 186.064 225.836 186.195 225.65C186.823 224.76 187.456 223.808 189.178 223.785C192.385 223.743 194.233 226.79 193.224 229.563C192.729 230.922 185.925 240 185 240C184.075 240 177.271 230.922 176.776 229.563C175.767 226.79 177.615 223.743 180.823 223.785C182.544 223.808 183.177 224.76 183.805 225.65C183.936 225.836 184.226 225.745 184.194 225.517C183.934 223.617 182.857 220.795 182.857 220.365C182.857 220.164 183.027 220 183.238 220H186.762Z" fill="black"/>
<path d="M53.353 72C52.8588 72 52.4582 71.608 52.4582 71.123C52.4582 70.093 54.9923 63.318 55.6043 58.76C55.6779 58.211 54.9958 57.993 54.6876 58.439C53.2105 60.576 51.7215 62.861 47.6706 62.916C40.1234 63.017 35.7757 55.704 38.1497 49.05C39.3137 45.787 55.3245 24 57.5 24C59.6754 24 75.6864 45.787 76.8503 49.05C79.2243 55.704 74.8766 63.017 67.3294 62.916C63.2785 62.861 61.7895 60.576 60.3124 58.439C60.0042 57.993 59.3221 58.211 59.3957 58.76C60.0077 63.318 62.5418 70.093 62.5418 71.123C62.5418 71.608 62.1412 72 61.647 72H53.353Z" fill="black"/>
<path d="M53.353 152C52.8588 152 52.4582 152.392 52.4582 152.877C52.4582 153.907 54.9923 160.682 55.6043 165.24C55.6779 165.789 54.9958 166.007 54.6876 165.561C53.2105 163.424 51.7215 161.139 47.6706 161.084C40.1234 160.983 35.7757 168.296 38.1497 174.95C39.3137 178.213 55.3245 200 57.5 200C59.6754 200 75.6864 178.213 76.8503 174.95C79.2243 168.296 74.8766 160.983 67.3294 161.084C63.2785 161.139 61.7895 163.424 60.3124 165.561C60.0042 166.007 59.3221 165.789 59.3957 165.24C60.0077 160.682 62.5418 153.907 62.5418 152.877C62.5418 152.392 62.1412 152 61.647 152H53.353Z" fill="black"/>
<path d="M141.353 72C140.859 72 140.458 71.608 140.458 71.123C140.458 70.093 142.992 63.318 143.604 58.76C143.678 58.211 142.996 57.993 142.688 58.439C141.211 60.576 139.721 62.861 135.671 62.916C128.123 63.017 123.776 55.704 126.15 49.05C127.314 45.787 143.325 24 145.5 24C147.675 24 163.686 45.787 164.85 49.05C167.224 55.704 162.877 63.017 155.329 62.916C151.279 62.861 149.789 60.576 148.312 58.439C148.004 57.993 147.322 58.211 147.396 58.76C148.008 63.318 150.542 70.093 150.542 71.123C150.542 71.608 150.141 72 149.647 72H141.353Z" fill="black"/>
<path d="M53.353 136C52.8588 136 52.4582 135.608 52.4582 135.123C52.4582 134.093 54.9923 127.318 55.6043 122.76C55.6779 122.211 54.9958 121.993 54.6876 122.439C53.2105 124.576 51.7215 126.861 47.6706 126.916C40.1234 127.017 35.7757 119.704 38.1497 113.05C39.3137 109.787 55.3245 88 57.5 88C59.6754 88 75.6864 109.787 76.8503 113.05C79.2243 119.704 74.8766 127.017 67.3294 126.916C63.2785 126.861 61.7895 124.576 60.3124 122.439C60.0042 121.993 59.3221 122.211 59.3957 122.76C60.0077 127.318 62.5418 134.093 62.5418 135.123C62.5418 135.608 62.1412 136 61.647 136H53.353Z" fill="black"/>
<path d="M53.353 216C52.8588 216 52.4582 216.392 52.4582 216.877C52.4582 217.907 54.9923 224.682 55.6043 229.24C55.6779 229.789 54.9958 230.007 54.6876 229.561C53.2105 227.424 51.7215 225.139 47.6706 225.084C40.1234 224.983 35.7757 232.296 38.1497 238.95C39.3137 242.213 55.3245 264 57.5 264C59.6754 264 75.6864 242.213 76.8503 238.95C79.2243 232.296 74.8766 224.983 67.3294 225.084C63.2785 225.139 61.7895 227.424 60.3124 229.561C60.0042 230.007 59.3221 229.789 59.3957 229.24C60.0077 224.682 62.5418 217.907 62.5418 216.877C62.5418 216.392 62.1412 216 61.647 216H53.353Z" fill="black"/>
<path d="M141.353 136C140.859 136 140.458 135.608 140.458 135.123C140.458 134.093 142.992 127.318 143.604 122.76C143.678 122.211 142.996 121.993 142.688 122.439C141.211 124.576 139.721 126.861 135.671 126.916C128.123 127.017 123.776 119.704 126.15 113.05C127.314 109.787 143.325 88 145.5 88C147.675 88 163.686 109.787 164.85 113.05C167.224 119.704 162.877 127.017 155.329 126.916C151.279 126.861 149.789 124.576 148.312 122.439C148.004 121.993 147.322 122.211 147.396 122.76C148.008 127.318 150.542 134.093 150.542 135.123C150.542 135.608 150.141 136 149.647 136H141.353Z" fill="black"/>
<path d="M97.353 168C96.8588 168 96.4582 167.608 96.4582 167.123C96.4582 166.093 98.9923 159.318 99.6043 154.76C99.6779 154.211 98.9958 153.993 98.6876 154.439C97.2105 156.576 95.7215 158.861 91.6706 158.916C84.1234 159.017 79.7757 151.704 82.1497 145.05C83.3137 141.787 99.3245 120 101.5 120C103.675 120 119.686 141.787 120.85 145.05C123.224 151.704 118.877 159.017 111.329 158.916C107.279 158.861 105.789 156.576 104.312 154.439C104.004 153.993 103.322 154.211 103.396 154.76C104.008 159.318 106.542 166.093 106.542 167.123C106.542 167.608 106.141 168 105.647 168H97.353Z" fill="black"/>
<path d="M141.353 216C140.859 216 140.458 216.392 140.458 216.877C140.458 217.907 142.992 224.682 143.604 229.24C143.678 229.789 142.996 230.007 142.688 229.561C141.211 227.424 139.721 225.139 135.671 225.084C128.123 224.983 123.776 232.296 126.15 238.95C127.314 242.213 143.325 264 145.5 264C147.675 264 163.686 242.213 164.85 238.95C167.224 232.296 162.877 224.983 155.329 225.084C151.279 225.139 149.789 227.424 148.312 229.561C148.004 230.007 147.322 229.789 147.396 229.24C148.008 224.682 150.542 217.907 150.542 216.877C150.542 216.392 150.141 216 149.647 216H141.353Z" fill="black"/>
<path d="M141.353 152C140.859 152 140.458 152.392 140.458 152.877C140.458 153.907 142.992 160.682 143.604 165.24C143.678 165.789 142.996 166.007 142.688 165.561C141.211 163.424 139.721 161.139 135.671 161.084C128.123 160.983 123.776 168.296 126.15 174.95C127.314 178.213 143.325 200 145.5 200C147.675 200 163.686 178.213 164.85 174.95C167.224 168.296 162.877 160.983 155.329 161.084C151.279 161.139 149.789 163.424 148.312 165.561C148.004 166.007 147.322 165.789 147.396 165.24C148.008 160.682 150.542 153.907 150.542 152.877C150.542 152.392 150.141 152 149.647 152H141.353Z" fill="black"/>
</g>
</svg>
