<svg width="203" height="288" viewBox="0 0 203 288" fill="none" xmlns="http://www.w3.org/2000/svg">
<mask id="mask0_1865_685" style="mask-type:luminance" maskUnits="userSpaceOnUse" x="0" y="0" width="203" height="288">
<path d="M193 0H10C4.47715 0 0 4.47715 0 10V278C0 283.523 4.47715 288 10 288H193C198.523 288 203 283.523 203 278V10C203 4.47715 198.523 0 193 0Z" fill="white"/>
</mask>
<g mask="url(#mask0_1865_685)">
<path d="M193 0H10C4.47715 0 0 4.47715 0 10V278C0 283.523 4.47715 288 10 288H193C198.523 288 203 283.523 203 278V10C203 4.47715 198.523 0 193 0Z" fill="white"/>
<path d="M19.9229 14.4151C19.9229 13.2141 20.5835 12.4731 21.6646 12.4731C22.7456 12.4731 23.4263 13.2141 23.4263 14.4151V32.1921C23.4263 37.3771 20.4233 40.5811 15.5986 40.5811C12.9961 40.5811 10.9341 39.8001 9.5127 38.3181C8.5918 37.3571 8.03125 36.1561 8.03125 35.0751C8.03125 34.0341 8.5918 33.3941 9.49268 33.3941C10.1934 33.3941 10.5737 33.7341 11.0942 34.7551C11.9551 36.5171 13.4365 37.4381 15.4585 37.4381C18.2812 37.4381 19.9229 35.5761 19.9229 32.3331V14.4151Z" fill="black"/>
<path d="M16.2375 68C16.0275 68 15.8572 67.836 15.8572 67.635C15.8572 67.205 16.9342 64.383 17.1943 62.483C17.2256 62.255 16.9357 62.164 16.8047 62.35C16.177 63.24 15.5441 64.192 13.8225 64.215C10.615 64.257 8.76719 61.21 9.77613 58.437C10.2708 57.078 17.0754 48 18 48C18.9245 48 25.7292 57.078 26.2239 58.437C27.2328 61.21 25.385 64.257 22.1775 64.215C20.4559 64.192 19.823 63.24 19.1953 62.35C19.0643 62.164 18.7744 62.255 18.8057 62.483C19.0658 64.383 20.1428 67.205 20.1428 67.635C20.1428 67.836 19.9725 68 19.7625 68H16.2375Z" fill="black"/>
<path d="M183.077 273.585C183.077 274.786 182.417 275.527 181.335 275.527C180.254 275.527 179.574 274.786 179.574 273.585V255.808C179.574 250.623 182.577 247.419 187.401 247.419C190.004 247.419 192.066 248.2 193.487 249.682C194.408 250.643 194.969 251.844 194.969 252.925C194.969 253.966 194.408 254.606 193.507 254.606C192.807 254.606 192.426 254.266 191.906 253.245C191.045 251.483 189.563 250.562 187.542 250.562C184.719 250.562 183.077 252.424 183.077 255.667V273.585Z" fill="black"/>
<path d="M186.762 220C186.973 220 187.143 220.164 187.143 220.365C187.143 220.795 186.066 223.617 185.806 225.517C185.774 225.745 186.064 225.836 186.195 225.65C186.823 224.76 187.456 223.808 189.178 223.785C192.385 223.743 194.233 226.79 193.224 229.563C192.729 230.922 185.925 240 185 240C184.075 240 177.271 230.922 176.776 229.563C175.767 226.79 177.615 223.743 180.823 223.785C182.544 223.808 183.177 224.76 183.805 225.65C183.936 225.836 184.226 225.745 184.194 225.517C183.934 223.617 182.857 220.795 182.857 220.365C182.857 220.164 183.027 220 183.238 220H186.762Z" fill="black"/>
</g>
</svg>
