<svg width="203" height="288" viewBox="0 0 203 288" fill="none" xmlns="http://www.w3.org/2000/svg">
<mask id="mask0_1865_393" style="mask-type:luminance" maskUnits="userSpaceOnUse" x="0" y="0" width="203" height="288">
<path d="M193 0H10C4.47715 0 0 4.47715 0 10V278C0 283.523 4.47715 288 10 288H193C198.523 288 203 283.523 203 278V10C203 4.47715 198.523 0 193 0Z" fill="white"/>
</mask>
<g mask="url(#mask0_1865_393)">
<path d="M193 0H10C4.47715 0 0 4.47715 0 10V278C0 283.523 4.47715 288 10 288H193C198.523 288 203 283.523 203 278V10C203 4.47715 198.523 0 193 0Z" fill="white"/>
<path d="M16.9199 40.5807C11.2744 40.5807 7.35059 37.2968 7.35059 32.5728C7.35059 29.2698 9.57275 26.4867 12.876 25.6857V25.4858C10.1934 24.6048 8.43164 22.1828 8.43164 19.3998C8.43164 15.1958 12.0352 12.0928 17 12.0928C21.9648 12.0928 25.5884 15.1958 25.5884 19.3998C25.5884 22.1428 23.7666 24.6048 21.124 25.4858V25.6857C24.3872 26.4667 26.6294 29.2698 26.6294 32.5328C26.6294 37.2368 22.5854 40.5807 16.9199 40.5807ZM17 24.3047C20.043 24.3047 22.1851 22.3628 22.1851 19.6398C22.1851 16.9378 20.063 15.0558 17 15.0558C13.957 15.0558 11.8149 16.9578 11.8149 19.6398C11.8149 22.3428 13.9771 24.3047 17 24.3047ZM17 37.6578C20.6235 37.6578 23.2261 35.4757 23.2261 32.4327C23.2261 29.3897 20.6235 27.1667 17 27.1667C13.3765 27.1667 10.7739 29.3697 10.7739 32.4327C10.7739 35.4757 13.3765 37.6578 17 37.6578Z" fill="black"/>
<path d="M16.2375 68C16.0275 68 15.8572 67.836 15.8572 67.635C15.8572 67.205 16.9342 64.383 17.1943 62.483C17.2256 62.255 16.9357 62.164 16.8047 62.35C16.177 63.24 15.5441 64.192 13.8225 64.215C10.615 64.257 8.76719 61.21 9.77613 58.437C10.2708 57.078 17.0754 48 18 48C18.9245 48 25.7292 57.078 26.2239 58.437C27.2328 61.21 25.385 64.257 22.1775 64.215C20.4559 64.192 19.823 63.24 19.1953 62.35C19.0643 62.164 18.7744 62.255 18.8057 62.483C19.0658 64.383 20.1428 67.205 20.1428 67.635C20.1428 67.836 19.9725 68 19.7625 68H16.2375Z" fill="black"/>
<path d="M186.08 247.419C191.726 247.419 195.649 250.703 195.649 255.427C195.649 258.73 193.427 261.513 190.124 262.314V262.514C192.807 263.395 194.568 265.817 194.568 268.6C194.568 272.804 190.965 275.907 186 275.907C181.035 275.907 177.412 272.804 177.412 268.6C177.412 265.857 179.233 263.395 181.876 262.514V262.314C178.613 261.533 176.371 258.73 176.371 255.467C176.371 250.763 180.415 247.419 186.08 247.419ZM186 263.695C182.957 263.695 180.815 265.637 180.815 268.36C180.815 271.062 182.937 272.944 186 272.944C189.043 272.944 191.185 271.042 191.185 268.36C191.185 265.657 189.023 263.695 186 263.695ZM186 250.342C182.376 250.342 179.774 252.524 179.774 255.567C179.774 258.61 182.376 260.833 186 260.833C189.624 260.833 192.226 258.63 192.226 255.567C192.226 252.524 189.624 250.342 186 250.342Z" fill="black"/>
<path d="M186.762 220C186.973 220 187.143 220.164 187.143 220.365C187.143 220.795 186.066 223.617 185.806 225.517C185.774 225.745 186.064 225.836 186.195 225.65C186.823 224.76 187.456 223.808 189.178 223.785C192.385 223.743 194.233 226.79 193.224 229.563C192.729 230.922 185.925 240 185 240C184.075 240 177.271 230.922 176.776 229.563C175.767 226.79 177.615 223.743 180.823 223.785C182.544 223.808 183.177 224.76 183.805 225.65C183.936 225.836 184.226 225.745 184.194 225.517C183.934 223.617 182.857 220.795 182.857 220.365C182.857 220.164 183.027 220 183.238 220H186.762Z" fill="black"/>
<path d="M53.353 72C52.8588 72 52.4582 71.608 52.4582 71.123C52.4582 70.093 54.9923 63.318 55.6043 58.76C55.6779 58.211 54.9958 57.993 54.6876 58.439C53.2105 60.576 51.7215 62.861 47.6706 62.916C40.1234 63.017 35.7757 55.704 38.1497 49.05C39.3137 45.787 55.3245 24 57.5 24C59.6754 24 75.6864 45.787 76.8503 49.05C79.2243 55.704 74.8766 63.017 67.3294 62.916C63.2785 62.861 61.7895 60.576 60.3124 58.439C60.0042 57.993 59.3221 58.211 59.3957 58.76C60.0077 63.318 62.5418 70.093 62.5418 71.123C62.5418 71.608 62.1412 72 61.647 72H53.353Z" fill="black"/>
<path d="M53.353 216C52.8588 216 52.4582 216.392 52.4582 216.877C52.4582 217.907 54.9923 224.682 55.6043 229.24C55.6779 229.789 54.9958 230.007 54.6876 229.561C53.2105 227.424 51.7215 225.139 47.6706 225.084C40.1234 224.983 35.7757 232.296 38.1497 238.95C39.3137 242.213 55.3245 264 57.5 264C59.6754 264 75.6864 242.213 76.8503 238.95C79.2243 232.296 74.8766 224.983 67.3294 225.084C63.2785 225.139 61.7895 227.424 60.3124 229.561C60.0042 230.007 59.3221 229.789 59.3957 229.24C60.0077 224.682 62.5418 217.907 62.5418 216.877C62.5418 216.392 62.1412 216 61.647 216H53.353Z" fill="black"/>
<path d="M141.353 72C140.859 72 140.458 71.608 140.458 71.123C140.458 70.093 142.992 63.318 143.604 58.76C143.678 58.211 142.996 57.993 142.688 58.439C141.211 60.576 139.721 62.861 135.671 62.916C128.123 63.017 123.776 55.704 126.15 49.05C127.314 45.787 143.325 24 145.5 24C147.675 24 163.686 45.787 164.85 49.05C167.224 55.704 162.877 63.017 155.329 62.916C151.279 62.861 149.789 60.576 148.312 58.439C148.004 57.993 147.322 58.211 147.396 58.76C148.008 63.318 150.542 70.093 150.542 71.123C150.542 71.608 150.141 72 149.647 72H141.353Z" fill="black"/>
<path d="M53.353 168C52.8588 168 52.4582 167.608 52.4582 167.123C52.4582 166.093 54.9923 159.318 55.6043 154.76C55.6779 154.211 54.9958 153.993 54.6876 154.439C53.2105 156.576 51.7215 158.861 47.6706 158.916C40.1234 159.017 35.7757 151.704 38.1497 145.05C39.3137 141.787 55.3245 120 57.5 120C59.6754 120 75.6864 141.787 76.8503 145.05C79.2243 151.704 74.8766 159.017 67.3294 158.916C63.2785 158.861 61.7895 156.576 60.3124 154.439C60.0042 153.993 59.3221 154.211 59.3957 154.76C60.0077 159.318 62.5418 166.093 62.5418 167.123C62.5418 167.608 62.1412 168 61.647 168H53.353Z" fill="black"/>
<path d="M97.353 120C96.8588 120 96.4582 119.608 96.4582 119.123C96.4582 118.093 98.9923 111.318 99.6043 106.76C99.6779 106.211 98.9958 105.993 98.6876 106.439C97.2105 108.576 95.7215 110.861 91.6706 110.916C84.1234 111.017 79.7757 103.704 82.1497 97.05C83.3137 93.787 99.3245 72 101.5 72C103.675 72 119.686 93.787 120.85 97.05C123.224 103.704 118.877 111.017 111.329 110.916C107.279 110.861 105.789 108.576 104.312 106.439C104.004 105.993 103.322 106.211 103.396 106.76C104.008 111.318 106.542 118.093 106.542 119.123C106.542 119.608 106.141 120 105.647 120H97.353Z" fill="black"/>
<path d="M97.353 168C96.8588 168 96.4582 168.392 96.4582 168.877C96.4582 169.907 98.9923 176.682 99.6043 181.24C99.6779 181.789 98.9958 182.007 98.6876 181.561C97.2105 179.424 95.7215 177.139 91.6706 177.084C84.1234 176.983 79.7757 184.296 82.1497 190.95C83.3137 194.213 99.3245 216 101.5 216C103.675 216 119.686 194.213 120.85 190.95C123.224 184.296 118.877 176.983 111.329 177.084C107.279 177.139 105.789 179.424 104.312 181.561C104.004 182.007 103.322 181.789 103.396 181.24C104.008 176.682 106.542 169.907 106.542 168.877C106.542 168.392 106.141 168 105.647 168H97.353Z" fill="black"/>
<path d="M141.353 168C140.859 168 140.458 167.608 140.458 167.123C140.458 166.093 142.992 159.318 143.604 154.76C143.678 154.211 142.996 153.993 142.688 154.439C141.211 156.576 139.721 158.861 135.671 158.916C128.123 159.017 123.776 151.704 126.15 145.05C127.314 141.787 143.325 120 145.5 120C147.675 120 163.686 141.787 164.85 145.05C167.224 151.704 162.877 159.017 155.329 158.916C151.279 158.861 149.789 156.576 148.312 154.439C148.004 153.993 147.322 154.211 147.396 154.76C148.008 159.318 150.542 166.093 150.542 167.123C150.542 167.608 150.141 168 149.647 168H141.353Z" fill="black"/>
<path d="M141.353 216C140.859 216 140.458 216.392 140.458 216.877C140.458 217.907 142.992 224.682 143.604 229.24C143.678 229.789 142.996 230.007 142.688 229.561C141.211 227.424 139.721 225.139 135.671 225.084C128.123 224.983 123.776 232.296 126.15 238.95C127.314 242.213 143.325 264 145.5 264C147.675 264 163.686 242.213 164.85 238.95C167.224 232.296 162.877 224.983 155.329 225.084C151.279 225.139 149.789 227.424 148.312 229.561C148.004 230.007 147.322 229.789 147.396 229.24C148.008 224.682 150.542 217.907 150.542 216.877C150.542 216.392 150.141 216 149.647 216H141.353Z" fill="black"/>
</g>
</svg>
