<svg width="203" height="288" viewBox="0 0 203 288" fill="none" xmlns="http://www.w3.org/2000/svg">
<mask id="mask0_1863_25" style="mask-type:luminance" maskUnits="userSpaceOnUse" x="0" y="0" width="203" height="288">
<path d="M193 0H10C4.47715 0 0 4.47715 0 10V278C0 283.523 4.47715 288 10 288H193C198.523 288 203 283.523 203 278V10C203 4.47715 198.523 0 193 0Z" fill="white"/>
</mask>
<g mask="url(#mask0_1863_25)">
<path d="M193 0H10C4.47715 0 0 4.47715 0 10V278C0 283.523 4.47715 288 10 288H193C198.523 288 203 283.523 203 278V10C203 4.47715 198.523 0 193 0Z" fill="white"/>
<path d="M9.23193 38.138C9.23193 37.417 9.57227 36.857 10.7534 35.516L19.0815 25.986C21.3438 23.404 22.2046 21.722 22.2046 19.84C22.2046 17.018 20.1826 15.136 17.1396 15.136C14.5571 15.136 12.6553 16.677 12.0547 19.28C11.7744 20.341 11.2139 20.881 10.3931 20.881C9.41211 20.881 8.77148 20.141 8.77148 19.06C8.77148 15.656 12.0747 12.093 17.3599 12.093C22.2847 12.093 25.748 15.216 25.748 19.62C25.748 22.223 24.7271 24.125 21.1235 28.229L13.7163 36.697V36.937H24.8271C25.8882 36.937 26.5688 37.518 26.5688 38.479C26.5688 39.419 25.9282 40 24.8271 40H11.6143C10.1528 40 9.23193 39.299 9.23193 38.138Z" fill="black"/>
<path d="M16.2375 68C16.0275 68 15.8572 67.836 15.8572 67.635C15.8572 67.205 16.9342 64.383 17.1943 62.483C17.2256 62.255 16.9357 62.164 16.8047 62.35C16.177 63.24 15.5441 64.192 13.8225 64.215C10.615 64.257 8.76719 61.21 9.77613 58.437C10.2708 57.078 17.0754 48 18 48C18.9245 48 25.7292 57.078 26.2239 58.437C27.2328 61.21 25.385 64.257 22.1775 64.215C20.4559 64.192 19.823 63.24 19.1953 62.35C19.0643 62.164 18.7744 62.255 18.8057 62.483C19.0658 64.383 20.1428 67.205 20.1428 67.635C20.1428 67.836 19.9725 68 19.7625 68H16.2375Z" fill="black"/>
<path d="M193.768 249.862C193.768 250.583 193.428 251.143 192.247 252.484L183.918 262.014C181.656 264.596 180.795 266.278 180.795 268.16C180.795 270.982 182.817 272.864 185.86 272.864C188.443 272.864 190.345 271.323 190.945 268.72C191.226 267.659 191.786 267.119 192.607 267.119C193.588 267.119 194.229 267.859 194.229 268.94C194.229 272.344 190.925 275.907 185.64 275.907C180.715 275.907 177.252 272.784 177.252 268.38C177.252 265.777 178.273 263.875 181.876 259.771L189.284 251.303V251.063H178.173C177.112 251.063 176.431 250.482 176.431 249.521C176.431 248.581 177.072 248 178.173 248H191.386C192.847 248 193.768 248.701 193.768 249.862Z" fill="black"/>
<path d="M186.762 220C186.973 220 187.143 220.164 187.143 220.365C187.143 220.795 186.066 223.617 185.806 225.517C185.774 225.745 186.064 225.836 186.195 225.65C186.823 224.76 187.456 223.808 189.178 223.785C192.385 223.743 194.233 226.79 193.224 229.563C192.729 230.922 185.925 240 185 240C184.075 240 177.271 230.922 176.776 229.563C175.767 226.79 177.615 223.743 180.823 223.785C182.544 223.808 183.177 224.76 183.805 225.65C183.936 225.836 184.226 225.745 184.194 225.517C183.934 223.617 182.857 220.795 182.857 220.365C182.857 220.164 183.027 220 183.238 220H186.762Z" fill="black"/>
<path d="M97.353 72C96.8588 72 96.4582 71.608 96.4582 71.123C96.4582 70.093 98.9923 63.318 99.6043 58.76C99.6779 58.211 98.9958 57.993 98.6876 58.439C97.2105 60.576 95.7215 62.861 91.6706 62.916C84.1234 63.017 79.7757 55.704 82.1497 49.05C83.3137 45.787 99.3245 24 101.5 24C103.675 24 119.686 45.787 120.85 49.05C123.224 55.704 118.877 63.017 111.329 62.916C107.279 62.861 105.789 60.576 104.312 58.439C104.004 57.993 103.322 58.211 103.396 58.76C104.008 63.318 106.542 70.093 106.542 71.123C106.542 71.608 106.141 72 105.647 72H97.353Z" fill="black"/>
<path d="M97.353 216C96.8588 216 96.4582 216.392 96.4582 216.877C96.4582 217.907 98.9923 224.682 99.6043 229.24C99.6779 229.789 98.9958 230.007 98.6876 229.561C97.2105 227.424 95.7215 225.139 91.6706 225.084C84.1234 224.983 79.7757 232.296 82.1497 238.95C83.3137 242.213 99.3245 264 101.5 264C103.675 264 119.686 242.213 120.85 238.95C123.224 232.296 118.877 224.983 111.329 225.084C107.279 225.139 105.789 227.424 104.312 229.561C104.004 230.007 103.322 229.789 103.396 229.24C104.008 224.682 106.542 217.907 106.542 216.877C106.542 216.392 106.141 216 105.647 216H97.353Z" fill="black"/>
</g>
</svg>
