<svg width="203" height="288" viewBox="0 0 203 288" fill="none" xmlns="http://www.w3.org/2000/svg">
<mask id="mask0_1865_769" style="mask-type:luminance" maskUnits="userSpaceOnUse" x="0" y="0" width="203" height="288">
<path d="M193 0H10C4.47715 0 0 4.47715 0 10V278C0 283.523 4.47715 288 10 288H193C198.523 288 203 283.523 203 278V10C203 4.47715 198.523 0 193 0Z" fill="white"/>
</mask>
<g mask="url(#mask0_1865_769)">
<path d="M193 0H10C4.47715 0 0 4.47715 0 10V278C0 283.523 4.47715 288 10 288H193C198.523 288 203 283.523 203 278V10C203 4.47715 198.523 0 193 0Z" fill="white"/>
<path d="M25.7485 40.0601C25.0479 40.0601 24.4473 39.6601 23.7466 38.6791L15.3584 26.8071L11.915 30.3711V38.2781C11.915 39.4591 11.2344 40.2001 10.1533 40.2001C9.07227 40.2001 8.41162 39.4591 8.41162 38.2781V14.3951C8.41162 13.2141 9.07227 12.4731 10.1533 12.4731C11.2344 12.4731 11.915 13.2141 11.915 14.3951V25.8461H12.0752L23.4663 13.6941C24.207 12.8741 24.6675 12.6131 25.248 12.6131C26.1289 12.6131 26.7896 13.2941 26.7896 14.1351C26.7896 14.6551 26.6294 14.9561 25.8286 15.7961L17.9609 24.4052L26.5293 36.2961C27.3701 37.4581 27.5503 37.8181 27.5503 38.3381C27.5503 39.3591 26.8096 40.0601 25.7485 40.0601Z" fill="black"/>
<path d="M16.2375 68C16.0275 68 15.8572 67.836 15.8572 67.635C15.8572 67.205 16.9342 64.383 17.1943 62.483C17.2256 62.255 16.9357 62.164 16.8047 62.35C16.177 63.24 15.5441 64.192 13.8225 64.215C10.615 64.257 8.76719 61.21 9.77613 58.437C10.2708 57.078 17.0754 48 18 48C18.9245 48 25.7292 57.078 26.2239 58.437C27.2328 61.21 25.385 64.257 22.1775 64.215C20.4559 64.192 19.823 63.24 19.1953 62.35C19.0643 62.164 18.7744 62.255 18.8057 62.483C19.0658 64.383 20.1428 67.205 20.1428 67.635C20.1428 67.836 19.9725 68 19.7625 68H16.2375Z" fill="black"/>
<path d="M177.251 247.94C177.952 247.94 178.553 248.34 179.253 249.321L187.642 261.193L191.085 257.629V249.722C191.085 248.541 191.766 247.8 192.847 247.8C193.928 247.8 194.588 248.541 194.588 249.722V273.605C194.588 274.786 193.928 275.527 192.847 275.527C191.766 275.527 191.085 274.786 191.085 273.605V262.154H190.925L179.534 274.306C178.793 275.126 178.333 275.387 177.752 275.387C176.871 275.387 176.21 274.706 176.21 273.865C176.21 273.345 176.371 273.044 177.171 272.204L185.039 263.595L176.471 251.704C175.63 250.542 175.45 250.182 175.45 249.662C175.45 248.641 176.19 247.94 177.251 247.94Z" fill="black"/>
<path d="M186.762 220C186.973 220 187.143 220.164 187.143 220.365C187.143 220.795 186.066 223.617 185.806 225.517C185.774 225.745 186.064 225.836 186.195 225.65C186.823 224.76 187.456 223.808 189.178 223.785C192.385 223.743 194.233 226.79 193.224 229.563C192.729 230.922 185.925 240 185 240C184.075 240 177.271 230.922 176.776 229.563C175.767 226.79 177.615 223.743 180.823 223.785C182.544 223.808 183.177 224.76 183.805 225.65C183.936 225.836 184.226 225.745 184.194 225.517C183.934 223.617 182.857 220.795 182.857 220.365C182.857 220.164 183.027 220 183.238 220H186.762Z" fill="black"/>
</g>
</svg>
