<svg width="203" height="288" viewBox="0 0 203 288" fill="none" xmlns="http://www.w3.org/2000/svg">
<mask id="mask0_1865_727" style="mask-type:luminance" maskUnits="userSpaceOnUse" x="0" y="0" width="203" height="288">
<path d="M193 0H10C4.47715 0 0 4.47715 0 10V278C0 283.523 4.47715 288 10 288H193C198.523 288 203 283.523 203 278V10C203 4.47715 198.523 0 193 0Z" fill="white"/>
</mask>
<g mask="url(#mask0_1865_727)">
<path d="M193 0H10C4.47715 0 0 4.47715 0 10V278C0 283.523 4.47715 288 10 288H193C198.523 288 203 283.523 203 278V10C203 4.47715 198.523 0 193 0Z" fill="white"/>
<path d="M25.8081 43.0228C25.0273 43.0228 24.4868 42.6628 23.8062 41.7418L22.2646 39.6198C20.8833 40.2398 19.3018 40.5807 17.5 40.5807C10.5933 40.5807 6.56934 35.9958 6.56934 28.4888V24.4648C6.56934 16.8368 10.7734 12.0928 17.5 12.0928C24.1265 12.0928 28.4507 16.8368 28.4507 24.4648V28.4888C28.4507 32.7728 27.1895 35.8558 24.9873 37.8378L26.4888 39.8998C27.0293 40.6608 27.2295 41.0407 27.2295 41.5417C27.2295 42.3017 26.689 43.0228 25.8081 43.0228ZM10.0527 28.5287C10.0527 34.1137 12.9155 37.4778 17.48 37.4778C18.481 37.4778 19.4419 37.2968 20.3228 36.9368L19.1616 35.3748C18.7212 34.7748 18.3809 34.2337 18.3809 33.6537C18.3809 32.7927 19.0415 32.1318 19.9023 32.1318C20.4429 32.1318 20.9834 32.4328 21.604 33.2928L22.9053 35.0947C24.1665 33.6137 24.9473 31.7117 24.9473 28.5287V24.4648C24.9473 18.7588 21.7241 15.2358 17.5 15.2358C12.9155 15.2358 10.0527 18.7588 10.0527 24.4648V28.5287Z" fill="black"/>
<path d="M16.2375 68C16.0275 68 15.8572 67.836 15.8572 67.635C15.8572 67.205 16.9342 64.383 17.1943 62.483C17.2256 62.255 16.9357 62.164 16.8047 62.35C16.177 63.24 15.5441 64.192 13.8225 64.215C10.615 64.257 8.76719 61.21 9.77613 58.437C10.2708 57.078 17.0754 48 18 48C18.9245 48 25.7292 57.078 26.2239 58.437C27.2328 61.21 25.385 64.257 22.1775 64.215C20.4559 64.192 19.823 63.24 19.1953 62.35C19.0643 62.164 18.7744 62.255 18.8057 62.483C19.0658 64.383 20.1428 67.205 20.1428 67.635C20.1428 67.836 19.9725 68 19.7625 68H16.2375Z" fill="black"/>
<path d="M177.192 244.977C177.973 244.977 178.513 245.337 179.194 246.258L180.735 248.38C182.117 247.76 183.698 247.419 185.5 247.419C192.407 247.419 196.431 252.004 196.431 259.511V263.535C196.431 271.163 192.227 275.907 185.5 275.907C178.874 275.907 174.549 271.163 174.549 263.535V259.511C174.549 255.227 175.811 252.144 178.013 250.162L176.511 248.1C175.971 247.339 175.771 246.959 175.771 246.458C175.771 245.698 176.311 244.977 177.192 244.977ZM192.947 259.471C192.947 253.886 190.084 250.522 185.52 250.522C184.519 250.522 183.558 250.703 182.677 251.063L183.838 252.625C184.279 253.225 184.619 253.766 184.619 254.346C184.619 255.207 183.958 255.868 183.098 255.868C182.557 255.868 182.017 255.567 181.396 254.707L180.095 252.905C178.833 254.386 178.053 256.288 178.053 259.471V263.535C178.053 269.241 181.276 272.764 185.5 272.764C190.084 272.764 192.947 269.241 192.947 263.535V259.471Z" fill="black"/>
<path d="M186.762 220C186.973 220 187.143 220.164 187.143 220.365C187.143 220.795 186.066 223.617 185.806 225.517C185.774 225.745 186.064 225.836 186.195 225.65C186.823 224.76 187.456 223.808 189.178 223.785C192.385 223.743 194.233 226.79 193.224 229.563C192.729 230.922 185.925 240 185 240C184.075 240 177.271 230.922 176.776 229.563C175.767 226.79 177.615 223.743 180.823 223.785C182.544 223.808 183.177 224.76 183.805 225.65C183.936 225.836 184.226 225.745 184.194 225.517C183.934 223.617 182.857 220.795 182.857 220.365C182.857 220.164 183.027 220 183.238 220H186.762Z" fill="black"/>
</g>
</svg>
