<svg width="203" height="288" viewBox="0 0 203 288" fill="none" xmlns="http://www.w3.org/2000/svg">
<mask id="mask0_1865_601" style="mask-type:luminance" maskUnits="userSpaceOnUse" x="0" y="0" width="203" height="288">
<path d="M193 0H10C4.47715 0 0 4.47715 0 10V278C0 283.523 4.47715 288 10 288H193C198.523 288 203 283.523 203 278V10C203 4.47715 198.523 0 193 0Z" fill="white"/>
</mask>
<g mask="url(#mask0_1865_601)">
<path d="M193 0H10C4.47715 0 0 4.47715 0 10V278C0 283.523 4.47715 288 10 288H193C198.523 288 203 283.523 203 278V10C203 4.47715 198.523 0 193 0Z" fill="white"/>
<path d="M8.19092 40.2601C7.18994 40.2601 6.5293 39.6801 6.5293 38.7591C6.5293 38.3581 6.62939 37.9781 6.78955 37.4981L15.0176 14.4951C15.5181 13.0941 16.2188 12.4531 17.5 12.4531C18.7812 12.4531 19.4819 13.0941 19.9824 14.4951L28.2104 37.4981C28.3706 37.9381 28.4707 38.3581 28.4707 38.7391C28.4707 39.6801 27.8101 40.2601 26.7891 40.2601C25.8281 40.2601 25.2876 39.8001 24.9072 38.6191L22.605 31.7921H12.375L10.0728 38.6191C9.69238 39.8201 9.15186 40.2601 8.19092 40.2601ZM13.3159 28.9691H21.6641L17.5601 16.7971H17.4199L13.3159 28.9691Z" fill="black"/>
<path d="M16.2375 68C16.0275 68 15.8572 67.836 15.8572 67.635C15.8572 67.205 16.9342 64.383 17.1943 62.483C17.2256 62.255 16.9357 62.164 16.8047 62.35C16.177 63.24 15.5441 64.192 13.8225 64.215C10.615 64.257 8.76719 61.21 9.77613 58.437C10.2708 57.078 17.0754 48 18 48C18.9245 48 25.7292 57.078 26.2239 58.437C27.2328 61.21 25.385 64.257 22.1775 64.215C20.4559 64.192 19.823 63.24 19.1953 62.35C19.0643 62.164 18.7744 62.255 18.8057 62.483C19.0658 64.383 20.1428 67.205 20.1428 67.635C20.1428 67.836 19.9725 68 19.7625 68H16.2375Z" fill="black"/>
<path d="M194.809 247.74C195.81 247.74 196.471 248.32 196.471 249.241C196.471 249.642 196.371 250.022 196.21 250.502L187.982 273.505C187.482 274.906 186.781 275.547 185.5 275.547C184.219 275.547 183.518 274.906 183.018 273.505L174.79 250.502C174.629 250.062 174.529 249.642 174.529 249.261C174.529 248.32 175.19 247.74 176.211 247.74C177.172 247.74 177.712 248.2 178.093 249.381L180.395 256.208H190.625L192.927 249.381C193.308 248.18 193.848 247.74 194.809 247.74ZM189.684 259.031H181.336L185.44 271.203H185.58L189.684 259.031Z" fill="black"/>
<path d="M186.762 220C186.973 220 187.143 220.164 187.143 220.365C187.143 220.795 186.066 223.617 185.806 225.517C185.774 225.745 186.064 225.836 186.195 225.65C186.823 224.76 187.456 223.808 189.178 223.785C192.385 223.743 194.233 226.79 193.224 229.563C192.729 230.922 185.925 240 185 240C184.075 240 177.271 230.922 176.776 229.563C175.767 226.79 177.615 223.743 180.823 223.785C182.544 223.808 183.177 224.76 183.805 225.65C183.936 225.836 184.226 225.745 184.194 225.517C183.934 223.617 182.857 220.795 182.857 220.365C182.857 220.164 183.027 220 183.238 220H186.762Z" fill="black"/>
<path d="M97.353 168C96.8588 168 96.4582 167.608 96.4582 167.123C96.4582 166.093 98.9923 159.318 99.6043 154.76C99.6779 154.211 98.9958 153.993 98.6876 154.439C97.2105 156.576 95.7215 158.861 91.6706 158.916C84.1234 159.017 79.7757 151.704 82.1497 145.05C83.3137 141.787 99.3245 120 101.5 120C103.675 120 119.686 141.787 120.85 145.05C123.224 151.704 118.877 159.017 111.329 158.916C107.279 158.861 105.789 156.576 104.312 154.439C104.004 153.993 103.322 154.211 103.396 154.76C104.008 159.318 106.542 166.093 106.542 167.123C106.542 167.608 106.141 168 105.647 168H97.353Z" fill="black"/>
</g>
</svg>
